<?xml version="1.0" encoding="utf-8" standalone="no"?>
<!DOCTYPE svg PUBLIC "-//W3C//DTD SVG 1.1//EN"
  "http://www.w3.org/Graphics/SVG/1.1/DTD/svg11.dtd">
<svg xmlns:xlink="http://www.w3.org/1999/xlink" width="684.08pt" height="667.98625pt" viewBox="0 0 684.08 667.98625" xmlns="http://www.w3.org/2000/svg" version="1.1">
 <metadata>
  <rdf:RDF xmlns:dc="http://purl.org/dc/elements/1.1/" xmlns:cc="http://creativecommons.org/ns#" xmlns:rdf="http://www.w3.org/1999/02/22-rdf-syntax-ns#">
   <cc:Work>
    <dc:type rdf:resource="http://purl.org/dc/dcmitype/StillImage"/>
    <dc:date>2025-04-23T09:24:11.567639</dc:date>
    <dc:format>image/svg+xml</dc:format>
    <dc:creator>
     <cc:Agent>
      <dc:title>Matplotlib v3.9.2, https://matplotlib.org/</dc:title>
     </cc:Agent>
    </dc:creator>
   </cc:Work>
  </rdf:RDF>
 </metadata>
 <defs>
  <style type="text/css">*{stroke-linejoin: round; stroke-linecap: butt}</style>
 </defs>
 <g id="figure_1">
  <g id="patch_1">
   <path d="M 0 667.98625 
L 684.08 667.98625 
L 684.08 0 
L 0 0 
L 0 667.98625 
z
" style="fill: none"/>
  </g>
  <g id="axes_1">
   <g id="patch_2">
    <path d="M 651.5175 333.993125 
C 651.5175 294.188428 643.676843 254.770781 628.444244 217.996036 
C 613.211646 181.221291 590.883343 147.804624 562.737172 119.658453 
C 534.591001 91.512282 501.174334 69.183979 464.399589 53.951381 
C 427.624844 38.718782 388.207197 30.878125 348.4025 30.878125 
C 308.597803 30.878125 269.180156 38.718782 232.405411 53.951381 
C 195.630666 69.183979 162.213999 91.512282 134.067828 119.658453 
C 105.921657 147.804624 83.593354 181.221291 68.360756 217.996036 
C 53.128157 254.770781 45.2875 294.188428 45.2875 333.993125 
C 45.2875 373.797822 53.128157 413.215469 68.360756 449.990214 
C 83.593354 486.764959 105.921657 520.181626 134.067828 548.327797 
C 162.213999 576.473968 195.630666 598.802271 232.405411 614.034869 
C 269.180156 629.267468 308.597803 637.108125 348.4025 637.108125 
C 388.207197 637.108125 427.624844 629.267468 464.399589 614.034869 
C 501.174334 598.802271 534.591001 576.473968 562.737172 548.327797 
C 590.883343 520.181626 613.211646 486.764959 628.444244 449.990214 
C 643.676843 413.215469 651.5175 373.797822 651.5175 333.993125 
M 348.4025 333.993125 
C 348.4025 333.993125 348.4025 333.993125 348.4025 333.993125 
C 348.4025 333.993125 348.4025 333.993125 348.4025 333.993125 
C 348.4025 333.993125 348.4025 333.993125 348.4025 333.993125 
C 348.4025 333.993125 348.4025 333.993125 348.4025 333.993125 
C 348.4025 333.993125 348.4025 333.993125 348.4025 333.993125 
C 348.4025 333.993125 348.4025 333.993125 348.4025 333.993125 
C 348.4025 333.993125 348.4025 333.993125 348.4025 333.993125 
C 348.4025 333.993125 348.4025 333.993125 348.4025 333.993125 
C 348.4025 333.993125 348.4025 333.993125 348.4025 333.993125 
C 348.4025 333.993125 348.4025 333.993125 348.4025 333.993125 
C 348.4025 333.993125 348.4025 333.993125 348.4025 333.993125 
C 348.4025 333.993125 348.4025 333.993125 348.4025 333.993125 
C 348.4025 333.993125 348.4025 333.993125 348.4025 333.993125 
C 348.4025 333.993125 348.4025 333.993125 348.4025 333.993125 
C 348.4025 333.993125 348.4025 333.993125 348.4025 333.993125 
C 348.4025 333.993125 348.4025 333.993125 348.4025 333.993125 
L 348.4025 333.993125 
z
" style="fill: none"/>
   </g>
   <g id="patch_3">
    <path d="M 348.4025 333.993125 
C 348.4025 333.993125 348.4025 333.993125 348.4025 333.993125 
C 348.4025 333.993125 348.4025 333.993125 348.4025 333.993125 
L 455.658773 329.310215 
C 455.726886 330.870256 455.760955 332.431598 455.760955 333.993125 
C 455.760955 335.554652 455.726886 337.115994 455.658773 338.676035 
z
" clip-path="url(#pf7184637f2)" style="fill: #008080; opacity: 0.8; stroke: #000000; stroke-width: 0.8; stroke-linejoin: miter"/>
   </g>
   <g id="patch_4">
    <path d="M 348.4025 333.993125 
C 348.4025 333.993125 348.4025 333.993125 348.4025 333.993125 
C 348.4025 333.993125 348.4025 333.993125 348.4025 333.993125 
L 459.047687 319.42641 
C 459.25956 321.035743 459.436296 322.649506 459.577769 324.266549 
C 459.719242 325.883592 459.825418 327.503529 459.896222 329.125204 
z
" clip-path="url(#pf7184637f2)" style="fill: #008080; opacity: 0.8; stroke: #000000; stroke-width: 0.8; stroke-linejoin: miter"/>
   </g>
   <g id="patch_5">
    <path d="M 348.4025 333.993125 
C 348.4025 333.993125 348.4025 333.993125 348.4025 333.993125 
C 348.4025 333.993125 348.4025 333.993125 348.4025 333.993125 
L 440.871161 313.493316 
C 441.169331 314.838272 441.438121 316.189573 441.677341 317.546254 
C 441.91656 318.902935 442.126152 320.264674 442.305966 321.630499 
z
" clip-path="url(#pf7184637f2)" style="fill: #008080; opacity: 0.8; stroke: #000000; stroke-width: 0.8; stroke-linejoin: miter"/>
   </g>
   <g id="patch_6">
    <path d="M 348.4025 333.993125 
C 348.4025 333.993125 348.4025 333.993125 348.4025 333.993125 
C 348.4025 333.993125 348.4025 333.993125 348.4025 333.993125 
L 397.503132 318.511755 
C 397.728308 319.225923 397.937877 319.944919 398.131687 320.66823 
C 398.325497 321.39154 398.503504 322.118993 398.66558 322.850069 
z
" clip-path="url(#pf7184637f2)" style="fill: #008080; opacity: 0.8; stroke: #000000; stroke-width: 0.8; stroke-linejoin: miter"/>
   </g>
   <g id="patch_7">
    <path d="M 348.4025 333.993125 
C 348.4025 333.993125 348.4025 333.993125 348.4025 333.993125 
C 348.4025 333.993125 348.4025 333.993125 348.4025 333.993125 
L 382.097276 320.036292 
C 382.300278 320.526382 382.492564 321.020842 382.673995 321.519321 
C 382.855426 322.017799 383.025961 322.520177 383.185476 323.026095 
z
" clip-path="url(#pf7184637f2)" style="fill: #008080; opacity: 0.8; stroke: #000000; stroke-width: 0.8; stroke-linejoin: miter"/>
   </g>
   <g id="patch_8">
    <path d="M 348.4025 333.993125 
C 348.4025 333.993125 348.4025 333.993125 348.4025 333.993125 
C 348.4025 333.993125 348.4025 333.993125 348.4025 333.993125 
L 378.330875 318.413399 
C 378.557482 318.848707 378.774565 319.288907 378.981968 319.733685 
C 379.189371 320.178463 379.387046 320.627713 379.574851 321.081114 
z
" clip-path="url(#pf7184637f2)" style="fill: #008080; opacity: 0.8; stroke: #000000; stroke-width: 0.8; stroke-linejoin: miter"/>
   </g>
   <g id="patch_9">
    <path d="M 348.4025 333.993125 
C 348.4025 333.993125 348.4025 333.993125 348.4025 333.993125 
C 348.4025 333.993125 348.4025 333.993125 348.4025 333.993125 
L 388.792117 308.262101 
C 389.166374 308.849568 389.52777 309.44513 389.876046 310.048362 
C 390.224323 310.651594 390.559396 311.262353 390.881029 311.880203 
z
" clip-path="url(#pf7184637f2)" style="fill: #008080; opacity: 0.8; stroke: #000000; stroke-width: 0.8; stroke-linejoin: miter"/>
   </g>
   <g id="patch_10">
    <path d="M 348.4025 333.993125 
C 348.4025 333.993125 348.4025 333.993125 348.4025 333.993125 
C 348.4025 333.993125 348.4025 333.993125 348.4025 333.993125 
L 396.772704 296.877362 
C 397.312553 297.580906 397.836987 298.296144 398.345634 299.022566 
C 398.85428 299.748989 399.347017 300.486422 399.823493 301.23434 
z
" clip-path="url(#pf7184637f2)" style="fill: #008080; opacity: 0.8; stroke: #000000; stroke-width: 0.8; stroke-linejoin: miter"/>
   </g>
   <g id="patch_11">
    <path d="M 348.4025 333.993125 
C 348.4025 333.993125 348.4025 333.993125 348.4025 333.993125 
C 348.4025 333.993125 348.4025 333.993125 348.4025 333.993125 
L 393.540773 292.631519 
C 394.142377 293.288054 394.729585 293.957637 395.301979 294.63979 
C 395.874373 295.321942 396.431816 296.016501 396.973909 296.722972 
z
" clip-path="url(#pf7184637f2)" style="fill: #008080; opacity: 0.8; stroke: #000000; stroke-width: 0.8; stroke-linejoin: miter"/>
   </g>
   <g id="patch_12">
    <path d="M 348.4025 333.993125 
C 348.4025 333.993125 348.4025 333.993125 348.4025 333.993125 
C 348.4025 333.993125 348.4025 333.993125 348.4025 333.993125 
L 385.640243 293.355259 
C 386.231321 293.896881 386.810511 294.451335 387.3774 295.018225 
C 387.94429 295.585114 388.498744 296.164304 389.040366 296.755382 
z
" clip-path="url(#pf7184637f2)" style="fill: #008080; opacity: 0.8; stroke: #000000; stroke-width: 0.8; stroke-linejoin: miter"/>
   </g>
   <g id="patch_13">
    <path d="M 348.4025 333.993125 
C 348.4025 333.993125 348.4025 333.993125 348.4025 333.993125 
C 348.4025 333.993125 348.4025 333.993125 348.4025 333.993125 
L 378.601178 294.637441 
C 379.173606 295.076681 379.736383 295.528357 380.289106 295.992147 
C 380.84183 296.455937 381.384369 296.931732 381.916337 297.41919 
z
" clip-path="url(#pf7184637f2)" style="fill: #008080; opacity: 0.8; stroke: #000000; stroke-width: 0.8; stroke-linejoin: miter"/>
   </g>
   <g id="patch_14">
    <path d="M 348.4025 333.993125 
C 348.4025 333.993125 348.4025 333.993125 348.4025 333.993125 
C 348.4025 333.993125 348.4025 333.993125 348.4025 333.993125 
L 362.396842 312.026408 
C 362.716348 312.229955 363.031375 312.440449 363.341698 312.65774 
C 363.65202 312.87503 363.957566 313.099065 364.258115 313.329685 
z
" clip-path="url(#pf7184637f2)" style="fill: #008080; opacity: 0.8; stroke: #000000; stroke-width: 0.8; stroke-linejoin: miter"/>
   </g>
   <g id="patch_15">
    <path d="M 348.4025 333.993125 
C 348.4025 333.993125 348.4025 333.993125 348.4025 333.993125 
C 348.4025 333.993125 348.4025 333.993125 348.4025 333.993125 
L 348.4025 333.993125 
C 348.4025 333.993125 348.4025 333.993125 348.4025 333.993125 
C 348.4025 333.993125 348.4025 333.993125 348.4025 333.993125 
z
" clip-path="url(#pf7184637f2)" style="fill: #008080; opacity: 0.8; stroke: #000000; stroke-width: 0.8; stroke-linejoin: miter"/>
   </g>
   <g id="patch_16">
    <path d="M 348.4025 333.993125 
C 348.4025 333.993125 348.4025 333.993125 348.4025 333.993125 
C 348.4025 333.993125 348.4025 333.993125 348.4025 333.993125 
L 352.034676 325.224277 
C 352.162219 325.277107 352.288594 325.332713 352.413711 325.391056 
C 352.538828 325.449399 352.662657 325.510465 352.78511 325.57421 
z
" clip-path="url(#pf7184637f2)" style="fill: #008080; opacity: 0.8; stroke: #000000; stroke-width: 0.8; stroke-linejoin: miter"/>
   </g>
   <g id="patch_17">
    <path d="M 348.4025 333.993125 
C 348.4025 333.993125 348.4025 333.993125 348.4025 333.993125 
C 348.4025 333.993125 348.4025 333.993125 348.4025 333.993125 
L 353.986894 316.281689 
C 354.244507 316.362914 354.500317 316.44975 354.754141 316.542134 
C 355.007966 316.634519 355.259744 316.73243 355.509297 316.835799 
z
" clip-path="url(#pf7184637f2)" style="fill: #008080; opacity: 0.8; stroke: #000000; stroke-width: 0.8; stroke-linejoin: miter"/>
   </g>
   <g id="patch_18">
    <path d="M 348.4025 333.993125 
C 348.4025 333.993125 348.4025 333.993125 348.4025 333.993125 
C 348.4025 333.993125 348.4025 333.993125 348.4025 333.993125 
L 356.096104 299.289519 
C 356.600868 299.401422 357.10313 299.524325 357.602532 299.658139 
C 358.101934 299.791953 358.598357 299.936648 359.091446 300.092118 
z
" clip-path="url(#pf7184637f2)" style="fill: #008080; opacity: 0.8; stroke: #000000; stroke-width: 0.8; stroke-linejoin: miter"/>
   </g>
   <g id="patch_19">
    <path d="M 348.4025 333.993125 
C 348.4025 333.993125 348.4025 333.993125 348.4025 333.993125 
C 348.4025 333.993125 348.4025 333.993125 348.4025 333.993125 
L 355.734565 278.300563 
C 356.544613 278.407207 357.352237 278.531513 358.156862 278.67339 
C 358.961487 278.815267 359.76292 278.974682 360.560591 279.151521 
z
" clip-path="url(#pf7184637f2)" style="fill: #008080; opacity: 0.8; stroke: #000000; stroke-width: 0.8; stroke-linejoin: miter"/>
   </g>
   <g id="patch_20">
    <path d="M 348.4025 333.993125 
C 348.4025 333.993125 348.4025 333.993125 348.4025 333.993125 
C 348.4025 333.993125 348.4025 333.993125 348.4025 333.993125 
L 352.159052 247.953928 
C 353.410491 248.008567 354.660589 248.090503 355.908454 248.199677 
C 357.156319 248.308851 358.401653 248.445237 359.643568 248.608739 
z
" clip-path="url(#pf7184637f2)" style="fill: #008080; opacity: 0.8; stroke: #000000; stroke-width: 0.8; stroke-linejoin: miter"/>
   </g>
   <g id="patch_21">
    <path d="M 348.4025 333.993125 
C 348.4025 333.993125 348.4025 333.993125 348.4025 333.993125 
C 348.4025 333.993125 348.4025 333.993125 348.4025 333.993125 
L 343.428605 220.072198 
C 345.085583 219.999852 346.743943 219.963667 348.4025 219.963667 
C 350.061057 219.963667 351.719417 219.999852 353.376395 220.072198 
z
" clip-path="url(#pf7184637f2)" style="fill: #008080; opacity: 0.8; stroke: #000000; stroke-width: 0.8; stroke-linejoin: miter"/>
   </g>
   <g id="patch_22">
    <path d="M 348.4025 333.993125 
C 348.4025 333.993125 348.4025 333.993125 348.4025 333.993125 
C 348.4025 333.993125 348.4025 333.993125 348.4025 333.993125 
L 331.424889 205.035363 
C 333.300578 204.788424 335.181431 204.582437 337.066106 204.417549 
C 338.950781 204.252661 340.838829 204.128912 342.728903 204.04639 
z
" clip-path="url(#pf7184637f2)" style="fill: #008080; opacity: 0.8; stroke: #000000; stroke-width: 0.8; stroke-linejoin: miter"/>
   </g>
   <g id="patch_23">
    <path d="M 348.4025 333.993125 
C 348.4025 333.993125 348.4025 333.993125 348.4025 333.993125 
C 348.4025 333.993125 348.4025 333.993125 348.4025 333.993125 
L 318.149657 197.531367 
C 320.134491 197.09134 322.12869 196.694669 324.130829 196.341638 
C 326.132968 195.988607 328.142571 195.679299 330.158204 195.413936 
z
" clip-path="url(#pf7184637f2)" style="fill: #008080; opacity: 0.8; stroke: #000000; stroke-width: 0.8; stroke-linejoin: miter"/>
   </g>
   <g id="patch_24">
    <path d="M 348.4025 333.993125 
C 348.4025 333.993125 348.4025 333.993125 348.4025 333.993125 
C 348.4025 333.993125 348.4025 333.993125 348.4025 333.993125 
L 306.627351 201.49928 
C 308.554472 200.891661 310.494621 200.326159 312.446412 199.803178 
C 314.398203 199.280198 316.361172 198.799862 318.333918 198.362515 
z
" clip-path="url(#pf7184637f2)" style="fill: #008080; opacity: 0.8; stroke: #000000; stroke-width: 0.8; stroke-linejoin: miter"/>
   </g>
   <g id="patch_25">
    <path d="M 348.4025 333.993125 
C 348.4025 333.993125 348.4025 333.993125 348.4025 333.993125 
C 348.4025 333.993125 348.4025 333.993125 348.4025 333.993125 
L 301.761828 221.392583 
C 303.399602 220.714195 305.051981 220.071619 306.717786 219.465316 
C 308.383592 218.859012 310.062427 218.289124 311.753094 217.756059 
z
" clip-path="url(#pf7184637f2)" style="fill: #008080; opacity: 0.8; stroke: #000000; stroke-width: 0.8; stroke-linejoin: miter"/>
   </g>
   <g id="patch_26">
    <path d="M 348.4025 333.993125 
C 348.4025 333.993125 348.4025 333.993125 348.4025 333.993125 
C 348.4025 333.993125 348.4025 333.993125 348.4025 333.993125 
L 312.246815 264.538701 
C 313.257029 264.012817 314.278596 263.509036 315.310787 263.027717 
C 316.342978 262.546399 317.385547 262.087657 318.437751 261.65182 
z
" clip-path="url(#pf7184637f2)" style="fill: #008080; opacity: 0.8; stroke: #000000; stroke-width: 0.8; stroke-linejoin: miter"/>
   </g>
   <g id="patch_27">
    <path d="M 348.4025 333.993125 
C 348.4025 333.993125 348.4025 333.993125 348.4025 333.993125 
C 348.4025 333.993125 348.4025 333.993125 348.4025 333.993125 
L 328.247696 302.35642 
C 328.707852 302.063269 329.174348 301.780192 329.646853 301.507391 
C 330.119357 301.234591 330.597758 300.972131 331.081712 300.720201 
z
" clip-path="url(#pf7184637f2)" style="fill: #008080; opacity: 0.8; stroke: #000000; stroke-width: 0.8; stroke-linejoin: miter"/>
   </g>
   <g id="patch_28">
    <path d="M 348.4025 333.993125 
C 348.4025 333.993125 348.4025 333.993125 348.4025 333.993125 
C 348.4025 333.993125 348.4025 333.993125 348.4025 333.993125 
L 336.257051 318.164868 
C 336.487273 317.988213 336.721322 317.816601 336.95903 317.650156 
C 337.196738 317.483711 337.43805 317.322472 337.682792 317.166554 
z
" clip-path="url(#pf7184637f2)" style="fill: #008080; opacity: 0.8; stroke: #000000; stroke-width: 0.8; stroke-linejoin: miter"/>
   </g>
   <g id="patch_29">
    <path d="M 348.4025 333.993125 
C 348.4025 333.993125 348.4025 333.993125 348.4025 333.993125 
C 348.4025 333.993125 348.4025 333.993125 348.4025 333.993125 
L 315.125271 297.677402 
C 315.653483 297.193385 316.192192 296.72095 316.741013 296.260434 
C 317.289835 295.799919 317.848638 295.351431 318.417025 294.915293 
z
" clip-path="url(#pf7184637f2)" style="fill: #008080; opacity: 0.8; stroke: #000000; stroke-width: 0.8; stroke-linejoin: miter"/>
   </g>
   <g id="patch_30">
    <path d="M 348.4025 333.993125 
C 348.4025 333.993125 348.4025 333.993125 348.4025 333.993125 
C 348.4025 333.993125 348.4025 333.993125 348.4025 333.993125 
L 280.979994 272.211781 
C 281.878603 271.231122 282.798501 270.270184 283.73903 269.329655 
C 284.679559 268.389126 285.640497 267.469228 286.621156 266.570619 
z
" clip-path="url(#pf7184637f2)" style="fill: #008080; opacity: 0.8; stroke: #000000; stroke-width: 0.8; stroke-linejoin: miter"/>
   </g>
   <g id="patch_31">
    <path d="M 348.4025 333.993125 
C 348.4025 333.993125 348.4025 333.993125 348.4025 333.993125 
C 348.4025 333.993125 348.4025 333.993125 348.4025 333.993125 
L 221.3017 236.465251 
C 222.720242 234.616571 224.178948 232.799061 225.676778 231.014017 
C 227.174608 229.228973 228.711204 227.47682 230.285471 225.758809 
z
" clip-path="url(#pf7184637f2)" style="fill: #008080; opacity: 0.8; stroke: #000000; stroke-width: 0.8; stroke-linejoin: miter"/>
   </g>
   <g id="patch_32">
    <path d="M 348.4025 333.993125 
C 348.4025 333.993125 348.4025 333.993125 348.4025 333.993125 
C 348.4025 333.993125 348.4025 333.993125 348.4025 333.993125 
L 158.578325 213.061789 
C 160.33727 210.300798 162.156243 207.578512 164.033947 204.896874 
C 165.91165 202.215236 167.847636 199.574884 169.840524 196.977702 
z
" clip-path="url(#pf7184637f2)" style="fill: #008080; opacity: 0.8; stroke: #000000; stroke-width: 0.8; stroke-linejoin: miter"/>
   </g>
   <g id="patch_33">
    <path d="M 348.4025 333.993125 
C 348.4025 333.993125 348.4025 333.993125 348.4025 333.993125 
C 348.4025 333.993125 348.4025 333.993125 348.4025 333.993125 
L 109.903134 209.838213 
C 111.708966 206.369243 113.590266 202.940084 115.545694 199.553185 
C 117.501121 196.166286 119.530209 192.822452 121.63151 189.524071 
z
" clip-path="url(#pf7184637f2)" style="fill: #008080; opacity: 0.8; stroke: #000000; stroke-width: 0.8; stroke-linejoin: miter"/>
   </g>
   <g id="patch_34">
    <path d="M 348.4025 333.993125 
C 348.4025 333.993125 348.4025 333.993125 348.4025 333.993125 
C 348.4025 333.993125 348.4025 333.993125 348.4025 333.993125 
L 93.819096 228.541226 
C 95.352892 224.838314 96.967295 221.169306 98.66115 217.536821 
C 100.355006 213.904336 102.127911 210.309239 103.978601 206.754097 
z
" clip-path="url(#pf7184637f2)" style="fill: #008080; opacity: 0.8; stroke: #000000; stroke-width: 0.8; stroke-linejoin: miter"/>
   </g>
   <g id="patch_35">
    <path d="M 348.4025 333.993125 
C 348.4025 333.993125 348.4025 333.993125 348.4025 333.993125 
C 348.4025 333.993125 348.4025 333.993125 348.4025 333.993125 
L 104.312542 257.031857 
C 105.431943 253.481572 106.628669 249.956131 107.901865 246.458053 
C 109.175062 242.959974 110.524426 239.49009 111.948995 236.050876 
z
" clip-path="url(#pf7184637f2)" style="fill: #008080; opacity: 0.8; stroke: #000000; stroke-width: 0.8; stroke-linejoin: miter"/>
   </g>
   <g id="patch_36">
    <path d="M 348.4025 333.993125 
C 348.4025 333.993125 348.4025 333.993125 348.4025 333.993125 
C 348.4025 333.993125 348.4025 333.993125 348.4025 333.993125 
L 136.549573 287.026462 
C 137.232702 283.945064 137.982979 280.878936 138.799867 277.830269 
C 139.616755 274.781601 140.50006 271.751119 141.449152 268.740985 
z
" clip-path="url(#pf7184637f2)" style="fill: #008080; opacity: 0.8; stroke: #000000; stroke-width: 0.8; stroke-linejoin: miter"/>
   </g>
   <g id="patch_37">
    <path d="M 348.4025 333.993125 
C 348.4025 333.993125 348.4025 333.993125 348.4025 333.993125 
C 348.4025 333.993125 348.4025 333.993125 348.4025 333.993125 
L 178.093714 311.571548 
C 178.419835 309.094409 178.799963 306.62468 179.233826 304.164123 
C 179.667688 301.703567 180.155182 299.25277 180.695959 296.81348 
z
" clip-path="url(#pf7184637f2)" style="fill: #008080; opacity: 0.8; stroke: #000000; stroke-width: 0.8; stroke-linejoin: miter"/>
   </g>
   <g id="patch_38">
    <path d="M 348.4025 333.993125 
C 348.4025 333.993125 348.4025 333.993125 348.4025 333.993125 
C 348.4025 333.993125 348.4025 333.993125 348.4025 333.993125 
L 216.463903 328.232561 
C 216.547691 326.313516 216.673337 324.396527 216.840752 322.482963 
C 217.008167 320.5694 217.217312 318.659716 217.468036 316.755276 
z
" clip-path="url(#pf7184637f2)" style="fill: #008080; opacity: 0.8; stroke: #000000; stroke-width: 0.8; stroke-linejoin: miter"/>
   </g>
   <g id="patch_39">
    <path d="M 348.4025 333.993125 
C 348.4025 333.993125 348.4025 333.993125 348.4025 333.993125 
C 348.4025 333.993125 348.4025 333.993125 348.4025 333.993125 
L 241.146227 338.676035 
C 241.078114 337.115994 241.044045 335.554652 241.044045 333.993125 
C 241.044045 332.431598 241.078114 330.870256 241.146227 329.310215 
z
" clip-path="url(#pf7184637f2)" style="fill: #008080; opacity: 0.8; stroke: #000000; stroke-width: 0.8; stroke-linejoin: miter"/>
   </g>
   <g id="patch_40">
    <path d="M 348.4025 333.993125 
C 348.4025 333.993125 348.4025 333.993125 348.4025 333.993125 
C 348.4025 333.993125 348.4025 333.993125 348.4025 333.993125 
L 237.757313 348.55984 
C 237.54544 346.950507 237.368704 345.336744 237.227231 343.719701 
C 237.085758 342.102658 236.979582 340.482721 236.908778 338.861046 
z
" clip-path="url(#pf7184637f2)" style="fill: #008080; opacity: 0.8; stroke: #000000; stroke-width: 0.8; stroke-linejoin: miter"/>
   </g>
   <g id="patch_41">
    <path d="M 348.4025 333.993125 
C 348.4025 333.993125 348.4025 333.993125 348.4025 333.993125 
C 348.4025 333.993125 348.4025 333.993125 348.4025 333.993125 
L 255.933839 354.492934 
C 255.635669 353.147978 255.366879 351.796677 255.127659 350.439996 
C 254.88844 349.083315 254.678848 347.721576 254.499034 346.355751 
z
" clip-path="url(#pf7184637f2)" style="fill: #008080; opacity: 0.8; stroke: #000000; stroke-width: 0.8; stroke-linejoin: miter"/>
   </g>
   <g id="patch_42">
    <path d="M 348.4025 333.993125 
C 348.4025 333.993125 348.4025 333.993125 348.4025 333.993125 
C 348.4025 333.993125 348.4025 333.993125 348.4025 333.993125 
L 299.301868 349.474495 
C 299.076692 348.760327 298.867123 348.041331 298.673313 347.31802 
C 298.479503 346.59471 298.301496 345.867257 298.13942 345.136181 
z
" clip-path="url(#pf7184637f2)" style="fill: #008080; opacity: 0.8; stroke: #000000; stroke-width: 0.8; stroke-linejoin: miter"/>
   </g>
   <g id="patch_43">
    <path d="M 348.4025 333.993125 
C 348.4025 333.993125 348.4025 333.993125 348.4025 333.993125 
C 348.4025 333.993125 348.4025 333.993125 348.4025 333.993125 
L 314.707724 347.949958 
C 314.504722 347.459868 314.312436 346.965408 314.131005 346.466929 
C 313.949574 345.968451 313.779039 345.466073 313.619524 344.960155 
z
" clip-path="url(#pf7184637f2)" style="fill: #008080; opacity: 0.8; stroke: #000000; stroke-width: 0.8; stroke-linejoin: miter"/>
   </g>
   <g id="patch_44">
    <path d="M 348.4025 333.993125 
C 348.4025 333.993125 348.4025 333.993125 348.4025 333.993125 
C 348.4025 333.993125 348.4025 333.993125 348.4025 333.993125 
L 318.474125 349.572851 
C 318.247518 349.137543 318.030435 348.697343 317.823032 348.252565 
C 317.615629 347.807787 317.417954 347.358537 317.230149 346.905136 
z
" clip-path="url(#pf7184637f2)" style="fill: #008080; opacity: 0.8; stroke: #000000; stroke-width: 0.8; stroke-linejoin: miter"/>
   </g>
   <g id="patch_45">
    <path d="M 348.4025 333.993125 
C 348.4025 333.993125 348.4025 333.993125 348.4025 333.993125 
C 348.4025 333.993125 348.4025 333.993125 348.4025 333.993125 
L 308.012883 359.724149 
C 307.638626 359.136682 307.27723 358.54112 306.928954 357.937888 
C 306.580677 357.334656 306.245604 356.723897 305.923971 356.106047 
z
" clip-path="url(#pf7184637f2)" style="fill: #008080; opacity: 0.8; stroke: #000000; stroke-width: 0.8; stroke-linejoin: miter"/>
   </g>
   <g id="patch_46">
    <path d="M 348.4025 333.993125 
C 348.4025 333.993125 348.4025 333.993125 348.4025 333.993125 
C 348.4025 333.993125 348.4025 333.993125 348.4025 333.993125 
L 300.032296 371.108888 
C 299.492447 370.405344 298.968013 369.690106 298.459366 368.963684 
C 297.95072 368.237261 297.457983 367.499828 296.981507 366.75191 
z
" clip-path="url(#pf7184637f2)" style="fill: #008080; opacity: 0.8; stroke: #000000; stroke-width: 0.8; stroke-linejoin: miter"/>
   </g>
   <g id="patch_47">
    <path d="M 348.4025 333.993125 
C 348.4025 333.993125 348.4025 333.993125 348.4025 333.993125 
C 348.4025 333.993125 348.4025 333.993125 348.4025 333.993125 
L 303.264227 375.354731 
C 302.662623 374.698196 302.075415 374.028613 301.503021 373.34646 
C 300.930627 372.664308 300.373184 371.969749 299.831091 371.263278 
z
" clip-path="url(#pf7184637f2)" style="fill: #008080; opacity: 0.8; stroke: #000000; stroke-width: 0.8; stroke-linejoin: miter"/>
   </g>
   <g id="patch_48">
    <path d="M 348.4025 333.993125 
C 348.4025 333.993125 348.4025 333.993125 348.4025 333.993125 
C 348.4025 333.993125 348.4025 333.993125 348.4025 333.993125 
L 311.164757 374.630991 
C 310.573679 374.089369 309.994489 373.534915 309.4276 372.968025 
C 308.86071 372.401136 308.306256 371.821946 307.764634 371.230868 
z
" clip-path="url(#pf7184637f2)" style="fill: #008080; opacity: 0.8; stroke: #000000; stroke-width: 0.8; stroke-linejoin: miter"/>
   </g>
   <g id="patch_49">
    <path d="M 348.4025 333.993125 
C 348.4025 333.993125 348.4025 333.993125 348.4025 333.993125 
C 348.4025 333.993125 348.4025 333.993125 348.4025 333.993125 
L 318.203822 373.348809 
C 317.631394 372.909569 317.068617 372.457893 316.515894 371.994103 
C 315.96317 371.530313 315.420631 371.054518 314.888663 370.56706 
z
" clip-path="url(#pf7184637f2)" style="fill: #008080; opacity: 0.8; stroke: #000000; stroke-width: 0.8; stroke-linejoin: miter"/>
   </g>
   <g id="patch_50">
    <path d="M 348.4025 333.993125 
C 348.4025 333.993125 348.4025 333.993125 348.4025 333.993125 
C 348.4025 333.993125 348.4025 333.993125 348.4025 333.993125 
L 334.408158 355.959842 
C 334.088652 355.756295 333.773625 355.545801 333.463302 355.32851 
C 333.15298 355.11122 332.847434 354.887185 332.546885 354.656565 
z
" clip-path="url(#pf7184637f2)" style="fill: #008080; opacity: 0.8; stroke: #000000; stroke-width: 0.8; stroke-linejoin: miter"/>
   </g>
   <g id="patch_51">
    <path d="M 348.4025 333.993125 
C 348.4025 333.993125 348.4025 333.993125 348.4025 333.993125 
C 348.4025 333.993125 348.4025 333.993125 348.4025 333.993125 
L 348.4025 333.993125 
C 348.4025 333.993125 348.4025 333.993125 348.4025 333.993125 
C 348.4025 333.993125 348.4025 333.993125 348.4025 333.993125 
z
" clip-path="url(#pf7184637f2)" style="fill: #008080; opacity: 0.8; stroke: #000000; stroke-width: 0.8; stroke-linejoin: miter"/>
   </g>
   <g id="patch_52">
    <path d="M 348.4025 333.993125 
C 348.4025 333.993125 348.4025 333.993125 348.4025 333.993125 
C 348.4025 333.993125 348.4025 333.993125 348.4025 333.993125 
L 344.770324 342.761973 
C 344.642781 342.709143 344.516406 342.653537 344.391289 342.595194 
C 344.266172 342.536851 344.142343 342.475785 344.01989 342.41204 
z
" clip-path="url(#pf7184637f2)" style="fill: #008080; opacity: 0.8; stroke: #000000; stroke-width: 0.8; stroke-linejoin: miter"/>
   </g>
   <g id="patch_53">
    <path d="M 348.4025 333.993125 
C 348.4025 333.993125 348.4025 333.993125 348.4025 333.993125 
C 348.4025 333.993125 348.4025 333.993125 348.4025 333.993125 
L 342.818106 351.704561 
C 342.560493 351.623336 342.304683 351.5365 342.050859 351.444116 
C 341.797034 351.351731 341.545256 351.25382 341.295703 351.150451 
z
" clip-path="url(#pf7184637f2)" style="fill: #008080; opacity: 0.8; stroke: #000000; stroke-width: 0.8; stroke-linejoin: miter"/>
   </g>
   <g id="patch_54">
    <path d="M 348.4025 333.993125 
C 348.4025 333.993125 348.4025 333.993125 348.4025 333.993125 
C 348.4025 333.993125 348.4025 333.993125 348.4025 333.993125 
L 340.708896 368.696731 
C 340.204132 368.584828 339.70187 368.461925 339.202468 368.328111 
C 338.703066 368.194297 338.206643 368.049602 337.713554 367.894132 
z
" clip-path="url(#pf7184637f2)" style="fill: #008080; opacity: 0.8; stroke: #000000; stroke-width: 0.8; stroke-linejoin: miter"/>
   </g>
   <g id="patch_55">
    <path d="M 348.4025 333.993125 
C 348.4025 333.993125 348.4025 333.993125 348.4025 333.993125 
C 348.4025 333.993125 348.4025 333.993125 348.4025 333.993125 
L 341.070435 389.685687 
C 340.260387 389.579043 339.452763 389.454737 338.648138 389.31286 
C 337.843513 389.170983 337.04208 389.011568 336.244409 388.834729 
z
" clip-path="url(#pf7184637f2)" style="fill: #008080; opacity: 0.8; stroke: #000000; stroke-width: 0.8; stroke-linejoin: miter"/>
   </g>
   <g id="patch_56">
    <path d="M 348.4025 333.993125 
C 348.4025 333.993125 348.4025 333.993125 348.4025 333.993125 
C 348.4025 333.993125 348.4025 333.993125 348.4025 333.993125 
L 344.645948 420.032322 
C 343.394509 419.977683 342.144411 419.895747 340.896546 419.786573 
C 339.648681 419.677399 338.403347 419.541013 337.161432 419.377511 
z
" clip-path="url(#pf7184637f2)" style="fill: #008080; opacity: 0.8; stroke: #000000; stroke-width: 0.8; stroke-linejoin: miter"/>
   </g>
   <g id="patch_57">
    <path d="M 348.4025 333.993125 
C 348.4025 333.993125 348.4025 333.993125 348.4025 333.993125 
C 348.4025 333.993125 348.4025 333.993125 348.4025 333.993125 
L 353.376395 447.914052 
C 351.719417 447.986398 350.061057 448.022583 348.4025 448.022583 
C 346.743943 448.022583 345.085583 447.986398 343.428605 447.914052 
z
" clip-path="url(#pf7184637f2)" style="fill: #008080; opacity: 0.8; stroke: #000000; stroke-width: 0.8; stroke-linejoin: miter"/>
   </g>
   <g id="patch_58">
    <path d="M 348.4025 333.993125 
C 348.4025 333.993125 348.4025 333.993125 348.4025 333.993125 
C 348.4025 333.993125 348.4025 333.993125 348.4025 333.993125 
L 365.380111 462.950887 
C 363.504422 463.197826 361.623569 463.403813 359.738894 463.568701 
C 357.854219 463.733589 355.966171 463.857338 354.076097 463.93986 
z
" clip-path="url(#pf7184637f2)" style="fill: #008080; opacity: 0.8; stroke: #000000; stroke-width: 0.8; stroke-linejoin: miter"/>
   </g>
   <g id="patch_59">
    <path d="M 348.4025 333.993125 
C 348.4025 333.993125 348.4025 333.993125 348.4025 333.993125 
C 348.4025 333.993125 348.4025 333.993125 348.4025 333.993125 
L 378.655343 470.454883 
C 376.670509 470.89491 374.67631 471.291581 372.674171 471.644612 
C 370.672032 471.997643 368.662429 472.306951 366.646796 472.572314 
z
" clip-path="url(#pf7184637f2)" style="fill: #008080; opacity: 0.8; stroke: #000000; stroke-width: 0.8; stroke-linejoin: miter"/>
   </g>
   <g id="patch_60">
    <path d="M 348.4025 333.993125 
C 348.4025 333.993125 348.4025 333.993125 348.4025 333.993125 
C 348.4025 333.993125 348.4025 333.993125 348.4025 333.993125 
L 390.177649 466.48697 
C 388.250528 467.094589 386.310379 467.660091 384.358588 468.183072 
C 382.406797 468.706052 380.443828 469.186388 378.471082 469.623735 
z
" clip-path="url(#pf7184637f2)" style="fill: #008080; opacity: 0.8; stroke: #000000; stroke-width: 0.8; stroke-linejoin: miter"/>
   </g>
   <g id="patch_61">
    <path d="M 348.4025 333.993125 
C 348.4025 333.993125 348.4025 333.993125 348.4025 333.993125 
C 348.4025 333.993125 348.4025 333.993125 348.4025 333.993125 
L 395.043172 446.593667 
C 393.405398 447.272055 391.753019 447.914631 390.087214 448.520934 
C 388.421408 449.127238 386.742573 449.697126 385.051906 450.230191 
z
" clip-path="url(#pf7184637f2)" style="fill: #008080; opacity: 0.8; stroke: #000000; stroke-width: 0.8; stroke-linejoin: miter"/>
   </g>
   <g id="patch_62">
    <path d="M 348.4025 333.993125 
C 348.4025 333.993125 348.4025 333.993125 348.4025 333.993125 
C 348.4025 333.993125 348.4025 333.993125 348.4025 333.993125 
L 384.558185 403.447549 
C 383.547971 403.973433 382.526404 404.477214 381.494213 404.958533 
C 380.462022 405.439851 379.419453 405.898593 378.367249 406.33443 
z
" clip-path="url(#pf7184637f2)" style="fill: #008080; opacity: 0.8; stroke: #000000; stroke-width: 0.8; stroke-linejoin: miter"/>
   </g>
   <g id="patch_63">
    <path d="M 348.4025 333.993125 
C 348.4025 333.993125 348.4025 333.993125 348.4025 333.993125 
C 348.4025 333.993125 348.4025 333.993125 348.4025 333.993125 
L 368.557304 365.62983 
C 368.097148 365.922981 367.630652 366.206058 367.158147 366.478859 
C 366.685643 366.751659 366.207242 367.014119 365.723288 367.266049 
z
" clip-path="url(#pf7184637f2)" style="fill: #008080; opacity: 0.8; stroke: #000000; stroke-width: 0.8; stroke-linejoin: miter"/>
   </g>
   <g id="patch_64">
    <path d="M 348.4025 333.993125 
C 348.4025 333.993125 348.4025 333.993125 348.4025 333.993125 
C 348.4025 333.993125 348.4025 333.993125 348.4025 333.993125 
L 360.547949 349.821382 
C 360.317727 349.998037 360.083678 350.169649 359.84597 350.336094 
C 359.608262 350.502539 359.36695 350.663778 359.122208 350.819696 
z
" clip-path="url(#pf7184637f2)" style="fill: #008080; opacity: 0.8; stroke: #000000; stroke-width: 0.8; stroke-linejoin: miter"/>
   </g>
   <g id="patch_65">
    <path d="M 348.4025 333.993125 
C 348.4025 333.993125 348.4025 333.993125 348.4025 333.993125 
C 348.4025 333.993125 348.4025 333.993125 348.4025 333.993125 
L 381.679729 370.308848 
C 381.151517 370.792865 380.612808 371.2653 380.063987 371.725816 
C 379.515165 372.186331 378.956362 372.634819 378.387975 373.070957 
z
" clip-path="url(#pf7184637f2)" style="fill: #008080; opacity: 0.8; stroke: #000000; stroke-width: 0.8; stroke-linejoin: miter"/>
   </g>
   <g id="patch_66">
    <path d="M 348.4025 333.993125 
C 348.4025 333.993125 348.4025 333.993125 348.4025 333.993125 
C 348.4025 333.993125 348.4025 333.993125 348.4025 333.993125 
L 415.825006 395.774469 
C 414.926397 396.755128 414.006499 397.716066 413.06597 398.656595 
C 412.125441 399.597124 411.164503 400.517022 410.183844 401.415631 
z
" clip-path="url(#pf7184637f2)" style="fill: #008080; opacity: 0.8; stroke: #000000; stroke-width: 0.8; stroke-linejoin: miter"/>
   </g>
   <g id="patch_67">
    <path d="M 348.4025 333.993125 
C 348.4025 333.993125 348.4025 333.993125 348.4025 333.993125 
C 348.4025 333.993125 348.4025 333.993125 348.4025 333.993125 
L 475.5033 431.520999 
C 474.084758 433.369679 472.626052 435.187189 471.128222 436.972233 
C 469.630392 438.757277 468.093796 440.50943 466.519529 442.227441 
z
" clip-path="url(#pf7184637f2)" style="fill: #008080; opacity: 0.8; stroke: #000000; stroke-width: 0.8; stroke-linejoin: miter"/>
   </g>
   <g id="patch_68">
    <path d="M 348.4025 333.993125 
C 348.4025 333.993125 348.4025 333.993125 348.4025 333.993125 
C 348.4025 333.993125 348.4025 333.993125 348.4025 333.993125 
L 538.226675 454.924461 
C 536.46773 457.685452 534.648757 460.407738 532.771053 463.089376 
C 530.89335 465.771014 528.957364 468.411366 526.964476 471.008548 
z
" clip-path="url(#pf7184637f2)" style="fill: #008080; opacity: 0.8; stroke: #000000; stroke-width: 0.8; stroke-linejoin: miter"/>
   </g>
   <g id="patch_69">
    <path d="M 348.4025 333.993125 
C 348.4025 333.993125 348.4025 333.993125 348.4025 333.993125 
C 348.4025 333.993125 348.4025 333.993125 348.4025 333.993125 
L 586.901866 458.148037 
C 585.096034 461.617007 583.214734 465.046166 581.259306 468.433065 
C 579.303879 471.819964 577.274791 475.163798 575.17349 478.462179 
z
" clip-path="url(#pf7184637f2)" style="fill: #008080; opacity: 0.8; stroke: #000000; stroke-width: 0.8; stroke-linejoin: miter"/>
   </g>
   <g id="patch_70">
    <path d="M 348.4025 333.993125 
C 348.4025 333.993125 348.4025 333.993125 348.4025 333.993125 
C 348.4025 333.993125 348.4025 333.993125 348.4025 333.993125 
L 602.985904 439.445024 
C 601.452108 443.147936 599.837705 446.816944 598.14385 450.449429 
C 596.449994 454.081914 594.677089 457.677011 592.826399 461.232153 
z
" clip-path="url(#pf7184637f2)" style="fill: #008080; opacity: 0.8; stroke: #000000; stroke-width: 0.8; stroke-linejoin: miter"/>
   </g>
   <g id="patch_71">
    <path d="M 348.4025 333.993125 
C 348.4025 333.993125 348.4025 333.993125 348.4025 333.993125 
C 348.4025 333.993125 348.4025 333.993125 348.4025 333.993125 
L 592.492458 410.954393 
C 591.373057 414.504678 590.176331 418.030119 588.903135 421.528197 
C 587.629938 425.026276 586.280574 428.49616 584.856005 431.935374 
z
" clip-path="url(#pf7184637f2)" style="fill: #008080; opacity: 0.8; stroke: #000000; stroke-width: 0.8; stroke-linejoin: miter"/>
   </g>
   <g id="patch_72">
    <path d="M 348.4025 333.993125 
C 348.4025 333.993125 348.4025 333.993125 348.4025 333.993125 
C 348.4025 333.993125 348.4025 333.993125 348.4025 333.993125 
L 560.255427 380.959788 
C 559.572298 384.041186 558.822021 387.107314 558.005133 390.155981 
C 557.188245 393.204649 556.30494 396.235131 555.355848 399.245265 
z
" clip-path="url(#pf7184637f2)" style="fill: #008080; opacity: 0.8; stroke: #000000; stroke-width: 0.8; stroke-linejoin: miter"/>
   </g>
   <g id="patch_73">
    <path d="M 348.4025 333.993125 
C 348.4025 333.993125 348.4025 333.993125 348.4025 333.993125 
C 348.4025 333.993125 348.4025 333.993125 348.4025 333.993125 
L 518.711286 356.414702 
C 518.385165 358.891841 518.005037 361.36157 517.571174 363.822127 
C 517.137312 366.282683 516.649818 368.73348 516.109041 371.17277 
z
" clip-path="url(#pf7184637f2)" style="fill: #008080; opacity: 0.8; stroke: #000000; stroke-width: 0.8; stroke-linejoin: miter"/>
   </g>
   <g id="patch_74">
    <path d="M 348.4025 333.993125 
C 348.4025 333.993125 348.4025 333.993125 348.4025 333.993125 
C 348.4025 333.993125 348.4025 333.993125 348.4025 333.993125 
L 480.341097 339.753689 
C 480.257309 341.672734 480.131663 343.589723 479.964248 345.503287 
C 479.796833 347.41685 479.587688 349.326534 479.336964 351.230974 
z
" clip-path="url(#pf7184637f2)" style="fill: #008080; opacity: 0.8; stroke: #000000; stroke-width: 0.8; stroke-linejoin: miter"/>
   </g>
   <g id="matplotlib.axis_1">
    <g id="xtick_1">
     <g id="line2d_1">
      <path d="M 348.4025 333.993125 
L 651.5175 333.993125 
" clip-path="url(#pf7184637f2)" style="fill: none; stroke: #b0b0b0; stroke-width: 0.8; stroke-linecap: square"/>
     </g>
     <g id="text_1">
      <text style="font: 20px 'DejaVu Sans', 'Bitstream Vera Sans', 'Computer Modern Sans Serif', 'Lucida Grande', 'Verdana', 'Geneva', 'Lucid', 'Arial', 'Helvetica', 'Avant Garde', sans-serif; text-anchor: middle" x="665.5175" y="339.511875" transform="rotate(-0 665.5175 339.511875)">0°</text>
     </g>
    </g>
    <g id="xtick_2">
     <g id="line2d_2">
      <path d="M 348.4025 333.993125 
L 562.737172 119.658453 
" clip-path="url(#pf7184637f2)" style="fill: none; stroke: #b0b0b0; stroke-width: 0.8; stroke-linecap: square"/>
     </g>
     <g id="text_2">
      <text style="font: 20px 'DejaVu Sans', 'Bitstream Vera Sans', 'Computer Modern Sans Serif', 'Lucida Grande', 'Verdana', 'Geneva', 'Lucid', 'Arial', 'Helvetica', 'Avant Garde', sans-serif; text-anchor: middle" x="572.636667" y="115.277708" transform="rotate(-0 572.636667 115.277708)">45°</text>
     </g>
    </g>
    <g id="xtick_3">
     <g id="line2d_3">
      <path d="M 348.4025 333.993125 
L 348.4025 30.878125 
" clip-path="url(#pf7184637f2)" style="fill: none; stroke: #b0b0b0; stroke-width: 0.8; stroke-linecap: square"/>
     </g>
     <g id="text_3">
      <text style="font: 20px 'DejaVu Sans', 'Bitstream Vera Sans', 'Computer Modern Sans Serif', 'Lucida Grande', 'Verdana', 'Geneva', 'Lucid', 'Arial', 'Helvetica', 'Avant Garde', sans-serif; text-anchor: middle" x="348.4025" y="22.396875" transform="rotate(-0 348.4025 22.396875)">90°</text>
     </g>
    </g>
    <g id="xtick_4">
     <g id="line2d_4">
      <path d="M 348.4025 333.993125 
L 134.067828 119.658453 
" clip-path="url(#pf7184637f2)" style="fill: none; stroke: #b0b0b0; stroke-width: 0.8; stroke-linecap: square"/>
     </g>
     <g id="text_4">
      <text style="font: 20px 'DejaVu Sans', 'Bitstream Vera Sans', 'Computer Modern Sans Serif', 'Lucida Grande', 'Verdana', 'Geneva', 'Lucid', 'Arial', 'Helvetica', 'Avant Garde', sans-serif; text-anchor: middle" x="124.168333" y="115.277708" transform="rotate(-0 124.168333 115.277708)">135°</text>
     </g>
    </g>
    <g id="xtick_5">
     <g id="line2d_5">
      <path d="M 348.4025 333.993125 
L 45.2875 333.993125 
" clip-path="url(#pf7184637f2)" style="fill: none; stroke: #b0b0b0; stroke-width: 0.8; stroke-linecap: square"/>
     </g>
     <g id="text_5">
      <text style="font: 20px 'DejaVu Sans', 'Bitstream Vera Sans', 'Computer Modern Sans Serif', 'Lucida Grande', 'Verdana', 'Geneva', 'Lucid', 'Arial', 'Helvetica', 'Avant Garde', sans-serif; text-anchor: middle" x="31.2875" y="339.511875" transform="rotate(-0 31.2875 339.511875)">180°</text>
     </g>
    </g>
    <g id="xtick_6">
     <g id="line2d_6">
      <path d="M 348.4025 333.993125 
L 134.067828 548.327797 
" clip-path="url(#pf7184637f2)" style="fill: none; stroke: #b0b0b0; stroke-width: 0.8; stroke-linecap: square"/>
     </g>
     <g id="text_6">
      <text style="font: 20px 'DejaVu Sans', 'Bitstream Vera Sans', 'Computer Modern Sans Serif', 'Lucida Grande', 'Verdana', 'Geneva', 'Lucid', 'Arial', 'Helvetica', 'Avant Garde', sans-serif; text-anchor: middle" x="124.168333" y="563.746042" transform="rotate(-0 124.168333 563.746042)">225°</text>
     </g>
    </g>
    <g id="xtick_7">
     <g id="line2d_7">
      <path d="M 348.4025 333.993125 
L 348.4025 637.108125 
" clip-path="url(#pf7184637f2)" style="fill: none; stroke: #b0b0b0; stroke-width: 0.8; stroke-linecap: square"/>
     </g>
     <g id="text_7">
      <text style="font: 20px 'DejaVu Sans', 'Bitstream Vera Sans', 'Computer Modern Sans Serif', 'Lucida Grande', 'Verdana', 'Geneva', 'Lucid', 'Arial', 'Helvetica', 'Avant Garde', sans-serif; text-anchor: middle" x="348.4025" y="656.626875" transform="rotate(-0 348.4025 656.626875)">270°</text>
     </g>
    </g>
    <g id="xtick_8">
     <g id="line2d_8">
      <path d="M 348.4025 333.993125 
L 562.737172 548.327797 
" clip-path="url(#pf7184637f2)" style="fill: none; stroke: #b0b0b0; stroke-width: 0.8; stroke-linecap: square"/>
     </g>
     <g id="text_8">
      <text style="font: 20px 'DejaVu Sans', 'Bitstream Vera Sans', 'Computer Modern Sans Serif', 'Lucida Grande', 'Verdana', 'Geneva', 'Lucid', 'Arial', 'Helvetica', 'Avant Garde', sans-serif; text-anchor: middle" x="572.636667" y="563.746042" transform="rotate(-0 572.636667 563.746042)">315°</text>
     </g>
    </g>
   </g>
   <g id="matplotlib.axis_2">
    <g id="ytick_1">
     <g id="line2d_9">
      <path d="M 403.514318 333.993125 
C 403.514318 326.755907 402.088744 319.589063 399.319181 312.902745 
C 396.549618 306.216428 392.489926 300.14067 387.37244 295.023185 
C 382.254955 289.905699 376.179197 285.846007 369.49288 283.076444 
C 362.806562 280.306881 355.639718 278.881307 348.4025 278.881307 
C 341.165282 278.881307 333.998438 280.306881 327.31212 283.076444 
C 320.625803 285.846007 314.550045 289.905699 309.43256 295.023185 
C 304.315074 300.14067 300.255382 306.216428 297.485819 312.902745 
C 294.716256 319.589063 293.290682 326.755907 293.290682 333.993125 
C 293.290682 341.230343 294.716256 348.397187 297.485819 355.083505 
C 300.255382 361.769822 304.315074 367.84558 309.43256 372.963065 
C 314.550045 378.080551 320.625803 382.140243 327.31212 384.909806 
C 333.998438 387.679369 341.165282 389.104943 348.4025 389.104943 
C 355.639718 389.104943 362.806562 387.679369 369.49288 384.909806 
C 376.179197 382.140243 382.254955 378.080551 387.37244 372.963065 
C 392.489926 367.84558 396.549618 361.769822 399.319181 355.083505 
C 402.088744 348.397187 403.514318 341.230343 403.514318 333.993125 
" clip-path="url(#pf7184637f2)" style="fill: none; stroke: #b0b0b0; stroke-width: 0.8; stroke-linecap: square"/>
     </g>
     <g id="text_9">
      <text style="font: 20px 'DejaVu Sans', 'Bitstream Vera Sans', 'Computer Modern Sans Serif', 'Lucida Grande', 'Verdana', 'Geneva', 'Lucid', 'Arial', 'Helvetica', 'Avant Garde', sans-serif; text-anchor: start" x="399.319181" y="308.74337" transform="rotate(-0 399.319181 308.74337)">0.2</text>
     </g>
    </g>
    <g id="ytick_2">
     <g id="line2d_10">
      <path d="M 458.626136 333.993125 
C 458.626136 319.51869 455.774988 305.185 450.235862 291.812366 
C 444.696735 278.439731 436.577352 266.288216 426.342381 256.053244 
C 416.107409 245.818273 403.955894 237.69889 390.583259 232.159763 
C 377.210625 226.620637 362.876935 223.769489 348.4025 223.769489 
C 333.928065 223.769489 319.594375 226.620637 306.221741 232.159763 
C 292.849106 237.69889 280.697591 245.818273 270.462619 256.053244 
C 260.227648 266.288216 252.108265 278.439731 246.569138 291.812366 
C 241.030012 305.185 238.178864 319.51869 238.178864 333.993125 
C 238.178864 348.46756 241.030012 362.80125 246.569138 376.173884 
C 252.108265 389.546519 260.227648 401.698034 270.462619 411.933006 
C 280.697591 422.167977 292.849106 430.28736 306.221741 435.826487 
C 319.594375 441.365613 333.928065 444.216761 348.4025 444.216761 
C 362.876935 444.216761 377.210625 441.365613 390.583259 435.826487 
C 403.955894 430.28736 416.107409 422.167977 426.342381 411.933006 
C 436.577352 401.698034 444.696735 389.546519 450.235862 376.173884 
C 455.774988 362.80125 458.626136 348.46756 458.626136 333.993125 
" clip-path="url(#pf7184637f2)" style="fill: none; stroke: #b0b0b0; stroke-width: 0.8; stroke-linecap: square"/>
     </g>
     <g id="text_10">
      <text style="font: 20px 'DejaVu Sans', 'Bitstream Vera Sans', 'Computer Modern Sans Serif', 'Lucida Grande', 'Verdana', 'Geneva', 'Lucid', 'Arial', 'Helvetica', 'Avant Garde', sans-serif; text-anchor: start" x="450.235862" y="287.652991" transform="rotate(-0 450.235862 287.652991)">0.4</text>
     </g>
    </g>
    <g id="ytick_3">
     <g id="line2d_11">
      <path d="M 513.737955 333.993125 
C 513.737955 312.281472 509.461232 290.780938 501.152542 270.721986 
C 492.843853 250.663034 480.664778 232.435761 465.312321 217.083304 
C 449.959864 201.730847 431.732591 189.551772 411.673639 181.243083 
C 391.614687 172.934393 370.114153 168.65767 348.4025 168.65767 
C 326.690847 168.65767 305.190313 172.934393 285.131361 181.243083 
C 265.072409 189.551772 246.845136 201.730847 231.492679 217.083304 
C 216.140222 232.435761 203.961147 250.663034 195.652458 270.721986 
C 187.343768 290.780938 183.067045 312.281472 183.067045 333.993125 
C 183.067045 355.704778 187.343768 377.205312 195.652458 397.264264 
C 203.961147 417.323216 216.140222 435.550489 231.492679 450.902946 
C 246.845136 466.255403 265.072409 478.434478 285.131361 486.743167 
C 305.190313 495.051857 326.690847 499.32858 348.4025 499.32858 
C 370.114153 499.32858 391.614687 495.051857 411.673639 486.743167 
C 431.732591 478.434478 449.959864 466.255403 465.312321 450.902946 
C 480.664778 435.550489 492.843853 417.323216 501.152542 397.264264 
C 509.461232 377.205312 513.737955 355.704778 513.737955 333.993125 
" clip-path="url(#pf7184637f2)" style="fill: none; stroke: #b0b0b0; stroke-width: 0.8; stroke-linecap: square"/>
     </g>
     <g id="text_11">
      <text style="font: 20px 'DejaVu Sans', 'Bitstream Vera Sans', 'Computer Modern Sans Serif', 'Lucida Grande', 'Verdana', 'Geneva', 'Lucid', 'Arial', 'Helvetica', 'Avant Garde', sans-serif; text-anchor: start" x="501.152542" y="266.562611" transform="rotate(-0 501.152542 266.562611)">0.6</text>
     </g>
    </g>
    <g id="ytick_4">
     <g id="line2d_12">
      <path d="M 568.849773 333.993125 
C 568.849773 305.044254 563.147476 276.376875 552.069223 249.631606 
C 540.99097 222.886337 524.752204 198.583306 504.282261 178.113364 
C 483.812319 157.643421 459.509288 141.404655 432.764019 130.326402 
C 406.01875 119.248149 377.351371 113.545852 348.4025 113.545852 
C 319.453629 113.545852 290.78625 119.248149 264.040981 130.326402 
C 237.295712 141.404655 212.992681 157.643421 192.522739 178.113364 
C 172.052796 198.583306 155.81403 222.886337 144.735777 249.631606 
C 133.657524 276.376875 127.955227 305.044254 127.955227 333.993125 
C 127.955227 362.941996 133.657524 391.609375 144.735777 418.354644 
C 155.81403 445.099913 172.052796 469.402944 192.522739 489.872886 
C 212.992681 510.342829 237.295712 526.581595 264.040981 537.659848 
C 290.78625 548.738101 319.453629 554.440398 348.4025 554.440398 
C 377.351371 554.440398 406.01875 548.738101 432.764019 537.659848 
C 459.509288 526.581595 483.812319 510.342829 504.282261 489.872886 
C 524.752204 469.402944 540.99097 445.099913 552.069223 418.354644 
C 563.147476 391.609375 568.849773 362.941996 568.849773 333.993125 
" clip-path="url(#pf7184637f2)" style="fill: none; stroke: #b0b0b0; stroke-width: 0.8; stroke-linecap: square"/>
     </g>
     <g id="text_12">
      <text style="font: 20px 'DejaVu Sans', 'Bitstream Vera Sans', 'Computer Modern Sans Serif', 'Lucida Grande', 'Verdana', 'Geneva', 'Lucid', 'Arial', 'Helvetica', 'Avant Garde', sans-serif; text-anchor: start" x="552.069223" y="245.472231" transform="rotate(-0 552.069223 245.472231)">0.8</text>
     </g>
    </g>
    <g id="ytick_5">
     <g id="line2d_13">
      <path d="M 623.961591 333.993125 
C 623.961591 297.807037 616.833721 261.972813 602.985904 228.541226 
C 589.138088 195.10964 568.83963 164.730852 543.252202 139.143423 
C 517.664773 113.555995 487.285985 93.257537 453.854399 79.409721 
C 420.422812 65.561904 384.588588 58.434034 348.4025 58.434034 
C 312.216412 58.434034 276.382188 65.561904 242.950601 79.409721 
C 209.519015 93.257537 179.140227 113.555995 153.552798 139.143423 
C 127.96537 164.730852 107.666912 195.10964 93.819096 228.541226 
C 79.971279 261.972813 72.843409 297.807037 72.843409 333.993125 
C 72.843409 370.179213 79.971279 406.013437 93.819096 439.445024 
C 107.666912 472.87661 127.96537 503.255398 153.552798 528.842827 
C 179.140227 554.430255 209.519015 574.728713 242.950601 588.576529 
C 276.382188 602.424346 312.216412 609.552216 348.4025 609.552216 
C 384.588588 609.552216 420.422812 602.424346 453.854399 588.576529 
C 487.285985 574.728713 517.664773 554.430255 543.252202 528.842827 
C 568.83963 503.255398 589.138088 472.87661 602.985904 439.445024 
C 616.833721 406.013437 623.961591 370.179213 623.961591 333.993125 
" clip-path="url(#pf7184637f2)" style="fill: none; stroke: #b0b0b0; stroke-width: 0.8; stroke-linecap: square"/>
     </g>
     <g id="text_13">
      <text style="font: 20px 'DejaVu Sans', 'Bitstream Vera Sans', 'Computer Modern Sans Serif', 'Lucida Grande', 'Verdana', 'Geneva', 'Lucid', 'Arial', 'Helvetica', 'Avant Garde', sans-serif; text-anchor: start" x="602.985904" y="224.381851" transform="rotate(-0 602.985904 224.381851)">1.0</text>
     </g>
    </g>
   </g>
   <g id="line2d_14">
    <defs>
     <path id="m6ab3fcbefa" d="M 0 3 
C 0.795609 3 1.55874 2.683901 2.12132 2.12132 
C 2.683901 1.55874 3 0.795609 3 0 
C 3 -0.795609 2.683901 -1.55874 2.12132 -2.12132 
C 1.55874 -2.683901 0.795609 -3 0 -3 
C -0.795609 -3 -1.55874 -2.683901 -2.12132 -2.12132 
C -2.683901 -1.55874 -3 -0.795609 -3 0 
C -3 0.795609 -2.683901 1.55874 -2.12132 2.12132 
C -1.55874 2.683901 -0.795609 3 0 3 
z
" style="stroke: #ff0000"/>
    </defs>
    <g clip-path="url(#pf7184637f2)">
     <use xlink:href="#m6ab3fcbefa" x="459.577769" y="324.266549" style="fill: #ff0000; stroke: #ff0000"/>
     <use xlink:href="#m6ab3fcbefa" x="395.301979" y="294.63979" style="fill: #ff0000; stroke: #ff0000"/>
     <use xlink:href="#m6ab3fcbefa" x="324.130829" y="196.341638" style="fill: #ff0000; stroke: #ff0000"/>
     <use xlink:href="#m6ab3fcbefa" x="98.66115" y="217.536821" style="fill: #ff0000; stroke: #ff0000"/>
     <use xlink:href="#m6ab3fcbefa" x="301.503021" y="373.34646" style="fill: #ff0000; stroke: #ff0000"/>
     <use xlink:href="#m6ab3fcbefa" x="372.674171" y="471.644612" style="fill: #ff0000; stroke: #ff0000"/>
     <use xlink:href="#m6ab3fcbefa" x="598.14385" y="450.449429" style="fill: #ff0000; stroke: #ff0000"/>
    </g>
   </g>
   <g id="line2d_15">
    <path d="M 348.4025 333.993125 
L 459.577769 324.266549 
" clip-path="url(#pf7184637f2)" style="fill: none; stroke-dasharray: 3.7,1.6; stroke-dashoffset: 0; stroke: #000000"/>
   </g>
   <g id="line2d_16">
    <path d="M 348.4025 333.993125 
L 395.301979 294.63979 
" clip-path="url(#pf7184637f2)" style="fill: none; stroke-dasharray: 3.7,1.6; stroke-dashoffset: 0; stroke: #000000"/>
   </g>
   <g id="line2d_17">
    <path d="M 348.4025 333.993125 
L 324.130829 196.341638 
" clip-path="url(#pf7184637f2)" style="fill: none; stroke-dasharray: 3.7,1.6; stroke-dashoffset: 0; stroke: #000000"/>
   </g>
   <g id="line2d_18">
    <path d="M 348.4025 333.993125 
L 98.66115 217.536821 
" clip-path="url(#pf7184637f2)" style="fill: none; stroke-dasharray: 3.7,1.6; stroke-dashoffset: 0; stroke: #000000"/>
   </g>
   <g id="line2d_19">
    <path d="M 348.4025 333.993125 
L 301.503021 373.34646 
" clip-path="url(#pf7184637f2)" style="fill: none; stroke-dasharray: 3.7,1.6; stroke-dashoffset: 0; stroke: #000000"/>
   </g>
   <g id="line2d_20">
    <path d="M 348.4025 333.993125 
L 372.674171 471.644612 
" clip-path="url(#pf7184637f2)" style="fill: none; stroke-dasharray: 3.7,1.6; stroke-dashoffset: 0; stroke: #000000"/>
   </g>
   <g id="line2d_21">
    <path d="M 348.4025 333.993125 
L 598.14385 450.449429 
" clip-path="url(#pf7184637f2)" style="fill: none; stroke-dasharray: 3.7,1.6; stroke-dashoffset: 0; stroke: #000000"/>
   </g>
   <g id="line2d_22">
    <path d="M 366.699485 332.392346 
L 366.678107 332.164375 
L 366.653889 331.936687 
L 366.626835 331.70932 
L 366.596948 331.482307 
L 366.564234 331.255684 
L 366.528697 331.029487 
L 366.490342 330.80375 
L 366.449177 330.578509 
L 366.405207 330.353799 
L 366.358439 330.129655 
L 366.308881 329.90611 
L 366.256539 329.683202 
L 366.201423 329.460962 
L 366.14354 329.239428 
L 366.082901 329.018632 
L 366.019513 328.798609 
L 365.953388 328.579393 
L 365.884535 328.361019 
L 365.812965 328.14352 
L 365.738689 327.92693 
L 365.661718 327.711283 
L 365.582066 327.496613 
L 365.499743 327.282952 
L 365.414763 327.070333 
L 365.32714 326.858791 
L 365.236886 326.648358 
L 365.144015 326.439066 
L 365.048543 326.230948 
L 364.950484 326.024036 
L 364.849853 325.818363 
L 364.746666 325.61396 
L 364.640938 325.41086 
L 364.532687 325.209093 
L 364.421929 325.008692 
L 364.308682 324.809687 
L 364.192962 324.612109 
L 364.074788 324.415989 
L 363.954179 324.221358 
L 363.831152 324.028245 
L 363.705728 323.836681 
L 363.577926 323.646695 
L 363.447764 323.458317 
L 363.315265 323.271577 
L 363.180448 323.086503 
L 363.043334 322.903124 
L 362.903945 322.721468 
L 362.762302 322.541565 
L 362.618428 322.363441 
L 362.472344 322.187124 
" clip-path="url(#pf7184637f2)" style="fill: none; stroke: #ff0000; stroke-opacity: 0.7; stroke-width: 1.5; stroke-linecap: square"/>
   </g>
   <g id="line2d_23">
    <path d="M 362.472344 322.187124 
L 362.216839 321.889151 
L 361.955026 321.596706 
L 361.687023 321.309923 
L 361.412952 321.028932 
L 361.132939 320.753863 
L 360.847113 320.48484 
L 360.555602 320.221986 
L 360.258541 319.965422 
L 359.956065 319.715265 
L 359.648312 319.471629 
L 359.335423 319.234624 
L 359.017541 319.004361 
L 358.694811 318.780943 
L 358.36738 318.564473 
L 358.035398 318.355049 
L 357.699017 318.152767 
L 357.358389 317.95772 
L 357.013671 317.769997 
L 356.665021 317.589683 
L 356.312596 317.416861 
L 355.956559 317.25161 
L 355.597072 317.094004 
L 355.234299 316.944117 
L 354.868406 316.802017 
L 354.49956 316.667768 
L 354.127929 316.541431 
L 353.753683 316.423066 
L 353.376993 316.312724 
L 352.998032 316.210458 
L 352.616971 316.116314 
L 352.233986 316.030334 
L 351.84925 315.952558 
L 351.462941 315.883021 
L 351.075233 315.821756 
L 350.686305 315.76879 
L 350.296334 315.724147 
L 349.905498 315.687848 
L 349.513976 315.65991 
L 349.121946 315.640345 
L 348.729587 315.629161 
L 348.337079 315.626365 
L 347.944601 315.631957 
L 347.552332 315.645935 
L 347.160451 315.668293 
L 346.769138 315.69902 
L 346.37857 315.738102 
L 345.988927 315.785522 
L 345.600386 315.841257 
L 345.213125 315.905283 
" clip-path="url(#pf7184637f2)" style="fill: none; stroke: #ff0000; stroke-opacity: 0.7; stroke-width: 1.5; stroke-linecap: square"/>
   </g>
   <g id="line2d_24">
    <path d="M 341.120999 292.697679 
L 340.313452 292.848242 
L 339.50901 293.014594 
L 338.707981 293.196674 
L 337.910672 293.39441 
L 337.11739 293.607726 
L 336.328439 293.836542 
L 335.544121 294.080768 
L 334.764738 294.340312 
L 333.990589 294.615073 
L 333.221971 294.904947 
L 332.459178 295.209822 
L 331.702505 295.52958 
L 330.95224 295.8641 
L 330.208672 296.213253 
L 329.472087 296.576904 
L 328.742766 296.954915 
L 328.020991 297.34714 
L 327.307037 297.753429 
L 326.601179 298.173626 
L 325.903688 298.607569 
L 325.214831 299.055092 
L 324.534873 299.516024 
L 323.864075 299.990186 
L 323.202694 300.477399 
L 322.550984 300.977473 
L 321.909195 301.490219 
L 321.277574 302.015437 
L 320.656362 302.552929 
L 320.045798 303.102485 
L 319.446118 303.663897 
L 318.857549 304.236949 
L 318.28032 304.82142 
L 317.71465 305.417086 
L 317.160757 306.023719 
L 316.618855 306.641086 
L 316.089149 307.26895 
L 315.571845 307.90707 
L 315.067141 308.555201 
L 314.575229 309.213095 
L 314.0963 309.880498 
L 313.630536 310.557155 
L 313.178117 311.242807 
L 312.739216 311.937189 
L 312.314002 312.640035 
L 311.902637 313.351077 
L 311.50528 314.07004 
L 311.122084 314.796649 
L 310.753194 315.530625 
L 310.398753 316.271687 
" clip-path="url(#pf7184637f2)" style="fill: none; stroke: #ff0000; stroke-opacity: 0.7; stroke-width: 1.5; stroke-linecap: square"/>
   </g>
   <g id="patch_75">
    <path d="M 651.5175 333.993125 
C 651.5175 294.188428 643.676843 254.770781 628.444244 217.996036 
C 613.211646 181.221291 590.883343 147.804624 562.737172 119.658453 
C 534.591001 91.512282 501.174334 69.183979 464.399589 53.951381 
C 427.624844 38.718782 388.207197 30.878125 348.4025 30.878125 
C 308.597803 30.878125 269.180156 38.718782 232.405411 53.951381 
C 195.630666 69.183979 162.213999 91.512282 134.067828 119.658453 
C 105.921657 147.804624 83.593354 181.221291 68.360756 217.996036 
C 53.128157 254.770781 45.2875 294.188428 45.2875 333.993125 
C 45.2875 373.797822 53.128157 413.215469 68.360756 449.990214 
C 83.593354 486.764959 105.921657 520.181626 134.067828 548.327797 
C 162.213999 576.473968 195.630666 598.802271 232.405411 614.034869 
C 269.180156 629.267468 308.597803 637.108125 348.4025 637.108125 
C 388.207197 637.108125 427.624844 629.267468 464.399589 614.034869 
C 501.174334 598.802271 534.591001 576.473968 562.737172 548.327797 
C 590.883343 520.181626 613.211646 486.764959 628.444244 449.990214 
C 643.676843 413.215469 651.5175 373.797822 651.5175 333.993125 
" style="fill: none; stroke: #000000; stroke-width: 0.8; stroke-linejoin: miter; stroke-linecap: square"/>
   </g>
   <g id="text_14">
    <g id="patch_76">
     <path d="M 359.616616 330.883399 
L 394.882241 330.883399 
L 394.882241 313.205274 
L 359.616616 313.205274 
z
" style="fill: #ffffff; opacity: 0.7"/>
    </g>
    <text style="font: 10px 'DejaVu Sans', 'Bitstream Vera Sans', 'Computer Modern Sans Serif', 'Lucida Grande', 'Verdana', 'Geneva', 'Lucid', 'Arial', 'Helvetica', 'Avant Garde', sans-serif; text-anchor: middle" x="377.249428" y="324.803711" transform="rotate(-0 377.249428 324.803711)">35.0°</text>
   </g>
   <g id="text_15">
    <g id="patch_77">
     <path d="M 341.448818 313.491516 
L 376.714443 313.491516 
L 376.714443 295.813391 
L 341.448818 295.813391 
z
" style="fill: #ffffff; opacity: 0.7"/>
    </g>
    <text style="font: 10px 'DejaVu Sans', 'Bitstream Vera Sans', 'Computer Modern Sans Serif', 'Lucida Grande', 'Verdana', 'Geneva', 'Lucid', 'Arial', 'Helvetica', 'Avant Garde', sans-serif; text-anchor: middle" x="359.081631" y="307.411829" transform="rotate(-0 359.081631 307.411829)">60.0°</text>
   </g>
   <g id="text_16">
    <g id="patch_78">
     <path d="M 287.373982 286.277803 
L 322.639607 286.277803 
L 322.639607 268.599678 
L 287.373982 268.599678 
z
" style="fill: #ffffff; opacity: 0.7"/>
    </g>
    <text style="font: 10px 'DejaVu Sans', 'Bitstream Vera Sans', 'Computer Modern Sans Serif', 'Lucida Grande', 'Verdana', 'Geneva', 'Lucid', 'Arial', 'Helvetica', 'Avant Garde', sans-serif; text-anchor: middle" x="305.006795" y="280.198116" transform="rotate(-0 305.006795 280.198116)">55.0°</text>
   </g>
   <g id="legend_1">
    <g id="patch_79">
     <path d="M 59.2875 627.108125 
L 290.740625 627.108125 
Q 294.740625 627.108125 294.740625 623.108125 
L 294.740625 566.395625 
Q 294.740625 562.395625 290.740625 562.395625 
L 59.2875 562.395625 
Q 55.2875 562.395625 55.2875 566.395625 
L 55.2875 623.108125 
Q 55.2875 627.108125 59.2875 627.108125 
z
" style="fill: #ffffff; stroke: #cccccc; stroke-linejoin: miter"/>
    </g>
    <g id="line2d_25">
     <g>
      <use xlink:href="#m6ab3fcbefa" x="83.2875" y="578.5925" style="fill: #ff0000; stroke: #ff0000"/>
     </g>
    </g>
    <g id="text_17">
     <text style="font: 20px 'DejaVu Sans', 'Bitstream Vera Sans', 'Computer Modern Sans Serif', 'Lucida Grande', 'Verdana', 'Geneva', 'Lucid', 'Arial', 'Helvetica', 'Avant Garde', sans-serif; text-anchor: start" x="119.2875" y="585.5925" transform="rotate(-0 119.2875 585.5925)">Peaks</text>
    </g>
    <g id="patch_80">
     <path d="M 63.2875 614.94875 
L 103.2875 614.94875 
L 103.2875 600.94875 
L 63.2875 600.94875 
z
" style="fill: #008080; opacity: 0.8; stroke: #000000; stroke-width: 0.8; stroke-linejoin: miter"/>
    </g>
    <g id="text_18">
     <text style="font: 20px 'DejaVu Sans', 'Bitstream Vera Sans', 'Computer Modern Sans Serif', 'Lucida Grande', 'Verdana', 'Geneva', 'Lucid', 'Arial', 'Helvetica', 'Avant Garde', sans-serif; text-anchor: start" x="119.2875" y="614.94875" transform="rotate(-0 119.2875 614.94875)">Normalised Data</text>
    </g>
   </g>
  </g>
 </g>
 <defs>
  <clipPath id="pf7184637f2">
   <path d="M 651.5175 333.993125 
C 651.5175 294.188428 643.676843 254.770781 628.444244 217.996036 
C 613.211646 181.221291 590.883343 147.804624 562.737172 119.658453 
C 534.591001 91.512282 501.174334 69.183979 464.399589 53.951381 
C 427.624844 38.718782 388.207197 30.878125 348.4025 30.878125 
C 308.597803 30.878125 269.180156 38.718782 232.405411 53.951381 
C 195.630666 69.183979 162.213999 91.512282 134.067828 119.658453 
C 105.921657 147.804624 83.593354 181.221291 68.360756 217.996036 
C 53.128157 254.770781 45.2875 294.188428 45.2875 333.993125 
C 45.2875 373.797822 53.128157 413.215469 68.360756 449.990214 
C 83.593354 486.764959 105.921657 520.181626 134.067828 548.327797 
C 162.213999 576.473968 195.630666 598.802271 232.405411 614.034869 
C 269.180156 629.267468 308.597803 637.108125 348.4025 637.108125 
C 388.207197 637.108125 427.624844 629.267468 464.399589 614.034869 
C 501.174334 598.802271 534.591001 576.473968 562.737172 548.327797 
C 590.883343 520.181626 613.211646 486.764959 628.444244 449.990214 
C 643.676843 413.215469 651.5175 373.797822 651.5175 333.993125 
M 348.4025 333.993125 
C 348.4025 333.993125 348.4025 333.993125 348.4025 333.993125 
C 348.4025 333.993125 348.4025 333.993125 348.4025 333.993125 
C 348.4025 333.993125 348.4025 333.993125 348.4025 333.993125 
C 348.4025 333.993125 348.4025 333.993125 348.4025 333.993125 
C 348.4025 333.993125 348.4025 333.993125 348.4025 333.993125 
C 348.4025 333.993125 348.4025 333.993125 348.4025 333.993125 
C 348.4025 333.993125 348.4025 333.993125 348.4025 333.993125 
C 348.4025 333.993125 348.4025 333.993125 348.4025 333.993125 
C 348.4025 333.993125 348.4025 333.993125 348.4025 333.993125 
C 348.4025 333.993125 348.4025 333.993125 348.4025 333.993125 
C 348.4025 333.993125 348.4025 333.993125 348.4025 333.993125 
C 348.4025 333.993125 348.4025 333.993125 348.4025 333.993125 
C 348.4025 333.993125 348.4025 333.993125 348.4025 333.993125 
C 348.4025 333.993125 348.4025 333.993125 348.4025 333.993125 
C 348.4025 333.993125 348.4025 333.993125 348.4025 333.993125 
C 348.4025 333.993125 348.4025 333.993125 348.4025 333.993125 
z
"/>
  </clipPath>
 </defs>
</svg>
