<?xml version="1.0" encoding="utf-8" standalone="no"?>
<!DOCTYPE svg PUBLIC "-//W3C//DTD SVG 1.1//EN"
  "http://www.w3.org/Graphics/SVG/1.1/DTD/svg11.dtd">
<svg xmlns:xlink="http://www.w3.org/1999/xlink" width="1512pt" height="648pt" viewBox="0 0 1512 648" xmlns="http://www.w3.org/2000/svg" version="1.1">
 <metadata>
  <rdf:RDF xmlns:dc="http://purl.org/dc/elements/1.1/" xmlns:cc="http://creativecommons.org/ns#" xmlns:rdf="http://www.w3.org/1999/02/22-rdf-syntax-ns#">
   <cc:Work>
    <dc:type rdf:resource="http://purl.org/dc/dcmitype/StillImage"/>
    <dc:date>2025-04-19T18:37:04.764553</dc:date>
    <dc:format>image/svg+xml</dc:format>
    <dc:creator>
     <cc:Agent>
      <dc:title>Matplotlib v3.9.2, https://matplotlib.org/</dc:title>
     </cc:Agent>
    </dc:creator>
   </cc:Work>
  </rdf:RDF>
 </metadata>
 <defs>
  <style type="text/css">*{stroke-linejoin: round; stroke-linecap: butt}</style>
 </defs>
 <g id="figure_1">
  <g id="patch_1">
   <path d="M 0 648 
L 1512 648 
L 1512 0 
L 0 0 
z
" style="fill: #ffffff"/>
  </g>
  <g id="axes_1">
   <g id="patch_2">
    <path d="M 761.492805 469.666 
C 761.492805 418.926214 741.315005 370.212694 705.436558 334.334247 
C 669.558111 298.4558 620.844591 278.278 570.104805 278.278 
C 519.365019 278.278 470.6515 298.4558 434.773053 334.334247 
C 398.894606 370.212694 378.716805 418.926214 378.716805 469.666 
L 570.104805 469.666 
C 570.104805 469.666 570.104805 469.666 570.104805 469.666 
C 570.104805 469.666 570.104805 469.666 570.104805 469.666 
C 570.104805 469.666 570.104805 469.666 570.104805 469.666 
C 570.104805 469.666 570.104805 469.666 570.104805 469.666 
z
" style="fill: #ffffff"/>
   </g>
   <g id="matplotlib.axis_1">
    <g id="xtick_1">
     <g id="line2d_1">
      <path d="M 570.104805 469.666 
L 761.492805 469.666 
" clip-path="url(#p8ddd59c8f4)" style="fill: none; stroke: #b0b0b0; stroke-width: 0.8; stroke-linecap: square"/>
     </g>
     <g id="text_1">
      <text style="font: 20px 'DejaVu Sans', 'Bitstream Vera Sans', 'Computer Modern Sans Serif', 'Lucida Grande', 'Verdana', 'Geneva', 'Lucid', 'Arial', 'Helvetica', 'Avant Garde', sans-serif; text-anchor: middle" x="775.492805" y="475.18475" transform="rotate(-0 775.492805 475.18475)">0°</text>
     </g>
    </g>
    <g id="xtick_2">
     <g id="line2d_2">
      <path d="M 570.104805 469.666 
L 735.851675 373.972 
" clip-path="url(#p8ddd59c8f4)" style="fill: none; stroke: #b0b0b0; stroke-width: 0.8; stroke-linecap: square"/>
     </g>
     <g id="text_2">
      <text style="font: 20px 'DejaVu Sans', 'Bitstream Vera Sans', 'Computer Modern Sans Serif', 'Lucida Grande', 'Verdana', 'Geneva', 'Lucid', 'Arial', 'Helvetica', 'Avant Garde', sans-serif; text-anchor: middle" x="747.976031" y="372.49075" transform="rotate(-0 747.976031 372.49075)">30°</text>
     </g>
    </g>
    <g id="xtick_3">
     <g id="line2d_3">
      <path d="M 570.104805 469.666 
L 665.798805 303.91913 
" clip-path="url(#p8ddd59c8f4)" style="fill: none; stroke: #b0b0b0; stroke-width: 0.8; stroke-linecap: square"/>
     </g>
     <g id="text_3">
      <text style="font: 20px 'DejaVu Sans', 'Bitstream Vera Sans', 'Computer Modern Sans Serif', 'Lucida Grande', 'Verdana', 'Geneva', 'Lucid', 'Arial', 'Helvetica', 'Avant Garde', sans-serif; text-anchor: middle" x="672.798805" y="297.313524" transform="rotate(-0 672.798805 297.313524)">60°</text>
     </g>
    </g>
    <g id="xtick_4">
     <g id="line2d_4">
      <path d="M 570.104805 469.666 
L 570.104805 278.278 
" clip-path="url(#p8ddd59c8f4)" style="fill: none; stroke: #b0b0b0; stroke-width: 0.8; stroke-linecap: square"/>
     </g>
     <g id="text_4">
      <text style="font: 20px 'DejaVu Sans', 'Bitstream Vera Sans', 'Computer Modern Sans Serif', 'Lucida Grande', 'Verdana', 'Geneva', 'Lucid', 'Arial', 'Helvetica', 'Avant Garde', sans-serif; text-anchor: middle" x="570.104805" y="269.79675" transform="rotate(-0 570.104805 269.79675)">90°</text>
     </g>
    </g>
    <g id="xtick_5">
     <g id="line2d_5">
      <path d="M 570.104805 469.666 
L 474.410805 303.91913 
" clip-path="url(#p8ddd59c8f4)" style="fill: none; stroke: #b0b0b0; stroke-width: 0.8; stroke-linecap: square"/>
     </g>
     <g id="text_5">
      <text style="font: 20px 'DejaVu Sans', 'Bitstream Vera Sans', 'Computer Modern Sans Serif', 'Lucida Grande', 'Verdana', 'Geneva', 'Lucid', 'Arial', 'Helvetica', 'Avant Garde', sans-serif; text-anchor: middle" x="467.410805" y="297.313524" transform="rotate(-0 467.410805 297.313524)">120°</text>
     </g>
    </g>
    <g id="xtick_6">
     <g id="line2d_6">
      <path d="M 570.104805 469.666 
L 404.357935 373.972 
" clip-path="url(#p8ddd59c8f4)" style="fill: none; stroke: #b0b0b0; stroke-width: 0.8; stroke-linecap: square"/>
     </g>
     <g id="text_6">
      <text style="font: 20px 'DejaVu Sans', 'Bitstream Vera Sans', 'Computer Modern Sans Serif', 'Lucida Grande', 'Verdana', 'Geneva', 'Lucid', 'Arial', 'Helvetica', 'Avant Garde', sans-serif; text-anchor: middle" x="392.23358" y="372.49075" transform="rotate(-0 392.23358 372.49075)">150°</text>
     </g>
    </g>
    <g id="xtick_7">
     <g id="line2d_7">
      <path d="M 570.104805 469.666 
L 378.716805 469.666 
" clip-path="url(#p8ddd59c8f4)" style="fill: none; stroke: #b0b0b0; stroke-width: 0.8; stroke-linecap: square"/>
     </g>
     <g id="text_7">
      <text style="font: 20px 'DejaVu Sans', 'Bitstream Vera Sans', 'Computer Modern Sans Serif', 'Lucida Grande', 'Verdana', 'Geneva', 'Lucid', 'Arial', 'Helvetica', 'Avant Garde', sans-serif; text-anchor: middle" x="364.716805" y="475.18475" transform="rotate(-0 364.716805 475.18475)">180°</text>
     </g>
    </g>
   </g>
   <g id="matplotlib.axis_2">
    <g id="ytick_1">
     <g id="line2d_8">
      <path d="M 570.104805 469.666 
C 570.104805 469.666 570.104805 469.666 570.104805 469.666 
C 570.104805 469.666 570.104805 469.666 570.104805 469.666 
C 570.104805 469.666 570.104805 469.666 570.104805 469.666 
C 570.104805 469.666 570.104805 469.666 570.104805 469.666 
" clip-path="url(#p8ddd59c8f4)" style="fill: none; stroke: #b0b0b0; stroke-width: 0.8; stroke-linecap: square"/>
     </g>
     <g id="text_8">
      <text style="font: 20px 'DejaVu Sans', 'Bitstream Vera Sans', 'Computer Modern Sans Serif', 'Lucida Grande', 'Verdana', 'Geneva', 'Lucid', 'Arial', 'Helvetica', 'Avant Garde', sans-serif; text-anchor: middle" x="570.104805" y="491.862875" transform="rotate(-0 570.104805 491.862875)">0.0</text>
     </g>
    </g>
    <g id="ytick_2">
     <g id="line2d_9">
      <path d="M 606.559662 469.666 
C 606.559662 460.001279 602.716272 450.722513 595.882282 443.888523 
C 589.048292 437.054533 579.769526 433.211143 570.104805 433.211143 
C 560.440084 433.211143 551.161318 437.054533 544.327329 443.888523 
C 537.493339 450.722513 533.649948 460.001279 533.649948 469.666 
" clip-path="url(#p8ddd59c8f4)" style="fill: none; stroke: #b0b0b0; stroke-width: 0.8; stroke-linecap: square"/>
     </g>
     <g id="text_9">
      <text style="font: 20px 'DejaVu Sans', 'Bitstream Vera Sans', 'Computer Modern Sans Serif', 'Lucida Grande', 'Verdana', 'Geneva', 'Lucid', 'Arial', 'Helvetica', 'Avant Garde', sans-serif; text-anchor: middle" x="606.559662" y="491.862875" transform="rotate(-0 606.559662 491.862875)">0.2</text>
     </g>
    </g>
    <g id="ytick_3">
     <g id="line2d_10">
      <path d="M 643.014519 469.666 
C 643.014519 450.336558 635.327738 431.779026 621.659759 418.111047 
C 607.991779 404.443067 589.434248 396.756286 570.104805 396.756286 
C 550.775363 396.756286 532.217832 404.443067 518.549852 418.111047 
C 504.881872 431.779026 497.195091 450.336558 497.195091 469.666 
" clip-path="url(#p8ddd59c8f4)" style="fill: none; stroke: #b0b0b0; stroke-width: 0.8; stroke-linecap: square"/>
     </g>
     <g id="text_10">
      <text style="font: 20px 'DejaVu Sans', 'Bitstream Vera Sans', 'Computer Modern Sans Serif', 'Lucida Grande', 'Verdana', 'Geneva', 'Lucid', 'Arial', 'Helvetica', 'Avant Garde', sans-serif; text-anchor: middle" x="643.014519" y="491.862875" transform="rotate(-0 643.014519 491.862875)">0.4</text>
     </g>
    </g>
    <g id="ytick_4">
     <g id="line2d_11">
      <path d="M 679.469377 469.666 
C 679.469377 440.671836 667.939205 412.83554 647.437235 392.33357 
C 626.935266 371.8316 599.098969 360.301429 570.104805 360.301429 
C 541.110642 360.301429 513.274345 371.8316 492.772375 392.33357 
C 472.270405 412.83554 460.740234 440.671836 460.740234 469.666 
" clip-path="url(#p8ddd59c8f4)" style="fill: none; stroke: #b0b0b0; stroke-width: 0.8; stroke-linecap: square"/>
     </g>
     <g id="text_11">
      <text style="font: 20px 'DejaVu Sans', 'Bitstream Vera Sans', 'Computer Modern Sans Serif', 'Lucida Grande', 'Verdana', 'Geneva', 'Lucid', 'Arial', 'Helvetica', 'Avant Garde', sans-serif; text-anchor: middle" x="679.469377" y="491.862875" transform="rotate(-0 679.469377 491.862875)">0.6</text>
     </g>
    </g>
    <g id="ytick_5">
     <g id="line2d_12">
      <path d="M 715.924234 469.666 
C 715.924234 431.007115 700.550672 393.892053 673.214712 366.556093 
C 645.878752 339.220134 608.76369 323.846571 570.104805 323.846571 
C 531.44592 323.846571 494.330858 339.220134 466.994898 366.556093 
C 439.658939 393.892053 424.285377 431.007115 424.285377 469.666 
" clip-path="url(#p8ddd59c8f4)" style="fill: none; stroke: #b0b0b0; stroke-width: 0.8; stroke-linecap: square"/>
     </g>
     <g id="text_12">
      <text style="font: 20px 'DejaVu Sans', 'Bitstream Vera Sans', 'Computer Modern Sans Serif', 'Lucida Grande', 'Verdana', 'Geneva', 'Lucid', 'Arial', 'Helvetica', 'Avant Garde', sans-serif; text-anchor: middle" x="715.924234" y="491.862875" transform="rotate(-0 715.924234 491.862875)">0.8</text>
     </g>
    </g>
    <g id="ytick_6">
     <g id="line2d_13">
      <path d="M 752.379091 469.666 
C 752.379091 421.342394 733.162138 374.948566 698.992189 340.778617 
C 664.822239 306.608667 618.428411 287.391714 570.104805 287.391714 
C 521.781199 287.391714 475.387371 306.608667 441.217422 340.778617 
C 407.047472 374.948566 387.830519 421.342394 387.830519 469.666 
" clip-path="url(#p8ddd59c8f4)" style="fill: none; stroke: #b0b0b0; stroke-width: 0.8; stroke-linecap: square"/>
     </g>
     <g id="text_13">
      <text style="font: 20px 'DejaVu Sans', 'Bitstream Vera Sans', 'Computer Modern Sans Serif', 'Lucida Grande', 'Verdana', 'Geneva', 'Lucid', 'Arial', 'Helvetica', 'Avant Garde', sans-serif; text-anchor: middle" x="752.379091" y="491.862875" transform="rotate(-0 752.379091 491.862875)">1.0</text>
     </g>
    </g>
   </g>
   <g id="line2d_14">
    <path d="M 611.974313 469.30061 
L 612.778334 468.548554 
L 614.78711 467.715128 
L 621.365059 466.530789 
L 619.579024 465.772295 
L 618.46629 465.009319 
L 622.260189 463.723645 
L 653.964128 458.625711 
L 647.809332 458.052981 
L 668.126465 453.2628 
L 679.852573 449.325454 
L 672.472258 448.839106 
L 671.156772 447.263318 
L 695.98952 439.443754 
L 686.890603 439.463139 
L 678.004475 439.742773 
L 679.577605 437.238679 
L 672.896605 437.25587 
L 650.271892 442.842468 
L 641.319459 444.447569 
L 640.923948 443.187808 
L 627.439476 447.081272 
L 621.271204 448.472184 
L 618.515352 448.616495 
L 614.207669 449.567167 
L 609.489536 450.880447 
L 610.278993 449.635889 
L 608.899876 448.601995 
L 611.741886 446.108873 
L 607.559556 447.603466 
L 610.954969 444.632988 
L 618.721104 438.694002 
L 628.916462 430.739413 
L 615.248955 438.639285 
L 616.368351 436.666533 
L 600.793321 446.957693 
L 596.023939 449.777549 
L 595.311471 449.615712 
L 594.793239 449.314426 
L 595.235673 448.202211 
L 594.023596 448.504441 
L 595.073685 446.786237 
L 603.655119 437.827941 
L 595.400174 444.80831 
L 592.123987 447.259117 
L 593.987425 444.49897 
L 612.88301 421.314035 
L 623.598935 407.032422 
L 625.495433 402.471796 
L 623.068524 403.081479 
L 622.028152 401.998177 
L 621.071714 400.788176 
L 617.035699 403.871313 
L 616.671705 401.91074 
L 617.2729 398.402782 
L 620.195714 391.039023 
L 628.783275 373.911439 
L 637.686716 354.934682 
L 629.825621 364.109816 
L 644.354291 332.915458 
L 642.710905 330.190981 
L 632.366696 344.787966 
L 622.245547 360.350662 
L 616.337522 368.217561 
L 615.660126 364.895934 
L 621.772946 344.928074 
L 634.439164 306.343716 
L 632.420827 302.99423 
L 626.241508 311.140842 
L 627.941285 296.810983 
L 613.535519 331.921375 
L 607.76516 342.526774 
L 595.228889 372.518375 
L 590.604959 384.276716 
L 586.702422 394.79899 
L 585.150123 395.715901 
L 585.246924 387.966437 
L 584.211597 385.367139 
L 581.546298 393.109181 
L 579.662855 397.065405 
L 577.847428 401.709876 
L 574.896545 419.901878 
L 574.934078 408.304275 
L 574.599066 396.185484 
L 574.858279 360.793547 
L 572.565046 375.713213 
L 570.794561 390.627831 
L 569.346952 382.824662 
L 568.423212 405.448554 
L 567.444244 408.729131 
L 564.742343 381.990518 
L 564.301829 409.399786 
L 563.655748 413.063349 
L 562.726065 413.618904 
L 561.334219 410.980637 
L 558.861196 402.476841 
L 554.093045 383.274271 
L 555.404163 397.410035 
L 549.952387 378.764317 
L 548.479576 379.590438 
L 555.642298 413.743636 
L 555.579889 417.290843 
L 556.827159 424.841418 
L 554.928976 424.310227 
L 554.752393 426.312126 
L 553.803196 426.065366 
L 549.676997 417.806988 
L 537.192535 390.208751 
L 524.686414 365.210853 
L 544.810623 414.162983 
L 558.604071 445.554209 
L 567.155393 464.233858 
L 565.964815 462.348592 
L 565.975968 462.656626 
L 565.33455 461.881651 
L 561.99401 457.411926 
L 556.544699 450.655433 
L 544.550916 435.1319 
L 544.572042 436.391055 
L 546.722632 440.270579 
L 477.774368 361.560948 
L 470.299456 356.856574 
L 489.801638 382.030471 
L 528.591433 425.920033 
L 533.702192 432.622431 
L 535.654118 435.811404 
L 535.429276 436.760152 
L 531.263356 434.074369 
L 529.371024 433.627795 
L 509.137013 417.594587 
L 499.465915 411.435793 
L 493.002062 408.335708 
L 533.767288 441.783242 
L 542.462296 449.211619 
L 544.818437 451.629409 
L 559.983592 462.966915 
L 565.211217 466.548441 
L 570.104805 469.666 
L 568.860055 468.932786 
L 559.633698 463.741732 
L 549.11509 458.269515 
L 553.740464 461.147263 
L 554.219522 461.74589 
L 551.967522 461.01496 
L 545.731319 458.558363 
L 539.807491 456.492353 
L 540.840294 457.544243 
L 536.843204 456.563907 
L 527.080928 453.580032 
L 527.576932 454.60609 
L 521.324048 453.344187 
L 522.898727 454.781981 
L 520.432175 454.952297 
L 516.930899 454.919571 
L 506.18043 453.134032 
L 517.922465 457.138128 
L 521.792694 458.955463 
L 524.339986 460.355042 
L 525.791204 461.45296 
L 525.094025 462.133779 
L 521.456033 462.395392 
L 506.109681 461.240882 
L 512.243111 464.094553 
L 516.097516 465.415534 
L 518.218129 466.492475 
L 526.853943 467.777627 
L 528.674195 468.581101 
L 528.235297 470.03139 
L 527.431276 470.783446 
L 525.4225 471.616872 
L 518.844551 472.801211 
L 520.630587 473.559705 
L 521.74332 474.322681 
L 517.949421 475.608355 
L 486.245482 480.706289 
L 492.400278 481.279019 
L 472.083145 486.0692 
L 460.357038 490.006546 
L 467.737353 490.492894 
L 469.052839 492.068682 
L 444.220091 499.888246 
L 453.319007 499.868861 
L 462.205135 499.589227 
L 460.632005 502.093321 
L 467.313006 502.07613 
L 489.937718 496.489532 
L 498.890152 494.884431 
L 499.285663 496.144192 
L 512.770134 492.250728 
L 518.938406 490.859816 
L 521.694259 490.715505 
L 526.001942 489.764833 
L 530.720075 488.451553 
L 529.930618 489.696111 
L 531.309735 490.730005 
L 528.467724 493.223127 
L 532.650055 491.728534 
L 529.254642 494.699012 
L 521.488506 500.637998 
L 511.293148 508.592587 
L 524.960655 500.692715 
L 523.841259 502.665467 
L 539.416289 492.374307 
L 544.185671 489.554451 
L 544.898139 489.716288 
L 545.416372 490.017574 
L 544.973937 491.129789 
L 546.186014 490.827559 
L 545.135926 492.545763 
L 536.554492 501.504059 
L 544.809436 494.52369 
L 548.085623 492.072883 
L 546.222186 494.83303 
L 527.3266 518.017965 
L 516.610676 532.299578 
L 514.714178 536.860204 
L 517.141086 536.250521 
L 518.181458 537.333823 
L 519.137897 538.543824 
L 523.173911 535.460687 
L 523.537905 537.42126 
L 522.93671 540.929218 
L 520.013896 548.292977 
L 511.426335 565.420561 
L 502.522894 584.397318 
L 510.38399 575.222184 
L 495.855319 606.416542 
L 497.498706 609.141019 
L 507.842914 594.544034 
L 517.964063 578.981338 
L 523.872088 571.114439 
L 524.549484 574.436066 
L 518.436665 594.403926 
L 505.770447 632.988284 
L 507.788784 636.33777 
L 513.968102 628.191158 
L 512.268326 642.521017 
L 526.674092 607.410625 
L 532.444451 596.805226 
L 544.980721 566.813625 
L 549.604652 555.055284 
L 553.507189 544.53301 
L 555.059487 543.616099 
L 554.962686 551.365563 
L 555.998014 553.964861 
L 558.663312 546.222819 
L 560.546755 542.266595 
L 562.362183 537.622124 
L 565.313065 519.430122 
L 565.275533 531.027725 
L 565.610544 543.146516 
L 565.351331 578.538453 
L 567.644565 563.618787 
L 569.41505 548.704169 
L 570.862658 556.507338 
L 571.786398 533.883446 
L 572.765366 530.602869 
L 575.467267 557.341482 
L 575.907782 529.932214 
L 576.553863 526.268651 
L 577.483545 525.713096 
L 578.875391 528.351363 
L 581.348414 536.855159 
L 586.116566 556.057729 
L 584.805448 541.921965 
L 590.257223 560.567683 
L 591.730034 559.741562 
L 584.567312 525.588364 
L 584.629722 522.041157 
L 583.382451 514.490582 
L 585.280635 515.021773 
L 585.457217 513.019874 
L 586.406414 513.266634 
L 590.532613 521.525012 
L 603.017075 549.123249 
L 615.523196 574.121147 
L 595.398987 525.169017 
L 581.60554 493.777791 
L 573.054218 475.098142 
L 574.244795 476.983408 
L 574.233642 476.675374 
L 574.87506 477.450349 
L 578.2156 481.920074 
L 583.664911 488.676567 
L 595.658695 504.2001 
L 595.637569 502.940945 
L 593.486979 499.061421 
L 662.435242 577.771052 
L 669.910154 582.475426 
L 650.407972 557.301529 
L 611.618178 513.411967 
L 606.507419 506.709569 
L 604.555493 503.520596 
L 604.780334 502.571848 
L 608.946254 505.257631 
L 610.838586 505.704205 
L 631.072597 521.737413 
L 640.743695 527.896207 
L 647.207549 530.996292 
L 606.442323 497.548758 
L 597.747315 490.120381 
L 595.391174 487.702591 
L 580.226019 476.365085 
L 574.998393 472.783559 
L 570.104805 469.666 
L 571.349556 470.399214 
L 580.575913 475.590268 
L 591.09452 481.062485 
L 586.469146 478.184737 
L 585.990088 477.58611 
L 588.242088 478.31704 
L 594.478291 480.773637 
L 600.402119 482.839647 
L 599.369316 481.787757 
L 603.366406 482.768093 
L 613.128682 485.751968 
L 612.632678 484.72591 
L 618.885562 485.987813 
L 617.310883 484.550019 
L 619.777435 484.379703 
L 623.278712 484.412429 
L 634.02918 486.197968 
L 622.287145 482.193872 
L 618.416917 480.376537 
L 615.869624 478.976958 
L 614.418406 477.87904 
L 615.115585 477.198221 
L 618.753578 476.936608 
L 634.099929 478.091118 
L 627.966499 475.237447 
L 624.112095 473.916466 
L 621.991482 472.839525 
L 613.355668 471.554373 
L 611.535416 470.750899 
L 611.80854 470.029943 
L 611.80854 470.029943 
" clip-path="url(#p8ddd59c8f4)" style="fill: none; stroke: #1f77b4; stroke-opacity: 0.6; stroke-width: 1.5; stroke-linecap: square"/>
   </g>
   <g id="line2d_15">
    <path d="M 637.664782 469.076413 
L 639.560261 467.847245 
L 641.101575 466.566214 
L 643.733367 463.871306 
L 644.870481 462.466884 
L 645.833719 461.03778 
L 646.27416 459.638114 
L 646.293662 458.279499 
L 646.781165 456.834778 
L 648.105941 453.79649 
L 648.552423 452.274582 
L 648.628273 450.814183 
L 648.352163 449.429857 
L 647.757914 448.130887 
L 647.01334 446.884654 
L 646.433033 445.599802 
L 642.882592 442.4555 
L 641.232491 441.64806 
L 638.849307 441.191095 
L 635.769091 441.114356 
L 632.190787 441.371788 
L 625.010162 442.291199 
L 618.37988 443.454773 
L 615.319717 444.084634 
L 606.976585 446.176086 
L 602.223928 447.591138 
L 601.14939 447.522113 
L 599.606423 447.835951 
L 598.600311 447.800629 
L 599.212408 446.512767 
L 602.241642 442.218548 
L 604.238155 439.467363 
L 605.960431 436.810373 
L 607.573623 432.845496 
L 609.024859 430.060666 
L 610.177918 427.43775 
L 614.307 419.704507 
L 616.646607 415.172551 
L 618.950323 410.411649 
L 621.238372 405.382296 
L 623.396208 400.215291 
L 625.212381 395.192385 
L 626.626326 390.42575 
L 627.616601 385.985818 
L 629.315838 376.723295 
L 630.114739 371.738688 
L 630.620798 366.93023 
L 630.63432 362.680444 
L 629.890418 359.554598 
L 626.798914 355.95521 
L 625.229692 354.094271 
L 621.495311 351.475928 
L 619.450786 350.534265 
L 617.056196 350.472951 
L 614.571587 350.734191 
L 611.991907 351.380472 
L 609.312624 352.48618 
L 603.949433 355.408451 
L 601.332534 357.062448 
L 596.035931 361.655089 
L 593.378872 364.683467 
L 590.817478 367.85996 
L 588.495504 370.438669 
L 586.234754 373.277229 
L 584.072315 376.207213 
L 580.074741 382.160994 
L 578.306402 384.489163 
L 576.586846 387.303857 
L 575.016505 389.360416 
L 573.494829 392.021691 
L 572.042874 395.654145 
L 570.730036 398.02166 
L 569.494646 399.748709 
L 568.312165 401.207815 
L 567.156952 402.149053 
L 565.953187 401.787637 
L 563.47788 400.842746 
L 562.144171 399.796412 
L 560.90042 399.751753 
L 559.697219 400.027216 
L 558.594143 400.880994 
L 557.613752 402.270308 
L 556.85909 404.561229 
L 555.668617 409.534948 
L 555.272168 412.312448 
L 555.491173 416.970945 
L 555.814427 421.422493 
L 555.869634 424.517806 
L 555.434851 425.822128 
L 555.147672 427.428358 
L 554.777648 428.671655 
L 554.312196 429.574127 
L 553.464966 429.493874 
L 552.713398 429.668502 
L 552.369572 430.749583 
L 551.959587 431.623759 
L 551.817948 432.988239 
L 550.973719 432.915525 
L 549.569603 431.844863 
L 547.051955 430.530026 
L 544.628103 429.675588 
L 540.795088 428.575292 
L 539.860658 428.793381 
L 536.90545 427.928691 
L 536.0438 428.346696 
L 535.413504 429.047705 
L 534.788038 431.124511 
L 534.593921 432.245336 
L 534.714417 434.887962 
L 534.666624 436.036422 
L 533.767278 436.368791 
L 531.98522 435.94064 
L 531.188342 436.428201 
L 531.5629 439.008384 
L 531.902271 440.352164 
L 533.047004 443.232927 
L 533.900677 444.783592 
L 535.027406 446.448776 
L 538.234728 450.135992 
L 542.315161 454.577454 
L 543.198985 455.659716 
L 544.26586 456.783177 
L 544.801669 457.597023 
L 542.863272 457.251318 
L 540.170024 456.649987 
L 537.892943 456.32341 
L 536.450731 457.083257 
L 535.142071 457.967633 
L 535.115662 458.633965 
L 534.602896 459.149856 
L 533.559029 459.530959 
L 531.947304 459.797799 
L 529.258296 459.859621 
L 527.577167 460.23785 
L 526.621793 460.819281 
L 522.054725 462.484867 
L 520.498491 463.135205 
L 508.962254 466.996459 
L 506.719901 468.006208 
L 502.544828 470.255587 
L 500.649349 471.484755 
L 499.108035 472.765786 
L 496.476243 475.460694 
L 495.33913 476.865116 
L 494.375891 478.29422 
L 493.93545 479.693886 
L 493.915948 481.052501 
L 493.428446 482.497222 
L 492.103669 485.53551 
L 491.657187 487.057418 
L 491.581337 488.517817 
L 491.857447 489.902143 
L 492.451696 491.201113 
L 493.19627 492.447346 
L 493.776578 493.732198 
L 497.327018 496.8765 
L 498.97712 497.68394 
L 501.360303 498.140905 
L 504.440519 498.217644 
L 508.018824 497.960212 
L 515.199448 497.040801 
L 521.82973 495.877227 
L 524.889893 495.247366 
L 533.233026 493.155914 
L 537.985682 491.740862 
L 539.060221 491.809887 
L 540.603187 491.496049 
L 541.609299 491.531371 
L 540.997202 492.819233 
L 537.967968 497.113452 
L 535.971455 499.864637 
L 534.24918 502.521627 
L 532.635988 506.486504 
L 531.184752 509.271334 
L 530.031693 511.89425 
L 525.90261 519.627493 
L 523.563003 524.159449 
L 521.259288 528.920351 
L 518.971238 533.949704 
L 516.813402 539.116709 
L 514.997229 544.139615 
L 513.583284 548.90625 
L 512.593009 553.346182 
L 510.893772 562.608705 
L 510.094871 567.593312 
L 509.588812 572.40177 
L 509.57529 576.651556 
L 510.319192 579.777402 
L 513.410697 583.37679 
L 514.979918 585.237729 
L 518.714299 587.856072 
L 520.758825 588.797735 
L 523.153415 588.859049 
L 525.638024 588.597809 
L 528.217703 587.951528 
L 530.896986 586.84582 
L 536.260177 583.923549 
L 538.877077 582.269552 
L 544.17368 577.676911 
L 546.830738 574.648533 
L 549.392132 571.47204 
L 551.714106 568.893331 
L 553.974857 566.054771 
L 556.137296 563.124787 
L 560.134869 557.171006 
L 561.903209 554.842837 
L 563.622764 552.028143 
L 565.193105 549.971584 
L 566.714781 547.310309 
L 568.166737 543.677855 
L 569.479575 541.31034 
L 570.714964 539.583291 
L 571.897446 538.124185 
L 573.052659 537.182947 
L 574.256424 537.544363 
L 576.731731 538.489254 
L 578.065439 539.535588 
L 579.30919 539.580247 
L 580.512391 539.304784 
L 581.615467 538.451006 
L 582.595858 537.061692 
L 583.35052 534.770771 
L 584.540993 529.797052 
L 584.937442 527.019552 
L 584.718437 522.361055 
L 584.395183 517.909507 
L 584.339976 514.814194 
L 584.77476 513.509872 
L 585.061939 511.903642 
L 585.431963 510.660345 
L 585.897414 509.757873 
L 586.744645 509.838126 
L 587.496212 509.663498 
L 587.840038 508.582417 
L 588.250023 507.708241 
L 588.391662 506.343761 
L 589.235891 506.416475 
L 590.640007 507.487137 
L 593.157655 508.801974 
L 595.581507 509.656412 
L 599.414522 510.756708 
L 600.348952 510.538619 
L 603.30416 511.403309 
L 604.165811 510.985304 
L 604.796107 510.284295 
L 605.421573 508.207489 
L 605.61569 507.086664 
L 605.495194 504.444038 
L 605.542986 503.295578 
L 606.442332 502.963209 
L 608.22439 503.39136 
L 609.021268 502.903799 
L 608.64671 500.323616 
L 608.30734 498.979836 
L 607.162606 496.099073 
L 606.308934 494.548408 
L 605.182205 492.883224 
L 601.974882 489.196008 
L 597.894449 484.754546 
L 597.010626 483.672284 
L 595.94375 482.548823 
L 595.407942 481.734977 
L 597.346338 482.080682 
L 600.039586 482.682013 
L 602.316667 483.00859 
L 603.75888 482.248743 
L 605.067539 481.364367 
L 605.093949 480.698035 
L 605.606714 480.182144 
L 606.650581 479.801041 
L 608.262306 479.534201 
L 610.951314 479.472379 
L 612.632443 479.09415 
L 613.587817 478.512719 
L 618.154885 476.847133 
L 619.71112 476.196795 
L 631.247356 472.335541 
L 633.489709 471.325792 
L 635.583174 470.237421 
L 635.583174 470.237421 
" clip-path="url(#p8ddd59c8f4)" style="fill: none; stroke: #008000; stroke-width: 1.5; stroke-linecap: square"/>
   </g>
   <g id="line2d_16">
    <defs>
     <path id="m90005b574b" d="M 0 3 
C 0.795609 3 1.55874 2.683901 2.12132 2.12132 
C 2.683901 1.55874 3 0.795609 3 0 
C 3 -0.795609 2.683901 -1.55874 2.12132 -2.12132 
C 1.55874 -2.683901 0.795609 -3 0 -3 
C -0.795609 -3 -1.55874 -2.683901 -2.12132 -2.12132 
C -2.683901 -1.55874 -3 -0.795609 -3 0 
C -3 0.795609 -2.683901 1.55874 -2.12132 2.12132 
C -1.55874 2.683901 -0.795609 3 0 3 
z
" style="stroke: #ff0000"/>
    </defs>
    <g clip-path="url(#p8ddd59c8f4)">
     <use xlink:href="#m90005b574b" x="648.352163" y="449.429857" style="fill: #ff0000; stroke: #ff0000"/>
     <use xlink:href="#m90005b574b" x="619.450786" y="350.534265" style="fill: #ff0000; stroke: #ff0000"/>
     <use xlink:href="#m90005b574b" x="536.0438" y="428.346696" style="fill: #ff0000; stroke: #ff0000"/>
     <use xlink:href="#m90005b574b" x="491.857447" y="489.902143" style="fill: #ff0000; stroke: #ff0000"/>
     <use xlink:href="#m90005b574b" x="520.758825" y="588.797735" style="fill: #ff0000; stroke: #ff0000"/>
     <use xlink:href="#m90005b574b" x="604.165811" y="510.985304" style="fill: #ff0000; stroke: #ff0000"/>
    </g>
   </g>
   <g id="patch_3">
    <path d="M 761.492805 469.666 
C 761.492805 418.926214 741.315005 370.212694 705.436558 334.334247 
C 669.558111 298.4558 620.844591 278.278 570.104805 278.278 
C 519.365019 278.278 470.6515 298.4558 434.773053 334.334247 
C 398.894606 370.212694 378.716805 418.926214 378.716805 469.666 
" style="fill: none; stroke: #000000; stroke-width: 0.8; stroke-linejoin: miter; stroke-linecap: square"/>
   </g>
   <g id="patch_4">
    <path d="M 570.104805 469.666 
L 761.492805 469.666 
" style="fill: none; stroke: #000000; stroke-width: 0.8; stroke-linejoin: miter; stroke-linecap: square"/>
   </g>
   <g id="patch_5">
    <path d="M 570.104805 469.666 
L 378.716805 469.666 
" style="fill: none; stroke: #000000; stroke-width: 0.8; stroke-linejoin: miter; stroke-linecap: square"/>
   </g>
   <g id="text_14">
    <text style="font: 30px 'DejaVu Sans', 'Bitstream Vera Sans', 'Computer Modern Sans Serif', 'Lucida Grande', 'Verdana', 'Geneva', 'Lucid', 'Arial', 'Helvetica', 'Avant Garde', sans-serif" transform="translate(262.361055 142.156187)">w137 d28 800 exp tray 4_OJ_Distribution</text>
    <text style="font: 30px 'DejaVu Sans', 'Bitstream Vera Sans', 'Computer Modern Sans Serif', 'Lucida Grande', 'Verdana', 'Geneva', 'Lucid', 'Arial', 'Helvetica', 'Avant Garde', sans-serif" transform="translate(400.29543 176.584)">Dominant Harmonic: 2</text>
   </g>
   <g id="legend_1">
    <g id="patch_6">
     <path d="M 392.716805 555.36 
L 558.88868 555.36 
Q 562.88868 555.36 562.88868 551.36 
L 562.88868 465.29125 
Q 562.88868 461.29125 558.88868 461.29125 
L 392.716805 461.29125 
Q 388.716805 461.29125 388.716805 465.29125 
L 388.716805 551.36 
Q 388.716805 555.36 392.716805 555.36 
z
" style="fill: #ffffff; opacity: 0.5; stroke: #cccccc; stroke-linejoin: miter"/>
    </g>
    <g id="line2d_17">
     <path d="M 396.716805 477.488125 
L 416.716805 477.488125 
L 436.716805 477.488125 
" style="fill: none; stroke: #1f77b4; stroke-opacity: 0.6; stroke-width: 1.5; stroke-linecap: square"/>
    </g>
    <g id="text_15">
     <text style="font: 20px 'DejaVu Sans', 'Bitstream Vera Sans', 'Computer Modern Sans Serif', 'Lucida Grande', 'Verdana', 'Geneva', 'Lucid', 'Arial', 'Helvetica', 'Avant Garde', sans-serif; text-anchor: start" x="452.716805" y="484.488125" transform="rotate(-0 452.716805 484.488125)">Raw</text>
    </g>
    <g id="line2d_18">
     <path d="M 396.716805 506.844375 
L 416.716805 506.844375 
L 436.716805 506.844375 
" style="fill: none; stroke: #008000; stroke-width: 1.5; stroke-linecap: square"/>
    </g>
    <g id="text_16">
     <text style="font: 20px 'DejaVu Sans', 'Bitstream Vera Sans', 'Computer Modern Sans Serif', 'Lucida Grande', 'Verdana', 'Geneva', 'Lucid', 'Arial', 'Helvetica', 'Avant Garde', sans-serif; text-anchor: start" x="452.716805" y="513.844375" transform="rotate(-0 452.716805 513.844375)">Smoothed</text>
    </g>
    <g id="line2d_19">
     <g>
      <use xlink:href="#m90005b574b" x="416.716805" y="536.200625" style="fill: #ff0000; stroke: #ff0000"/>
     </g>
    </g>
    <g id="text_17">
     <text style="font: 20px 'DejaVu Sans', 'Bitstream Vera Sans', 'Computer Modern Sans Serif', 'Lucida Grande', 'Verdana', 'Geneva', 'Lucid', 'Arial', 'Helvetica', 'Avant Garde', sans-serif; text-anchor: start" x="452.716805" y="543.200625" transform="rotate(-0 452.716805 543.200625)">Peaks</text>
    </g>
   </g>
  </g>
  <g id="axes_2">
   <g id="patch_7">
    <path d="M 1038.424156 565.36 
L 1219.459091 565.36 
L 1219.459091 182.584 
L 1038.424156 182.584 
z
" style="fill: #ffffff"/>
   </g>
   <g id="patch_8">
    <path d="M 1046.653017 565.36 
L 1119.798445 565.36 
L 1119.798445 200.811429 
L 1046.653017 200.811429 
z
" clip-path="url(#pca47c10d9e)" style="fill: #ffd700; fill-opacity: 0.5; stroke: #000000; stroke-linejoin: miter"/>
   </g>
   <g id="patch_9">
    <path d="M 1138.084802 565.36 
L 1211.23023 565.36 
L 1211.23023 366.024181 
L 1138.084802 366.024181 
z
" clip-path="url(#pca47c10d9e)" style="fill: #ffd700; fill-opacity: 0.5; stroke: #000000; stroke-linejoin: miter"/>
   </g>
   <g id="matplotlib.axis_3">
    <g id="xtick_8">
     <g id="line2d_20">
      <defs>
       <path id="m29dffb1914" d="M 0 0 
L 0 3.5 
" style="stroke: #000000; stroke-width: 0.8"/>
      </defs>
      <g>
       <use xlink:href="#m29dffb1914" x="1083.225731" y="565.36" style="stroke: #000000; stroke-width: 0.8"/>
      </g>
     </g>
     <g id="text_18">
      <text style="font: 20px 'DejaVu Sans', 'Bitstream Vera Sans', 'Computer Modern Sans Serif', 'Lucida Grande', 'Verdana', 'Geneva', 'Lucid', 'Arial', 'Helvetica', 'Avant Garde', sans-serif; text-anchor: middle" x="1083.225731" y="587.556875" transform="rotate(-0 1083.225731 587.556875)">2</text>
     </g>
    </g>
    <g id="xtick_9">
     <g id="line2d_21">
      <g>
       <use xlink:href="#m29dffb1914" x="1174.657516" y="565.36" style="stroke: #000000; stroke-width: 0.8"/>
      </g>
     </g>
     <g id="text_19">
      <text style="font: 20px 'DejaVu Sans', 'Bitstream Vera Sans', 'Computer Modern Sans Serif', 'Lucida Grande', 'Verdana', 'Geneva', 'Lucid', 'Arial', 'Helvetica', 'Avant Garde', sans-serif; text-anchor: middle" x="1174.657516" y="587.556875" transform="rotate(-0 1174.657516 587.556875)">4</text>
     </g>
    </g>
    <g id="text_20">
     <text style="font: 25px 'DejaVu Sans', 'Bitstream Vera Sans', 'Computer Modern Sans Serif', 'Lucida Grande', 'Verdana', 'Geneva', 'Lucid', 'Arial', 'Helvetica', 'Avant Garde', sans-serif; text-anchor: middle" x="1128.941623" y="614.712344" transform="rotate(-0 1128.941623 614.712344)">Harmonic</text>
    </g>
   </g>
   <g id="matplotlib.axis_4">
    <g id="ytick_7">
     <g id="line2d_22">
      <defs>
       <path id="mfa38aa845d" d="M 0 0 
L -3.5 0 
" style="stroke: #000000; stroke-width: 0.8"/>
      </defs>
      <g>
       <use xlink:href="#mfa38aa845d" x="1038.424156" y="565.36" style="stroke: #000000; stroke-width: 0.8"/>
      </g>
     </g>
     <g id="text_21">
      <text style="font: 20px 'DejaVu Sans', 'Bitstream Vera Sans', 'Computer Modern Sans Serif', 'Lucida Grande', 'Verdana', 'Geneva', 'Lucid', 'Arial', 'Helvetica', 'Avant Garde', sans-serif; text-anchor: end" x="1031.424156" y="572.958437" transform="rotate(-0 1031.424156 572.958437)">0.00</text>
     </g>
    </g>
    <g id="ytick_8">
     <g id="line2d_23">
      <g>
       <use xlink:href="#mfa38aa845d" x="1038.424156" y="514.706882" style="stroke: #000000; stroke-width: 0.8"/>
      </g>
     </g>
     <g id="text_22">
      <text style="font: 20px 'DejaVu Sans', 'Bitstream Vera Sans', 'Computer Modern Sans Serif', 'Lucida Grande', 'Verdana', 'Geneva', 'Lucid', 'Arial', 'Helvetica', 'Avant Garde', sans-serif; text-anchor: end" x="1031.424156" y="522.30532" transform="rotate(-0 1031.424156 522.30532)">0.01</text>
     </g>
    </g>
    <g id="ytick_9">
     <g id="line2d_24">
      <g>
       <use xlink:href="#mfa38aa845d" x="1038.424156" y="464.053764" style="stroke: #000000; stroke-width: 0.8"/>
      </g>
     </g>
     <g id="text_23">
      <text style="font: 20px 'DejaVu Sans', 'Bitstream Vera Sans', 'Computer Modern Sans Serif', 'Lucida Grande', 'Verdana', 'Geneva', 'Lucid', 'Arial', 'Helvetica', 'Avant Garde', sans-serif; text-anchor: end" x="1031.424156" y="471.652202" transform="rotate(-0 1031.424156 471.652202)">0.02</text>
     </g>
    </g>
    <g id="ytick_10">
     <g id="line2d_25">
      <g>
       <use xlink:href="#mfa38aa845d" x="1038.424156" y="413.400646" style="stroke: #000000; stroke-width: 0.8"/>
      </g>
     </g>
     <g id="text_24">
      <text style="font: 20px 'DejaVu Sans', 'Bitstream Vera Sans', 'Computer Modern Sans Serif', 'Lucida Grande', 'Verdana', 'Geneva', 'Lucid', 'Arial', 'Helvetica', 'Avant Garde', sans-serif; text-anchor: end" x="1031.424156" y="420.999084" transform="rotate(-0 1031.424156 420.999084)">0.03</text>
     </g>
    </g>
    <g id="ytick_11">
     <g id="line2d_26">
      <g>
       <use xlink:href="#mfa38aa845d" x="1038.424156" y="362.747529" style="stroke: #000000; stroke-width: 0.8"/>
      </g>
     </g>
     <g id="text_25">
      <text style="font: 20px 'DejaVu Sans', 'Bitstream Vera Sans', 'Computer Modern Sans Serif', 'Lucida Grande', 'Verdana', 'Geneva', 'Lucid', 'Arial', 'Helvetica', 'Avant Garde', sans-serif; text-anchor: end" x="1031.424156" y="370.345966" transform="rotate(-0 1031.424156 370.345966)">0.04</text>
     </g>
    </g>
    <g id="ytick_12">
     <g id="line2d_27">
      <g>
       <use xlink:href="#mfa38aa845d" x="1038.424156" y="312.094411" style="stroke: #000000; stroke-width: 0.8"/>
      </g>
     </g>
     <g id="text_26">
      <text style="font: 20px 'DejaVu Sans', 'Bitstream Vera Sans', 'Computer Modern Sans Serif', 'Lucida Grande', 'Verdana', 'Geneva', 'Lucid', 'Arial', 'Helvetica', 'Avant Garde', sans-serif; text-anchor: end" x="1031.424156" y="319.692848" transform="rotate(-0 1031.424156 319.692848)">0.05</text>
     </g>
    </g>
    <g id="ytick_13">
     <g id="line2d_28">
      <g>
       <use xlink:href="#mfa38aa845d" x="1038.424156" y="261.441293" style="stroke: #000000; stroke-width: 0.8"/>
      </g>
     </g>
     <g id="text_27">
      <text style="font: 20px 'DejaVu Sans', 'Bitstream Vera Sans', 'Computer Modern Sans Serif', 'Lucida Grande', 'Verdana', 'Geneva', 'Lucid', 'Arial', 'Helvetica', 'Avant Garde', sans-serif; text-anchor: end" x="1031.424156" y="269.03973" transform="rotate(-0 1031.424156 269.03973)">0.06</text>
     </g>
    </g>
    <g id="ytick_14">
     <g id="line2d_29">
      <g>
       <use xlink:href="#mfa38aa845d" x="1038.424156" y="210.788175" style="stroke: #000000; stroke-width: 0.8"/>
      </g>
     </g>
     <g id="text_28">
      <text style="font: 20px 'DejaVu Sans', 'Bitstream Vera Sans', 'Computer Modern Sans Serif', 'Lucida Grande', 'Verdana', 'Geneva', 'Lucid', 'Arial', 'Helvetica', 'Avant Garde', sans-serif; text-anchor: end" x="1031.424156" y="218.386612" transform="rotate(-0 1031.424156 218.386612)">0.07</text>
     </g>
    </g>
    <g id="text_29">
     <text style="font: 25px 'DejaVu Sans', 'Bitstream Vera Sans', 'Computer Modern Sans Serif', 'Lucida Grande', 'Verdana', 'Geneva', 'Lucid', 'Arial', 'Helvetica', 'Avant Garde', sans-serif; text-anchor: middle" x="977.693687" y="373.972" transform="rotate(-90 977.693687 373.972)">Amplitude</text>
    </g>
   </g>
   <g id="patch_10">
    <path d="M 1038.424156 565.36 
L 1038.424156 182.584 
" style="fill: none; stroke: #000000; stroke-width: 0.8; stroke-linejoin: miter; stroke-linecap: square"/>
   </g>
   <g id="patch_11">
    <path d="M 1219.459091 565.36 
L 1219.459091 182.584 
" style="fill: none; stroke: #000000; stroke-width: 0.8; stroke-linejoin: miter; stroke-linecap: square"/>
   </g>
   <g id="patch_12">
    <path d="M 1038.424156 565.36 
L 1219.459091 565.36 
" style="fill: none; stroke: #000000; stroke-width: 0.8; stroke-linejoin: miter; stroke-linecap: square"/>
   </g>
   <g id="patch_13">
    <path d="M 1038.424156 182.584 
L 1219.459091 182.584 
" style="fill: none; stroke: #000000; stroke-width: 0.8; stroke-linejoin: miter; stroke-linecap: square"/>
   </g>
   <g id="text_30">
    <g id="patch_14">
     <path d="M 1210.407344 316.66155 
L 1483.407344 316.66155 
Q 1489.407344 316.66155 1489.407344 310.66155 
L 1489.407344 201.7228 
Q 1489.407344 195.7228 1483.407344 195.7228 
L 1210.407344 195.7228 
Q 1204.407344 195.7228 1204.407344 201.7228 
L 1204.407344 310.66155 
Q 1204.407344 316.66155 1210.407344 316.66155 
z
" style="fill: #f5deb3; stroke: #000000; stroke-linejoin: miter"/>
    </g>
    <text style="font: 20px 'DejaVu Sans', 'Bitstream Vera Sans', 'Computer Modern Sans Serif', 'Lucida Grande', 'Verdana', 'Geneva', 'Lucid', 'Arial', 'Helvetica', 'Avant Garde', sans-serif" transform="translate(1210.407344 216.919675)">2nd Harmonic: 0.0720</text>
    <text style="font: 20px 'DejaVu Sans', 'Bitstream Vera Sans', 'Computer Modern Sans Serif', 'Lucida Grande', 'Verdana', 'Geneva', 'Lucid', 'Arial', 'Helvetica', 'Avant Garde', sans-serif" transform="translate(1210.407344 239.3153)">4th Harmonic: 0.0394</text>
    <text style="font: 20px 'DejaVu Sans', 'Bitstream Vera Sans', 'Computer Modern Sans Serif', 'Lucida Grande', 'Verdana', 'Geneva', 'Lucid', 'Arial', 'Helvetica', 'Avant Garde', sans-serif" transform="translate(1210.407344 261.710925)">Ratio (H4/H2): 0.55</text>
    <text style="font: 20px 'DejaVu Sans', 'Bitstream Vera Sans', 'Computer Modern Sans Serif', 'Lucida Grande', 'Verdana', 'Geneva', 'Lucid', 'Arial', 'Helvetica', 'Avant Garde', sans-serif" transform="translate(1210.407344 284.10655)">Orientation peaks: 3</text>
    <text style="font: 20px 'DejaVu Sans', 'Bitstream Vera Sans', 'Computer Modern Sans Serif', 'Lucida Grande', 'Verdana', 'Geneva', 'Lucid', 'Arial', 'Helvetica', 'Avant Garde', sans-serif" transform="translate(1210.407344 306.502175)">Angle between peaks: 57.5</text>
   </g>
   <g id="text_31">
    <text style="font: 30px 'DejaVu Sans', 'Bitstream Vera Sans', 'Computer Modern Sans Serif', 'Lucida Grande', 'Verdana', 'Geneva', 'Lucid', 'Arial', 'Helvetica', 'Avant Garde', sans-serif" transform="translate(1025.333811 48.990563)">FFT Spectrum</text>
    <text style="font: 30px 'DejaVu Sans', 'Bitstream Vera Sans', 'Computer Modern Sans Serif', 'Lucida Grande', 'Verdana', 'Geneva', 'Lucid', 'Arial', 'Helvetica', 'Avant Garde', sans-serif" transform="translate(983.467405 82.584)">H4:H2 Ratio = 0.55</text>
   </g>
  </g>
 </g>
 <defs>
  <clipPath id="p8ddd59c8f4">
   <path d="M 761.492805 469.666 
C 761.492805 418.926214 741.315005 370.212694 705.436558 334.334247 
C 669.558111 298.4558 620.844591 278.278 570.104805 278.278 
C 519.365019 278.278 470.6515 298.4558 434.773053 334.334247 
C 398.894606 370.212694 378.716805 418.926214 378.716805 469.666 
L 570.104805 469.666 
C 570.104805 469.666 570.104805 469.666 570.104805 469.666 
C 570.104805 469.666 570.104805 469.666 570.104805 469.666 
C 570.104805 469.666 570.104805 469.666 570.104805 469.666 
C 570.104805 469.666 570.104805 469.666 570.104805 469.666 
z
"/>
  </clipPath>
  <clipPath id="pca47c10d9e">
   <rect x="1038.424156" y="182.584" width="181.034935" height="382.776"/>
  </clipPath>
 </defs>
</svg>
