<?xml version="1.0" encoding="utf-8" standalone="no"?>
<!DOCTYPE svg PUBLIC "-//W3C//DTD SVG 1.1//EN"
  "http://www.w3.org/Graphics/SVG/1.1/DTD/svg11.dtd">
<svg xmlns:xlink="http://www.w3.org/1999/xlink" width="1512pt" height="648pt" viewBox="0 0 1512 648" xmlns="http://www.w3.org/2000/svg" version="1.1">
 <metadata>
  <rdf:RDF xmlns:dc="http://purl.org/dc/elements/1.1/" xmlns:cc="http://creativecommons.org/ns#" xmlns:rdf="http://www.w3.org/1999/02/22-rdf-syntax-ns#">
   <cc:Work>
    <dc:type rdf:resource="http://purl.org/dc/dcmitype/StillImage"/>
    <dc:date>2025-04-19T18:37:05.250325</dc:date>
    <dc:format>image/svg+xml</dc:format>
    <dc:creator>
     <cc:Agent>
      <dc:title>Matplotlib v3.9.2, https://matplotlib.org/</dc:title>
     </cc:Agent>
    </dc:creator>
   </cc:Work>
  </rdf:RDF>
 </metadata>
 <defs>
  <style type="text/css">*{stroke-linejoin: round; stroke-linecap: butt}</style>
 </defs>
 <g id="figure_1">
  <g id="patch_1">
   <path d="M 0 648 
L 1512 648 
L 1512 0 
L 0 0 
z
" style="fill: #ffffff"/>
  </g>
  <g id="axes_1">
   <g id="patch_2">
    <path d="M 761.492805 469.666 
C 761.492805 418.926214 741.315005 370.212694 705.436558 334.334247 
C 669.558111 298.4558 620.844591 278.278 570.104805 278.278 
C 519.365019 278.278 470.6515 298.4558 434.773053 334.334247 
C 398.894606 370.212694 378.716805 418.926214 378.716805 469.666 
L 570.104805 469.666 
C 570.104805 469.666 570.104805 469.666 570.104805 469.666 
C 570.104805 469.666 570.104805 469.666 570.104805 469.666 
C 570.104805 469.666 570.104805 469.666 570.104805 469.666 
C 570.104805 469.666 570.104805 469.666 570.104805 469.666 
z
" style="fill: #ffffff"/>
   </g>
   <g id="matplotlib.axis_1">
    <g id="xtick_1">
     <g id="line2d_1">
      <path d="M 570.104805 469.666 
L 761.492805 469.666 
" clip-path="url(#p397285b0da)" style="fill: none; stroke: #b0b0b0; stroke-width: 0.8; stroke-linecap: square"/>
     </g>
     <g id="text_1">
      <text style="font: 20px 'DejaVu Sans', 'Bitstream Vera Sans', 'Computer Modern Sans Serif', 'Lucida Grande', 'Verdana', 'Geneva', 'Lucid', 'Arial', 'Helvetica', 'Avant Garde', sans-serif; text-anchor: middle" x="775.492805" y="475.18475" transform="rotate(-0 775.492805 475.18475)">0°</text>
     </g>
    </g>
    <g id="xtick_2">
     <g id="line2d_2">
      <path d="M 570.104805 469.666 
L 735.851675 373.972 
" clip-path="url(#p397285b0da)" style="fill: none; stroke: #b0b0b0; stroke-width: 0.8; stroke-linecap: square"/>
     </g>
     <g id="text_2">
      <text style="font: 20px 'DejaVu Sans', 'Bitstream Vera Sans', 'Computer Modern Sans Serif', 'Lucida Grande', 'Verdana', 'Geneva', 'Lucid', 'Arial', 'Helvetica', 'Avant Garde', sans-serif; text-anchor: middle" x="747.976031" y="372.49075" transform="rotate(-0 747.976031 372.49075)">30°</text>
     </g>
    </g>
    <g id="xtick_3">
     <g id="line2d_3">
      <path d="M 570.104805 469.666 
L 665.798805 303.91913 
" clip-path="url(#p397285b0da)" style="fill: none; stroke: #b0b0b0; stroke-width: 0.8; stroke-linecap: square"/>
     </g>
     <g id="text_3">
      <text style="font: 20px 'DejaVu Sans', 'Bitstream Vera Sans', 'Computer Modern Sans Serif', 'Lucida Grande', 'Verdana', 'Geneva', 'Lucid', 'Arial', 'Helvetica', 'Avant Garde', sans-serif; text-anchor: middle" x="672.798805" y="297.313524" transform="rotate(-0 672.798805 297.313524)">60°</text>
     </g>
    </g>
    <g id="xtick_4">
     <g id="line2d_4">
      <path d="M 570.104805 469.666 
L 570.104805 278.278 
" clip-path="url(#p397285b0da)" style="fill: none; stroke: #b0b0b0; stroke-width: 0.8; stroke-linecap: square"/>
     </g>
     <g id="text_4">
      <text style="font: 20px 'DejaVu Sans', 'Bitstream Vera Sans', 'Computer Modern Sans Serif', 'Lucida Grande', 'Verdana', 'Geneva', 'Lucid', 'Arial', 'Helvetica', 'Avant Garde', sans-serif; text-anchor: middle" x="570.104805" y="269.79675" transform="rotate(-0 570.104805 269.79675)">90°</text>
     </g>
    </g>
    <g id="xtick_5">
     <g id="line2d_5">
      <path d="M 570.104805 469.666 
L 474.410805 303.91913 
" clip-path="url(#p397285b0da)" style="fill: none; stroke: #b0b0b0; stroke-width: 0.8; stroke-linecap: square"/>
     </g>
     <g id="text_5">
      <text style="font: 20px 'DejaVu Sans', 'Bitstream Vera Sans', 'Computer Modern Sans Serif', 'Lucida Grande', 'Verdana', 'Geneva', 'Lucid', 'Arial', 'Helvetica', 'Avant Garde', sans-serif; text-anchor: middle" x="467.410805" y="297.313524" transform="rotate(-0 467.410805 297.313524)">120°</text>
     </g>
    </g>
    <g id="xtick_6">
     <g id="line2d_6">
      <path d="M 570.104805 469.666 
L 404.357935 373.972 
" clip-path="url(#p397285b0da)" style="fill: none; stroke: #b0b0b0; stroke-width: 0.8; stroke-linecap: square"/>
     </g>
     <g id="text_6">
      <text style="font: 20px 'DejaVu Sans', 'Bitstream Vera Sans', 'Computer Modern Sans Serif', 'Lucida Grande', 'Verdana', 'Geneva', 'Lucid', 'Arial', 'Helvetica', 'Avant Garde', sans-serif; text-anchor: middle" x="392.23358" y="372.49075" transform="rotate(-0 392.23358 372.49075)">150°</text>
     </g>
    </g>
    <g id="xtick_7">
     <g id="line2d_7">
      <path d="M 570.104805 469.666 
L 378.716805 469.666 
" clip-path="url(#p397285b0da)" style="fill: none; stroke: #b0b0b0; stroke-width: 0.8; stroke-linecap: square"/>
     </g>
     <g id="text_7">
      <text style="font: 20px 'DejaVu Sans', 'Bitstream Vera Sans', 'Computer Modern Sans Serif', 'Lucida Grande', 'Verdana', 'Geneva', 'Lucid', 'Arial', 'Helvetica', 'Avant Garde', sans-serif; text-anchor: middle" x="364.716805" y="475.18475" transform="rotate(-0 364.716805 475.18475)">180°</text>
     </g>
    </g>
   </g>
   <g id="matplotlib.axis_2">
    <g id="ytick_1">
     <g id="line2d_8">
      <path d="M 579.835687 469.666 
C 579.835687 467.0862 578.809772 464.609422 576.985578 462.785228 
C 575.161383 460.961033 572.684606 459.935118 570.104805 459.935118 
C 567.525005 459.935118 565.048227 460.961033 563.224033 462.785228 
C 561.399838 464.609422 560.373924 467.0862 560.373924 469.666 
" clip-path="url(#p397285b0da)" style="fill: none; stroke: #b0b0b0; stroke-width: 0.8; stroke-linecap: square"/>
     </g>
     <g id="text_8">
      <text style="font: 20px 'DejaVu Sans', 'Bitstream Vera Sans', 'Computer Modern Sans Serif', 'Lucida Grande', 'Verdana', 'Geneva', 'Lucid', 'Arial', 'Helvetica', 'Avant Garde', sans-serif; text-anchor: middle" x="579.835687" y="491.862875" transform="rotate(-0 579.835687 491.862875)">0.0</text>
     </g>
    </g>
    <g id="ytick_2">
     <g id="line2d_9">
      <path d="M 614.42722 469.666 
C 614.42722 457.915473 609.754362 446.634197 601.445485 438.32532 
C 593.136608 430.016443 581.855332 425.343586 570.104805 425.343586 
C 558.354278 425.343586 547.073003 430.016443 538.764125 438.32532 
C 530.455248 446.634197 525.782391 457.915473 525.782391 469.666 
" clip-path="url(#p397285b0da)" style="fill: none; stroke: #b0b0b0; stroke-width: 0.8; stroke-linecap: square"/>
     </g>
     <g id="text_9">
      <text style="font: 20px 'DejaVu Sans', 'Bitstream Vera Sans', 'Computer Modern Sans Serif', 'Lucida Grande', 'Verdana', 'Geneva', 'Lucid', 'Arial', 'Helvetica', 'Avant Garde', sans-serif; text-anchor: middle" x="614.42722" y="491.862875" transform="rotate(-0 614.42722 491.862875)">0.2</text>
     </g>
    </g>
    <g id="ytick_3">
     <g id="line2d_10">
      <path d="M 649.018752 469.666 
C 649.018752 448.744747 640.698952 428.658973 625.905392 413.865413 
C 611.111832 399.071853 591.026058 390.752053 570.104805 390.752053 
C 549.183552 390.752053 529.097778 399.071853 514.304218 413.865413 
C 499.510658 428.658973 491.190858 448.744747 491.190858 469.666 
" clip-path="url(#p397285b0da)" style="fill: none; stroke: #b0b0b0; stroke-width: 0.8; stroke-linecap: square"/>
     </g>
     <g id="text_10">
      <text style="font: 20px 'DejaVu Sans', 'Bitstream Vera Sans', 'Computer Modern Sans Serif', 'Lucida Grande', 'Verdana', 'Geneva', 'Lucid', 'Arial', 'Helvetica', 'Avant Garde', sans-serif; text-anchor: middle" x="649.018752" y="491.862875" transform="rotate(-0 649.018752 491.862875)">0.4</text>
     </g>
    </g>
    <g id="ytick_4">
     <g id="line2d_11">
      <path d="M 683.610285 469.666 
C 683.610285 439.57402 671.643543 410.683748 650.3653 389.405505 
C 629.087057 368.127263 600.196785 356.16052 570.104805 356.16052 
C 540.012826 356.16052 511.122553 368.127263 489.844311 389.405505 
C 468.566068 410.683748 456.599325 439.57402 456.599325 469.666 
" clip-path="url(#p397285b0da)" style="fill: none; stroke: #b0b0b0; stroke-width: 0.8; stroke-linecap: square"/>
     </g>
     <g id="text_11">
      <text style="font: 20px 'DejaVu Sans', 'Bitstream Vera Sans', 'Computer Modern Sans Serif', 'Lucida Grande', 'Verdana', 'Geneva', 'Lucid', 'Arial', 'Helvetica', 'Avant Garde', sans-serif; text-anchor: middle" x="683.610285" y="491.862875" transform="rotate(-0 683.610285 491.862875)">0.6</text>
     </g>
    </g>
    <g id="ytick_5">
     <g id="line2d_12">
      <path d="M 718.201818 469.666 
C 718.201818 430.403294 702.588133 392.708524 674.825207 364.945598 
C 647.062281 337.182672 609.367511 321.568987 570.104805 321.568987 
C 530.842099 321.568987 493.147329 337.182672 465.384403 364.945598 
C 437.621478 392.708524 422.007793 430.403294 422.007793 469.666 
" clip-path="url(#p397285b0da)" style="fill: none; stroke: #b0b0b0; stroke-width: 0.8; stroke-linecap: square"/>
     </g>
     <g id="text_12">
      <text style="font: 20px 'DejaVu Sans', 'Bitstream Vera Sans', 'Computer Modern Sans Serif', 'Lucida Grande', 'Verdana', 'Geneva', 'Lucid', 'Arial', 'Helvetica', 'Avant Garde', sans-serif; text-anchor: middle" x="718.201818" y="491.862875" transform="rotate(-0 718.201818 491.862875)">0.8</text>
     </g>
    </g>
    <g id="ytick_6">
     <g id="line2d_13">
      <path d="M 752.793351 469.666 
C 752.793351 421.232568 733.532723 374.733299 699.285115 340.485691 
C 665.037506 306.238082 618.538238 286.977455 570.104805 286.977455 
C 521.671373 286.977455 475.172104 306.238082 440.924496 340.485691 
C 406.676887 374.733299 387.41626 421.232568 387.41626 469.666 
" clip-path="url(#p397285b0da)" style="fill: none; stroke: #b0b0b0; stroke-width: 0.8; stroke-linecap: square"/>
     </g>
     <g id="text_13">
      <text style="font: 20px 'DejaVu Sans', 'Bitstream Vera Sans', 'Computer Modern Sans Serif', 'Lucida Grande', 'Verdana', 'Geneva', 'Lucid', 'Arial', 'Helvetica', 'Avant Garde', sans-serif; text-anchor: middle" x="752.793351" y="491.862875" transform="rotate(-0 752.793351 491.862875)">1.0</text>
     </g>
    </g>
   </g>
   <g id="line2d_14">
    <path d="M 579.92469 469.580303 
L 581.232036 468.398212 
L 581.63862 468.147545 
L 582.759504 467.774743 
L 585.31874 467.12006 
L 583.181189 467.00558 
L 582.983181 466.810933 
L 582.467767 466.468721 
L 588.795756 464.482541 
L 587.098694 464.632181 
L 586.789063 464.405474 
L 586.283029 464.252842 
L 587.177407 462.940923 
L 591.042228 460.562149 
L 596.730334 456.391001 
L 600.696361 453.741044 
L 613.26169 446.233723 
L 611.901575 446.018525 
L 613.561774 444.067889 
L 614.676086 442.352684 
L 621.924446 436.653248 
L 634.862343 426.803921 
L 649.141208 415.345786 
L 674.427939 395.253032 
L 672.169097 394.142397 
L 684.601708 381.809437 
L 676.675761 384.895634 
L 665.771198 390.804711 
L 695.720943 362.379683 
L 706.930436 348.612907 
L 696.974158 353.411657 
L 682.126241 363.361627 
L 676.629364 364.984608 
L 670.911138 367.084731 
L 665.273477 369.379145 
L 673.195792 357.161929 
L 669.956018 356.804735 
L 663.916192 359.826979 
L 651.378196 371.073493 
L 657.355064 359.977391 
L 637.923165 381.283392 
L 634.403294 382.77158 
L 627.026931 389.864122 
L 619.044432 398.458401 
L 616.934473 398.91409 
L 613.668751 401.284303 
L 608.065598 407.719616 
L 605.332698 409.860906 
L 604.264727 409.288542 
L 609.615045 396.89719 
L 605.255593 402.141965 
L 606.362029 396.945259 
L 598.595587 409.933834 
L 588.934016 428.349067 
L 586.616493 431.691718 
L 582.637205 437.85065 
L 580.85008 439.322279 
L 579.946144 440.253339 
L 579.258548 440.634038 
L 578.543773 441.176521 
L 577.384519 441.517434 
L 576.97859 441.034626 
L 576.051549 440.436821 
L 578.725933 423.150557 
L 576.83174 429.467424 
L 575.529006 433.371826 
L 574.314789 437.687999 
L 573.558035 439.35739 
L 573.101977 438.539176 
L 572.578319 438.237033 
L 571.790131 442.111168 
L 571.313432 441.983904 
L 570.850516 441.188435 
L 570.454015 429.650537 
L 569.943453 451.176856 
L 569.43474 454.318975 
L 569.170897 454.396729 
L 568.636076 451.004031 
L 568.883331 456.980501 
L 568.766193 457.91715 
L 568.536352 457.752417 
L 568.332445 457.806861 
L 568.043558 457.34847 
L 566.912362 453.97464 
L 565.820989 450.342953 
L 562.921031 439.743426 
L 561.133933 434.978213 
L 560.461672 434.893983 
L 559.685846 434.492184 
L 557.898689 430.953147 
L 556.560486 429.186298 
L 555.203979 427.587365 
L 549.776791 415.296258 
L 548.484718 414.780211 
L 546.8314 413.479029 
L 528.930876 374.972445 
L 535.126226 392.912513 
L 538.970043 404.390614 
L 538.473651 406.22372 
L 534.222952 400.737602 
L 536.114321 407.063315 
L 534.549092 406.821489 
L 537.067267 413.579389 
L 538.415083 417.953073 
L 538.41258 421.784271 
L 538.022906 422.986547 
L 537.346585 423.740669 
L 536.777911 424.627287 
L 535.351813 424.375018 
L 534.36796 424.738628 
L 532.63909 424.216453 
L 526.202529 420.043504 
L 520.84901 415.912732 
L 514.943797 411.538426 
L 521.482018 420.187092 
L 511.855948 412.425008 
L 506.938864 409.72376 
L 516.304469 420.367075 
L 520.013732 425.349162 
L 519.150835 426.147199 
L 516.192187 425.223867 
L 510.728313 422.435805 
L 518.482778 430.055026 
L 523.639426 435.283428 
L 529.168962 440.466747 
L 534.48459 445.184904 
L 537.299509 447.952648 
L 539.686178 451.025442 
L 540.887783 453.135804 
L 540.693508 453.696969 
L 543.522479 455.828117 
L 545.033304 457.165811 
L 548.458065 459.801012 
L 550.592385 461.583691 
L 553.300141 463.382994 
L 554.926204 464.290975 
L 555.113201 464.649879 
L 554.808751 464.843172 
L 554.751395 465.118113 
L 554.526716 465.345814 
L 554.008678 465.503258 
L 553.926064 465.781828 
L 554.720861 466.255462 
L 557.084417 467.252814 
L 559.624565 468.471927 
L 557.508272 468.453092 
L 548.502481 467.96586 
L 532.71133 467.378917 
L 559.471028 469.387545 
L 560.374294 469.581083 
L 559.987749 470.10772 
L 559.563819 470.495594 
L 558.977574 470.933788 
L 558.570991 471.184455 
L 557.450107 471.557257 
L 554.89087 472.21194 
L 557.028421 472.32642 
L 557.22643 472.521067 
L 557.741844 472.863279 
L 551.413855 474.849459 
L 553.110917 474.699819 
L 553.420547 474.926526 
L 553.926581 475.079158 
L 553.032203 476.391077 
L 549.167382 478.769851 
L 543.479276 482.940999 
L 539.513249 485.590956 
L 526.94792 493.098277 
L 528.308035 493.313475 
L 526.647836 495.264111 
L 525.533525 496.979316 
L 518.285165 502.678752 
L 505.347268 512.528079 
L 491.068403 523.986214 
L 465.781671 544.078968 
L 468.040514 545.189603 
L 455.607903 557.522563 
L 463.533849 554.436366 
L 474.438412 548.527289 
L 444.488668 576.952317 
L 433.279174 590.719093 
L 443.235452 585.920343 
L 458.08337 575.970373 
L 463.580246 574.347392 
L 469.298473 572.247269 
L 474.936133 569.952855 
L 467.013818 582.170071 
L 470.253593 582.527265 
L 476.293419 579.505021 
L 488.831414 568.258507 
L 482.854546 579.354609 
L 502.286445 558.048608 
L 505.806317 556.56042 
L 513.182679 549.467878 
L 521.165178 540.873599 
L 523.275138 540.41791 
L 526.54086 538.047697 
L 532.144012 531.612384 
L 534.876913 529.471094 
L 535.944883 530.043458 
L 530.594565 542.43481 
L 534.954017 537.190035 
L 533.847581 542.386741 
L 541.614023 529.398166 
L 551.275594 510.982933 
L 553.593118 507.640282 
L 557.572406 501.48135 
L 559.35953 500.009721 
L 560.263466 499.078661 
L 560.951063 498.697962 
L 561.665837 498.155479 
L 562.825091 497.814566 
L 563.23102 498.297374 
L 564.158061 498.895179 
L 561.483677 516.181443 
L 563.377871 509.864576 
L 564.680605 505.960174 
L 565.894822 501.644001 
L 566.651575 499.97461 
L 567.107633 500.792824 
L 567.631292 501.094967 
L 568.419479 497.220832 
L 568.896179 497.348096 
L 569.359094 498.143565 
L 569.755596 509.681463 
L 570.266158 488.155144 
L 570.774871 485.013025 
L 571.038714 484.935271 
L 571.573534 488.327969 
L 571.32628 482.351499 
L 571.443418 481.41485 
L 571.673258 481.579583 
L 571.877165 481.525139 
L 572.166053 481.98353 
L 573.297249 485.35736 
L 574.388622 488.989047 
L 577.28858 499.588574 
L 579.075677 504.353787 
L 579.747939 504.438017 
L 580.523764 504.839816 
L 582.310921 508.378853 
L 583.649124 510.145702 
L 585.005631 511.744635 
L 590.432819 524.035742 
L 591.724892 524.551789 
L 593.378211 525.852971 
L 611.278735 564.359555 
L 605.083385 546.419487 
L 601.239567 534.941386 
L 601.735959 533.10828 
L 605.986658 538.594398 
L 604.09529 532.268685 
L 605.660519 532.510511 
L 603.142344 525.752611 
L 601.794528 521.378927 
L 601.79703 517.547729 
L 602.186704 516.345453 
L 602.863025 515.591331 
L 603.4317 514.704713 
L 604.857798 514.956982 
L 605.841651 514.593372 
L 607.570521 515.115547 
L 614.007081 519.288496 
L 619.3606 523.419268 
L 625.265813 527.793574 
L 618.727592 519.144908 
L 628.353662 526.906992 
L 633.270747 529.60824 
L 623.905141 518.964925 
L 620.195879 513.982838 
L 621.058775 513.184801 
L 624.017423 514.108133 
L 629.481298 516.896195 
L 621.726832 509.276974 
L 616.570184 504.048572 
L 611.040648 498.865253 
L 605.725021 494.147096 
L 602.910102 491.379352 
L 600.523432 488.306558 
L 599.321827 486.196196 
L 599.516102 485.635031 
L 596.687132 483.503883 
L 595.176306 482.166189 
L 591.751546 479.530988 
L 589.617225 477.748309 
L 586.909469 475.949006 
L 585.283407 475.041025 
L 585.09641 474.682121 
L 585.40086 474.488828 
L 585.458215 474.213887 
L 585.682894 473.986186 
L 586.200932 473.828742 
L 586.283546 473.550172 
L 585.48875 473.076538 
L 583.125194 472.079186 
L 580.585046 470.860073 
L 582.701338 470.878908 
L 591.707129 471.36614 
L 607.498281 471.953083 
L 580.738582 469.944455 
L 579.835316 469.750917 
L 579.835316 469.750917 
" clip-path="url(#p397285b0da)" style="fill: none; stroke: #1f77b4; stroke-opacity: 0.6; stroke-width: 1.5; stroke-linecap: square"/>
   </g>
   <g id="line2d_15">
    <path d="M 582.53521 469.557522 
L 582.333593 469.13208 
L 581.634701 468.758578 
L 581.352338 468.384506 
L 581.209528 468.204036 
L 580.319986 467.956565 
L 578.948638 467.866702 
L 578.598048 467.783093 
L 579.001084 467.530192 
L 580.189624 467.057889 
L 581.243413 466.366594 
L 596.506812 459.265973 
L 600.431618 457.104223 
L 604.477462 454.720343 
L 613.62108 448.909802 
L 623.234824 442.008263 
L 628.258439 438.091153 
L 633.280579 433.922867 
L 638.258658 429.520313 
L 642.882693 425.067653 
L 647.185959 420.559889 
L 651.264951 415.947271 
L 654.994793 411.322728 
L 658.189271 406.835961 
L 660.561417 402.731628 
L 662.631476 398.667789 
L 664.105586 394.894402 
L 666.839001 387.047192 
L 667.681127 383.337763 
L 667.993543 379.967498 
L 667.745508 377.008433 
L 666.921647 374.524354 
L 665.546763 372.543558 
L 663.640439 371.100008 
L 661.256666 370.1912 
L 658.42999 369.83254 
L 655.180554 370.055097 
L 651.543807 370.872591 
L 647.559176 372.292511 
L 643.30952 374.263758 
L 639.031954 376.516305 
L 634.218943 379.781293 
L 629.410983 383.374975 
L 624.561236 387.391308 
L 619.818859 391.630567 
L 615.293892 395.924113 
L 607.334433 403.862856 
L 600.631325 411.0251 
L 597.511751 414.69617 
L 594.251489 419.041424 
L 591.995519 421.631213 
L 588.466352 425.337305 
L 585.074265 429.62836 
L 581.106954 434.771642 
L 578.357895 437.753669 
L 577.654002 438.221333 
L 576.035288 440.516747 
L 573.883415 444.382734 
L 572.224333 447.653864 
L 571.749154 448.77257 
L 571.361635 449.117015 
L 570.994819 449.281335 
L 570.619773 450.000163 
L 570.276434 449.999236 
L 569.931976 449.861736 
L 568.819237 448.64714 
L 568.392299 447.906545 
L 565.335723 441.167089 
L 563.676235 438.068566 
L 559.398176 431.059143 
L 558.165023 429.35797 
L 556.937617 427.905016 
L 555.703519 426.625094 
L 554.273204 424.958938 
L 552.874756 423.582141 
L 551.481273 422.387409 
L 546.079649 416.947607 
L 544.331641 415.631438 
L 537.075123 411.286235 
L 535.20055 410.410334 
L 533.418515 409.799416 
L 531.767128 409.487901 
L 530.281292 409.499235 
L 528.982813 409.833129 
L 527.877977 410.466171 
L 526.982011 411.388888 
L 525.463715 413.544459 
L 524.809395 414.718274 
L 524.357031 416.102239 
L 524.124682 417.694925 
L 524.047404 419.403166 
L 524.155883 421.245939 
L 525.056164 426.916436 
L 525.610091 428.894107 
L 525.301296 430.027203 
L 525.425957 431.506659 
L 525.906794 433.231971 
L 527.702952 438.290279 
L 528.416448 439.929984 
L 529.371397 441.670704 
L 530.527863 443.470594 
L 531.82767 445.280775 
L 533.279089 447.099172 
L 534.922997 448.942331 
L 536.893121 450.875733 
L 544.693939 457.545639 
L 550.653698 462.004005 
L 552.891608 463.570487 
L 553.434317 464.088133 
L 556.110341 466.046786 
L 556.11477 466.564484 
L 556.278793 467.1035 
L 557.203333 467.967489 
L 557.489829 468.451316 
L 557.500096 468.895063 
L 557.6744 469.774478 
L 557.876017 470.19992 
L 558.57491 470.573422 
L 558.857273 470.947494 
L 559.000082 471.127964 
L 559.889624 471.375435 
L 561.260972 471.465298 
L 561.611562 471.548907 
L 561.208526 471.801808 
L 560.019987 472.274111 
L 558.966198 472.965406 
L 543.702798 480.066027 
L 539.777992 482.227777 
L 535.732148 484.611657 
L 526.58853 490.422198 
L 516.974786 497.323737 
L 511.951171 501.240847 
L 506.929031 505.409133 
L 501.950953 509.811687 
L 497.326917 514.264347 
L 493.023652 518.772111 
L 488.944659 523.384729 
L 485.214818 528.009272 
L 482.020339 532.496039 
L 479.648193 536.600372 
L 477.578135 540.664211 
L 476.104024 544.437598 
L 473.370609 552.284808 
L 472.528484 555.994237 
L 472.216068 559.364502 
L 472.464103 562.323567 
L 473.287963 564.807646 
L 474.662847 566.788442 
L 476.569172 568.231992 
L 478.952945 569.1408 
L 481.77962 569.49946 
L 485.029057 569.276903 
L 488.665804 568.459409 
L 492.650434 567.039489 
L 496.900091 565.068242 
L 501.177657 562.815695 
L 505.990667 559.550707 
L 510.798627 555.957025 
L 515.648375 551.940692 
L 520.390752 547.701433 
L 524.915719 543.407887 
L 532.875178 535.469144 
L 539.578285 528.3069 
L 542.697859 524.63583 
L 545.958121 520.290576 
L 548.214092 517.700787 
L 551.743258 513.994695 
L 555.135345 509.70364 
L 559.102656 504.560358 
L 561.851715 501.578331 
L 562.555609 501.110667 
L 564.174323 498.815253 
L 566.326196 494.949266 
L 567.985278 491.678136 
L 568.460457 490.55943 
L 568.847975 490.214985 
L 569.214791 490.050665 
L 569.589837 489.331837 
L 569.933176 489.332764 
L 570.277634 489.470264 
L 571.390374 490.68486 
L 571.817311 491.425455 
L 574.873887 498.164911 
L 576.533376 501.263434 
L 580.811434 508.272857 
L 582.044588 509.97403 
L 583.271993 511.426984 
L 584.506091 512.706906 
L 585.936406 514.373062 
L 587.334854 515.749859 
L 588.728338 516.944591 
L 594.129961 522.384393 
L 595.877969 523.700562 
L 603.134487 528.045765 
L 605.00906 528.921666 
L 606.791095 529.532584 
L 608.442482 529.844099 
L 609.928318 529.832765 
L 611.226798 529.498871 
L 612.331633 528.865829 
L 613.2276 527.943112 
L 614.745895 525.787541 
L 615.400215 524.613726 
L 615.852579 523.229761 
L 616.084928 521.637075 
L 616.162207 519.928834 
L 616.053728 518.086061 
L 615.153447 512.415564 
L 614.599519 510.437893 
L 614.908315 509.304797 
L 614.783653 507.825341 
L 614.302817 506.100029 
L 612.506658 501.041721 
L 611.793162 499.402016 
L 610.838213 497.661296 
L 609.681747 495.861406 
L 608.381941 494.051225 
L 606.930521 492.232828 
L 605.286614 490.389669 
L 603.316489 488.456267 
L 595.515671 481.786361 
L 589.555912 477.327995 
L 587.318002 475.761513 
L 586.775293 475.243867 
L 584.099269 473.285214 
L 584.09484 472.767516 
L 583.930817 472.2285 
L 583.006277 471.364511 
L 582.719781 470.880684 
L 582.709514 470.436937 
L 582.599509 469.77504 
L 582.599509 469.77504 
" clip-path="url(#p397285b0da)" style="fill: none; stroke: #008000; stroke-width: 1.5; stroke-linecap: square"/>
   </g>
   <g id="line2d_16">
    <defs>
     <path id="m62e21bf8b6" d="M 0 3 
C 0.795609 3 1.55874 2.683901 2.12132 2.12132 
C 2.683901 1.55874 3 0.795609 3 0 
C 3 -0.795609 2.683901 -1.55874 2.12132 -2.12132 
C 1.55874 -2.683901 0.795609 -3 0 -3 
C -0.795609 -3 -1.55874 -2.683901 -2.12132 -2.12132 
C -2.683901 -1.55874 -3 -0.795609 -3 0 
C -3 0.795609 -2.683901 1.55874 -2.12132 2.12132 
C -1.55874 2.683901 -0.795609 3 0 3 
z
" style="stroke: #ff0000"/>
    </defs>
    <g clip-path="url(#p397285b0da)">
     <use xlink:href="#m62e21bf8b6" x="665.546763" y="372.543558" style="fill: #ff0000; stroke: #ff0000"/>
     <use xlink:href="#m62e21bf8b6" x="527.877977" y="410.466171" style="fill: #ff0000; stroke: #ff0000"/>
     <use xlink:href="#m62e21bf8b6" x="474.662847" y="566.788442" style="fill: #ff0000; stroke: #ff0000"/>
     <use xlink:href="#m62e21bf8b6" x="612.331633" y="528.865829" style="fill: #ff0000; stroke: #ff0000"/>
    </g>
   </g>
   <g id="patch_3">
    <path d="M 761.492805 469.666 
C 761.492805 418.926214 741.315005 370.212694 705.436558 334.334247 
C 669.558111 298.4558 620.844591 278.278 570.104805 278.278 
C 519.365019 278.278 470.6515 298.4558 434.773053 334.334247 
C 398.894606 370.212694 378.716805 418.926214 378.716805 469.666 
" style="fill: none; stroke: #000000; stroke-width: 0.8; stroke-linejoin: miter; stroke-linecap: square"/>
   </g>
   <g id="patch_4">
    <path d="M 570.104805 469.666 
L 761.492805 469.666 
" style="fill: none; stroke: #000000; stroke-width: 0.8; stroke-linejoin: miter; stroke-linecap: square"/>
   </g>
   <g id="patch_5">
    <path d="M 570.104805 469.666 
L 378.716805 469.666 
" style="fill: none; stroke: #000000; stroke-width: 0.8; stroke-linejoin: miter; stroke-linecap: square"/>
   </g>
   <g id="text_14">
    <text style="font: 30px 'DejaVu Sans', 'Bitstream Vera Sans', 'Computer Modern Sans Serif', 'Lucida Grande', 'Verdana', 'Geneva', 'Lucid', 'Arial', 'Helvetica', 'Avant Garde', sans-serif" transform="translate(291.800899 142.156187)">w164 d14 400 con t5_OJ_Distribution</text>
    <text style="font: 30px 'DejaVu Sans', 'Bitstream Vera Sans', 'Computer Modern Sans Serif', 'Lucida Grande', 'Verdana', 'Geneva', 'Lucid', 'Arial', 'Helvetica', 'Avant Garde', sans-serif" transform="translate(400.29543 176.584)">Dominant Harmonic: 4</text>
   </g>
   <g id="legend_1">
    <g id="patch_6">
     <path d="M 392.716805 555.36 
L 558.88868 555.36 
Q 562.88868 555.36 562.88868 551.36 
L 562.88868 465.29125 
Q 562.88868 461.29125 558.88868 461.29125 
L 392.716805 461.29125 
Q 388.716805 461.29125 388.716805 465.29125 
L 388.716805 551.36 
Q 388.716805 555.36 392.716805 555.36 
z
" style="fill: #ffffff; opacity: 0.5; stroke: #cccccc; stroke-linejoin: miter"/>
    </g>
    <g id="line2d_17">
     <path d="M 396.716805 477.488125 
L 416.716805 477.488125 
L 436.716805 477.488125 
" style="fill: none; stroke: #1f77b4; stroke-opacity: 0.6; stroke-width: 1.5; stroke-linecap: square"/>
    </g>
    <g id="text_15">
     <text style="font: 20px 'DejaVu Sans', 'Bitstream Vera Sans', 'Computer Modern Sans Serif', 'Lucida Grande', 'Verdana', 'Geneva', 'Lucid', 'Arial', 'Helvetica', 'Avant Garde', sans-serif; text-anchor: start" x="452.716805" y="484.488125" transform="rotate(-0 452.716805 484.488125)">Raw</text>
    </g>
    <g id="line2d_18">
     <path d="M 396.716805 506.844375 
L 416.716805 506.844375 
L 436.716805 506.844375 
" style="fill: none; stroke: #008000; stroke-width: 1.5; stroke-linecap: square"/>
    </g>
    <g id="text_16">
     <text style="font: 20px 'DejaVu Sans', 'Bitstream Vera Sans', 'Computer Modern Sans Serif', 'Lucida Grande', 'Verdana', 'Geneva', 'Lucid', 'Arial', 'Helvetica', 'Avant Garde', sans-serif; text-anchor: start" x="452.716805" y="513.844375" transform="rotate(-0 452.716805 513.844375)">Smoothed</text>
    </g>
    <g id="line2d_19">
     <g>
      <use xlink:href="#m62e21bf8b6" x="416.716805" y="536.200625" style="fill: #ff0000; stroke: #ff0000"/>
     </g>
    </g>
    <g id="text_17">
     <text style="font: 20px 'DejaVu Sans', 'Bitstream Vera Sans', 'Computer Modern Sans Serif', 'Lucida Grande', 'Verdana', 'Geneva', 'Lucid', 'Arial', 'Helvetica', 'Avant Garde', sans-serif; text-anchor: start" x="452.716805" y="543.200625" transform="rotate(-0 452.716805 543.200625)">Peaks</text>
    </g>
   </g>
  </g>
  <g id="axes_2">
   <g id="patch_7">
    <path d="M 1038.424156 565.36 
L 1219.459091 565.36 
L 1219.459091 182.584 
L 1038.424156 182.584 
z
" style="fill: #ffffff"/>
   </g>
   <g id="patch_8">
    <path d="M 1046.653017 565.36 
L 1119.798445 565.36 
L 1119.798445 382.952093 
L 1046.653017 382.952093 
z
" clip-path="url(#pfe029a79eb)" style="fill: #ffd700; fill-opacity: 0.5; stroke: #000000; stroke-linejoin: miter"/>
   </g>
   <g id="patch_9">
    <path d="M 1138.084802 565.36 
L 1211.23023 565.36 
L 1211.23023 200.811429 
L 1138.084802 200.811429 
z
" clip-path="url(#pfe029a79eb)" style="fill: #ffd700; fill-opacity: 0.5; stroke: #000000; stroke-linejoin: miter"/>
   </g>
   <g id="matplotlib.axis_3">
    <g id="xtick_8">
     <g id="line2d_20">
      <defs>
       <path id="mf70d6546ab" d="M 0 0 
L 0 3.5 
" style="stroke: #000000; stroke-width: 0.8"/>
      </defs>
      <g>
       <use xlink:href="#mf70d6546ab" x="1083.225731" y="565.36" style="stroke: #000000; stroke-width: 0.8"/>
      </g>
     </g>
     <g id="text_18">
      <text style="font: 20px 'DejaVu Sans', 'Bitstream Vera Sans', 'Computer Modern Sans Serif', 'Lucida Grande', 'Verdana', 'Geneva', 'Lucid', 'Arial', 'Helvetica', 'Avant Garde', sans-serif; text-anchor: middle" x="1083.225731" y="587.556875" transform="rotate(-0 1083.225731 587.556875)">2</text>
     </g>
    </g>
    <g id="xtick_9">
     <g id="line2d_21">
      <g>
       <use xlink:href="#mf70d6546ab" x="1174.657516" y="565.36" style="stroke: #000000; stroke-width: 0.8"/>
      </g>
     </g>
     <g id="text_19">
      <text style="font: 20px 'DejaVu Sans', 'Bitstream Vera Sans', 'Computer Modern Sans Serif', 'Lucida Grande', 'Verdana', 'Geneva', 'Lucid', 'Arial', 'Helvetica', 'Avant Garde', sans-serif; text-anchor: middle" x="1174.657516" y="587.556875" transform="rotate(-0 1174.657516 587.556875)">4</text>
     </g>
    </g>
    <g id="text_20">
     <text style="font: 25px 'DejaVu Sans', 'Bitstream Vera Sans', 'Computer Modern Sans Serif', 'Lucida Grande', 'Verdana', 'Geneva', 'Lucid', 'Arial', 'Helvetica', 'Avant Garde', sans-serif; text-anchor: middle" x="1128.941623" y="614.712344" transform="rotate(-0 1128.941623 614.712344)">Harmonic</text>
    </g>
   </g>
   <g id="matplotlib.axis_4">
    <g id="ytick_7">
     <g id="line2d_22">
      <defs>
       <path id="m39b54cf9ca" d="M 0 0 
L -3.5 0 
" style="stroke: #000000; stroke-width: 0.8"/>
      </defs>
      <g>
       <use xlink:href="#m39b54cf9ca" x="1038.424156" y="565.36" style="stroke: #000000; stroke-width: 0.8"/>
      </g>
     </g>
     <g id="text_21">
      <text style="font: 20px 'DejaVu Sans', 'Bitstream Vera Sans', 'Computer Modern Sans Serif', 'Lucida Grande', 'Verdana', 'Geneva', 'Lucid', 'Arial', 'Helvetica', 'Avant Garde', sans-serif; text-anchor: end" x="1031.424156" y="572.958437" transform="rotate(-0 1031.424156 572.958437)">0.00</text>
     </g>
    </g>
    <g id="ytick_8">
     <g id="line2d_23">
      <g>
       <use xlink:href="#m39b54cf9ca" x="1038.424156" y="505.023149" style="stroke: #000000; stroke-width: 0.8"/>
      </g>
     </g>
     <g id="text_22">
      <text style="font: 20px 'DejaVu Sans', 'Bitstream Vera Sans', 'Computer Modern Sans Serif', 'Lucida Grande', 'Verdana', 'Geneva', 'Lucid', 'Arial', 'Helvetica', 'Avant Garde', sans-serif; text-anchor: end" x="1031.424156" y="512.621587" transform="rotate(-0 1031.424156 512.621587)">0.02</text>
     </g>
    </g>
    <g id="ytick_9">
     <g id="line2d_24">
      <g>
       <use xlink:href="#m39b54cf9ca" x="1038.424156" y="444.686299" style="stroke: #000000; stroke-width: 0.8"/>
      </g>
     </g>
     <g id="text_23">
      <text style="font: 20px 'DejaVu Sans', 'Bitstream Vera Sans', 'Computer Modern Sans Serif', 'Lucida Grande', 'Verdana', 'Geneva', 'Lucid', 'Arial', 'Helvetica', 'Avant Garde', sans-serif; text-anchor: end" x="1031.424156" y="452.284736" transform="rotate(-0 1031.424156 452.284736)">0.04</text>
     </g>
    </g>
    <g id="ytick_10">
     <g id="line2d_25">
      <g>
       <use xlink:href="#m39b54cf9ca" x="1038.424156" y="384.349448" style="stroke: #000000; stroke-width: 0.8"/>
      </g>
     </g>
     <g id="text_24">
      <text style="font: 20px 'DejaVu Sans', 'Bitstream Vera Sans', 'Computer Modern Sans Serif', 'Lucida Grande', 'Verdana', 'Geneva', 'Lucid', 'Arial', 'Helvetica', 'Avant Garde', sans-serif; text-anchor: end" x="1031.424156" y="391.947885" transform="rotate(-0 1031.424156 391.947885)">0.06</text>
     </g>
    </g>
    <g id="ytick_11">
     <g id="line2d_26">
      <g>
       <use xlink:href="#m39b54cf9ca" x="1038.424156" y="324.012597" style="stroke: #000000; stroke-width: 0.8"/>
      </g>
     </g>
     <g id="text_25">
      <text style="font: 20px 'DejaVu Sans', 'Bitstream Vera Sans', 'Computer Modern Sans Serif', 'Lucida Grande', 'Verdana', 'Geneva', 'Lucid', 'Arial', 'Helvetica', 'Avant Garde', sans-serif; text-anchor: end" x="1031.424156" y="331.611035" transform="rotate(-0 1031.424156 331.611035)">0.08</text>
     </g>
    </g>
    <g id="ytick_12">
     <g id="line2d_27">
      <g>
       <use xlink:href="#m39b54cf9ca" x="1038.424156" y="263.675747" style="stroke: #000000; stroke-width: 0.8"/>
      </g>
     </g>
     <g id="text_26">
      <text style="font: 20px 'DejaVu Sans', 'Bitstream Vera Sans', 'Computer Modern Sans Serif', 'Lucida Grande', 'Verdana', 'Geneva', 'Lucid', 'Arial', 'Helvetica', 'Avant Garde', sans-serif; text-anchor: end" x="1031.424156" y="271.274184" transform="rotate(-0 1031.424156 271.274184)">0.10</text>
     </g>
    </g>
    <g id="ytick_13">
     <g id="line2d_28">
      <g>
       <use xlink:href="#m39b54cf9ca" x="1038.424156" y="203.338896" style="stroke: #000000; stroke-width: 0.8"/>
      </g>
     </g>
     <g id="text_27">
      <text style="font: 20px 'DejaVu Sans', 'Bitstream Vera Sans', 'Computer Modern Sans Serif', 'Lucida Grande', 'Verdana', 'Geneva', 'Lucid', 'Arial', 'Helvetica', 'Avant Garde', sans-serif; text-anchor: end" x="1031.424156" y="210.937333" transform="rotate(-0 1031.424156 210.937333)">0.12</text>
     </g>
    </g>
    <g id="text_28">
     <text style="font: 25px 'DejaVu Sans', 'Bitstream Vera Sans', 'Computer Modern Sans Serif', 'Lucida Grande', 'Verdana', 'Geneva', 'Lucid', 'Arial', 'Helvetica', 'Avant Garde', sans-serif; text-anchor: middle" x="977.693687" y="373.972" transform="rotate(-90 977.693687 373.972)">Amplitude</text>
    </g>
   </g>
   <g id="patch_10">
    <path d="M 1038.424156 565.36 
L 1038.424156 182.584 
" style="fill: none; stroke: #000000; stroke-width: 0.8; stroke-linejoin: miter; stroke-linecap: square"/>
   </g>
   <g id="patch_11">
    <path d="M 1219.459091 565.36 
L 1219.459091 182.584 
" style="fill: none; stroke: #000000; stroke-width: 0.8; stroke-linejoin: miter; stroke-linecap: square"/>
   </g>
   <g id="patch_12">
    <path d="M 1038.424156 565.36 
L 1219.459091 565.36 
" style="fill: none; stroke: #000000; stroke-width: 0.8; stroke-linejoin: miter; stroke-linecap: square"/>
   </g>
   <g id="patch_13">
    <path d="M 1038.424156 182.584 
L 1219.459091 182.584 
" style="fill: none; stroke: #000000; stroke-width: 0.8; stroke-linejoin: miter; stroke-linecap: square"/>
   </g>
   <g id="text_29">
    <g id="patch_14">
     <path d="M 1210.407344 316.66155 
L 1483.407344 316.66155 
Q 1489.407344 316.66155 1489.407344 310.66155 
L 1489.407344 201.7228 
Q 1489.407344 195.7228 1483.407344 195.7228 
L 1210.407344 195.7228 
Q 1204.407344 195.7228 1204.407344 201.7228 
L 1204.407344 310.66155 
Q 1204.407344 316.66155 1210.407344 316.66155 
z
" style="fill: #f5deb3; stroke: #000000; stroke-linejoin: miter"/>
    </g>
    <text style="font: 20px 'DejaVu Sans', 'Bitstream Vera Sans', 'Computer Modern Sans Serif', 'Lucida Grande', 'Verdana', 'Geneva', 'Lucid', 'Arial', 'Helvetica', 'Avant Garde', sans-serif" transform="translate(1210.407344 216.919675)">2nd Harmonic: 0.0605</text>
    <text style="font: 20px 'DejaVu Sans', 'Bitstream Vera Sans', 'Computer Modern Sans Serif', 'Lucida Grande', 'Verdana', 'Geneva', 'Lucid', 'Arial', 'Helvetica', 'Avant Garde', sans-serif" transform="translate(1210.407344 239.3153)">4th Harmonic: 0.1208</text>
    <text style="font: 20px 'DejaVu Sans', 'Bitstream Vera Sans', 'Computer Modern Sans Serif', 'Lucida Grande', 'Verdana', 'Geneva', 'Lucid', 'Arial', 'Helvetica', 'Avant Garde', sans-serif" transform="translate(1210.407344 261.710925)">Ratio (H4/H2): 2.00</text>
    <text style="font: 20px 'DejaVu Sans', 'Bitstream Vera Sans', 'Computer Modern Sans Serif', 'Lucida Grande', 'Verdana', 'Geneva', 'Lucid', 'Arial', 'Helvetica', 'Avant Garde', sans-serif" transform="translate(1210.407344 284.10655)">Orientation peaks: 2</text>
    <text style="font: 20px 'DejaVu Sans', 'Bitstream Vera Sans', 'Computer Modern Sans Serif', 'Lucida Grande', 'Verdana', 'Geneva', 'Lucid', 'Arial', 'Helvetica', 'Avant Garde', sans-serif" transform="translate(1210.407344 306.502175)">Angle between peaks: 80.0</text>
   </g>
   <g id="text_30">
    <text style="font: 30px 'DejaVu Sans', 'Bitstream Vera Sans', 'Computer Modern Sans Serif', 'Lucida Grande', 'Verdana', 'Geneva', 'Lucid', 'Arial', 'Helvetica', 'Avant Garde', sans-serif" transform="translate(1025.333811 48.990563)">FFT Spectrum</text>
    <text style="font: 30px 'DejaVu Sans', 'Bitstream Vera Sans', 'Computer Modern Sans Serif', 'Lucida Grande', 'Verdana', 'Geneva', 'Lucid', 'Arial', 'Helvetica', 'Avant Garde', sans-serif" transform="translate(983.467405 82.584)">H4:H2 Ratio = 2.00</text>
   </g>
  </g>
 </g>
 <defs>
  <clipPath id="p397285b0da">
   <path d="M 761.492805 469.666 
C 761.492805 418.926214 741.315005 370.212694 705.436558 334.334247 
C 669.558111 298.4558 620.844591 278.278 570.104805 278.278 
C 519.365019 278.278 470.6515 298.4558 434.773053 334.334247 
C 398.894606 370.212694 378.716805 418.926214 378.716805 469.666 
L 570.104805 469.666 
C 570.104805 469.666 570.104805 469.666 570.104805 469.666 
C 570.104805 469.666 570.104805 469.666 570.104805 469.666 
C 570.104805 469.666 570.104805 469.666 570.104805 469.666 
C 570.104805 469.666 570.104805 469.666 570.104805 469.666 
z
"/>
  </clipPath>
  <clipPath id="pfe029a79eb">
   <rect x="1038.424156" y="182.584" width="181.034935" height="382.776"/>
  </clipPath>
 </defs>
</svg>
