<?xml version="1.0" encoding="utf-8" standalone="no"?>
<!DOCTYPE svg PUBLIC "-//W3C//DTD SVG 1.1//EN"
  "http://www.w3.org/Graphics/SVG/1.1/DTD/svg11.dtd">
<svg xmlns:xlink="http://www.w3.org/1999/xlink" width="684.08pt" height="667.98625pt" viewBox="0 0 684.08 667.98625" xmlns="http://www.w3.org/2000/svg" version="1.1">
 <metadata>
  <rdf:RDF xmlns:dc="http://purl.org/dc/elements/1.1/" xmlns:cc="http://creativecommons.org/ns#" xmlns:rdf="http://www.w3.org/1999/02/22-rdf-syntax-ns#">
   <cc:Work>
    <dc:type rdf:resource="http://purl.org/dc/dcmitype/StillImage"/>
    <dc:date>2025-04-23T12:31:54.287953</dc:date>
    <dc:format>image/svg+xml</dc:format>
    <dc:creator>
     <cc:Agent>
      <dc:title>Matplotlib v3.9.2, https://matplotlib.org/</dc:title>
     </cc:Agent>
    </dc:creator>
   </cc:Work>
  </rdf:RDF>
 </metadata>
 <defs>
  <style type="text/css">*{stroke-linejoin: round; stroke-linecap: butt}</style>
 </defs>
 <g id="figure_1">
  <g id="patch_1">
   <path d="M 0 667.98625 
L 684.08 667.98625 
L 684.08 0 
L 0 0 
L 0 667.98625 
z
" style="fill: none"/>
  </g>
  <g id="axes_1">
   <g id="patch_2">
    <path d="M 651.5175 333.993125 
C 651.5175 294.188428 643.676843 254.770781 628.444244 217.996036 
C 613.211646 181.221291 590.883343 147.804624 562.737172 119.658453 
C 534.591001 91.512282 501.174334 69.183979 464.399589 53.951381 
C 427.624844 38.718782 388.207197 30.878125 348.4025 30.878125 
C 308.597803 30.878125 269.180156 38.718782 232.405411 53.951381 
C 195.630666 69.183979 162.213999 91.512282 134.067828 119.658453 
C 105.921657 147.804624 83.593354 181.221291 68.360756 217.996036 
C 53.128157 254.770781 45.2875 294.188428 45.2875 333.993125 
C 45.2875 373.797822 53.128157 413.215469 68.360756 449.990214 
C 83.593354 486.764959 105.921657 520.181626 134.067828 548.327797 
C 162.213999 576.473968 195.630666 598.802271 232.405411 614.034869 
C 269.180156 629.267468 308.597803 637.108125 348.4025 637.108125 
C 388.207197 637.108125 427.624844 629.267468 464.399589 614.034869 
C 501.174334 598.802271 534.591001 576.473968 562.737172 548.327797 
C 590.883343 520.181626 613.211646 486.764959 628.444244 449.990214 
C 643.676843 413.215469 651.5175 373.797822 651.5175 333.993125 
M 348.4025 333.993125 
C 348.4025 333.993125 348.4025 333.993125 348.4025 333.993125 
C 348.4025 333.993125 348.4025 333.993125 348.4025 333.993125 
C 348.4025 333.993125 348.4025 333.993125 348.4025 333.993125 
C 348.4025 333.993125 348.4025 333.993125 348.4025 333.993125 
C 348.4025 333.993125 348.4025 333.993125 348.4025 333.993125 
C 348.4025 333.993125 348.4025 333.993125 348.4025 333.993125 
C 348.4025 333.993125 348.4025 333.993125 348.4025 333.993125 
C 348.4025 333.993125 348.4025 333.993125 348.4025 333.993125 
C 348.4025 333.993125 348.4025 333.993125 348.4025 333.993125 
C 348.4025 333.993125 348.4025 333.993125 348.4025 333.993125 
C 348.4025 333.993125 348.4025 333.993125 348.4025 333.993125 
C 348.4025 333.993125 348.4025 333.993125 348.4025 333.993125 
C 348.4025 333.993125 348.4025 333.993125 348.4025 333.993125 
C 348.4025 333.993125 348.4025 333.993125 348.4025 333.993125 
C 348.4025 333.993125 348.4025 333.993125 348.4025 333.993125 
C 348.4025 333.993125 348.4025 333.993125 348.4025 333.993125 
L 348.4025 333.993125 
z
" style="fill: none"/>
   </g>
   <g id="patch_3">
    <path d="M 348.4025 333.993125 
C 348.4025 333.993125 348.4025 333.993125 348.4025 333.993125 
C 348.4025 333.993125 348.4025 333.993125 348.4025 333.993125 
L 373.346907 332.904029 
C 373.362748 333.266845 373.370671 333.629963 373.370671 333.993125 
C 373.370671 334.356287 373.362748 334.719405 373.346907 335.082221 
z
" clip-path="url(#p9f9c8ee37e)" style="fill: #008080; opacity: 0.8; stroke: #000000; stroke-width: 0.8; stroke-linejoin: miter"/>
   </g>
   <g id="patch_4">
    <path d="M 348.4025 333.993125 
C 348.4025 333.993125 348.4025 333.993125 348.4025 333.993125 
C 348.4025 333.993125 348.4025 333.993125 348.4025 333.993125 
L 384.4723 329.244446 
C 384.541369 329.769081 384.598984 330.29516 384.645104 330.822308 
C 384.691223 331.349456 384.725836 331.877548 384.748918 332.406206 
z
" clip-path="url(#p9f9c8ee37e)" style="fill: #008080; opacity: 0.8; stroke: #000000; stroke-width: 0.8; stroke-linejoin: miter"/>
   </g>
   <g id="patch_5">
    <path d="M 348.4025 333.993125 
C 348.4025 333.993125 348.4025 333.993125 348.4025 333.993125 
C 348.4025 333.993125 348.4025 333.993125 348.4025 333.993125 
L 401.67582 322.182714 
C 401.847602 322.957574 402.002458 323.736089 402.140278 324.517705 
C 402.278098 325.29932 402.398849 326.083849 402.502444 326.870732 
z
" clip-path="url(#p9f9c8ee37e)" style="fill: #008080; opacity: 0.8; stroke: #000000; stroke-width: 0.8; stroke-linejoin: miter"/>
   </g>
   <g id="patch_6">
    <path d="M 348.4025 333.993125 
C 348.4025 333.993125 348.4025 333.993125 348.4025 333.993125 
C 348.4025 333.993125 348.4025 333.993125 348.4025 333.993125 
L 420.784859 311.171055 
C 421.116806 312.223855 421.425743 313.283773 421.711452 314.350051 
C 421.99716 315.416328 422.259571 316.488713 422.498497 317.566438 
z
" clip-path="url(#p9f9c8ee37e)" style="fill: #008080; opacity: 0.8; stroke: #000000; stroke-width: 0.8; stroke-linejoin: miter"/>
   </g>
   <g id="patch_7">
    <path d="M 348.4025 333.993125 
C 348.4025 333.993125 348.4025 333.993125 348.4025 333.993125 
C 348.4025 333.993125 348.4025 333.993125 348.4025 333.993125 
L 437.851759 296.942029 
C 438.390667 298.243067 438.901125 299.555708 439.38277 300.879015 
C 439.864414 302.202322 440.31713 303.535979 440.740594 304.879036 
z
" clip-path="url(#p9f9c8ee37e)" style="fill: #008080; opacity: 0.8; stroke: #000000; stroke-width: 0.8; stroke-linejoin: miter"/>
   </g>
   <g id="patch_8">
    <path d="M 348.4025 333.993125 
C 348.4025 333.993125 348.4025 333.993125 348.4025 333.993125 
C 348.4025 333.993125 348.4025 333.993125 348.4025 333.993125 
L 454.130051 278.954846 
C 454.930582 280.492652 455.697467 282.04774 456.430158 283.619001 
C 457.162849 285.190262 457.861171 286.777321 458.524628 288.379046 
z
" clip-path="url(#p9f9c8ee37e)" style="fill: #008080; opacity: 0.8; stroke: #000000; stroke-width: 0.8; stroke-linejoin: miter"/>
   </g>
   <g id="patch_9">
    <path d="M 348.4025 333.993125 
C 348.4025 333.993125 348.4025 333.993125 348.4025 333.993125 
C 348.4025 333.993125 348.4025 333.993125 348.4025 333.993125 
L 463.16009 260.884477 
C 464.223454 262.553625 465.250276 264.245774 466.239821 265.959716 
C 467.229366 267.673658 468.181399 269.408986 469.095241 271.164461 
z
" clip-path="url(#p9f9c8ee37e)" style="fill: #008080; opacity: 0.8; stroke: #000000; stroke-width: 0.8; stroke-linejoin: miter"/>
   </g>
   <g id="patch_10">
    <path d="M 348.4025 333.993125 
C 348.4025 333.993125 348.4025 333.993125 348.4025 333.993125 
C 348.4025 333.993125 348.4025 333.993125 348.4025 333.993125 
L 458.15066 249.7804 
C 459.375533 251.376685 460.565433 252.999505 461.719512 254.647699 
C 462.87359 256.295894 463.991571 257.969071 465.072658 259.666037 
z
" clip-path="url(#p9f9c8ee37e)" style="fill: #008080; opacity: 0.8; stroke: #000000; stroke-width: 0.8; stroke-linejoin: miter"/>
   </g>
   <g id="patch_11">
    <path d="M 348.4025 333.993125 
C 348.4025 333.993125 348.4025 333.993125 348.4025 333.993125 
C 348.4025 333.993125 348.4025 333.993125 348.4025 333.993125 
L 443.776813 246.598669 
C 445.047964 247.985887 446.288699 249.400673 447.498131 250.842018 
C 448.707562 252.283363 449.885404 253.750923 451.030814 255.24365 
z
" clip-path="url(#p9f9c8ee37e)" style="fill: #008080; opacity: 0.8; stroke: #000000; stroke-width: 0.8; stroke-linejoin: miter"/>
   </g>
   <g id="patch_12">
    <path d="M 348.4025 333.993125 
C 348.4025 333.993125 348.4025 333.993125 348.4025 333.993125 
C 348.4025 333.993125 348.4025 333.993125 348.4025 333.993125 
L 425.32009 250.052305 
C 426.541008 251.17107 427.737373 252.31634 428.908329 253.487296 
C 430.079285 254.658252 431.224555 255.854617 432.34332 257.075535 
z
" clip-path="url(#p9f9c8ee37e)" style="fill: #008080; opacity: 0.8; stroke: #000000; stroke-width: 0.8; stroke-linejoin: miter"/>
   </g>
   <g id="patch_13">
    <path d="M 348.4025 333.993125 
C 348.4025 333.993125 348.4025 333.993125 348.4025 333.993125 
C 348.4025 333.993125 348.4025 333.993125 348.4025 333.993125 
L 408.714154 255.393447 
C 409.857386 256.270679 410.981342 257.172749 412.085221 258.099014 
C 413.1891 259.025278 414.272639 259.975516 415.335064 260.949049 
z
" clip-path="url(#p9f9c8ee37e)" style="fill: #008080; opacity: 0.8; stroke: #000000; stroke-width: 0.8; stroke-linejoin: miter"/>
   </g>
   <g id="patch_14">
    <path d="M 348.4025 333.993125 
C 348.4025 333.993125 348.4025 333.993125 348.4025 333.993125 
C 348.4025 333.993125 348.4025 333.993125 348.4025 333.993125 
L 390.979881 267.160024 
C 391.951968 267.779311 392.910428 268.419733 393.854576 269.080833 
C 394.798724 269.741933 395.728337 270.423553 396.64275 271.125207 
z
" clip-path="url(#p9f9c8ee37e)" style="fill: #008080; opacity: 0.8; stroke: #000000; stroke-width: 0.8; stroke-linejoin: miter"/>
   </g>
   <g id="patch_15">
    <path d="M 348.4025 333.993125 
C 348.4025 333.993125 348.4025 333.993125 348.4025 333.993125 
C 348.4025 333.993125 348.4025 333.993125 348.4025 333.993125 
L 372.379625 287.933496 
C 373.049562 288.282243 373.71181 288.645565 374.365897 289.023202 
C 375.019984 289.400839 375.665754 289.792702 376.302746 290.198511 
z
" clip-path="url(#p9f9c8ee37e)" style="fill: #008080; opacity: 0.8; stroke: #000000; stroke-width: 0.8; stroke-linejoin: miter"/>
   </g>
   <g id="patch_16">
    <path d="M 348.4025 333.993125 
C 348.4025 333.993125 348.4025 333.993125 348.4025 333.993125 
C 348.4025 333.993125 348.4025 333.993125 348.4025 333.993125 
L 359.525446 307.139959 
C 359.916024 307.301742 360.303027 307.472027 360.686178 307.650693 
C 361.069328 307.829359 361.448535 308.016363 361.823527 308.211572 
z
" clip-path="url(#p9f9c8ee37e)" style="fill: #008080; opacity: 0.8; stroke: #000000; stroke-width: 0.8; stroke-linejoin: miter"/>
   </g>
   <g id="patch_17">
    <path d="M 348.4025 333.993125 
C 348.4025 333.993125 348.4025 333.993125 348.4025 333.993125 
C 348.4025 333.993125 348.4025 333.993125 348.4025 333.993125 
L 353.248578 318.62333 
C 353.472131 318.693816 353.69412 318.769171 353.914386 318.849342 
C 354.134652 318.929512 354.353143 319.014478 354.569703 319.10418 
z
" clip-path="url(#p9f9c8ee37e)" style="fill: #008080; opacity: 0.8; stroke: #000000; stroke-width: 0.8; stroke-linejoin: miter"/>
   </g>
   <g id="patch_18">
    <path d="M 348.4025 333.993125 
C 348.4025 333.993125 348.4025 333.993125 348.4025 333.993125 
C 348.4025 333.993125 348.4025 333.993125 348.4025 333.993125 
L 350.772516 323.302674 
C 350.928008 323.337146 351.08273 323.375006 351.236571 323.416228 
C 351.390412 323.457449 351.543335 323.502022 351.695231 323.549915 
z
" clip-path="url(#p9f9c8ee37e)" style="fill: #008080; opacity: 0.8; stroke: #000000; stroke-width: 0.8; stroke-linejoin: miter"/>
   </g>
   <g id="patch_19">
    <path d="M 348.4025 333.993125 
C 348.4025 333.993125 348.4025 333.993125 348.4025 333.993125 
C 348.4025 333.993125 348.4025 333.993125 348.4025 333.993125 
L 349.482338 325.790941 
C 349.601639 325.806647 349.720583 325.824954 349.839085 325.845849 
C 349.957587 325.866744 350.075619 325.890222 350.193096 325.916267 
z
" clip-path="url(#p9f9c8ee37e)" style="fill: #008080; opacity: 0.8; stroke: #000000; stroke-width: 0.8; stroke-linejoin: miter"/>
   </g>
   <g id="patch_20">
    <path d="M 348.4025 333.993125 
C 348.4025 333.993125 348.4025 333.993125 348.4025 333.993125 
C 348.4025 333.993125 348.4025 333.993125 348.4025 333.993125 
L 348.714188 326.854294 
C 348.818022 326.858827 348.921745 326.865626 349.025283 326.874684 
C 349.128821 326.883742 349.232148 326.895059 349.335192 326.908625 
z
" clip-path="url(#p9f9c8ee37e)" style="fill: #008080; opacity: 0.8; stroke: #000000; stroke-width: 0.8; stroke-linejoin: miter"/>
   </g>
   <g id="patch_21">
    <path d="M 348.4025 333.993125 
C 348.4025 333.993125 348.4025 333.993125 348.4025 333.993125 
C 348.4025 333.993125 348.4025 333.993125 348.4025 333.993125 
L 348.138287 327.941663 
C 348.226306 327.93782 348.314398 327.935898 348.4025 327.935898 
C 348.490602 327.935898 348.578694 327.93782 348.666713 327.941663 
z
" clip-path="url(#p9f9c8ee37e)" style="fill: #008080; opacity: 0.8; stroke: #000000; stroke-width: 0.8; stroke-linejoin: miter"/>
   </g>
   <g id="patch_22">
    <path d="M 348.4025 333.993125 
C 348.4025 333.993125 348.4025 333.993125 348.4025 333.993125 
C 348.4025 333.993125 348.4025 333.993125 348.4025 333.993125 
L 347.91596 330.297488 
C 347.969713 330.290412 348.023614 330.284509 348.077625 330.279783 
C 348.131635 330.275058 348.185742 330.271512 348.239908 330.269147 
z
" clip-path="url(#p9f9c8ee37e)" style="fill: #008080; opacity: 0.8; stroke: #000000; stroke-width: 0.8; stroke-linejoin: miter"/>
   </g>
   <g id="patch_23">
    <path d="M 348.4025 333.993125 
C 348.4025 333.993125 348.4025 333.993125 348.4025 333.993125 
C 348.4025 333.993125 348.4025 333.993125 348.4025 333.993125 
L 348.4025 333.993125 
C 348.4025 333.993125 348.4025 333.993125 348.4025 333.993125 
C 348.4025 333.993125 348.4025 333.993125 348.4025 333.993125 
z
" clip-path="url(#p9f9c8ee37e)" style="fill: #008080; opacity: 0.8; stroke: #000000; stroke-width: 0.8; stroke-linejoin: miter"/>
   </g>
   <g id="patch_24">
    <path d="M 348.4025 333.993125 
C 348.4025 333.993125 348.4025 333.993125 348.4025 333.993125 
C 348.4025 333.993125 348.4025 333.993125 348.4025 333.993125 
L 345.204457 323.850227 
C 345.351985 323.803711 345.50051 323.76042 345.649927 323.720384 
C 345.799344 323.680348 345.949617 323.643576 346.100638 323.610096 
z
" clip-path="url(#p9f9c8ee37e)" style="fill: #008080; opacity: 0.8; stroke: #000000; stroke-width: 0.8; stroke-linejoin: miter"/>
   </g>
   <g id="patch_25">
    <path d="M 348.4025 333.993125 
C 348.4025 333.993125 348.4025 333.993125 348.4025 333.993125 
C 348.4025 333.993125 348.4025 333.993125 348.4025 333.993125 
L 328.519403 285.991083 
C 329.217592 285.701883 329.922008 285.427951 330.632147 285.169481 
C 331.342286 284.911012 332.05798 284.668066 332.778718 284.440819 
z
" clip-path="url(#p9f9c8ee37e)" style="fill: #008080; opacity: 0.8; stroke: #000000; stroke-width: 0.8; stroke-linejoin: miter"/>
   </g>
   <g id="patch_26">
    <path d="M 348.4025 333.993125 
C 348.4025 333.993125 348.4025 333.993125 348.4025 333.993125 
C 348.4025 333.993125 348.4025 333.993125 348.4025 333.993125 
L 296.697912 234.669536 
C 298.142573 233.917494 299.603469 233.19706 301.079558 232.508748 
C 302.555647 231.820436 304.046577 231.164411 305.551285 230.541141 
z
" clip-path="url(#p9f9c8ee37e)" style="fill: #008080; opacity: 0.8; stroke: #000000; stroke-width: 0.8; stroke-linejoin: miter"/>
   </g>
   <g id="patch_27">
    <path d="M 348.4025 333.993125 
C 348.4025 333.993125 348.4025 333.993125 348.4025 333.993125 
C 348.4025 333.993125 348.4025 333.993125 348.4025 333.993125 
L 251.330246 181.620208 
C 253.546508 180.208294 255.793311 178.8449 258.069051 177.531001 
C 260.34479 176.217102 262.648925 174.953011 264.97981 173.739629 
z
" clip-path="url(#p9f9c8ee37e)" style="fill: #008080; opacity: 0.8; stroke: #000000; stroke-width: 0.8; stroke-linejoin: miter"/>
   </g>
   <g id="patch_28">
    <path d="M 348.4025 333.993125 
C 348.4025 333.993125 348.4025 333.993125 348.4025 333.993125 
C 348.4025 333.993125 348.4025 333.993125 348.4025 333.993125 
L 204.892667 146.96747 
C 207.612953 144.880121 210.378456 142.852371 213.187201 140.885666 
C 215.995947 138.918961 218.847267 137.01377 221.739125 135.171453 
z
" clip-path="url(#p9f9c8ee37e)" style="fill: #008080; opacity: 0.8; stroke: #000000; stroke-width: 0.8; stroke-linejoin: miter"/>
   </g>
   <g id="patch_29">
    <path d="M 348.4025 333.993125 
C 348.4025 333.993125 348.4025 333.993125 348.4025 333.993125 
C 348.4025 333.993125 348.4025 333.993125 348.4025 333.993125 
L 165.412459 134.294537 
C 168.317072 131.63295 171.279409 129.03505 174.297355 126.502693 
C 177.3153 123.970336 180.388137 121.504124 183.51367 119.105818 
z
" clip-path="url(#p9f9c8ee37e)" style="fill: #008080; opacity: 0.8; stroke: #000000; stroke-width: 0.8; stroke-linejoin: miter"/>
   </g>
   <g id="patch_30">
    <path d="M 348.4025 333.993125 
C 348.4025 333.993125 348.4025 333.993125 348.4025 333.993125 
C 348.4025 333.993125 348.4025 333.993125 348.4025 333.993125 
L 145.239027 147.828102 
C 147.946795 144.873091 150.718712 141.97751 153.552798 139.143423 
C 156.386885 136.309337 159.282466 133.53742 162.237477 130.829652 
z
" clip-path="url(#p9f9c8ee37e)" style="fill: #008080; opacity: 0.8; stroke: #000000; stroke-width: 0.8; stroke-linejoin: miter"/>
   </g>
   <g id="patch_31">
    <path d="M 348.4025 333.993125 
C 348.4025 333.993125 348.4025 333.993125 348.4025 333.993125 
C 348.4025 333.993125 348.4025 333.993125 348.4025 333.993125 
L 155.083987 185.654613 
C 157.241569 182.842798 159.460241 180.07839 161.738419 177.363363 
C 164.016596 174.648336 166.353738 171.983337 168.748176 169.370267 
z
" clip-path="url(#p9f9c8ee37e)" style="fill: #008080; opacity: 0.8; stroke: #000000; stroke-width: 0.8; stroke-linejoin: miter"/>
   </g>
   <g id="patch_32">
    <path d="M 348.4025 333.993125 
C 348.4025 333.993125 348.4025 333.993125 348.4025 333.993125 
C 348.4025 333.993125 348.4025 333.993125 348.4025 333.993125 
L 193.483099 235.298582 
C 194.91861 233.045281 196.403111 230.823568 197.935543 228.635028 
C 199.467975 226.446488 201.047974 224.291642 202.67441 222.172029 
z
" clip-path="url(#p9f9c8ee37e)" style="fill: #008080; opacity: 0.8; stroke: #000000; stroke-width: 0.8; stroke-linejoin: miter"/>
   </g>
   <g id="patch_33">
    <path d="M 348.4025 333.993125 
C 348.4025 333.993125 348.4025 333.993125 348.4025 333.993125 
C 348.4025 333.993125 348.4025 333.993125 348.4025 333.993125 
L 237.598585 276.312258 
C 238.437553 274.700616 239.311582 273.107471 240.22005 271.533958 
C 241.128518 269.960446 242.071207 268.406941 243.047446 266.874553 
z
" clip-path="url(#p9f9c8ee37e)" style="fill: #008080; opacity: 0.8; stroke: #000000; stroke-width: 0.8; stroke-linejoin: miter"/>
   </g>
   <g id="patch_34">
    <path d="M 348.4025 333.993125 
C 348.4025 333.993125 348.4025 333.993125 348.4025 333.993125 
C 348.4025 333.993125 348.4025 333.993125 348.4025 333.993125 
L 269.917778 301.483689 
C 270.390628 300.34213 270.888327 299.211023 271.41052 298.091175 
C 271.932714 296.971328 272.479277 295.863007 273.049821 294.767003 
z
" clip-path="url(#p9f9c8ee37e)" style="fill: #008080; opacity: 0.8; stroke: #000000; stroke-width: 0.8; stroke-linejoin: miter"/>
   </g>
   <g id="patch_35">
    <path d="M 348.4025 333.993125 
C 348.4025 333.993125 348.4025 333.993125 348.4025 333.993125 
C 348.4025 333.993125 348.4025 333.993125 348.4025 333.993125 
L 290.322407 315.680542 
C 290.588764 314.835768 290.873519 313.996905 291.17647 313.164554 
C 291.479422 312.332202 291.800497 311.506559 292.139466 310.688213 
z
" clip-path="url(#p9f9c8ee37e)" style="fill: #008080; opacity: 0.8; stroke: #000000; stroke-width: 0.8; stroke-linejoin: miter"/>
   </g>
   <g id="patch_36">
    <path d="M 348.4025 333.993125 
C 348.4025 333.993125 348.4025 333.993125 348.4025 333.993125 
C 348.4025 333.993125 348.4025 333.993125 348.4025 333.993125 
L 301.987247 323.703111 
C 302.136915 323.028002 302.301294 322.356238 302.480268 321.6883 
C 302.659241 321.020362 302.852766 320.356408 303.060705 319.696912 
z
" clip-path="url(#p9f9c8ee37e)" style="fill: #008080; opacity: 0.8; stroke: #000000; stroke-width: 0.8; stroke-linejoin: miter"/>
   </g>
   <g id="patch_37">
    <path d="M 348.4025 333.993125 
C 348.4025 333.993125 348.4025 333.993125 348.4025 333.993125 
C 348.4025 333.993125 348.4025 333.993125 348.4025 333.993125 
L 315.426509 329.651753 
C 315.489654 329.172118 315.563256 328.693917 315.647262 328.217493 
C 315.731269 327.741068 315.82566 327.266533 315.930368 326.794227 
z
" clip-path="url(#p9f9c8ee37e)" style="fill: #008080; opacity: 0.8; stroke: #000000; stroke-width: 0.8; stroke-linejoin: miter"/>
   </g>
   <g id="patch_38">
    <path d="M 348.4025 333.993125 
C 348.4025 333.993125 348.4025 333.993125 348.4025 333.993125 
C 348.4025 333.993125 348.4025 333.993125 348.4025 333.993125 
L 324.332156 332.942191 
C 324.347441 332.592088 324.370364 332.242361 324.400906 331.893258 
C 324.431449 331.544155 324.469604 331.19576 324.515345 330.848321 
z
" clip-path="url(#p9f9c8ee37e)" style="fill: #008080; opacity: 0.8; stroke: #000000; stroke-width: 0.8; stroke-linejoin: miter"/>
   </g>
   <g id="patch_39">
    <path d="M 348.4025 333.993125 
C 348.4025 333.993125 348.4025 333.993125 348.4025 333.993125 
C 348.4025 333.993125 348.4025 333.993125 348.4025 333.993125 
L 323.458093 335.082221 
C 323.442252 334.719405 323.434329 334.356287 323.434329 333.993125 
C 323.434329 333.629963 323.442252 333.266845 323.458093 332.904029 
z
" clip-path="url(#p9f9c8ee37e)" style="fill: #008080; opacity: 0.8; stroke: #000000; stroke-width: 0.8; stroke-linejoin: miter"/>
   </g>
   <g id="patch_40">
    <path d="M 348.4025 333.993125 
C 348.4025 333.993125 348.4025 333.993125 348.4025 333.993125 
C 348.4025 333.993125 348.4025 333.993125 348.4025 333.993125 
L 312.3327 338.741804 
C 312.263631 338.217169 312.206016 337.69109 312.159896 337.163942 
C 312.113777 336.636794 312.079164 336.108702 312.056082 335.580044 
z
" clip-path="url(#p9f9c8ee37e)" style="fill: #008080; opacity: 0.8; stroke: #000000; stroke-width: 0.8; stroke-linejoin: miter"/>
   </g>
   <g id="patch_41">
    <path d="M 348.4025 333.993125 
C 348.4025 333.993125 348.4025 333.993125 348.4025 333.993125 
C 348.4025 333.993125 348.4025 333.993125 348.4025 333.993125 
L 295.12918 345.803536 
C 294.957398 345.028676 294.802542 344.250161 294.664722 343.468545 
C 294.526902 342.68693 294.406151 341.902401 294.302556 341.115518 
z
" clip-path="url(#p9f9c8ee37e)" style="fill: #008080; opacity: 0.8; stroke: #000000; stroke-width: 0.8; stroke-linejoin: miter"/>
   </g>
   <g id="patch_42">
    <path d="M 348.4025 333.993125 
C 348.4025 333.993125 348.4025 333.993125 348.4025 333.993125 
C 348.4025 333.993125 348.4025 333.993125 348.4025 333.993125 
L 276.020141 356.815195 
C 275.688194 355.762395 275.379257 354.702477 275.093548 353.636199 
C 274.80784 352.569922 274.545429 351.497537 274.306503 350.419812 
z
" clip-path="url(#p9f9c8ee37e)" style="fill: #008080; opacity: 0.8; stroke: #000000; stroke-width: 0.8; stroke-linejoin: miter"/>
   </g>
   <g id="patch_43">
    <path d="M 348.4025 333.993125 
C 348.4025 333.993125 348.4025 333.993125 348.4025 333.993125 
C 348.4025 333.993125 348.4025 333.993125 348.4025 333.993125 
L 258.953241 371.044221 
C 258.414333 369.743183 257.903875 368.430542 257.42223 367.107235 
C 256.940586 365.783928 256.48787 364.450271 256.064406 363.107214 
z
" clip-path="url(#p9f9c8ee37e)" style="fill: #008080; opacity: 0.8; stroke: #000000; stroke-width: 0.8; stroke-linejoin: miter"/>
   </g>
   <g id="patch_44">
    <path d="M 348.4025 333.993125 
C 348.4025 333.993125 348.4025 333.993125 348.4025 333.993125 
C 348.4025 333.993125 348.4025 333.993125 348.4025 333.993125 
L 242.674949 389.031404 
C 241.874418 387.493598 241.107533 385.93851 240.374842 384.367249 
C 239.642151 382.795988 238.943829 381.208929 238.280372 379.607204 
z
" clip-path="url(#p9f9c8ee37e)" style="fill: #008080; opacity: 0.8; stroke: #000000; stroke-width: 0.8; stroke-linejoin: miter"/>
   </g>
   <g id="patch_45">
    <path d="M 348.4025 333.993125 
C 348.4025 333.993125 348.4025 333.993125 348.4025 333.993125 
C 348.4025 333.993125 348.4025 333.993125 348.4025 333.993125 
L 233.64491 407.101773 
C 232.581546 405.432625 231.554724 403.740476 230.565179 402.026534 
C 229.575634 400.312592 228.623601 398.577264 227.709759 396.821789 
z
" clip-path="url(#p9f9c8ee37e)" style="fill: #008080; opacity: 0.8; stroke: #000000; stroke-width: 0.8; stroke-linejoin: miter"/>
   </g>
   <g id="patch_46">
    <path d="M 348.4025 333.993125 
C 348.4025 333.993125 348.4025 333.993125 348.4025 333.993125 
C 348.4025 333.993125 348.4025 333.993125 348.4025 333.993125 
L 238.65434 418.20585 
C 237.429467 416.609565 236.239567 414.986745 235.085488 413.338551 
C 233.93141 411.690356 232.813429 410.017179 231.732342 408.320213 
z
" clip-path="url(#p9f9c8ee37e)" style="fill: #008080; opacity: 0.8; stroke: #000000; stroke-width: 0.8; stroke-linejoin: miter"/>
   </g>
   <g id="patch_47">
    <path d="M 348.4025 333.993125 
C 348.4025 333.993125 348.4025 333.993125 348.4025 333.993125 
C 348.4025 333.993125 348.4025 333.993125 348.4025 333.993125 
L 253.028187 421.387581 
C 251.757036 420.000363 250.516301 418.585577 249.306869 417.144232 
C 248.097438 415.702887 246.919596 414.235327 245.774186 412.7426 
z
" clip-path="url(#p9f9c8ee37e)" style="fill: #008080; opacity: 0.8; stroke: #000000; stroke-width: 0.8; stroke-linejoin: miter"/>
   </g>
   <g id="patch_48">
    <path d="M 348.4025 333.993125 
C 348.4025 333.993125 348.4025 333.993125 348.4025 333.993125 
C 348.4025 333.993125 348.4025 333.993125 348.4025 333.993125 
L 271.48491 417.933945 
C 270.263992 416.81518 269.067627 415.66991 267.896671 414.498954 
C 266.725715 413.327998 265.580445 412.131633 264.46168 410.910715 
z
" clip-path="url(#p9f9c8ee37e)" style="fill: #008080; opacity: 0.8; stroke: #000000; stroke-width: 0.8; stroke-linejoin: miter"/>
   </g>
   <g id="patch_49">
    <path d="M 348.4025 333.993125 
C 348.4025 333.993125 348.4025 333.993125 348.4025 333.993125 
C 348.4025 333.993125 348.4025 333.993125 348.4025 333.993125 
L 288.090846 412.592803 
C 286.947614 411.715571 285.823658 410.813501 284.719779 409.887236 
C 283.6159 408.960972 282.532361 408.010734 281.469936 407.037201 
z
" clip-path="url(#p9f9c8ee37e)" style="fill: #008080; opacity: 0.8; stroke: #000000; stroke-width: 0.8; stroke-linejoin: miter"/>
   </g>
   <g id="patch_50">
    <path d="M 348.4025 333.993125 
C 348.4025 333.993125 348.4025 333.993125 348.4025 333.993125 
C 348.4025 333.993125 348.4025 333.993125 348.4025 333.993125 
L 305.825119 400.826226 
C 304.853032 400.206939 303.894572 399.566517 302.950424 398.905417 
C 302.006276 398.244317 301.076663 397.562697 300.16225 396.861043 
z
" clip-path="url(#p9f9c8ee37e)" style="fill: #008080; opacity: 0.8; stroke: #000000; stroke-width: 0.8; stroke-linejoin: miter"/>
   </g>
   <g id="patch_51">
    <path d="M 348.4025 333.993125 
C 348.4025 333.993125 348.4025 333.993125 348.4025 333.993125 
C 348.4025 333.993125 348.4025 333.993125 348.4025 333.993125 
L 324.425375 380.052754 
C 323.755438 379.704007 323.09319 379.340685 322.439103 378.963048 
C 321.785016 378.585411 321.139246 378.193548 320.502254 377.787739 
z
" clip-path="url(#p9f9c8ee37e)" style="fill: #008080; opacity: 0.8; stroke: #000000; stroke-width: 0.8; stroke-linejoin: miter"/>
   </g>
   <g id="patch_52">
    <path d="M 348.4025 333.993125 
C 348.4025 333.993125 348.4025 333.993125 348.4025 333.993125 
C 348.4025 333.993125 348.4025 333.993125 348.4025 333.993125 
L 337.279554 360.846291 
C 336.888976 360.684508 336.501973 360.514223 336.118822 360.335557 
C 335.735672 360.156891 335.356465 359.969887 334.981473 359.774678 
z
" clip-path="url(#p9f9c8ee37e)" style="fill: #008080; opacity: 0.8; stroke: #000000; stroke-width: 0.8; stroke-linejoin: miter"/>
   </g>
   <g id="patch_53">
    <path d="M 348.4025 333.993125 
C 348.4025 333.993125 348.4025 333.993125 348.4025 333.993125 
C 348.4025 333.993125 348.4025 333.993125 348.4025 333.993125 
L 343.556422 349.36292 
C 343.332869 349.292434 343.11088 349.217079 342.890614 349.136908 
C 342.670348 349.056738 342.451857 348.971772 342.235297 348.88207 
z
" clip-path="url(#p9f9c8ee37e)" style="fill: #008080; opacity: 0.8; stroke: #000000; stroke-width: 0.8; stroke-linejoin: miter"/>
   </g>
   <g id="patch_54">
    <path d="M 348.4025 333.993125 
C 348.4025 333.993125 348.4025 333.993125 348.4025 333.993125 
C 348.4025 333.993125 348.4025 333.993125 348.4025 333.993125 
L 346.032484 344.683576 
C 345.876992 344.649104 345.72227 344.611244 345.568429 344.570022 
C 345.414588 344.528801 345.261665 344.484228 345.109769 344.436335 
z
" clip-path="url(#p9f9c8ee37e)" style="fill: #008080; opacity: 0.8; stroke: #000000; stroke-width: 0.8; stroke-linejoin: miter"/>
   </g>
   <g id="patch_55">
    <path d="M 348.4025 333.993125 
C 348.4025 333.993125 348.4025 333.993125 348.4025 333.993125 
C 348.4025 333.993125 348.4025 333.993125 348.4025 333.993125 
L 347.322662 342.195309 
C 347.203361 342.179603 347.084417 342.161296 346.965915 342.140401 
C 346.847413 342.119506 346.729381 342.096028 346.611904 342.069983 
z
" clip-path="url(#p9f9c8ee37e)" style="fill: #008080; opacity: 0.8; stroke: #000000; stroke-width: 0.8; stroke-linejoin: miter"/>
   </g>
   <g id="patch_56">
    <path d="M 348.4025 333.993125 
C 348.4025 333.993125 348.4025 333.993125 348.4025 333.993125 
C 348.4025 333.993125 348.4025 333.993125 348.4025 333.993125 
L 348.090812 341.131956 
C 347.986978 341.127423 347.883255 341.120624 347.779717 341.111566 
C 347.676179 341.102508 347.572852 341.091191 347.469808 341.077625 
z
" clip-path="url(#p9f9c8ee37e)" style="fill: #008080; opacity: 0.8; stroke: #000000; stroke-width: 0.8; stroke-linejoin: miter"/>
   </g>
   <g id="patch_57">
    <path d="M 348.4025 333.993125 
C 348.4025 333.993125 348.4025 333.993125 348.4025 333.993125 
C 348.4025 333.993125 348.4025 333.993125 348.4025 333.993125 
L 348.666713 340.044587 
C 348.578694 340.04843 348.490602 340.050352 348.4025 340.050352 
C 348.314398 340.050352 348.226306 340.04843 348.138287 340.044587 
z
" clip-path="url(#p9f9c8ee37e)" style="fill: #008080; opacity: 0.8; stroke: #000000; stroke-width: 0.8; stroke-linejoin: miter"/>
   </g>
   <g id="patch_58">
    <path d="M 348.4025 333.993125 
C 348.4025 333.993125 348.4025 333.993125 348.4025 333.993125 
C 348.4025 333.993125 348.4025 333.993125 348.4025 333.993125 
L 348.88904 337.688762 
C 348.835287 337.695838 348.781386 337.701741 348.727375 337.706467 
C 348.673365 337.711192 348.619258 337.714738 348.565092 337.717103 
z
" clip-path="url(#p9f9c8ee37e)" style="fill: #008080; opacity: 0.8; stroke: #000000; stroke-width: 0.8; stroke-linejoin: miter"/>
   </g>
   <g id="patch_59">
    <path d="M 348.4025 333.993125 
C 348.4025 333.993125 348.4025 333.993125 348.4025 333.993125 
C 348.4025 333.993125 348.4025 333.993125 348.4025 333.993125 
L 348.4025 333.993125 
C 348.4025 333.993125 348.4025 333.993125 348.4025 333.993125 
C 348.4025 333.993125 348.4025 333.993125 348.4025 333.993125 
z
" clip-path="url(#p9f9c8ee37e)" style="fill: #008080; opacity: 0.8; stroke: #000000; stroke-width: 0.8; stroke-linejoin: miter"/>
   </g>
   <g id="patch_60">
    <path d="M 348.4025 333.993125 
C 348.4025 333.993125 348.4025 333.993125 348.4025 333.993125 
C 348.4025 333.993125 348.4025 333.993125 348.4025 333.993125 
L 351.600543 344.136023 
C 351.453015 344.182539 351.30449 344.22583 351.155073 344.265866 
C 351.005656 344.305902 350.855383 344.342674 350.704362 344.376154 
z
" clip-path="url(#p9f9c8ee37e)" style="fill: #008080; opacity: 0.8; stroke: #000000; stroke-width: 0.8; stroke-linejoin: miter"/>
   </g>
   <g id="patch_61">
    <path d="M 348.4025 333.993125 
C 348.4025 333.993125 348.4025 333.993125 348.4025 333.993125 
C 348.4025 333.993125 348.4025 333.993125 348.4025 333.993125 
L 368.285597 381.995167 
C 367.587408 382.284367 366.882992 382.558299 366.172853 382.816769 
C 365.462714 383.075238 364.74702 383.318184 364.026282 383.545431 
z
" clip-path="url(#p9f9c8ee37e)" style="fill: #008080; opacity: 0.8; stroke: #000000; stroke-width: 0.8; stroke-linejoin: miter"/>
   </g>
   <g id="patch_62">
    <path d="M 348.4025 333.993125 
C 348.4025 333.993125 348.4025 333.993125 348.4025 333.993125 
C 348.4025 333.993125 348.4025 333.993125 348.4025 333.993125 
L 400.107088 433.316714 
C 398.662427 434.068756 397.201531 434.78919 395.725442 435.477502 
C 394.249353 436.165814 392.758423 436.821839 391.253715 437.445109 
z
" clip-path="url(#p9f9c8ee37e)" style="fill: #008080; opacity: 0.8; stroke: #000000; stroke-width: 0.8; stroke-linejoin: miter"/>
   </g>
   <g id="patch_63">
    <path d="M 348.4025 333.993125 
C 348.4025 333.993125 348.4025 333.993125 348.4025 333.993125 
C 348.4025 333.993125 348.4025 333.993125 348.4025 333.993125 
L 445.474754 486.366042 
C 443.258492 487.777956 441.011689 489.14135 438.735949 490.455249 
C 436.46021 491.769148 434.156075 493.033239 431.82519 494.246621 
z
" clip-path="url(#p9f9c8ee37e)" style="fill: #008080; opacity: 0.8; stroke: #000000; stroke-width: 0.8; stroke-linejoin: miter"/>
   </g>
   <g id="patch_64">
    <path d="M 348.4025 333.993125 
C 348.4025 333.993125 348.4025 333.993125 348.4025 333.993125 
C 348.4025 333.993125 348.4025 333.993125 348.4025 333.993125 
L 491.912333 521.01878 
C 489.192047 523.106129 486.426544 525.133879 483.617799 527.100584 
C 480.809053 529.067289 477.957733 530.97248 475.065875 532.814797 
z
" clip-path="url(#p9f9c8ee37e)" style="fill: #008080; opacity: 0.8; stroke: #000000; stroke-width: 0.8; stroke-linejoin: miter"/>
   </g>
   <g id="patch_65">
    <path d="M 348.4025 333.993125 
C 348.4025 333.993125 348.4025 333.993125 348.4025 333.993125 
C 348.4025 333.993125 348.4025 333.993125 348.4025 333.993125 
L 531.392541 533.691713 
C 528.487928 536.3533 525.525591 538.9512 522.507645 541.483557 
C 519.4897 544.015914 516.416863 546.482126 513.29133 548.880432 
z
" clip-path="url(#p9f9c8ee37e)" style="fill: #008080; opacity: 0.8; stroke: #000000; stroke-width: 0.8; stroke-linejoin: miter"/>
   </g>
   <g id="patch_66">
    <path d="M 348.4025 333.993125 
C 348.4025 333.993125 348.4025 333.993125 348.4025 333.993125 
C 348.4025 333.993125 348.4025 333.993125 348.4025 333.993125 
L 551.565973 520.158148 
C 548.858205 523.113159 546.086288 526.00874 543.252202 528.842827 
C 540.418115 531.676913 537.522534 534.44883 534.567523 537.156598 
z
" clip-path="url(#p9f9c8ee37e)" style="fill: #008080; opacity: 0.8; stroke: #000000; stroke-width: 0.8; stroke-linejoin: miter"/>
   </g>
   <g id="patch_67">
    <path d="M 348.4025 333.993125 
C 348.4025 333.993125 348.4025 333.993125 348.4025 333.993125 
C 348.4025 333.993125 348.4025 333.993125 348.4025 333.993125 
L 541.721013 482.331637 
C 539.563431 485.143452 537.344759 487.90786 535.066581 490.622887 
C 532.788404 493.337914 530.451262 496.002913 528.056824 498.615983 
z
" clip-path="url(#p9f9c8ee37e)" style="fill: #008080; opacity: 0.8; stroke: #000000; stroke-width: 0.8; stroke-linejoin: miter"/>
   </g>
   <g id="patch_68">
    <path d="M 348.4025 333.993125 
C 348.4025 333.993125 348.4025 333.993125 348.4025 333.993125 
C 348.4025 333.993125 348.4025 333.993125 348.4025 333.993125 
L 503.321901 432.687668 
C 501.88639 434.940969 500.401889 437.162682 498.869457 439.351222 
C 497.337025 441.539762 495.757026 443.694608 494.13059 445.814221 
z
" clip-path="url(#p9f9c8ee37e)" style="fill: #008080; opacity: 0.8; stroke: #000000; stroke-width: 0.8; stroke-linejoin: miter"/>
   </g>
   <g id="patch_69">
    <path d="M 348.4025 333.993125 
C 348.4025 333.993125 348.4025 333.993125 348.4025 333.993125 
C 348.4025 333.993125 348.4025 333.993125 348.4025 333.993125 
L 459.206415 391.673992 
C 458.367447 393.285634 457.493418 394.878779 456.58495 396.452292 
C 455.676482 398.025804 454.733793 399.579309 453.757554 401.111697 
z
" clip-path="url(#p9f9c8ee37e)" style="fill: #008080; opacity: 0.8; stroke: #000000; stroke-width: 0.8; stroke-linejoin: miter"/>
   </g>
   <g id="patch_70">
    <path d="M 348.4025 333.993125 
C 348.4025 333.993125 348.4025 333.993125 348.4025 333.993125 
C 348.4025 333.993125 348.4025 333.993125 348.4025 333.993125 
L 426.887222 366.502561 
C 426.414372 367.64412 425.916673 368.775227 425.39448 369.895075 
C 424.872286 371.014922 424.325723 372.123243 423.755179 373.219247 
z
" clip-path="url(#p9f9c8ee37e)" style="fill: #008080; opacity: 0.8; stroke: #000000; stroke-width: 0.8; stroke-linejoin: miter"/>
   </g>
   <g id="patch_71">
    <path d="M 348.4025 333.993125 
C 348.4025 333.993125 348.4025 333.993125 348.4025 333.993125 
C 348.4025 333.993125 348.4025 333.993125 348.4025 333.993125 
L 406.482593 352.305708 
C 406.216236 353.150482 405.931481 353.989345 405.62853 354.821696 
C 405.325578 355.654048 405.004503 356.479691 404.665534 357.298037 
z
" clip-path="url(#p9f9c8ee37e)" style="fill: #008080; opacity: 0.8; stroke: #000000; stroke-width: 0.8; stroke-linejoin: miter"/>
   </g>
   <g id="patch_72">
    <path d="M 348.4025 333.993125 
C 348.4025 333.993125 348.4025 333.993125 348.4025 333.993125 
C 348.4025 333.993125 348.4025 333.993125 348.4025 333.993125 
L 394.817753 344.283139 
C 394.668085 344.958248 394.503706 345.630012 394.324732 346.29795 
C 394.145759 346.965888 393.952234 347.629842 393.744295 348.289338 
z
" clip-path="url(#p9f9c8ee37e)" style="fill: #008080; opacity: 0.8; stroke: #000000; stroke-width: 0.8; stroke-linejoin: miter"/>
   </g>
   <g id="patch_73">
    <path d="M 348.4025 333.993125 
C 348.4025 333.993125 348.4025 333.993125 348.4025 333.993125 
C 348.4025 333.993125 348.4025 333.993125 348.4025 333.993125 
L 381.378491 338.334497 
C 381.315346 338.814132 381.241744 339.292333 381.157738 339.768757 
C 381.073731 340.245182 380.97934 340.719717 380.874632 341.192023 
z
" clip-path="url(#p9f9c8ee37e)" style="fill: #008080; opacity: 0.8; stroke: #000000; stroke-width: 0.8; stroke-linejoin: miter"/>
   </g>
   <g id="patch_74">
    <path d="M 348.4025 333.993125 
C 348.4025 333.993125 348.4025 333.993125 348.4025 333.993125 
C 348.4025 333.993125 348.4025 333.993125 348.4025 333.993125 
L 372.472844 335.044059 
C 372.457559 335.394162 372.434636 335.743889 372.404094 336.092992 
C 372.373551 336.442095 372.335396 336.79049 372.289655 337.137929 
z
" clip-path="url(#p9f9c8ee37e)" style="fill: #008080; opacity: 0.8; stroke: #000000; stroke-width: 0.8; stroke-linejoin: miter"/>
   </g>
   <g id="matplotlib.axis_1">
    <g id="xtick_1">
     <g id="line2d_1">
      <path d="M 348.4025 333.993125 
L 651.5175 333.993125 
" clip-path="url(#p9f9c8ee37e)" style="fill: none; stroke: #b0b0b0; stroke-width: 0.8; stroke-linecap: square"/>
     </g>
     <g id="text_1">
      <text style="font: 20px 'DejaVu Sans', 'Bitstream Vera Sans', 'Computer Modern Sans Serif', 'Lucida Grande', 'Verdana', 'Geneva', 'Lucid', 'Arial', 'Helvetica', 'Avant Garde', sans-serif; text-anchor: middle" x="665.5175" y="339.511875" transform="rotate(-0 665.5175 339.511875)">0°</text>
     </g>
    </g>
    <g id="xtick_2">
     <g id="line2d_2">
      <path d="M 348.4025 333.993125 
L 562.737172 119.658453 
" clip-path="url(#p9f9c8ee37e)" style="fill: none; stroke: #b0b0b0; stroke-width: 0.8; stroke-linecap: square"/>
     </g>
     <g id="text_2">
      <text style="font: 20px 'DejaVu Sans', 'Bitstream Vera Sans', 'Computer Modern Sans Serif', 'Lucida Grande', 'Verdana', 'Geneva', 'Lucid', 'Arial', 'Helvetica', 'Avant Garde', sans-serif; text-anchor: middle" x="572.636667" y="115.277708" transform="rotate(-0 572.636667 115.277708)">45°</text>
     </g>
    </g>
    <g id="xtick_3">
     <g id="line2d_3">
      <path d="M 348.4025 333.993125 
L 348.4025 30.878125 
" clip-path="url(#p9f9c8ee37e)" style="fill: none; stroke: #b0b0b0; stroke-width: 0.8; stroke-linecap: square"/>
     </g>
     <g id="text_3">
      <text style="font: 20px 'DejaVu Sans', 'Bitstream Vera Sans', 'Computer Modern Sans Serif', 'Lucida Grande', 'Verdana', 'Geneva', 'Lucid', 'Arial', 'Helvetica', 'Avant Garde', sans-serif; text-anchor: middle" x="348.4025" y="22.396875" transform="rotate(-0 348.4025 22.396875)">90°</text>
     </g>
    </g>
    <g id="xtick_4">
     <g id="line2d_4">
      <path d="M 348.4025 333.993125 
L 134.067828 119.658453 
" clip-path="url(#p9f9c8ee37e)" style="fill: none; stroke: #b0b0b0; stroke-width: 0.8; stroke-linecap: square"/>
     </g>
     <g id="text_4">
      <text style="font: 20px 'DejaVu Sans', 'Bitstream Vera Sans', 'Computer Modern Sans Serif', 'Lucida Grande', 'Verdana', 'Geneva', 'Lucid', 'Arial', 'Helvetica', 'Avant Garde', sans-serif; text-anchor: middle" x="124.168333" y="115.277708" transform="rotate(-0 124.168333 115.277708)">135°</text>
     </g>
    </g>
    <g id="xtick_5">
     <g id="line2d_5">
      <path d="M 348.4025 333.993125 
L 45.2875 333.993125 
" clip-path="url(#p9f9c8ee37e)" style="fill: none; stroke: #b0b0b0; stroke-width: 0.8; stroke-linecap: square"/>
     </g>
     <g id="text_5">
      <text style="font: 20px 'DejaVu Sans', 'Bitstream Vera Sans', 'Computer Modern Sans Serif', 'Lucida Grande', 'Verdana', 'Geneva', 'Lucid', 'Arial', 'Helvetica', 'Avant Garde', sans-serif; text-anchor: middle" x="31.2875" y="339.511875" transform="rotate(-0 31.2875 339.511875)">180°</text>
     </g>
    </g>
    <g id="xtick_6">
     <g id="line2d_6">
      <path d="M 348.4025 333.993125 
L 134.067828 548.327797 
" clip-path="url(#p9f9c8ee37e)" style="fill: none; stroke: #b0b0b0; stroke-width: 0.8; stroke-linecap: square"/>
     </g>
     <g id="text_6">
      <text style="font: 20px 'DejaVu Sans', 'Bitstream Vera Sans', 'Computer Modern Sans Serif', 'Lucida Grande', 'Verdana', 'Geneva', 'Lucid', 'Arial', 'Helvetica', 'Avant Garde', sans-serif; text-anchor: middle" x="124.168333" y="563.746042" transform="rotate(-0 124.168333 563.746042)">225°</text>
     </g>
    </g>
    <g id="xtick_7">
     <g id="line2d_7">
      <path d="M 348.4025 333.993125 
L 348.4025 637.108125 
" clip-path="url(#p9f9c8ee37e)" style="fill: none; stroke: #b0b0b0; stroke-width: 0.8; stroke-linecap: square"/>
     </g>
     <g id="text_7">
      <text style="font: 20px 'DejaVu Sans', 'Bitstream Vera Sans', 'Computer Modern Sans Serif', 'Lucida Grande', 'Verdana', 'Geneva', 'Lucid', 'Arial', 'Helvetica', 'Avant Garde', sans-serif; text-anchor: middle" x="348.4025" y="656.626875" transform="rotate(-0 348.4025 656.626875)">270°</text>
     </g>
    </g>
    <g id="xtick_8">
     <g id="line2d_8">
      <path d="M 348.4025 333.993125 
L 562.737172 548.327797 
" clip-path="url(#p9f9c8ee37e)" style="fill: none; stroke: #b0b0b0; stroke-width: 0.8; stroke-linecap: square"/>
     </g>
     <g id="text_8">
      <text style="font: 20px 'DejaVu Sans', 'Bitstream Vera Sans', 'Computer Modern Sans Serif', 'Lucida Grande', 'Verdana', 'Geneva', 'Lucid', 'Arial', 'Helvetica', 'Avant Garde', sans-serif; text-anchor: middle" x="572.636667" y="563.746042" transform="rotate(-0 572.636667 563.746042)">315°</text>
     </g>
    </g>
   </g>
   <g id="matplotlib.axis_2">
    <g id="ytick_1">
     <g id="line2d_9">
      <path d="M 403.514318 333.993125 
C 403.514318 326.755907 402.088744 319.589063 399.319181 312.902745 
C 396.549618 306.216428 392.489926 300.14067 387.37244 295.023185 
C 382.254955 289.905699 376.179197 285.846007 369.49288 283.076444 
C 362.806562 280.306881 355.639718 278.881307 348.4025 278.881307 
C 341.165282 278.881307 333.998438 280.306881 327.31212 283.076444 
C 320.625803 285.846007 314.550045 289.905699 309.43256 295.023185 
C 304.315074 300.14067 300.255382 306.216428 297.485819 312.902745 
C 294.716256 319.589063 293.290682 326.755907 293.290682 333.993125 
C 293.290682 341.230343 294.716256 348.397187 297.485819 355.083505 
C 300.255382 361.769822 304.315074 367.84558 309.43256 372.963065 
C 314.550045 378.080551 320.625803 382.140243 327.31212 384.909806 
C 333.998438 387.679369 341.165282 389.104943 348.4025 389.104943 
C 355.639718 389.104943 362.806562 387.679369 369.49288 384.909806 
C 376.179197 382.140243 382.254955 378.080551 387.37244 372.963065 
C 392.489926 367.84558 396.549618 361.769822 399.319181 355.083505 
C 402.088744 348.397187 403.514318 341.230343 403.514318 333.993125 
" clip-path="url(#p9f9c8ee37e)" style="fill: none; stroke: #b0b0b0; stroke-width: 0.8; stroke-linecap: square"/>
     </g>
     <g id="text_9">
      <text style="font: 20px 'DejaVu Sans', 'Bitstream Vera Sans', 'Computer Modern Sans Serif', 'Lucida Grande', 'Verdana', 'Geneva', 'Lucid', 'Arial', 'Helvetica', 'Avant Garde', sans-serif; text-anchor: start" x="399.319181" y="308.74337" transform="rotate(-0 399.319181 308.74337)">0.2</text>
     </g>
    </g>
    <g id="ytick_2">
     <g id="line2d_10">
      <path d="M 458.626136 333.993125 
C 458.626136 319.51869 455.774988 305.185 450.235862 291.812366 
C 444.696735 278.439731 436.577352 266.288216 426.342381 256.053244 
C 416.107409 245.818273 403.955894 237.69889 390.583259 232.159763 
C 377.210625 226.620637 362.876935 223.769489 348.4025 223.769489 
C 333.928065 223.769489 319.594375 226.620637 306.221741 232.159763 
C 292.849106 237.69889 280.697591 245.818273 270.462619 256.053244 
C 260.227648 266.288216 252.108265 278.439731 246.569138 291.812366 
C 241.030012 305.185 238.178864 319.51869 238.178864 333.993125 
C 238.178864 348.46756 241.030012 362.80125 246.569138 376.173884 
C 252.108265 389.546519 260.227648 401.698034 270.462619 411.933006 
C 280.697591 422.167977 292.849106 430.28736 306.221741 435.826487 
C 319.594375 441.365613 333.928065 444.216761 348.4025 444.216761 
C 362.876935 444.216761 377.210625 441.365613 390.583259 435.826487 
C 403.955894 430.28736 416.107409 422.167977 426.342381 411.933006 
C 436.577352 401.698034 444.696735 389.546519 450.235862 376.173884 
C 455.774988 362.80125 458.626136 348.46756 458.626136 333.993125 
" clip-path="url(#p9f9c8ee37e)" style="fill: none; stroke: #b0b0b0; stroke-width: 0.8; stroke-linecap: square"/>
     </g>
     <g id="text_10">
      <text style="font: 20px 'DejaVu Sans', 'Bitstream Vera Sans', 'Computer Modern Sans Serif', 'Lucida Grande', 'Verdana', 'Geneva', 'Lucid', 'Arial', 'Helvetica', 'Avant Garde', sans-serif; text-anchor: start" x="450.235862" y="287.652991" transform="rotate(-0 450.235862 287.652991)">0.4</text>
     </g>
    </g>
    <g id="ytick_3">
     <g id="line2d_11">
      <path d="M 513.737955 333.993125 
C 513.737955 312.281472 509.461232 290.780938 501.152542 270.721986 
C 492.843853 250.663034 480.664778 232.435761 465.312321 217.083304 
C 449.959864 201.730847 431.732591 189.551772 411.673639 181.243083 
C 391.614687 172.934393 370.114153 168.65767 348.4025 168.65767 
C 326.690847 168.65767 305.190313 172.934393 285.131361 181.243083 
C 265.072409 189.551772 246.845136 201.730847 231.492679 217.083304 
C 216.140222 232.435761 203.961147 250.663034 195.652458 270.721986 
C 187.343768 290.780938 183.067045 312.281472 183.067045 333.993125 
C 183.067045 355.704778 187.343768 377.205312 195.652458 397.264264 
C 203.961147 417.323216 216.140222 435.550489 231.492679 450.902946 
C 246.845136 466.255403 265.072409 478.434478 285.131361 486.743167 
C 305.190313 495.051857 326.690847 499.32858 348.4025 499.32858 
C 370.114153 499.32858 391.614687 495.051857 411.673639 486.743167 
C 431.732591 478.434478 449.959864 466.255403 465.312321 450.902946 
C 480.664778 435.550489 492.843853 417.323216 501.152542 397.264264 
C 509.461232 377.205312 513.737955 355.704778 513.737955 333.993125 
" clip-path="url(#p9f9c8ee37e)" style="fill: none; stroke: #b0b0b0; stroke-width: 0.8; stroke-linecap: square"/>
     </g>
     <g id="text_11">
      <text style="font: 20px 'DejaVu Sans', 'Bitstream Vera Sans', 'Computer Modern Sans Serif', 'Lucida Grande', 'Verdana', 'Geneva', 'Lucid', 'Arial', 'Helvetica', 'Avant Garde', sans-serif; text-anchor: start" x="501.152542" y="266.562611" transform="rotate(-0 501.152542 266.562611)">0.6</text>
     </g>
    </g>
    <g id="ytick_4">
     <g id="line2d_12">
      <path d="M 568.849773 333.993125 
C 568.849773 305.044254 563.147476 276.376875 552.069223 249.631606 
C 540.99097 222.886337 524.752204 198.583306 504.282261 178.113364 
C 483.812319 157.643421 459.509288 141.404655 432.764019 130.326402 
C 406.01875 119.248149 377.351371 113.545852 348.4025 113.545852 
C 319.453629 113.545852 290.78625 119.248149 264.040981 130.326402 
C 237.295712 141.404655 212.992681 157.643421 192.522739 178.113364 
C 172.052796 198.583306 155.81403 222.886337 144.735777 249.631606 
C 133.657524 276.376875 127.955227 305.044254 127.955227 333.993125 
C 127.955227 362.941996 133.657524 391.609375 144.735777 418.354644 
C 155.81403 445.099913 172.052796 469.402944 192.522739 489.872886 
C 212.992681 510.342829 237.295712 526.581595 264.040981 537.659848 
C 290.78625 548.738101 319.453629 554.440398 348.4025 554.440398 
C 377.351371 554.440398 406.01875 548.738101 432.764019 537.659848 
C 459.509288 526.581595 483.812319 510.342829 504.282261 489.872886 
C 524.752204 469.402944 540.99097 445.099913 552.069223 418.354644 
C 563.147476 391.609375 568.849773 362.941996 568.849773 333.993125 
" clip-path="url(#p9f9c8ee37e)" style="fill: none; stroke: #b0b0b0; stroke-width: 0.8; stroke-linecap: square"/>
     </g>
     <g id="text_12">
      <text style="font: 20px 'DejaVu Sans', 'Bitstream Vera Sans', 'Computer Modern Sans Serif', 'Lucida Grande', 'Verdana', 'Geneva', 'Lucid', 'Arial', 'Helvetica', 'Avant Garde', sans-serif; text-anchor: start" x="552.069223" y="245.472231" transform="rotate(-0 552.069223 245.472231)">0.8</text>
     </g>
    </g>
    <g id="ytick_5">
     <g id="line2d_13">
      <path d="M 623.961591 333.993125 
C 623.961591 297.807037 616.833721 261.972813 602.985904 228.541226 
C 589.138088 195.10964 568.83963 164.730852 543.252202 139.143423 
C 517.664773 113.555995 487.285985 93.257537 453.854399 79.409721 
C 420.422812 65.561904 384.588588 58.434034 348.4025 58.434034 
C 312.216412 58.434034 276.382188 65.561904 242.950601 79.409721 
C 209.519015 93.257537 179.140227 113.555995 153.552798 139.143423 
C 127.96537 164.730852 107.666912 195.10964 93.819096 228.541226 
C 79.971279 261.972813 72.843409 297.807037 72.843409 333.993125 
C 72.843409 370.179213 79.971279 406.013437 93.819096 439.445024 
C 107.666912 472.87661 127.96537 503.255398 153.552798 528.842827 
C 179.140227 554.430255 209.519015 574.728713 242.950601 588.576529 
C 276.382188 602.424346 312.216412 609.552216 348.4025 609.552216 
C 384.588588 609.552216 420.422812 602.424346 453.854399 588.576529 
C 487.285985 574.728713 517.664773 554.430255 543.252202 528.842827 
C 568.83963 503.255398 589.138088 472.87661 602.985904 439.445024 
C 616.833721 406.013437 623.961591 370.179213 623.961591 333.993125 
" clip-path="url(#p9f9c8ee37e)" style="fill: none; stroke: #b0b0b0; stroke-width: 0.8; stroke-linecap: square"/>
     </g>
     <g id="text_13">
      <text style="font: 20px 'DejaVu Sans', 'Bitstream Vera Sans', 'Computer Modern Sans Serif', 'Lucida Grande', 'Verdana', 'Geneva', 'Lucid', 'Arial', 'Helvetica', 'Avant Garde', sans-serif; text-anchor: start" x="602.985904" y="224.381851" transform="rotate(-0 602.985904 224.381851)">1.0</text>
     </g>
    </g>
   </g>
   <g id="line2d_14">
    <defs>
     <path id="m2a6fe15593" d="M 0 3 
C 0.795609 3 1.55874 2.683901 2.12132 2.12132 
C 2.683901 1.55874 3 0.795609 3 0 
C 3 -0.795609 2.683901 -1.55874 2.12132 -2.12132 
C 1.55874 -2.683901 0.795609 -3 0 -3 
C -0.795609 -3 -1.55874 -2.683901 -2.12132 -2.12132 
C -2.683901 -1.55874 -3 -0.795609 -3 0 
C -3 0.795609 -2.683901 1.55874 -2.12132 2.12132 
C -1.55874 2.683901 -0.795609 3 0 3 
z
" style="stroke: #ff0000"/>
    </defs>
    <g clip-path="url(#p9f9c8ee37e)">
     <use xlink:href="#m2a6fe15593" x="461.719512" y="254.647699" style="fill: #ff0000; stroke: #ff0000"/>
     <use xlink:href="#m2a6fe15593" x="153.552798" y="139.143423" style="fill: #ff0000; stroke: #ff0000"/>
     <use xlink:href="#m2a6fe15593" x="235.085488" y="413.338551" style="fill: #ff0000; stroke: #ff0000"/>
     <use xlink:href="#m2a6fe15593" x="543.252202" y="528.842827" style="fill: #ff0000; stroke: #ff0000"/>
    </g>
   </g>
   <g id="line2d_15">
    <path d="M 348.4025 333.993125 
L 461.719512 254.647699 
" clip-path="url(#p9f9c8ee37e)" style="fill: none; stroke-dasharray: 3.7,1.6; stroke-dashoffset: 0; stroke: #000000"/>
   </g>
   <g id="line2d_16">
    <path d="M 348.4025 333.993125 
L 153.552798 139.143423 
" clip-path="url(#p9f9c8ee37e)" style="fill: none; stroke-dasharray: 3.7,1.6; stroke-dashoffset: 0; stroke: #000000"/>
   </g>
   <g id="line2d_17">
    <path d="M 348.4025 333.993125 
L 235.085488 413.338551 
" clip-path="url(#p9f9c8ee37e)" style="fill: none; stroke-dasharray: 3.7,1.6; stroke-dashoffset: 0; stroke: #000000"/>
   </g>
   <g id="line2d_18">
    <path d="M 348.4025 333.993125 
L 543.252202 528.842827 
" clip-path="url(#p9f9c8ee37e)" style="fill: none; stroke-dasharray: 3.7,1.6; stroke-dashoffset: 0; stroke: #000000"/>
   </g>
   <g id="line2d_19">
    <path d="M 382.397603 310.189497 
L 381.52836 308.993981 
L 380.617093 307.830179 
L 379.664959 306.699566 
L 378.673167 305.603577 
L 377.642974 304.543602 
L 376.575688 303.520986 
L 375.472661 302.537027 
L 374.335294 301.592972 
L 373.16503 300.690019 
L 371.963352 299.829313 
L 370.731785 299.011947 
L 369.471892 298.238958 
L 368.185271 297.511325 
L 366.873554 296.829972 
L 365.538405 296.195764 
L 364.181517 295.609504 
L 362.804613 295.071937 
L 361.409439 294.583744 
L 359.997764 294.145545 
L 358.57138 293.757896 
L 357.132096 293.421289 
L 355.681737 293.136149 
L 354.222145 292.90284 
L 352.755169 292.721658 
L 351.282672 292.592831 
L 349.806522 292.516523 
L 348.32859 292.492832 
L 346.850752 292.521788 
L 345.374883 292.603352 
L 343.902854 292.737423 
L 342.436533 292.92383 
L 340.977781 293.162336 
L 339.528447 293.45264 
L 338.090371 293.794372 
L 336.665377 294.187099 
L 335.255272 294.630323 
L 333.861845 295.123482 
L 332.486865 295.66595 
L 331.132074 296.25704 
L 329.799193 296.896 
L 328.489911 297.58202 
L 327.205889 298.314231 
L 325.948758 299.091704 
L 324.72011 299.913451 
L 323.521505 300.778431 
L 322.354464 301.685547 
L 321.220467 302.633647 
L 320.120952 303.621529 
L 319.057315 304.64794 
" clip-path="url(#p9f9c8ee37e)" style="fill: none; stroke: #ff0000; stroke-opacity: 0.7; stroke-width: 1.5; stroke-linecap: square"/>
   </g>
   <g id="patch_75">
    <path d="M 651.5175 333.993125 
C 651.5175 294.188428 643.676843 254.770781 628.444244 217.996036 
C 613.211646 181.221291 590.883343 147.804624 562.737172 119.658453 
C 534.591001 91.512282 501.174334 69.183979 464.399589 53.951381 
C 427.624844 38.718782 388.207197 30.878125 348.4025 30.878125 
C 308.597803 30.878125 269.180156 38.718782 232.405411 53.951381 
C 195.630666 69.183979 162.213999 91.512282 134.067828 119.658453 
C 105.921657 147.804624 83.593354 181.221291 68.360756 217.996036 
C 53.128157 254.770781 45.2875 294.188428 45.2875 333.993125 
C 45.2875 373.797822 53.128157 413.215469 68.360756 449.990214 
C 83.593354 486.764959 105.921657 520.181626 134.067828 548.327797 
C 162.213999 576.473968 195.630666 598.802271 232.405411 614.034869 
C 269.180156 629.267468 308.597803 637.108125 348.4025 637.108125 
C 388.207197 637.108125 427.624844 629.267468 464.399589 614.034869 
C 501.174334 598.802271 534.591001 576.473968 562.737172 548.327797 
C 590.883343 520.181626 613.211646 486.764959 628.444244 449.990214 
C 643.676843 413.215469 651.5175 373.797822 651.5175 333.993125 
" style="fill: none; stroke: #000000; stroke-width: 0.8; stroke-linejoin: miter; stroke-linecap: square"/>
   </g>
   <g id="text_14">
    <g id="patch_76">
     <path d="M 333.737328 272.550044 
L 375.365453 272.550044 
L 375.365453 254.871919 
L 333.737328 254.871919 
z
" style="fill: #ffffff; opacity: 0.7"/>
    </g>
    <text style="font: 10px 'DejaVu Sans', 'Bitstream Vera Sans', 'Computer Modern Sans Serif', 'Lucida Grande', 'Verdana', 'Geneva', 'Lucid', 'Arial', 'Helvetica', 'Avant Garde', sans-serif; text-anchor: middle" x="354.551391" y="266.470357" transform="rotate(-0 354.551391 266.470357)">100.0°</text>
   </g>
   <g id="legend_1">
    <g id="patch_77">
     <path d="M 59.2875 627.108125 
L 290.740625 627.108125 
Q 294.740625 627.108125 294.740625 623.108125 
L 294.740625 566.395625 
Q 294.740625 562.395625 290.740625 562.395625 
L 59.2875 562.395625 
Q 55.2875 562.395625 55.2875 566.395625 
L 55.2875 623.108125 
Q 55.2875 627.108125 59.2875 627.108125 
z
" style="fill: #ffffff; stroke: #cccccc; stroke-linejoin: miter"/>
    </g>
    <g id="line2d_20">
     <g>
      <use xlink:href="#m2a6fe15593" x="83.2875" y="578.5925" style="fill: #ff0000; stroke: #ff0000"/>
     </g>
    </g>
    <g id="text_15">
     <text style="font: 20px 'DejaVu Sans', 'Bitstream Vera Sans', 'Computer Modern Sans Serif', 'Lucida Grande', 'Verdana', 'Geneva', 'Lucid', 'Arial', 'Helvetica', 'Avant Garde', sans-serif; text-anchor: start" x="119.2875" y="585.5925" transform="rotate(-0 119.2875 585.5925)">Peaks</text>
    </g>
    <g id="patch_78">
     <path d="M 63.2875 614.94875 
L 103.2875 614.94875 
L 103.2875 600.94875 
L 63.2875 600.94875 
z
" style="fill: #008080; opacity: 0.8; stroke: #000000; stroke-width: 0.8; stroke-linejoin: miter"/>
    </g>
    <g id="text_16">
     <text style="font: 20px 'DejaVu Sans', 'Bitstream Vera Sans', 'Computer Modern Sans Serif', 'Lucida Grande', 'Verdana', 'Geneva', 'Lucid', 'Arial', 'Helvetica', 'Avant Garde', sans-serif; text-anchor: start" x="119.2875" y="614.94875" transform="rotate(-0 119.2875 614.94875)">Normalised Data</text>
    </g>
   </g>
  </g>
 </g>
 <defs>
  <clipPath id="p9f9c8ee37e">
   <path d="M 651.5175 333.993125 
C 651.5175 294.188428 643.676843 254.770781 628.444244 217.996036 
C 613.211646 181.221291 590.883343 147.804624 562.737172 119.658453 
C 534.591001 91.512282 501.174334 69.183979 464.399589 53.951381 
C 427.624844 38.718782 388.207197 30.878125 348.4025 30.878125 
C 308.597803 30.878125 269.180156 38.718782 232.405411 53.951381 
C 195.630666 69.183979 162.213999 91.512282 134.067828 119.658453 
C 105.921657 147.804624 83.593354 181.221291 68.360756 217.996036 
C 53.128157 254.770781 45.2875 294.188428 45.2875 333.993125 
C 45.2875 373.797822 53.128157 413.215469 68.360756 449.990214 
C 83.593354 486.764959 105.921657 520.181626 134.067828 548.327797 
C 162.213999 576.473968 195.630666 598.802271 232.405411 614.034869 
C 269.180156 629.267468 308.597803 637.108125 348.4025 637.108125 
C 388.207197 637.108125 427.624844 629.267468 464.399589 614.034869 
C 501.174334 598.802271 534.591001 576.473968 562.737172 548.327797 
C 590.883343 520.181626 613.211646 486.764959 628.444244 449.990214 
C 643.676843 413.215469 651.5175 373.797822 651.5175 333.993125 
M 348.4025 333.993125 
C 348.4025 333.993125 348.4025 333.993125 348.4025 333.993125 
C 348.4025 333.993125 348.4025 333.993125 348.4025 333.993125 
C 348.4025 333.993125 348.4025 333.993125 348.4025 333.993125 
C 348.4025 333.993125 348.4025 333.993125 348.4025 333.993125 
C 348.4025 333.993125 348.4025 333.993125 348.4025 333.993125 
C 348.4025 333.993125 348.4025 333.993125 348.4025 333.993125 
C 348.4025 333.993125 348.4025 333.993125 348.4025 333.993125 
C 348.4025 333.993125 348.4025 333.993125 348.4025 333.993125 
C 348.4025 333.993125 348.4025 333.993125 348.4025 333.993125 
C 348.4025 333.993125 348.4025 333.993125 348.4025 333.993125 
C 348.4025 333.993125 348.4025 333.993125 348.4025 333.993125 
C 348.4025 333.993125 348.4025 333.993125 348.4025 333.993125 
C 348.4025 333.993125 348.4025 333.993125 348.4025 333.993125 
C 348.4025 333.993125 348.4025 333.993125 348.4025 333.993125 
C 348.4025 333.993125 348.4025 333.993125 348.4025 333.993125 
C 348.4025 333.993125 348.4025 333.993125 348.4025 333.993125 
z
"/>
  </clipPath>
 </defs>
</svg>
