<?xml version="1.0" encoding="utf-8" standalone="no"?>
<!DOCTYPE svg PUBLIC "-//W3C//DTD SVG 1.1//EN"
  "http://www.w3.org/Graphics/SVG/1.1/DTD/svg11.dtd">
<svg xmlns:xlink="http://www.w3.org/1999/xlink" width="1512pt" height="648pt" viewBox="0 0 1512 648" xmlns="http://www.w3.org/2000/svg" version="1.1">
 <metadata>
  <rdf:RDF xmlns:dc="http://purl.org/dc/elements/1.1/" xmlns:cc="http://creativecommons.org/ns#" xmlns:rdf="http://www.w3.org/1999/02/22-rdf-syntax-ns#">
   <cc:Work>
    <dc:type rdf:resource="http://purl.org/dc/dcmitype/StillImage"/>
    <dc:date>2025-04-19T18:37:05.727814</dc:date>
    <dc:format>image/svg+xml</dc:format>
    <dc:creator>
     <cc:Agent>
      <dc:title>Matplotlib v3.9.2, https://matplotlib.org/</dc:title>
     </cc:Agent>
    </dc:creator>
   </cc:Work>
  </rdf:RDF>
 </metadata>
 <defs>
  <style type="text/css">*{stroke-linejoin: round; stroke-linecap: butt}</style>
 </defs>
 <g id="figure_1">
  <g id="patch_1">
   <path d="M 0 648 
L 1512 648 
L 1512 0 
L 0 0 
z
" style="fill: #ffffff"/>
  </g>
  <g id="axes_1">
   <g id="patch_2">
    <path d="M 756.054234 469.666 
C 756.054234 418.926214 735.876433 370.212694 699.997986 334.334247 
C 664.119539 298.4558 615.40602 278.278 564.666234 278.278 
C 513.926447 278.278 465.212928 298.4558 429.334481 334.334247 
C 393.456034 370.212694 373.278234 418.926214 373.278234 469.666 
L 564.666234 469.666 
C 564.666234 469.666 564.666234 469.666 564.666234 469.666 
C 564.666234 469.666 564.666234 469.666 564.666234 469.666 
C 564.666234 469.666 564.666234 469.666 564.666234 469.666 
C 564.666234 469.666 564.666234 469.666 564.666234 469.666 
z
" style="fill: #ffffff"/>
   </g>
   <g id="matplotlib.axis_1">
    <g id="xtick_1">
     <g id="line2d_1">
      <path d="M 564.666234 469.666 
L 756.054234 469.666 
" clip-path="url(#p08c4941c7c)" style="fill: none; stroke: #b0b0b0; stroke-width: 0.8; stroke-linecap: square"/>
     </g>
     <g id="text_1">
      <text style="font: 20px 'DejaVu Sans', 'Bitstream Vera Sans', 'Computer Modern Sans Serif', 'Lucida Grande', 'Verdana', 'Geneva', 'Lucid', 'Arial', 'Helvetica', 'Avant Garde', sans-serif; text-anchor: middle" x="770.054234" y="475.18475" transform="rotate(-0 770.054234 475.18475)">0°</text>
     </g>
    </g>
    <g id="xtick_2">
     <g id="line2d_2">
      <path d="M 564.666234 469.666 
L 730.413104 373.972 
" clip-path="url(#p08c4941c7c)" style="fill: none; stroke: #b0b0b0; stroke-width: 0.8; stroke-linecap: square"/>
     </g>
     <g id="text_2">
      <text style="font: 20px 'DejaVu Sans', 'Bitstream Vera Sans', 'Computer Modern Sans Serif', 'Lucida Grande', 'Verdana', 'Geneva', 'Lucid', 'Arial', 'Helvetica', 'Avant Garde', sans-serif; text-anchor: middle" x="742.537459" y="372.49075" transform="rotate(-0 742.537459 372.49075)">30°</text>
     </g>
    </g>
    <g id="xtick_3">
     <g id="line2d_3">
      <path d="M 564.666234 469.666 
L 660.360234 303.91913 
" clip-path="url(#p08c4941c7c)" style="fill: none; stroke: #b0b0b0; stroke-width: 0.8; stroke-linecap: square"/>
     </g>
     <g id="text_3">
      <text style="font: 20px 'DejaVu Sans', 'Bitstream Vera Sans', 'Computer Modern Sans Serif', 'Lucida Grande', 'Verdana', 'Geneva', 'Lucid', 'Arial', 'Helvetica', 'Avant Garde', sans-serif; text-anchor: middle" x="667.360234" y="297.313524" transform="rotate(-0 667.360234 297.313524)">60°</text>
     </g>
    </g>
    <g id="xtick_4">
     <g id="line2d_4">
      <path d="M 564.666234 469.666 
L 564.666234 278.278 
" clip-path="url(#p08c4941c7c)" style="fill: none; stroke: #b0b0b0; stroke-width: 0.8; stroke-linecap: square"/>
     </g>
     <g id="text_4">
      <text style="font: 20px 'DejaVu Sans', 'Bitstream Vera Sans', 'Computer Modern Sans Serif', 'Lucida Grande', 'Verdana', 'Geneva', 'Lucid', 'Arial', 'Helvetica', 'Avant Garde', sans-serif; text-anchor: middle" x="564.666234" y="269.79675" transform="rotate(-0 564.666234 269.79675)">90°</text>
     </g>
    </g>
    <g id="xtick_5">
     <g id="line2d_5">
      <path d="M 564.666234 469.666 
L 468.972234 303.91913 
" clip-path="url(#p08c4941c7c)" style="fill: none; stroke: #b0b0b0; stroke-width: 0.8; stroke-linecap: square"/>
     </g>
     <g id="text_5">
      <text style="font: 20px 'DejaVu Sans', 'Bitstream Vera Sans', 'Computer Modern Sans Serif', 'Lucida Grande', 'Verdana', 'Geneva', 'Lucid', 'Arial', 'Helvetica', 'Avant Garde', sans-serif; text-anchor: middle" x="461.972234" y="297.313524" transform="rotate(-0 461.972234 297.313524)">120°</text>
     </g>
    </g>
    <g id="xtick_6">
     <g id="line2d_6">
      <path d="M 564.666234 469.666 
L 398.919364 373.972 
" clip-path="url(#p08c4941c7c)" style="fill: none; stroke: #b0b0b0; stroke-width: 0.8; stroke-linecap: square"/>
     </g>
     <g id="text_6">
      <text style="font: 20px 'DejaVu Sans', 'Bitstream Vera Sans', 'Computer Modern Sans Serif', 'Lucida Grande', 'Verdana', 'Geneva', 'Lucid', 'Arial', 'Helvetica', 'Avant Garde', sans-serif; text-anchor: middle" x="386.795008" y="372.49075" transform="rotate(-0 386.795008 372.49075)">150°</text>
     </g>
    </g>
    <g id="xtick_7">
     <g id="line2d_7">
      <path d="M 564.666234 469.666 
L 373.278234 469.666 
" clip-path="url(#p08c4941c7c)" style="fill: none; stroke: #b0b0b0; stroke-width: 0.8; stroke-linecap: square"/>
     </g>
     <g id="text_7">
      <text style="font: 20px 'DejaVu Sans', 'Bitstream Vera Sans', 'Computer Modern Sans Serif', 'Lucida Grande', 'Verdana', 'Geneva', 'Lucid', 'Arial', 'Helvetica', 'Avant Garde', sans-serif; text-anchor: middle" x="359.278234" y="475.18475" transform="rotate(-0 359.278234 475.18475)">180°</text>
     </g>
    </g>
   </g>
   <g id="matplotlib.axis_2">
    <g id="ytick_1">
     <g id="line2d_8">
      <path d="M 575.288161 469.666 
C 575.288161 466.84997 574.168304 464.146397 572.17707 462.155164 
C 570.185837 460.16393 567.482263 459.044073 564.666234 459.044073 
C 561.850204 459.044073 559.146631 460.16393 557.155397 462.155164 
C 555.164164 464.146397 554.044307 466.84997 554.044307 469.666 
" clip-path="url(#p08c4941c7c)" style="fill: none; stroke: #b0b0b0; stroke-width: 0.8; stroke-linecap: square"/>
     </g>
     <g id="text_8">
      <text style="font: 20px 'DejaVu Sans', 'Bitstream Vera Sans', 'Computer Modern Sans Serif', 'Lucida Grande', 'Verdana', 'Geneva', 'Lucid', 'Arial', 'Helvetica', 'Avant Garde', sans-serif; text-anchor: middle" x="575.288161" y="491.862875" transform="rotate(-0 575.288161 491.862875)">0.0</text>
     </g>
    </g>
    <g id="ytick_2">
     <g id="line2d_9">
      <path d="M 609.701484 469.666 
C 609.701484 457.72649 604.953473 446.263778 596.510965 437.821269 
C 588.068456 429.37876 576.605744 424.63075 564.666234 424.63075 
C 552.726724 424.63075 541.264011 429.37876 532.821503 437.821269 
C 524.378994 446.263778 519.630983 457.72649 519.630983 469.666 
" clip-path="url(#p08c4941c7c)" style="fill: none; stroke: #b0b0b0; stroke-width: 0.8; stroke-linecap: square"/>
     </g>
     <g id="text_9">
      <text style="font: 20px 'DejaVu Sans', 'Bitstream Vera Sans', 'Computer Modern Sans Serif', 'Lucida Grande', 'Verdana', 'Geneva', 'Lucid', 'Arial', 'Helvetica', 'Avant Garde', sans-serif; text-anchor: middle" x="609.701484" y="491.862875" transform="rotate(-0 609.701484 491.862875)">0.2</text>
     </g>
    </g>
    <g id="ytick_3">
     <g id="line2d_10">
      <path d="M 644.114808 469.666 
C 644.114808 448.603009 635.738643 428.381158 620.844859 413.487374 
C 605.951076 398.593591 585.729225 390.217426 564.666234 390.217426 
C 543.603243 390.217426 523.381392 398.593591 508.487608 413.487374 
C 493.593825 428.381158 485.21766 448.603009 485.21766 469.666 
" clip-path="url(#p08c4941c7c)" style="fill: none; stroke: #b0b0b0; stroke-width: 0.8; stroke-linecap: square"/>
     </g>
     <g id="text_10">
      <text style="font: 20px 'DejaVu Sans', 'Bitstream Vera Sans', 'Computer Modern Sans Serif', 'Lucida Grande', 'Verdana', 'Geneva', 'Lucid', 'Arial', 'Helvetica', 'Avant Garde', sans-serif; text-anchor: middle" x="644.114808" y="491.862875" transform="rotate(-0 644.114808 491.862875)">0.4</text>
     </g>
    </g>
    <g id="ytick_4">
     <g id="line2d_11">
      <path d="M 678.528132 469.666 
C 678.528132 439.479529 666.523812 410.498538 645.178754 389.15348 
C 623.833695 367.808421 594.852705 355.804102 564.666234 355.804102 
C 534.479762 355.804102 505.498772 367.808421 484.153714 389.15348 
C 462.808655 410.498538 450.804336 439.479529 450.804336 469.666 
" clip-path="url(#p08c4941c7c)" style="fill: none; stroke: #b0b0b0; stroke-width: 0.8; stroke-linecap: square"/>
     </g>
     <g id="text_11">
      <text style="font: 20px 'DejaVu Sans', 'Bitstream Vera Sans', 'Computer Modern Sans Serif', 'Lucida Grande', 'Verdana', 'Geneva', 'Lucid', 'Arial', 'Helvetica', 'Avant Garde', sans-serif; text-anchor: middle" x="678.528132" y="491.862875" transform="rotate(-0 678.528132 491.862875)">0.6</text>
     </g>
    </g>
    <g id="ytick_5">
     <g id="line2d_12">
      <path d="M 712.941455 469.666 
C 712.941455 430.356048 697.308982 392.615919 669.512649 364.819585 
C 641.716315 337.023252 603.976186 321.390778 564.666234 321.390778 
C 525.356282 321.390778 487.616153 337.023252 459.819819 364.819585 
C 432.023486 392.615919 416.391012 430.356048 416.391012 469.666 
" clip-path="url(#p08c4941c7c)" style="fill: none; stroke: #b0b0b0; stroke-width: 0.8; stroke-linecap: square"/>
     </g>
     <g id="text_12">
      <text style="font: 20px 'DejaVu Sans', 'Bitstream Vera Sans', 'Computer Modern Sans Serif', 'Lucida Grande', 'Verdana', 'Geneva', 'Lucid', 'Arial', 'Helvetica', 'Avant Garde', sans-serif; text-anchor: middle" x="712.941455" y="491.862875" transform="rotate(-0 712.941455 491.862875)">0.8</text>
     </g>
    </g>
    <g id="ytick_6">
     <g id="line2d_13">
      <path d="M 747.354779 469.666 
C 747.354779 421.232568 728.094152 374.733299 693.846543 340.485691 
C 659.598935 306.238082 613.099666 286.977455 564.666234 286.977455 
C 516.232801 286.977455 469.733533 306.238082 435.485924 340.485691 
C 401.238316 374.733299 381.977688 421.232568 381.977688 469.666 
" clip-path="url(#p08c4941c7c)" style="fill: none; stroke: #b0b0b0; stroke-width: 0.8; stroke-linecap: square"/>
     </g>
     <g id="text_13">
      <text style="font: 20px 'DejaVu Sans', 'Bitstream Vera Sans', 'Computer Modern Sans Serif', 'Lucida Grande', 'Verdana', 'Geneva', 'Lucid', 'Arial', 'Helvetica', 'Avant Garde', sans-serif; text-anchor: middle" x="747.354779" y="491.862875" transform="rotate(-0 747.354779 491.862875)">1.0</text>
     </g>
    </g>
   </g>
   <g id="line2d_14">
    <path d="M 595.036334 469.400964 
L 595.096437 468.869157 
L 595.366691 468.325589 
L 596.989024 467.689053 
L 592.223448 467.4972 
L 582.317667 467.96636 
L 581.837264 467.709608 
L 582.101602 467.060267 
L 582.418407 466.695305 
L 582.523026 466.356439 
L 577.601671 467.034256 
L 576.932889 466.946548 
L 576.995993 466.705887 
L 594.204429 462.026903 
L 592.361837 461.985329 
L 590.039497 462.150097 
L 589.783157 461.746664 
L 590.211317 461.118735 
L 592.935754 459.655238 
L 611.654332 451.156896 
L 617.498731 447.782063 
L 609.346761 450.238354 
L 592.976293 456.764363 
L 586.393128 458.83337 
L 583.146424 459.632075 
L 582.535751 459.555914 
L 582.44625 459.19277 
L 582.950884 458.461152 
L 583.922788 457.398222 
L 588.411092 453.949621 
L 599.99709 445.383776 
L 590.625112 451.149712 
L 587.48166 452.783473 
L 584.344801 454.012961 
L 577.348276 458.045049 
L 574.823702 459.684284 
L 575.137741 458.631334 
L 575.880974 457.427259 
L 579.527202 452.868731 
L 584.63109 446.290156 
L 583.403694 446.935643 
L 580.556808 449.68881 
L 587.089891 440.442921 
L 586.954744 439.544808 
L 592.193482 431.074222 
L 579.871178 447.54267 
L 578.716921 448.437727 
L 588.642955 430.539547 
L 571.694604 457.734195 
L 570.033372 460.179615 
L 569.734579 460.331269 
L 571.434248 456.664765 
L 570.685224 457.593773 
L 569.43323 459.671784 
L 569.071075 460.000458 
L 567.683024 459.481487 
L 566.236255 459.160746 
L 564.758926 459.044478 
L 563.279794 459.134945 
L 561.827647 459.430388 
L 560.43075 459.925055 
L 560.083421 460.057932 
L 559.136896 459.044241 
L 553.275051 448.686051 
L 547.495817 439.317392 
L 545.519236 437.160848 
L 546.610248 440.20131 
L 548.770233 444.714278 
L 549.415738 446.625014 
L 549.716711 447.91431 
L 548.244893 446.644129 
L 547.329769 446.237113 
L 546.004415 446.204878 
L 543.685538 444.214381 
L 539.692565 440.425591 
L 536.44314 437.765595 
L 533.094096 435.211058 
L 494.565326 398.330798 
L 483.071514 389.483092 
L 480.795493 390.075639 
L 483.587959 395.371449 
L 427.840603 348.612907 
L 465.420319 384.901981 
L 474.243362 395.127137 
L 517.089067 431.821413 
L 522.756319 437.507391 
L 523.168123 438.959013 
L 520.191026 437.942142 
L 510.858183 432.684752 
L 502.488012 428.511133 
L 490.340135 422.315053 
L 495.706623 427.407496 
L 502.252516 432.90151 
L 508.111533 437.66889 
L 523.688214 447.41675 
L 525.101015 449.069651 
L 512.393962 444.733406 
L 507.547661 443.635567 
L 514.980704 448.062117 
L 529.460144 455.08316 
L 529.458441 455.797281 
L 525.311917 454.952024 
L 501.398058 447.261564 
L 497.310407 447.129055 
L 511.770594 452.988069 
L 533.304812 460.968708 
L 545.376836 465.035025 
L 547.432526 465.845379 
L 547.595086 466.192836 
L 526.913308 462.668909 
L 509.895825 460.500577 
L 536.29821 465.42637 
L 540.172127 466.44129 
L 547.855001 468.047262 
L 543.180699 468.351888 
L 535.253212 468.895793 
L 535.394561 469.41055 
L 534.296133 469.931036 
L 534.236031 470.462843 
L 533.965777 471.006411 
L 532.343444 471.642947 
L 537.109019 471.8348 
L 547.0148 471.36564 
L 547.495203 471.622392 
L 547.230866 472.271733 
L 546.914061 472.636695 
L 546.809441 472.975561 
L 551.730796 472.297744 
L 552.399578 472.385452 
L 552.336474 472.626113 
L 535.128038 477.305097 
L 536.97063 477.346671 
L 539.292971 477.181903 
L 539.54931 477.585336 
L 539.121151 478.213265 
L 536.396714 479.676762 
L 517.678136 488.175104 
L 511.833737 491.549937 
L 519.985706 489.093646 
L 536.356175 482.567637 
L 542.939339 480.49863 
L 546.186043 479.699925 
L 546.796717 479.776086 
L 546.886218 480.13923 
L 546.381583 480.870848 
L 545.409679 481.933778 
L 540.921376 485.382379 
L 529.335378 493.948224 
L 538.707355 488.182288 
L 541.850808 486.548527 
L 544.987666 485.319039 
L 551.984192 481.286951 
L 554.508766 479.647716 
L 554.194726 480.700666 
L 553.451494 481.904741 
L 549.805266 486.463269 
L 544.701377 493.041844 
L 545.928773 492.396357 
L 548.775659 489.64319 
L 542.242577 498.889079 
L 542.377724 499.787192 
L 537.138986 508.257778 
L 549.46129 491.78933 
L 550.615546 490.894273 
L 540.689512 508.792453 
L 557.637863 481.597805 
L 559.299095 479.152385 
L 559.597888 479.000731 
L 557.898219 482.667235 
L 558.647243 481.738227 
L 559.899237 479.660216 
L 560.261393 479.331542 
L 561.649444 479.850513 
L 563.096213 480.171254 
L 564.573541 480.287522 
L 566.052673 480.197055 
L 567.50482 479.901612 
L 568.901717 479.406945 
L 569.249047 479.274068 
L 570.195571 480.287759 
L 576.057417 490.645949 
L 581.83665 500.014608 
L 583.813232 502.171152 
L 582.722219 499.13069 
L 580.562234 494.617722 
L 579.91673 492.706986 
L 579.615756 491.41769 
L 581.087574 492.687871 
L 582.002698 493.094887 
L 583.328053 493.127122 
L 585.64693 495.117619 
L 589.639903 498.906409 
L 592.889328 501.566405 
L 596.238372 504.120942 
L 634.767142 541.001202 
L 646.260954 549.848908 
L 648.536974 549.256361 
L 645.744509 543.960551 
L 701.491865 590.719093 
L 663.912149 554.430019 
L 655.089105 544.204863 
L 612.243401 507.510587 
L 606.576149 501.824609 
L 606.164345 500.372987 
L 609.141442 501.389858 
L 618.474284 506.647248 
L 626.844455 510.820867 
L 638.992333 517.016947 
L 633.625844 511.924504 
L 627.079952 506.43049 
L 621.220934 501.66311 
L 605.644254 491.91525 
L 604.231452 490.262349 
L 616.938505 494.598594 
L 621.784807 495.696433 
L 614.351764 491.269883 
L 599.872323 484.24884 
L 599.874027 483.534719 
L 604.02055 484.379976 
L 627.934409 492.070436 
L 632.022061 492.202945 
L 617.561874 486.343931 
L 596.027655 478.363292 
L 583.955632 474.296975 
L 581.899941 473.486621 
L 581.737381 473.139164 
L 602.419159 476.663091 
L 619.436642 478.831423 
L 593.034257 473.90563 
L 589.160341 472.89071 
L 581.477466 471.284738 
L 586.151769 470.980112 
L 594.079255 470.436207 
L 593.937906 469.92145 
L 593.937906 469.92145 
" clip-path="url(#p08c4941c7c)" style="fill: none; stroke: #1f77b4; stroke-opacity: 0.6; stroke-width: 1.5; stroke-linecap: square"/>
   </g>
   <g id="line2d_15">
    <path d="M 586.443419 469.475953 
L 586.727668 469.088301 
L 586.555383 468.327202 
L 586.626885 467.937659 
L 589.598963 466.383544 
L 590.001926 465.879555 
L 589.808187 465.45868 
L 589.674563 464.577998 
L 589.330667 463.744594 
L 589.807879 463.163928 
L 590.920907 462.384935 
L 591.633884 461.163133 
L 591.754375 460.602435 
L 591.584677 459.601606 
L 590.992715 458.21892 
L 590.18823 457.492632 
L 589.984704 457.042676 
L 589.540383 456.717337 
L 589.215776 456.336686 
L 588.614756 456.116578 
L 588.027648 455.350107 
L 587.511304 455.112085 
L 586.682641 455.093658 
L 586.536657 454.065978 
L 586.184411 453.743386 
L 584.889231 453.579901 
L 584.580138 453.250244 
L 584.179812 452.99983 
L 583.082626 452.790486 
L 581.860773 452.768973 
L 581.397856 452.639778 
L 581.23765 452.20337 
L 581.201939 450.975785 
L 580.797481 450.778736 
L 579.734111 450.723082 
L 578.451742 451.035954 
L 577.050204 451.647212 
L 575.073764 452.682454 
L 574.745953 452.554032 
L 573.80043 452.842902 
L 572.812746 453.326625 
L 571.763605 454.092241 
L 570.667352 455.178018 
L 569.546799 456.612336 
L 568.000978 459.089541 
L 566.723955 461.094975 
L 566.405485 461.117309 
L 566.343877 460.614248 
L 566.031125 460.533301 
L 565.915384 460.17776 
L 565.851474 459.263283 
L 565.488931 459.212643 
L 565.303834 459.241321 
L 564.758926 459.044478 
L 564.205335 459.109691 
L 564.042331 459.46528 
L 563.662867 460.859561 
L 563.51201 460.898804 
L 563.149752 460.603864 
L 562.231993 459.526659 
L 561.429396 458.738617 
L 561.148644 458.509629 
L 560.95832 458.584213 
L 561.056355 460.501789 
L 560.775028 460.271798 
L 561.108088 461.482824 
L 559.632082 459.111682 
L 557.805996 455.906492 
L 555.765027 452.56694 
L 553.615777 449.313591 
L 551.425575 446.263215 
L 549.304683 443.587262 
L 547.224462 441.203615 
L 543.01913 436.960793 
L 537.934102 432.188934 
L 534.966854 429.529591 
L 531.994694 427.087621 
L 529.165969 425.036051 
L 526.523636 423.395328 
L 521.390833 420.752057 
L 518.565471 419.355846 
L 515.895034 418.271879 
L 513.483542 417.582114 
L 511.741573 417.657081 
L 510.190461 417.970422 
L 504.857694 418.584682 
L 503.241765 419.031575 
L 501.877192 419.721341 
L 500.85264 420.700108 
L 499.930122 421.763797 
L 499.547482 423.217246 
L 499.703097 425.018073 
L 499.490062 426.526833 
L 499.618048 428.225735 
L 500.04076 430.063459 
L 500.813031 432.053589 
L 502.004185 434.213518 
L 503.627842 436.524857 
L 505.718468 438.979735 
L 508.280888 441.553304 
L 511.110679 444.121311 
L 514.150108 446.644475 
L 517.376329 449.103764 
L 526.008566 455.21249 
L 529.51037 458.581399 
L 528.165179 458.853895 
L 527.603622 460.080957 
L 528.733688 461.039359 
L 531.707218 462.960413 
L 535.310044 464.753459 
L 536.423087 465.445033 
L 537.417525 466.561402 
L 538.035147 467.101718 
L 538.878828 467.636487 
L 543.140807 469.102337 
L 543.227091 469.478903 
L 542.604799 470.243699 
L 542.777084 471.004798 
L 542.705582 471.394341 
L 539.733504 472.948456 
L 539.330542 473.452445 
L 539.524281 473.87332 
L 539.657904 474.754002 
L 540.001801 475.587406 
L 539.524589 476.168072 
L 538.41156 476.947065 
L 537.698583 478.168867 
L 537.578092 478.729565 
L 537.74779 479.730394 
L 538.339753 481.11308 
L 539.144237 481.839368 
L 539.347763 482.289324 
L 539.792085 482.614663 
L 540.116691 482.995314 
L 540.717712 483.215422 
L 541.30482 483.981893 
L 541.821163 484.219915 
L 542.649826 484.238342 
L 542.79581 485.266022 
L 543.148056 485.588614 
L 544.443236 485.752099 
L 544.75233 486.081756 
L 545.152655 486.33217 
L 546.249842 486.541514 
L 547.471694 486.563027 
L 547.934612 486.692222 
L 548.094817 487.12863 
L 548.130528 488.356215 
L 548.534987 488.553264 
L 549.598356 488.608918 
L 550.880725 488.296046 
L 552.282264 487.684788 
L 554.258703 486.649546 
L 554.586514 486.777968 
L 555.532037 486.489098 
L 556.519722 486.005375 
L 557.568863 485.239759 
L 558.665115 484.153982 
L 559.785669 482.719664 
L 561.331489 480.242459 
L 562.608513 478.237025 
L 562.926983 478.214691 
L 562.988591 478.717752 
L 563.301343 478.798699 
L 563.417083 479.15424 
L 563.480994 480.068717 
L 563.843537 480.119357 
L 564.028633 480.090679 
L 564.573541 480.287522 
L 565.127132 480.222309 
L 565.290137 479.86672 
L 565.669601 478.472439 
L 565.820457 478.433196 
L 566.182715 478.728136 
L 567.100474 479.805341 
L 567.903072 480.593383 
L 568.183824 480.822371 
L 568.374148 480.747787 
L 568.276112 478.830211 
L 568.55744 479.060202 
L 568.22438 477.849176 
L 569.700385 480.220318 
L 571.526472 483.425508 
L 573.567441 486.76506 
L 575.71669 490.018409 
L 577.906892 493.068785 
L 580.027785 495.744738 
L 582.108006 498.128385 
L 586.313338 502.371207 
L 591.398365 507.143066 
L 594.365614 509.802409 
L 597.337773 512.244379 
L 600.166498 514.295949 
L 602.808832 515.936672 
L 607.941635 518.579943 
L 610.766997 519.976154 
L 613.437434 521.060121 
L 615.848926 521.749886 
L 617.590894 521.674919 
L 619.142006 521.361578 
L 624.474773 520.747318 
L 626.090703 520.300425 
L 627.455275 519.610659 
L 628.479827 518.631892 
L 629.402345 517.568203 
L 629.784985 516.114754 
L 629.629371 514.313927 
L 629.842405 512.805167 
L 629.71442 511.106265 
L 629.291708 509.268541 
L 628.519437 507.278411 
L 627.328283 505.118482 
L 625.704626 502.807143 
L 623.614 500.352265 
L 621.051579 497.778696 
L 618.221789 495.210689 
L 615.182359 492.687525 
L 611.956139 490.228236 
L 603.323902 484.11951 
L 599.822098 480.750601 
L 601.167288 480.478105 
L 601.728846 479.251043 
L 600.59878 478.292641 
L 597.625249 476.371587 
L 594.022424 474.578541 
L 592.909381 473.886967 
L 591.914943 472.770598 
L 591.297321 472.230282 
L 590.453639 471.695513 
L 586.191661 470.229663 
L 586.105377 469.853097 
L 586.105377 469.853097 
" clip-path="url(#p08c4941c7c)" style="fill: none; stroke: #008000; stroke-width: 1.5; stroke-linecap: square"/>
   </g>
   <g id="line2d_16">
    <defs>
     <path id="ma28f39344b" d="M 0 3 
C 0.795609 3 1.55874 2.683901 2.12132 2.12132 
C 2.683901 1.55874 3 0.795609 3 0 
C 3 -0.795609 2.683901 -1.55874 2.12132 -2.12132 
C 1.55874 -2.683901 0.795609 -3 0 -3 
C -0.795609 -3 -1.55874 -2.683901 -2.12132 -2.12132 
C -2.683901 -1.55874 -3 -0.795609 -3 0 
C -3 0.795609 -2.683901 1.55874 -2.12132 2.12132 
C -1.55874 2.683901 -0.795609 3 0 3 
z
" style="stroke: #ff0000"/>
    </defs>
    <g clip-path="url(#p08c4941c7c)">
     <use xlink:href="#ma28f39344b" x="591.242187" y="458.65788" style="fill: #ff0000; stroke: #ff0000"/>
     <use xlink:href="#ma28f39344b" x="499.930122" y="421.763797" style="fill: #ff0000; stroke: #ff0000"/>
     <use xlink:href="#ma28f39344b" x="538.09028" y="480.67412" style="fill: #ff0000; stroke: #ff0000"/>
     <use xlink:href="#ma28f39344b" x="629.402345" y="517.568203" style="fill: #ff0000; stroke: #ff0000"/>
    </g>
   </g>
   <g id="patch_3">
    <path d="M 756.054234 469.666 
C 756.054234 418.926214 735.876433 370.212694 699.997986 334.334247 
C 664.119539 298.4558 615.40602 278.278 564.666234 278.278 
C 513.926447 278.278 465.212928 298.4558 429.334481 334.334247 
C 393.456034 370.212694 373.278234 418.926214 373.278234 469.666 
" style="fill: none; stroke: #000000; stroke-width: 0.8; stroke-linejoin: miter; stroke-linecap: square"/>
   </g>
   <g id="patch_4">
    <path d="M 564.666234 469.666 
L 756.054234 469.666 
" style="fill: none; stroke: #000000; stroke-width: 0.8; stroke-linejoin: miter; stroke-linecap: square"/>
   </g>
   <g id="patch_5">
    <path d="M 564.666234 469.666 
L 373.278234 469.666 
" style="fill: none; stroke: #000000; stroke-width: 0.8; stroke-linejoin: miter; stroke-linecap: square"/>
   </g>
   <g id="text_14">
    <text style="font: 30px 'DejaVu Sans', 'Bitstream Vera Sans', 'Computer Modern Sans Serif', 'Lucida Grande', 'Verdana', 'Geneva', 'Lucid', 'Arial', 'Helvetica', 'Avant Garde', sans-serif" transform="translate(286.362328 142.156187)">w164 d14 800 con t6_OJ_Distribution</text>
    <text style="font: 30px 'DejaVu Sans', 'Bitstream Vera Sans', 'Computer Modern Sans Serif', 'Lucida Grande', 'Verdana', 'Geneva', 'Lucid', 'Arial', 'Helvetica', 'Avant Garde', sans-serif" transform="translate(394.856859 176.584)">Dominant Harmonic: 2</text>
   </g>
   <g id="legend_1">
    <g id="patch_6">
     <path d="M 387.278234 555.36 
L 553.450109 555.36 
Q 557.450109 555.36 557.450109 551.36 
L 557.450109 465.29125 
Q 557.450109 461.29125 553.450109 461.29125 
L 387.278234 461.29125 
Q 383.278234 461.29125 383.278234 465.29125 
L 383.278234 551.36 
Q 383.278234 555.36 387.278234 555.36 
z
" style="fill: #ffffff; opacity: 0.5; stroke: #cccccc; stroke-linejoin: miter"/>
    </g>
    <g id="line2d_17">
     <path d="M 391.278234 477.488125 
L 411.278234 477.488125 
L 431.278234 477.488125 
" style="fill: none; stroke: #1f77b4; stroke-opacity: 0.6; stroke-width: 1.5; stroke-linecap: square"/>
    </g>
    <g id="text_15">
     <text style="font: 20px 'DejaVu Sans', 'Bitstream Vera Sans', 'Computer Modern Sans Serif', 'Lucida Grande', 'Verdana', 'Geneva', 'Lucid', 'Arial', 'Helvetica', 'Avant Garde', sans-serif; text-anchor: start" x="447.278234" y="484.488125" transform="rotate(-0 447.278234 484.488125)">Raw</text>
    </g>
    <g id="line2d_18">
     <path d="M 391.278234 506.844375 
L 411.278234 506.844375 
L 431.278234 506.844375 
" style="fill: none; stroke: #008000; stroke-width: 1.5; stroke-linecap: square"/>
    </g>
    <g id="text_16">
     <text style="font: 20px 'DejaVu Sans', 'Bitstream Vera Sans', 'Computer Modern Sans Serif', 'Lucida Grande', 'Verdana', 'Geneva', 'Lucid', 'Arial', 'Helvetica', 'Avant Garde', sans-serif; text-anchor: start" x="447.278234" y="513.844375" transform="rotate(-0 447.278234 513.844375)">Smoothed</text>
    </g>
    <g id="line2d_19">
     <g>
      <use xlink:href="#ma28f39344b" x="411.278234" y="536.200625" style="fill: #ff0000; stroke: #ff0000"/>
     </g>
    </g>
    <g id="text_17">
     <text style="font: 20px 'DejaVu Sans', 'Bitstream Vera Sans', 'Computer Modern Sans Serif', 'Lucida Grande', 'Verdana', 'Geneva', 'Lucid', 'Arial', 'Helvetica', 'Avant Garde', sans-serif; text-anchor: start" x="447.278234" y="543.200625" transform="rotate(-0 447.278234 543.200625)">Peaks</text>
    </g>
   </g>
  </g>
  <g id="axes_2">
   <g id="patch_7">
    <path d="M 1027.547013 565.36 
L 1206.769091 565.36 
L 1206.769091 182.584 
L 1027.547013 182.584 
z
" style="fill: #ffffff"/>
   </g>
   <g id="patch_8">
    <path d="M 1035.693471 565.36 
L 1108.106432 565.36 
L 1108.106432 200.811429 
L 1035.693471 200.811429 
z
" clip-path="url(#pb358bba4e3)" style="fill: #ffd700; fill-opacity: 0.5; stroke: #000000; stroke-linejoin: miter"/>
   </g>
   <g id="patch_9">
    <path d="M 1126.209672 565.36 
L 1198.622633 565.36 
L 1198.622633 250.672047 
L 1126.209672 250.672047 
z
" clip-path="url(#pb358bba4e3)" style="fill: #ffd700; fill-opacity: 0.5; stroke: #000000; stroke-linejoin: miter"/>
   </g>
   <g id="matplotlib.axis_3">
    <g id="xtick_8">
     <g id="line2d_20">
      <defs>
       <path id="m6f8a381afe" d="M 0 0 
L 0 3.5 
" style="stroke: #000000; stroke-width: 0.8"/>
      </defs>
      <g>
       <use xlink:href="#m6f8a381afe" x="1071.899951" y="565.36" style="stroke: #000000; stroke-width: 0.8"/>
      </g>
     </g>
     <g id="text_18">
      <text style="font: 20px 'DejaVu Sans', 'Bitstream Vera Sans', 'Computer Modern Sans Serif', 'Lucida Grande', 'Verdana', 'Geneva', 'Lucid', 'Arial', 'Helvetica', 'Avant Garde', sans-serif; text-anchor: middle" x="1071.899951" y="587.556875" transform="rotate(-0 1071.899951 587.556875)">2</text>
     </g>
    </g>
    <g id="xtick_9">
     <g id="line2d_21">
      <g>
       <use xlink:href="#m6f8a381afe" x="1162.416152" y="565.36" style="stroke: #000000; stroke-width: 0.8"/>
      </g>
     </g>
     <g id="text_19">
      <text style="font: 20px 'DejaVu Sans', 'Bitstream Vera Sans', 'Computer Modern Sans Serif', 'Lucida Grande', 'Verdana', 'Geneva', 'Lucid', 'Arial', 'Helvetica', 'Avant Garde', sans-serif; text-anchor: middle" x="1162.416152" y="587.556875" transform="rotate(-0 1162.416152 587.556875)">4</text>
     </g>
    </g>
    <g id="text_20">
     <text style="font: 25px 'DejaVu Sans', 'Bitstream Vera Sans', 'Computer Modern Sans Serif', 'Lucida Grande', 'Verdana', 'Geneva', 'Lucid', 'Arial', 'Helvetica', 'Avant Garde', sans-serif; text-anchor: middle" x="1117.158052" y="614.712344" transform="rotate(-0 1117.158052 614.712344)">Harmonic</text>
    </g>
   </g>
   <g id="matplotlib.axis_4">
    <g id="ytick_7">
     <g id="line2d_22">
      <defs>
       <path id="m8edb966dcb" d="M 0 0 
L -3.5 0 
" style="stroke: #000000; stroke-width: 0.8"/>
      </defs>
      <g>
       <use xlink:href="#m8edb966dcb" x="1027.547013" y="565.36" style="stroke: #000000; stroke-width: 0.8"/>
      </g>
     </g>
     <g id="text_21">
      <text style="font: 20px 'DejaVu Sans', 'Bitstream Vera Sans', 'Computer Modern Sans Serif', 'Lucida Grande', 'Verdana', 'Geneva', 'Lucid', 'Arial', 'Helvetica', 'Avant Garde', sans-serif; text-anchor: end" x="1020.547013" y="572.958437" transform="rotate(-0 1020.547013 572.958437)">0.00</text>
     </g>
    </g>
    <g id="ytick_8">
     <g id="line2d_23">
      <g>
       <use xlink:href="#m8edb966dcb" x="1027.547013" y="503.435654" style="stroke: #000000; stroke-width: 0.8"/>
      </g>
     </g>
     <g id="text_22">
      <text style="font: 20px 'DejaVu Sans', 'Bitstream Vera Sans', 'Computer Modern Sans Serif', 'Lucida Grande', 'Verdana', 'Geneva', 'Lucid', 'Arial', 'Helvetica', 'Avant Garde', sans-serif; text-anchor: end" x="1020.547013" y="511.034092" transform="rotate(-0 1020.547013 511.034092)">0.01</text>
     </g>
    </g>
    <g id="ytick_9">
     <g id="line2d_24">
      <g>
       <use xlink:href="#m8edb966dcb" x="1027.547013" y="441.511309" style="stroke: #000000; stroke-width: 0.8"/>
      </g>
     </g>
     <g id="text_23">
      <text style="font: 20px 'DejaVu Sans', 'Bitstream Vera Sans', 'Computer Modern Sans Serif', 'Lucida Grande', 'Verdana', 'Geneva', 'Lucid', 'Arial', 'Helvetica', 'Avant Garde', sans-serif; text-anchor: end" x="1020.547013" y="449.109746" transform="rotate(-0 1020.547013 449.109746)">0.02</text>
     </g>
    </g>
    <g id="ytick_10">
     <g id="line2d_25">
      <g>
       <use xlink:href="#m8edb966dcb" x="1027.547013" y="379.586963" style="stroke: #000000; stroke-width: 0.8"/>
      </g>
     </g>
     <g id="text_24">
      <text style="font: 20px 'DejaVu Sans', 'Bitstream Vera Sans', 'Computer Modern Sans Serif', 'Lucida Grande', 'Verdana', 'Geneva', 'Lucid', 'Arial', 'Helvetica', 'Avant Garde', sans-serif; text-anchor: end" x="1020.547013" y="387.1854" transform="rotate(-0 1020.547013 387.1854)">0.03</text>
     </g>
    </g>
    <g id="ytick_11">
     <g id="line2d_26">
      <g>
       <use xlink:href="#m8edb966dcb" x="1027.547013" y="317.662617" style="stroke: #000000; stroke-width: 0.8"/>
      </g>
     </g>
     <g id="text_25">
      <text style="font: 20px 'DejaVu Sans', 'Bitstream Vera Sans', 'Computer Modern Sans Serif', 'Lucida Grande', 'Verdana', 'Geneva', 'Lucid', 'Arial', 'Helvetica', 'Avant Garde', sans-serif; text-anchor: end" x="1020.547013" y="325.261055" transform="rotate(-0 1020.547013 325.261055)">0.04</text>
     </g>
    </g>
    <g id="ytick_12">
     <g id="line2d_27">
      <g>
       <use xlink:href="#m8edb966dcb" x="1027.547013" y="255.738271" style="stroke: #000000; stroke-width: 0.8"/>
      </g>
     </g>
     <g id="text_26">
      <text style="font: 20px 'DejaVu Sans', 'Bitstream Vera Sans', 'Computer Modern Sans Serif', 'Lucida Grande', 'Verdana', 'Geneva', 'Lucid', 'Arial', 'Helvetica', 'Avant Garde', sans-serif; text-anchor: end" x="1020.547013" y="263.336709" transform="rotate(-0 1020.547013 263.336709)">0.05</text>
     </g>
    </g>
    <g id="ytick_13">
     <g id="line2d_28">
      <g>
       <use xlink:href="#m8edb966dcb" x="1027.547013" y="193.813926" style="stroke: #000000; stroke-width: 0.8"/>
      </g>
     </g>
     <g id="text_27">
      <text style="font: 20px 'DejaVu Sans', 'Bitstream Vera Sans', 'Computer Modern Sans Serif', 'Lucida Grande', 'Verdana', 'Geneva', 'Lucid', 'Arial', 'Helvetica', 'Avant Garde', sans-serif; text-anchor: end" x="1020.547013" y="201.412363" transform="rotate(-0 1020.547013 201.412363)">0.06</text>
     </g>
    </g>
    <g id="text_28">
     <text style="font: 25px 'DejaVu Sans', 'Bitstream Vera Sans', 'Computer Modern Sans Serif', 'Lucida Grande', 'Verdana', 'Geneva', 'Lucid', 'Arial', 'Helvetica', 'Avant Garde', sans-serif; text-anchor: middle" x="966.816544" y="373.972" transform="rotate(-90 966.816544 373.972)">Amplitude</text>
    </g>
   </g>
   <g id="patch_10">
    <path d="M 1027.547013 565.36 
L 1027.547013 182.584 
" style="fill: none; stroke: #000000; stroke-width: 0.8; stroke-linejoin: miter; stroke-linecap: square"/>
   </g>
   <g id="patch_11">
    <path d="M 1206.769091 565.36 
L 1206.769091 182.584 
" style="fill: none; stroke: #000000; stroke-width: 0.8; stroke-linejoin: miter; stroke-linecap: square"/>
   </g>
   <g id="patch_12">
    <path d="M 1027.547013 565.36 
L 1206.769091 565.36 
" style="fill: none; stroke: #000000; stroke-width: 0.8; stroke-linejoin: miter; stroke-linecap: square"/>
   </g>
   <g id="patch_13">
    <path d="M 1027.547013 182.584 
L 1206.769091 182.584 
" style="fill: none; stroke: #000000; stroke-width: 0.8; stroke-linejoin: miter; stroke-linecap: square"/>
   </g>
   <g id="text_29">
    <g id="patch_14">
     <path d="M 1197.807987 316.66155 
L 1483.532987 316.66155 
Q 1489.532987 316.66155 1489.532987 310.66155 
L 1489.532987 201.7228 
Q 1489.532987 195.7228 1483.532987 195.7228 
L 1197.807987 195.7228 
Q 1191.807987 195.7228 1191.807987 201.7228 
L 1191.807987 310.66155 
Q 1191.807987 316.66155 1197.807987 316.66155 
z
" style="fill: #f5deb3; stroke: #000000; stroke-linejoin: miter"/>
    </g>
    <text style="font: 20px 'DejaVu Sans', 'Bitstream Vera Sans', 'Computer Modern Sans Serif', 'Lucida Grande', 'Verdana', 'Geneva', 'Lucid', 'Arial', 'Helvetica', 'Avant Garde', sans-serif" transform="translate(1197.807987 216.919675)">2nd Harmonic: 0.0589</text>
    <text style="font: 20px 'DejaVu Sans', 'Bitstream Vera Sans', 'Computer Modern Sans Serif', 'Lucida Grande', 'Verdana', 'Geneva', 'Lucid', 'Arial', 'Helvetica', 'Avant Garde', sans-serif" transform="translate(1197.807987 239.3153)">4th Harmonic: 0.0508</text>
    <text style="font: 20px 'DejaVu Sans', 'Bitstream Vera Sans', 'Computer Modern Sans Serif', 'Lucida Grande', 'Verdana', 'Geneva', 'Lucid', 'Arial', 'Helvetica', 'Avant Garde', sans-serif" transform="translate(1197.807987 261.710925)">Ratio (H4/H2): 0.86</text>
    <text style="font: 20px 'DejaVu Sans', 'Bitstream Vera Sans', 'Computer Modern Sans Serif', 'Lucida Grande', 'Verdana', 'Geneva', 'Lucid', 'Arial', 'Helvetica', 'Avant Garde', sans-serif" transform="translate(1197.807987 284.10655)">Orientation peaks: 2</text>
    <text style="font: 20px 'DejaVu Sans', 'Bitstream Vera Sans', 'Computer Modern Sans Serif', 'Lucida Grande', 'Verdana', 'Geneva', 'Lucid', 'Arial', 'Helvetica', 'Avant Garde', sans-serif" transform="translate(1197.807987 306.502175)">Angle between peaks: 121.0</text>
   </g>
   <g id="text_30">
    <text style="font: 30px 'DejaVu Sans', 'Bitstream Vera Sans', 'Computer Modern Sans Serif', 'Lucida Grande', 'Verdana', 'Geneva', 'Lucid', 'Arial', 'Helvetica', 'Avant Garde', sans-serif" transform="translate(1013.550239 48.990563)">FFT Spectrum</text>
    <text style="font: 30px 'DejaVu Sans', 'Bitstream Vera Sans', 'Computer Modern Sans Serif', 'Lucida Grande', 'Verdana', 'Geneva', 'Lucid', 'Arial', 'Helvetica', 'Avant Garde', sans-serif" transform="translate(971.683833 82.584)">H4:H2 Ratio = 0.86</text>
   </g>
  </g>
 </g>
 <defs>
  <clipPath id="p08c4941c7c">
   <path d="M 756.054234 469.666 
C 756.054234 418.926214 735.876433 370.212694 699.997986 334.334247 
C 664.119539 298.4558 615.40602 278.278 564.666234 278.278 
C 513.926447 278.278 465.212928 298.4558 429.334481 334.334247 
C 393.456034 370.212694 373.278234 418.926214 373.278234 469.666 
L 564.666234 469.666 
C 564.666234 469.666 564.666234 469.666 564.666234 469.666 
C 564.666234 469.666 564.666234 469.666 564.666234 469.666 
C 564.666234 469.666 564.666234 469.666 564.666234 469.666 
C 564.666234 469.666 564.666234 469.666 564.666234 469.666 
z
"/>
  </clipPath>
  <clipPath id="pb358bba4e3">
   <rect x="1027.547013" y="182.584" width="179.222078" height="382.776"/>
  </clipPath>
 </defs>
</svg>
