<?xml version="1.0" encoding="utf-8" standalone="no"?>
<!DOCTYPE svg PUBLIC "-//W3C//DTD SVG 1.1//EN"
  "http://www.w3.org/Graphics/SVG/1.1/DTD/svg11.dtd">
<svg xmlns:xlink="http://www.w3.org/1999/xlink" width="1512pt" height="648pt" viewBox="0 0 1512 648" xmlns="http://www.w3.org/2000/svg" version="1.1">
 <metadata>
  <rdf:RDF xmlns:dc="http://purl.org/dc/elements/1.1/" xmlns:cc="http://creativecommons.org/ns#" xmlns:rdf="http://www.w3.org/1999/02/22-rdf-syntax-ns#">
   <cc:Work>
    <dc:type rdf:resource="http://purl.org/dc/dcmitype/StillImage"/>
    <dc:date>2025-04-19T18:37:07.899814</dc:date>
    <dc:format>image/svg+xml</dc:format>
    <dc:creator>
     <cc:Agent>
      <dc:title>Matplotlib v3.9.2, https://matplotlib.org/</dc:title>
     </cc:Agent>
    </dc:creator>
   </cc:Work>
  </rdf:RDF>
 </metadata>
 <defs>
  <style type="text/css">*{stroke-linejoin: round; stroke-linecap: butt}</style>
 </defs>
 <g id="figure_1">
  <g id="patch_1">
   <path d="M 0 648 
L 1512 648 
L 1512 0 
L 0 0 
z
" style="fill: #ffffff"/>
  </g>
  <g id="axes_1">
   <g id="patch_2">
    <path d="M 761.492805 469.666 
C 761.492805 418.926214 741.315005 370.212694 705.436558 334.334247 
C 669.558111 298.4558 620.844591 278.278 570.104805 278.278 
C 519.365019 278.278 470.6515 298.4558 434.773053 334.334247 
C 398.894606 370.212694 378.716805 418.926214 378.716805 469.666 
L 570.104805 469.666 
C 570.104805 469.666 570.104805 469.666 570.104805 469.666 
C 570.104805 469.666 570.104805 469.666 570.104805 469.666 
C 570.104805 469.666 570.104805 469.666 570.104805 469.666 
C 570.104805 469.666 570.104805 469.666 570.104805 469.666 
z
" style="fill: #ffffff"/>
   </g>
   <g id="matplotlib.axis_1">
    <g id="xtick_1">
     <g id="line2d_1">
      <path d="M 570.104805 469.666 
L 761.492805 469.666 
" clip-path="url(#p0868e284d1)" style="fill: none; stroke: #b0b0b0; stroke-width: 0.8; stroke-linecap: square"/>
     </g>
     <g id="text_1">
      <text style="font: 20px 'DejaVu Sans', 'Bitstream Vera Sans', 'Computer Modern Sans Serif', 'Lucida Grande', 'Verdana', 'Geneva', 'Lucid', 'Arial', 'Helvetica', 'Avant Garde', sans-serif; text-anchor: middle" x="775.492805" y="475.18475" transform="rotate(-0 775.492805 475.18475)">0°</text>
     </g>
    </g>
    <g id="xtick_2">
     <g id="line2d_2">
      <path d="M 570.104805 469.666 
L 735.851675 373.972 
" clip-path="url(#p0868e284d1)" style="fill: none; stroke: #b0b0b0; stroke-width: 0.8; stroke-linecap: square"/>
     </g>
     <g id="text_2">
      <text style="font: 20px 'DejaVu Sans', 'Bitstream Vera Sans', 'Computer Modern Sans Serif', 'Lucida Grande', 'Verdana', 'Geneva', 'Lucid', 'Arial', 'Helvetica', 'Avant Garde', sans-serif; text-anchor: middle" x="747.976031" y="372.49075" transform="rotate(-0 747.976031 372.49075)">30°</text>
     </g>
    </g>
    <g id="xtick_3">
     <g id="line2d_3">
      <path d="M 570.104805 469.666 
L 665.798805 303.91913 
" clip-path="url(#p0868e284d1)" style="fill: none; stroke: #b0b0b0; stroke-width: 0.8; stroke-linecap: square"/>
     </g>
     <g id="text_3">
      <text style="font: 20px 'DejaVu Sans', 'Bitstream Vera Sans', 'Computer Modern Sans Serif', 'Lucida Grande', 'Verdana', 'Geneva', 'Lucid', 'Arial', 'Helvetica', 'Avant Garde', sans-serif; text-anchor: middle" x="672.798805" y="297.313524" transform="rotate(-0 672.798805 297.313524)">60°</text>
     </g>
    </g>
    <g id="xtick_4">
     <g id="line2d_4">
      <path d="M 570.104805 469.666 
L 570.104805 278.278 
" clip-path="url(#p0868e284d1)" style="fill: none; stroke: #b0b0b0; stroke-width: 0.8; stroke-linecap: square"/>
     </g>
     <g id="text_4">
      <text style="font: 20px 'DejaVu Sans', 'Bitstream Vera Sans', 'Computer Modern Sans Serif', 'Lucida Grande', 'Verdana', 'Geneva', 'Lucid', 'Arial', 'Helvetica', 'Avant Garde', sans-serif; text-anchor: middle" x="570.104805" y="269.79675" transform="rotate(-0 570.104805 269.79675)">90°</text>
     </g>
    </g>
    <g id="xtick_5">
     <g id="line2d_5">
      <path d="M 570.104805 469.666 
L 474.410805 303.91913 
" clip-path="url(#p0868e284d1)" style="fill: none; stroke: #b0b0b0; stroke-width: 0.8; stroke-linecap: square"/>
     </g>
     <g id="text_5">
      <text style="font: 20px 'DejaVu Sans', 'Bitstream Vera Sans', 'Computer Modern Sans Serif', 'Lucida Grande', 'Verdana', 'Geneva', 'Lucid', 'Arial', 'Helvetica', 'Avant Garde', sans-serif; text-anchor: middle" x="467.410805" y="297.313524" transform="rotate(-0 467.410805 297.313524)">120°</text>
     </g>
    </g>
    <g id="xtick_6">
     <g id="line2d_6">
      <path d="M 570.104805 469.666 
L 404.357935 373.972 
" clip-path="url(#p0868e284d1)" style="fill: none; stroke: #b0b0b0; stroke-width: 0.8; stroke-linecap: square"/>
     </g>
     <g id="text_6">
      <text style="font: 20px 'DejaVu Sans', 'Bitstream Vera Sans', 'Computer Modern Sans Serif', 'Lucida Grande', 'Verdana', 'Geneva', 'Lucid', 'Arial', 'Helvetica', 'Avant Garde', sans-serif; text-anchor: middle" x="392.23358" y="372.49075" transform="rotate(-0 392.23358 372.49075)">150°</text>
     </g>
    </g>
    <g id="xtick_7">
     <g id="line2d_7">
      <path d="M 570.104805 469.666 
L 378.716805 469.666 
" clip-path="url(#p0868e284d1)" style="fill: none; stroke: #b0b0b0; stroke-width: 0.8; stroke-linecap: square"/>
     </g>
     <g id="text_7">
      <text style="font: 20px 'DejaVu Sans', 'Bitstream Vera Sans', 'Computer Modern Sans Serif', 'Lucida Grande', 'Verdana', 'Geneva', 'Lucid', 'Arial', 'Helvetica', 'Avant Garde', sans-serif; text-anchor: middle" x="364.716805" y="475.18475" transform="rotate(-0 364.716805 475.18475)">180°</text>
     </g>
    </g>
   </g>
   <g id="matplotlib.axis_2">
    <g id="ytick_1">
     <g id="line2d_8">
      <path d="M 570.104805 469.666 
C 570.104805 469.666 570.104805 469.666 570.104805 469.666 
C 570.104805 469.666 570.104805 469.666 570.104805 469.666 
C 570.104805 469.666 570.104805 469.666 570.104805 469.666 
C 570.104805 469.666 570.104805 469.666 570.104805 469.666 
" clip-path="url(#p0868e284d1)" style="fill: none; stroke: #b0b0b0; stroke-width: 0.8; stroke-linecap: square"/>
     </g>
     <g id="text_8">
      <text style="font: 20px 'DejaVu Sans', 'Bitstream Vera Sans', 'Computer Modern Sans Serif', 'Lucida Grande', 'Verdana', 'Geneva', 'Lucid', 'Arial', 'Helvetica', 'Avant Garde', sans-serif; text-anchor: middle" x="570.104805" y="491.862875" transform="rotate(-0 570.104805 491.862875)">0.0</text>
     </g>
    </g>
    <g id="ytick_2">
     <g id="line2d_9">
      <path d="M 606.559662 469.666 
C 606.559662 460.001279 602.716272 450.722513 595.882282 443.888523 
C 589.048292 437.054533 579.769526 433.211143 570.104805 433.211143 
C 560.440084 433.211143 551.161318 437.054533 544.327329 443.888523 
C 537.493339 450.722513 533.649948 460.001279 533.649948 469.666 
" clip-path="url(#p0868e284d1)" style="fill: none; stroke: #b0b0b0; stroke-width: 0.8; stroke-linecap: square"/>
     </g>
     <g id="text_9">
      <text style="font: 20px 'DejaVu Sans', 'Bitstream Vera Sans', 'Computer Modern Sans Serif', 'Lucida Grande', 'Verdana', 'Geneva', 'Lucid', 'Arial', 'Helvetica', 'Avant Garde', sans-serif; text-anchor: middle" x="606.559662" y="491.862875" transform="rotate(-0 606.559662 491.862875)">0.2</text>
     </g>
    </g>
    <g id="ytick_3">
     <g id="line2d_10">
      <path d="M 643.014519 469.666 
C 643.014519 450.336558 635.327738 431.779026 621.659759 418.111047 
C 607.991779 404.443067 589.434248 396.756286 570.104805 396.756286 
C 550.775363 396.756286 532.217832 404.443067 518.549852 418.111047 
C 504.881872 431.779026 497.195091 450.336558 497.195091 469.666 
" clip-path="url(#p0868e284d1)" style="fill: none; stroke: #b0b0b0; stroke-width: 0.8; stroke-linecap: square"/>
     </g>
     <g id="text_10">
      <text style="font: 20px 'DejaVu Sans', 'Bitstream Vera Sans', 'Computer Modern Sans Serif', 'Lucida Grande', 'Verdana', 'Geneva', 'Lucid', 'Arial', 'Helvetica', 'Avant Garde', sans-serif; text-anchor: middle" x="643.014519" y="491.862875" transform="rotate(-0 643.014519 491.862875)">0.4</text>
     </g>
    </g>
    <g id="ytick_4">
     <g id="line2d_11">
      <path d="M 679.469377 469.666 
C 679.469377 440.671836 667.939205 412.83554 647.437235 392.33357 
C 626.935266 371.8316 599.098969 360.301429 570.104805 360.301429 
C 541.110642 360.301429 513.274345 371.8316 492.772375 392.33357 
C 472.270405 412.83554 460.740234 440.671836 460.740234 469.666 
" clip-path="url(#p0868e284d1)" style="fill: none; stroke: #b0b0b0; stroke-width: 0.8; stroke-linecap: square"/>
     </g>
     <g id="text_11">
      <text style="font: 20px 'DejaVu Sans', 'Bitstream Vera Sans', 'Computer Modern Sans Serif', 'Lucida Grande', 'Verdana', 'Geneva', 'Lucid', 'Arial', 'Helvetica', 'Avant Garde', sans-serif; text-anchor: middle" x="679.469377" y="491.862875" transform="rotate(-0 679.469377 491.862875)">0.6</text>
     </g>
    </g>
    <g id="ytick_5">
     <g id="line2d_12">
      <path d="M 715.924234 469.666 
C 715.924234 431.007115 700.550672 393.892053 673.214712 366.556093 
C 645.878752 339.220134 608.76369 323.846571 570.104805 323.846571 
C 531.44592 323.846571 494.330858 339.220134 466.994898 366.556093 
C 439.658939 393.892053 424.285377 431.007115 424.285377 469.666 
" clip-path="url(#p0868e284d1)" style="fill: none; stroke: #b0b0b0; stroke-width: 0.8; stroke-linecap: square"/>
     </g>
     <g id="text_12">
      <text style="font: 20px 'DejaVu Sans', 'Bitstream Vera Sans', 'Computer Modern Sans Serif', 'Lucida Grande', 'Verdana', 'Geneva', 'Lucid', 'Arial', 'Helvetica', 'Avant Garde', sans-serif; text-anchor: middle" x="715.924234" y="491.862875" transform="rotate(-0 715.924234 491.862875)">0.8</text>
     </g>
    </g>
    <g id="ytick_6">
     <g id="line2d_13">
      <path d="M 752.379091 469.666 
C 752.379091 421.342394 733.162138 374.948566 698.992189 340.778617 
C 664.822239 306.608667 618.428411 287.391714 570.104805 287.391714 
C 521.781199 287.391714 475.387371 306.608667 441.217422 340.778617 
C 407.047472 374.948566 387.830519 421.342394 387.830519 469.666 
" clip-path="url(#p0868e284d1)" style="fill: none; stroke: #b0b0b0; stroke-width: 0.8; stroke-linecap: square"/>
     </g>
     <g id="text_13">
      <text style="font: 20px 'DejaVu Sans', 'Bitstream Vera Sans', 'Computer Modern Sans Serif', 'Lucida Grande', 'Verdana', 'Geneva', 'Lucid', 'Arial', 'Helvetica', 'Avant Garde', sans-serif; text-anchor: middle" x="752.379091" y="491.862875" transform="rotate(-0 752.379091 491.862875)">1.0</text>
     </g>
    </g>
   </g>
   <g id="line2d_14">
    <path d="M 698.13785 468.548673 
L 700.405438 466.253958 
L 697.710051 464.094635 
L 708.815482 461.182092 
L 693.50072 459.954531 
L 674.835164 459.581613 
L 669.431321 458.349173 
L 670.366791 456.466259 
L 665.326317 455.43505 
L 658.832881 454.818012 
L 636.170219 457.421499 
L 628.68906 457.746899 
L 628.978341 456.614051 
L 608.005523 459.864208 
L 592.498037 462.605441 
L 586.405319 463.893685 
L 583.797855 464.272164 
L 578.37283 465.722355 
L 576.888711 466.134522 
L 576.408341 466.243459 
L 575.168143 466.683466 
L 575.034267 466.645222 
L 574.769431 466.694306 
L 576.300936 465.407517 
L 576.422665 465.159514 
L 575.259384 465.416893 
L 575.217983 465.142243 
L 574.998082 465.182138 
L 572.829212 466.988733 
L 570.104805 469.666 
L 570.381452 469.248033 
L 570.921853 468.221872 
L 571.75131 466.363623 
L 573.587181 461.2588 
L 574.42657 458.106915 
L 580.739771 431.317552 
L 576.901147 443.386496 
L 576.625055 442.507204 
L 577.072204 438.238095 
L 575.828317 441.534041 
L 575.71444 439.399118 
L 575.357941 438.274501 
L 575.112015 436.161976 
L 576.075257 424.315915 
L 576.543892 413.150861 
L 576.30867 405.2364 
L 576.288468 391.095118 
L 575.423801 382.701194 
L 573.684728 387.672291 
L 572.165649 390.965558 
L 570.775533 392.80815 
L 569.361152 384.451782 
L 567.359653 364.832864 
L 565.321649 360.113702 
L 563.626731 363.750422 
L 562.227416 369.574278 
L 559.096879 355.344319 
L 557.098476 355.510914 
L 554.395286 350.340357 
L 552.200198 349.863475 
L 553.315272 379.077784 
L 553.172032 386.438759 
L 552.144815 388.65372 
L 549.969095 385.794731 
L 547.378928 381.791554 
L 546.770235 385.524259 
L 548.741506 397.54471 
L 550.661632 408.000132 
L 550.885391 412.225226 
L 550.569516 414.500045 
L 546.913149 407.637098 
L 545.523737 407.263322 
L 543.525644 405.498229 
L 541.155489 403.087131 
L 540.126951 403.885602 
L 535.646273 397.422186 
L 534.055223 397.361723 
L 542.886487 417.380097 
L 543.40074 420.48323 
L 542.661347 421.159851 
L 540.634736 419.63575 
L 537.517425 416.488228 
L 536.301782 416.605882 
L 531.531702 411.388398 
L 528.582148 409.250159 
L 526.073728 407.936707 
L 522.520306 405.35924 
L 513.271993 395.600037 
L 514.457297 399.707494 
L 517.296047 405.603853 
L 514.535992 404.60328 
L 512.824875 404.922816 
L 513.291709 407.665385 
L 513.895826 410.434095 
L 514.027567 412.601387 
L 515.333132 415.842027 
L 514.233528 418.469407 
L 513.115528 419.246147 
L 510.962851 419.154 
L 508.336546 418.748176 
L 503.697056 418.709542 
L 499.580637 417.48086 
L 493.411048 414.960875 
L 485.581028 411.574418 
L 488.370594 415.567306 
L 486.505965 416.407665 
L 481.109222 415.129436 
L 461.682351 405.800294 
L 465.586051 410.532134 
L 467.41033 413.907449 
L 471.328064 418.246083 
L 472.309578 420.907098 
L 472.003914 422.874275 
L 468.858825 423.525549 
L 466.190732 424.482875 
L 462.423987 425.063145 
L 449.753912 422.258522 
L 448.159691 424.07259 
L 428.947736 419.67966 
L 436.701905 425.030014 
L 437.558629 427.874351 
L 431.803282 428.699222 
L 415.320309 426.74046 
L 406.41219 427.332211 
L 392.866773 427.114913 
L 400.714725 432.113123 
L 413.388961 437.781801 
L 410.808558 440.142186 
L 392.435569 439.934366 
L 418.866617 447.063301 
L 409.481711 448.519568 
L 402.30241 450.547332 
L 421.787693 455.384686 
L 424.696982 458.222156 
L 427.055376 460.916722 
L 436.352406 463.826244 
L 438.612003 466.22274 
L 442.140892 468.549276 
L 442.07176 470.783327 
L 439.804172 473.078042 
L 442.49956 475.237365 
L 431.394128 478.149908 
L 446.708891 479.377469 
L 465.374447 479.750387 
L 470.778289 480.982827 
L 469.842819 482.865741 
L 474.883293 483.89695 
L 481.376729 484.513988 
L 504.039391 481.910501 
L 511.520551 481.585101 
L 511.231269 482.717949 
L 532.204087 479.467792 
L 547.711573 476.726559 
L 553.804292 475.438315 
L 556.411755 475.059836 
L 561.836781 473.609645 
L 563.320899 473.197478 
L 563.801269 473.088541 
L 565.041467 472.648534 
L 565.175343 472.686778 
L 565.440179 472.637694 
L 563.908674 473.924483 
L 563.786945 474.172486 
L 564.950226 473.915107 
L 564.991628 474.189757 
L 565.211529 474.149862 
L 567.380398 472.343267 
L 570.104805 469.666 
L 569.828159 470.083967 
L 569.287757 471.110128 
L 568.458301 472.968377 
L 566.622429 478.0732 
L 565.78304 481.225085 
L 559.469839 508.014448 
L 563.308463 495.945504 
L 563.584555 496.824796 
L 563.137406 501.093905 
L 564.381293 497.797959 
L 564.49517 499.932882 
L 564.85167 501.057499 
L 565.097595 503.170024 
L 564.134353 515.016085 
L 563.665718 526.181139 
L 563.90094 534.0956 
L 563.921143 548.236882 
L 564.78581 556.630806 
L 566.524883 551.659709 
L 568.043962 548.366442 
L 569.434077 546.52385 
L 570.848458 554.880218 
L 572.849957 574.499136 
L 574.887962 579.218298 
L 576.582879 575.581578 
L 577.982195 569.757722 
L 581.112731 583.987681 
L 583.111134 583.821086 
L 585.814324 588.991643 
L 588.009413 589.468525 
L 586.894339 560.254216 
L 587.037579 552.893241 
L 588.064795 550.67828 
L 590.240515 553.537269 
L 592.830682 557.540446 
L 593.439375 553.807741 
L 591.468105 541.78729 
L 589.547979 531.331868 
L 589.324219 527.106774 
L 589.640095 524.831955 
L 593.296461 531.694902 
L 594.685874 532.068678 
L 596.683966 533.833771 
L 599.054121 536.244869 
L 600.08266 535.446398 
L 604.563337 541.909814 
L 606.154388 541.970277 
L 597.323124 521.951903 
L 596.808871 518.84877 
L 597.548264 518.172149 
L 599.574875 519.69625 
L 602.692186 522.843772 
L 603.907829 522.726118 
L 608.677909 527.943602 
L 611.627462 530.081841 
L 614.135882 531.395293 
L 617.689304 533.97276 
L 626.937617 543.731963 
L 625.752313 539.624506 
L 622.913564 533.728147 
L 625.673618 534.72872 
L 627.384736 534.409184 
L 626.917902 531.666615 
L 626.313784 528.897905 
L 626.182044 526.730613 
L 624.876478 523.489973 
L 625.976082 520.862593 
L 627.094082 520.085853 
L 629.246759 520.178 
L 631.873064 520.583824 
L 636.512555 520.622458 
L 640.628974 521.85114 
L 646.798563 524.371125 
L 654.628582 527.757582 
L 651.839016 523.764694 
L 653.703645 522.924335 
L 659.100389 524.202564 
L 678.527259 533.531706 
L 674.623559 528.799866 
L 672.79928 525.424551 
L 668.881546 521.085917 
L 667.900032 518.424902 
L 668.205696 516.457725 
L 671.350785 515.806451 
L 674.018879 514.849125 
L 677.785623 514.268855 
L 690.455699 517.073478 
L 692.049919 515.25941 
L 711.261875 519.65234 
L 703.507705 514.301986 
L 702.650981 511.457649 
L 708.406329 510.632778 
L 724.889301 512.59154 
L 733.79742 511.999789 
L 747.342838 512.217087 
L 739.494886 507.218877 
L 726.82065 501.550199 
L 729.401052 499.189814 
L 747.774041 499.397634 
L 721.342994 492.268699 
L 730.727899 490.812432 
L 737.9072 488.784668 
L 718.421917 483.947314 
L 715.512628 481.109844 
L 713.154234 478.415278 
L 703.857205 475.505756 
L 701.597608 473.10926 
L 698.068718 470.782724 
L 698.068718 470.782724 
" clip-path="url(#p0868e284d1)" style="fill: none; stroke: #1f77b4; stroke-opacity: 0.6; stroke-width: 1.5; stroke-linecap: square"/>
   </g>
   <g id="line2d_15">
    <path d="M 699.302358 468.53851 
L 693.780924 466.427427 
L 687.872571 464.524148 
L 681.927747 462.826616 
L 669.742924 460.07194 
L 663.345104 459.04261 
L 656.709852 458.264229 
L 650.056544 457.717133 
L 643.830531 457.328545 
L 632.619534 456.947235 
L 627.294158 456.987426 
L 621.805448 457.253774 
L 612.239255 457.981083 
L 603.176981 459.238383 
L 599.558525 459.810923 
L 592.355179 461.346926 
L 586.145289 463.021814 
L 580.778773 464.801593 
L 574.672353 467.186024 
L 572.518277 468.128449 
L 572.744568 467.851741 
L 572.555944 467.852252 
L 572.674999 467.621575 
L 572.45712 467.656933 
L 571.834309 468.024762 
L 570.972609 468.718958 
L 570.243216 469.498094 
L 570.557641 469.031148 
L 571.141863 467.905425 
L 571.217946 467.615849 
L 572.525572 464.590757 
L 573.444181 461.985962 
L 575.092122 456.326816 
L 576.105067 451.733107 
L 577.027785 446.294413 
L 578.116764 438.686054 
L 578.574958 434.385276 
L 578.891768 430.030573 
L 579.030099 425.796778 
L 578.991891 421.715576 
L 578.544138 413.197108 
L 578.131489 408.697282 
L 577.548028 404.337672 
L 576.792577 400.210839 
L 575.854685 396.606856 
L 574.775096 393.307428 
L 573.566953 390.369768 
L 572.248658 387.795568 
L 570.839342 385.496438 
L 569.354481 383.687329 
L 567.812924 382.142583 
L 566.20018 380.235385 
L 564.535785 378.613319 
L 562.842233 377.386266 
L 561.144058 376.605081 
L 559.464362 376.276031 
L 557.806482 376.250964 
L 554.577063 376.875874 
L 553.096159 377.895559 
L 551.717547 379.289738 
L 550.485204 381.167697 
L 548.280862 385.279072 
L 547.353156 387.626203 
L 545.785027 392.533516 
L 544.251797 396.659358 
L 543.402781 398.248193 
L 542.514504 399.62394 
L 541.726672 401.155125 
L 541.045515 402.834208 
L 539.901814 406.344112 
L 539.09763 407.475227 
L 537.358414 409.354651 
L 536.61415 410.471468 
L 535.667062 411.202314 
L 534.490073 411.548039 
L 533.060842 411.518625 
L 531.482192 411.313596 
L 530.2974 411.745866 
L 529.012977 412.057381 
L 527.629913 412.264477 
L 526.041599 412.241712 
L 524.217056 411.977193 
L 520.01536 411.018795 
L 518.027086 410.802847 
L 516.2221 410.863345 
L 513.126191 411.684141 
L 511.700979 412.27272 
L 509.912221 412.54537 
L 505.793079 412.767791 
L 503.873819 413.099394 
L 499.559202 413.551494 
L 497.453624 413.918788 
L 492.483253 414.299085 
L 490.281013 414.804628 
L 487.222677 414.807516 
L 481.412049 415.315009 
L 474.117998 415.359277 
L 470.252544 415.450646 
L 465.80442 415.370656 
L 461.435101 415.485284 
L 457.236111 415.830394 
L 453.101107 416.344343 
L 449.136383 417.067433 
L 445.316869 417.977144 
L 435.018655 421.829485 
L 431.732893 423.367406 
L 428.936138 425.15569 
L 426.459314 427.116267 
L 421.915582 431.341661 
L 419.972855 433.622508 
L 418.665186 436.092645 
L 417.569734 438.632389 
L 416.747723 441.242945 
L 416.191594 443.909762 
L 416.346447 446.686659 
L 417.110608 449.523932 
L 419.523174 455.166638 
L 421.443186 457.966077 
L 424.027702 460.731542 
L 427.334155 463.432499 
L 431.299369 466.031252 
L 435.859642 468.49446 
L 440.907252 470.79349 
L 446.428686 472.904573 
L 452.337039 474.807852 
L 458.281863 476.505384 
L 470.466686 479.26006 
L 476.864506 480.28939 
L 483.499758 481.067771 
L 490.153066 481.614867 
L 496.379079 482.003455 
L 507.590077 482.384765 
L 512.915452 482.344574 
L 518.404162 482.078226 
L 527.970355 481.350917 
L 537.032629 480.093617 
L 540.651085 479.521077 
L 547.854431 477.985074 
L 554.064322 476.310186 
L 559.430837 474.530407 
L 565.537258 472.145976 
L 567.691334 471.203551 
L 567.465042 471.480259 
L 567.653666 471.479748 
L 567.534611 471.710425 
L 567.752491 471.675067 
L 568.375302 471.307238 
L 569.237001 470.613042 
L 569.966394 469.833906 
L 569.65197 470.300852 
L 569.067747 471.426575 
L 568.991664 471.716151 
L 567.684038 474.741243 
L 566.76543 477.346038 
L 565.117489 483.005184 
L 564.104543 487.598893 
L 563.181826 493.037587 
L 562.092847 500.645946 
L 561.634653 504.946724 
L 561.317842 509.301427 
L 561.179511 513.535222 
L 561.217719 517.616424 
L 561.665473 526.134892 
L 562.078121 530.634718 
L 562.661582 534.994328 
L 563.417034 539.121161 
L 564.354926 542.725144 
L 565.434515 546.024572 
L 566.642657 548.962232 
L 567.960952 551.536432 
L 569.370269 553.835562 
L 570.85513 555.644671 
L 572.396687 557.189417 
L 574.00943 559.096615 
L 575.673826 560.718681 
L 577.367378 561.945734 
L 579.065552 562.726919 
L 580.745248 563.055969 
L 582.403128 563.081036 
L 585.632547 562.456126 
L 587.113451 561.436441 
L 588.492064 560.042262 
L 589.724407 558.164303 
L 591.928749 554.052928 
L 592.856454 551.705797 
L 594.424584 546.798484 
L 595.957813 542.672642 
L 596.806829 541.083807 
L 597.695106 539.70806 
L 598.482939 538.176875 
L 599.164096 536.497792 
L 600.307797 532.987888 
L 601.111981 531.856773 
L 602.851196 529.977349 
L 603.59546 528.860532 
L 604.542548 528.129686 
L 605.719537 527.783961 
L 607.148769 527.813375 
L 608.727419 528.018404 
L 609.91221 527.586134 
L 611.196634 527.274619 
L 612.579698 527.067523 
L 614.168011 527.090288 
L 615.992554 527.354807 
L 620.19425 528.313205 
L 622.182524 528.529153 
L 623.987511 528.468655 
L 627.08342 527.647859 
L 628.508631 527.05928 
L 630.29739 526.78663 
L 634.416531 526.564209 
L 636.335792 526.232606 
L 640.650408 525.780506 
L 642.755986 525.413212 
L 647.726357 525.032915 
L 649.928597 524.527372 
L 652.986934 524.524484 
L 658.797561 524.016991 
L 666.091613 523.972723 
L 669.957066 523.881354 
L 674.405191 523.961344 
L 678.774509 523.846716 
L 682.973499 523.501606 
L 687.108504 522.987657 
L 691.073228 522.264567 
L 694.892742 521.354856 
L 705.190956 517.502515 
L 708.476717 515.964594 
L 711.273472 514.17631 
L 713.750297 512.215733 
L 718.294028 507.990339 
L 720.236756 505.709492 
L 721.544424 503.239355 
L 722.639876 500.699611 
L 723.461888 498.089055 
L 724.018016 495.422238 
L 723.863164 492.645341 
L 723.099002 489.808068 
L 720.686437 484.165362 
L 718.766424 481.365923 
L 716.181908 478.600458 
L 712.875455 475.899501 
L 708.910242 473.300748 
L 704.349968 470.83754 
L 704.349968 470.83754 
" clip-path="url(#p0868e284d1)" style="fill: none; stroke: #008000; stroke-width: 1.5; stroke-linecap: square"/>
   </g>
   <g id="line2d_16">
    <defs>
     <path id="m060e1464ad" d="M 0 3 
C 0.795609 3 1.55874 2.683901 2.12132 2.12132 
C 2.683901 1.55874 3 0.795609 3 0 
C 3 -0.795609 2.683901 -1.55874 2.12132 -2.12132 
C 1.55874 -2.683901 0.795609 -3 0 -3 
C -0.795609 -3 -1.55874 -2.683901 -2.12132 -2.12132 
C -2.683901 -1.55874 -3 -0.795609 -3 0 
C -3 0.795609 -2.683901 1.55874 -2.12132 2.12132 
C -1.55874 2.683901 -0.795609 3 0 3 
z
" style="stroke: #ff0000"/>
    </defs>
    <g clip-path="url(#p0868e284d1)">
     <use xlink:href="#m060e1464ad" x="557.806482" y="376.250964" style="fill: #ff0000; stroke: #ff0000"/>
     <use xlink:href="#m060e1464ad" x="416.191594" y="443.909762" style="fill: #ff0000; stroke: #ff0000"/>
     <use xlink:href="#m060e1464ad" x="582.403128" y="563.081036" style="fill: #ff0000; stroke: #ff0000"/>
     <use xlink:href="#m060e1464ad" x="724.018016" y="495.422238" style="fill: #ff0000; stroke: #ff0000"/>
    </g>
   </g>
   <g id="patch_3">
    <path d="M 761.492805 469.666 
C 761.492805 418.926214 741.315005 370.212694 705.436558 334.334247 
C 669.558111 298.4558 620.844591 278.278 570.104805 278.278 
C 519.365019 278.278 470.6515 298.4558 434.773053 334.334247 
C 398.894606 370.212694 378.716805 418.926214 378.716805 469.666 
" style="fill: none; stroke: #000000; stroke-width: 0.8; stroke-linejoin: miter; stroke-linecap: square"/>
   </g>
   <g id="patch_4">
    <path d="M 570.104805 469.666 
L 761.492805 469.666 
" style="fill: none; stroke: #000000; stroke-width: 0.8; stroke-linejoin: miter; stroke-linecap: square"/>
   </g>
   <g id="patch_5">
    <path d="M 570.104805 469.666 
L 378.716805 469.666 
" style="fill: none; stroke: #000000; stroke-width: 0.8; stroke-linejoin: miter; stroke-linecap: square"/>
   </g>
   <g id="text_14">
    <text style="font: 30px 'DejaVu Sans', 'Bitstream Vera Sans', 'Computer Modern Sans Serif', 'Lucida Grande', 'Verdana', 'Geneva', 'Lucid', 'Arial', 'Helvetica', 'Avant Garde', sans-serif" transform="translate(291.800899 142.156187)">w184 d14 400 con t7_OJ_Distribution</text>
    <text style="font: 30px 'DejaVu Sans', 'Bitstream Vera Sans', 'Computer Modern Sans Serif', 'Lucida Grande', 'Verdana', 'Geneva', 'Lucid', 'Arial', 'Helvetica', 'Avant Garde', sans-serif" transform="translate(400.29543 176.584)">Dominant Harmonic: 2</text>
   </g>
   <g id="legend_1">
    <g id="patch_6">
     <path d="M 392.716805 555.36 
L 558.88868 555.36 
Q 562.88868 555.36 562.88868 551.36 
L 562.88868 465.29125 
Q 562.88868 461.29125 558.88868 461.29125 
L 392.716805 461.29125 
Q 388.716805 461.29125 388.716805 465.29125 
L 388.716805 551.36 
Q 388.716805 555.36 392.716805 555.36 
z
" style="fill: #ffffff; opacity: 0.5; stroke: #cccccc; stroke-linejoin: miter"/>
    </g>
    <g id="line2d_17">
     <path d="M 396.716805 477.488125 
L 416.716805 477.488125 
L 436.716805 477.488125 
" style="fill: none; stroke: #1f77b4; stroke-opacity: 0.6; stroke-width: 1.5; stroke-linecap: square"/>
    </g>
    <g id="text_15">
     <text style="font: 20px 'DejaVu Sans', 'Bitstream Vera Sans', 'Computer Modern Sans Serif', 'Lucida Grande', 'Verdana', 'Geneva', 'Lucid', 'Arial', 'Helvetica', 'Avant Garde', sans-serif; text-anchor: start" x="452.716805" y="484.488125" transform="rotate(-0 452.716805 484.488125)">Raw</text>
    </g>
    <g id="line2d_18">
     <path d="M 396.716805 506.844375 
L 416.716805 506.844375 
L 436.716805 506.844375 
" style="fill: none; stroke: #008000; stroke-width: 1.5; stroke-linecap: square"/>
    </g>
    <g id="text_16">
     <text style="font: 20px 'DejaVu Sans', 'Bitstream Vera Sans', 'Computer Modern Sans Serif', 'Lucida Grande', 'Verdana', 'Geneva', 'Lucid', 'Arial', 'Helvetica', 'Avant Garde', sans-serif; text-anchor: start" x="452.716805" y="513.844375" transform="rotate(-0 452.716805 513.844375)">Smoothed</text>
    </g>
    <g id="line2d_19">
     <g>
      <use xlink:href="#m060e1464ad" x="416.716805" y="536.200625" style="fill: #ff0000; stroke: #ff0000"/>
     </g>
    </g>
    <g id="text_17">
     <text style="font: 20px 'DejaVu Sans', 'Bitstream Vera Sans', 'Computer Modern Sans Serif', 'Lucida Grande', 'Verdana', 'Geneva', 'Lucid', 'Arial', 'Helvetica', 'Avant Garde', sans-serif; text-anchor: start" x="452.716805" y="543.200625" transform="rotate(-0 452.716805 543.200625)">Peaks</text>
    </g>
   </g>
  </g>
  <g id="axes_2">
   <g id="patch_7">
    <path d="M 1038.424156 565.36 
L 1219.459091 565.36 
L 1219.459091 182.584 
L 1038.424156 182.584 
z
" style="fill: #ffffff"/>
   </g>
   <g id="patch_8">
    <path d="M 1046.653017 565.36 
L 1119.798445 565.36 
L 1119.798445 200.811429 
L 1046.653017 200.811429 
z
" clip-path="url(#p092a7f0665)" style="fill: #ffd700; fill-opacity: 0.5; stroke: #000000; stroke-linejoin: miter"/>
   </g>
   <g id="patch_9">
    <path d="M 1138.084802 565.36 
L 1211.23023 565.36 
L 1211.23023 335.87407 
L 1138.084802 335.87407 
z
" clip-path="url(#p092a7f0665)" style="fill: #ffd700; fill-opacity: 0.5; stroke: #000000; stroke-linejoin: miter"/>
   </g>
   <g id="matplotlib.axis_3">
    <g id="xtick_8">
     <g id="line2d_20">
      <defs>
       <path id="me60ab55ff4" d="M 0 0 
L 0 3.5 
" style="stroke: #000000; stroke-width: 0.8"/>
      </defs>
      <g>
       <use xlink:href="#me60ab55ff4" x="1083.225731" y="565.36" style="stroke: #000000; stroke-width: 0.8"/>
      </g>
     </g>
     <g id="text_18">
      <text style="font: 20px 'DejaVu Sans', 'Bitstream Vera Sans', 'Computer Modern Sans Serif', 'Lucida Grande', 'Verdana', 'Geneva', 'Lucid', 'Arial', 'Helvetica', 'Avant Garde', sans-serif; text-anchor: middle" x="1083.225731" y="587.556875" transform="rotate(-0 1083.225731 587.556875)">2</text>
     </g>
    </g>
    <g id="xtick_9">
     <g id="line2d_21">
      <g>
       <use xlink:href="#me60ab55ff4" x="1174.657516" y="565.36" style="stroke: #000000; stroke-width: 0.8"/>
      </g>
     </g>
     <g id="text_19">
      <text style="font: 20px 'DejaVu Sans', 'Bitstream Vera Sans', 'Computer Modern Sans Serif', 'Lucida Grande', 'Verdana', 'Geneva', 'Lucid', 'Arial', 'Helvetica', 'Avant Garde', sans-serif; text-anchor: middle" x="1174.657516" y="587.556875" transform="rotate(-0 1174.657516 587.556875)">4</text>
     </g>
    </g>
    <g id="text_20">
     <text style="font: 25px 'DejaVu Sans', 'Bitstream Vera Sans', 'Computer Modern Sans Serif', 'Lucida Grande', 'Verdana', 'Geneva', 'Lucid', 'Arial', 'Helvetica', 'Avant Garde', sans-serif; text-anchor: middle" x="1128.941623" y="614.712344" transform="rotate(-0 1128.941623 614.712344)">Harmonic</text>
    </g>
   </g>
   <g id="matplotlib.axis_4">
    <g id="ytick_7">
     <g id="line2d_22">
      <defs>
       <path id="m72f3b0efde" d="M 0 0 
L -3.5 0 
" style="stroke: #000000; stroke-width: 0.8"/>
      </defs>
      <g>
       <use xlink:href="#m72f3b0efde" x="1038.424156" y="565.36" style="stroke: #000000; stroke-width: 0.8"/>
      </g>
     </g>
     <g id="text_21">
      <text style="font: 20px 'DejaVu Sans', 'Bitstream Vera Sans', 'Computer Modern Sans Serif', 'Lucida Grande', 'Verdana', 'Geneva', 'Lucid', 'Arial', 'Helvetica', 'Avant Garde', sans-serif; text-anchor: end" x="1031.424156" y="572.958437" transform="rotate(-0 1031.424156 572.958437)">0.00</text>
     </g>
    </g>
    <g id="ytick_8">
     <g id="line2d_23">
      <g>
       <use xlink:href="#m72f3b0efde" x="1038.424156" y="518.39483" style="stroke: #000000; stroke-width: 0.8"/>
      </g>
     </g>
     <g id="text_22">
      <text style="font: 20px 'DejaVu Sans', 'Bitstream Vera Sans', 'Computer Modern Sans Serif', 'Lucida Grande', 'Verdana', 'Geneva', 'Lucid', 'Arial', 'Helvetica', 'Avant Garde', sans-serif; text-anchor: end" x="1031.424156" y="525.993268" transform="rotate(-0 1031.424156 525.993268)">0.02</text>
     </g>
    </g>
    <g id="ytick_9">
     <g id="line2d_24">
      <g>
       <use xlink:href="#m72f3b0efde" x="1038.424156" y="471.42966" style="stroke: #000000; stroke-width: 0.8"/>
      </g>
     </g>
     <g id="text_23">
      <text style="font: 20px 'DejaVu Sans', 'Bitstream Vera Sans', 'Computer Modern Sans Serif', 'Lucida Grande', 'Verdana', 'Geneva', 'Lucid', 'Arial', 'Helvetica', 'Avant Garde', sans-serif; text-anchor: end" x="1031.424156" y="479.028098" transform="rotate(-0 1031.424156 479.028098)">0.04</text>
     </g>
    </g>
    <g id="ytick_10">
     <g id="line2d_25">
      <g>
       <use xlink:href="#m72f3b0efde" x="1038.424156" y="424.46449" style="stroke: #000000; stroke-width: 0.8"/>
      </g>
     </g>
     <g id="text_24">
      <text style="font: 20px 'DejaVu Sans', 'Bitstream Vera Sans', 'Computer Modern Sans Serif', 'Lucida Grande', 'Verdana', 'Geneva', 'Lucid', 'Arial', 'Helvetica', 'Avant Garde', sans-serif; text-anchor: end" x="1031.424156" y="432.062928" transform="rotate(-0 1031.424156 432.062928)">0.06</text>
     </g>
    </g>
    <g id="ytick_11">
     <g id="line2d_26">
      <g>
       <use xlink:href="#m72f3b0efde" x="1038.424156" y="377.499321" style="stroke: #000000; stroke-width: 0.8"/>
      </g>
     </g>
     <g id="text_25">
      <text style="font: 20px 'DejaVu Sans', 'Bitstream Vera Sans', 'Computer Modern Sans Serif', 'Lucida Grande', 'Verdana', 'Geneva', 'Lucid', 'Arial', 'Helvetica', 'Avant Garde', sans-serif; text-anchor: end" x="1031.424156" y="385.097758" transform="rotate(-0 1031.424156 385.097758)">0.08</text>
     </g>
    </g>
    <g id="ytick_12">
     <g id="line2d_27">
      <g>
       <use xlink:href="#m72f3b0efde" x="1038.424156" y="330.534151" style="stroke: #000000; stroke-width: 0.8"/>
      </g>
     </g>
     <g id="text_26">
      <text style="font: 20px 'DejaVu Sans', 'Bitstream Vera Sans', 'Computer Modern Sans Serif', 'Lucida Grande', 'Verdana', 'Geneva', 'Lucid', 'Arial', 'Helvetica', 'Avant Garde', sans-serif; text-anchor: end" x="1031.424156" y="338.132588" transform="rotate(-0 1031.424156 338.132588)">0.10</text>
     </g>
    </g>
    <g id="ytick_13">
     <g id="line2d_28">
      <g>
       <use xlink:href="#m72f3b0efde" x="1038.424156" y="283.568981" style="stroke: #000000; stroke-width: 0.8"/>
      </g>
     </g>
     <g id="text_27">
      <text style="font: 20px 'DejaVu Sans', 'Bitstream Vera Sans', 'Computer Modern Sans Serif', 'Lucida Grande', 'Verdana', 'Geneva', 'Lucid', 'Arial', 'Helvetica', 'Avant Garde', sans-serif; text-anchor: end" x="1031.424156" y="291.167418" transform="rotate(-0 1031.424156 291.167418)">0.12</text>
     </g>
    </g>
    <g id="ytick_14">
     <g id="line2d_29">
      <g>
       <use xlink:href="#m72f3b0efde" x="1038.424156" y="236.603811" style="stroke: #000000; stroke-width: 0.8"/>
      </g>
     </g>
     <g id="text_28">
      <text style="font: 20px 'DejaVu Sans', 'Bitstream Vera Sans', 'Computer Modern Sans Serif', 'Lucida Grande', 'Verdana', 'Geneva', 'Lucid', 'Arial', 'Helvetica', 'Avant Garde', sans-serif; text-anchor: end" x="1031.424156" y="244.202249" transform="rotate(-0 1031.424156 244.202249)">0.14</text>
     </g>
    </g>
    <g id="ytick_15">
     <g id="line2d_30">
      <g>
       <use xlink:href="#m72f3b0efde" x="1038.424156" y="189.638641" style="stroke: #000000; stroke-width: 0.8"/>
      </g>
     </g>
     <g id="text_29">
      <text style="font: 20px 'DejaVu Sans', 'Bitstream Vera Sans', 'Computer Modern Sans Serif', 'Lucida Grande', 'Verdana', 'Geneva', 'Lucid', 'Arial', 'Helvetica', 'Avant Garde', sans-serif; text-anchor: end" x="1031.424156" y="197.237079" transform="rotate(-0 1031.424156 197.237079)">0.16</text>
     </g>
    </g>
    <g id="text_30">
     <text style="font: 25px 'DejaVu Sans', 'Bitstream Vera Sans', 'Computer Modern Sans Serif', 'Lucida Grande', 'Verdana', 'Geneva', 'Lucid', 'Arial', 'Helvetica', 'Avant Garde', sans-serif; text-anchor: middle" x="977.693687" y="373.972" transform="rotate(-90 977.693687 373.972)">Amplitude</text>
    </g>
   </g>
   <g id="patch_10">
    <path d="M 1038.424156 565.36 
L 1038.424156 182.584 
" style="fill: none; stroke: #000000; stroke-width: 0.8; stroke-linejoin: miter; stroke-linecap: square"/>
   </g>
   <g id="patch_11">
    <path d="M 1219.459091 565.36 
L 1219.459091 182.584 
" style="fill: none; stroke: #000000; stroke-width: 0.8; stroke-linejoin: miter; stroke-linecap: square"/>
   </g>
   <g id="patch_12">
    <path d="M 1038.424156 565.36 
L 1219.459091 565.36 
" style="fill: none; stroke: #000000; stroke-width: 0.8; stroke-linejoin: miter; stroke-linecap: square"/>
   </g>
   <g id="patch_13">
    <path d="M 1038.424156 182.584 
L 1219.459091 182.584 
" style="fill: none; stroke: #000000; stroke-width: 0.8; stroke-linejoin: miter; stroke-linecap: square"/>
   </g>
   <g id="text_31">
    <g id="patch_14">
     <path d="M 1210.407344 316.66155 
L 1483.407344 316.66155 
Q 1489.407344 316.66155 1489.407344 310.66155 
L 1489.407344 201.7228 
Q 1489.407344 195.7228 1483.407344 195.7228 
L 1210.407344 195.7228 
Q 1204.407344 195.7228 1204.407344 201.7228 
L 1204.407344 310.66155 
Q 1204.407344 316.66155 1210.407344 316.66155 
z
" style="fill: #f5deb3; stroke: #000000; stroke-linejoin: miter"/>
    </g>
    <text style="font: 20px 'DejaVu Sans', 'Bitstream Vera Sans', 'Computer Modern Sans Serif', 'Lucida Grande', 'Verdana', 'Geneva', 'Lucid', 'Arial', 'Helvetica', 'Avant Garde', sans-serif" transform="translate(1210.407344 216.919675)">2nd Harmonic: 0.1552</text>
    <text style="font: 20px 'DejaVu Sans', 'Bitstream Vera Sans', 'Computer Modern Sans Serif', 'Lucida Grande', 'Verdana', 'Geneva', 'Lucid', 'Arial', 'Helvetica', 'Avant Garde', sans-serif" transform="translate(1210.407344 239.3153)">4th Harmonic: 0.0977</text>
    <text style="font: 20px 'DejaVu Sans', 'Bitstream Vera Sans', 'Computer Modern Sans Serif', 'Lucida Grande', 'Verdana', 'Geneva', 'Lucid', 'Arial', 'Helvetica', 'Avant Garde', sans-serif" transform="translate(1210.407344 261.710925)">Ratio (H4/H2): 0.63</text>
    <text style="font: 20px 'DejaVu Sans', 'Bitstream Vera Sans', 'Computer Modern Sans Serif', 'Lucida Grande', 'Verdana', 'Geneva', 'Lucid', 'Arial', 'Helvetica', 'Avant Garde', sans-serif" transform="translate(1210.407344 284.10655)">Orientation peaks: 2</text>
    <text style="font: 20px 'DejaVu Sans', 'Bitstream Vera Sans', 'Computer Modern Sans Serif', 'Lucida Grande', 'Verdana', 'Geneva', 'Lucid', 'Arial', 'Helvetica', 'Avant Garde', sans-serif" transform="translate(1210.407344 306.502175)">Angle between peaks: 73.0</text>
   </g>
   <g id="text_32">
    <text style="font: 30px 'DejaVu Sans', 'Bitstream Vera Sans', 'Computer Modern Sans Serif', 'Lucida Grande', 'Verdana', 'Geneva', 'Lucid', 'Arial', 'Helvetica', 'Avant Garde', sans-serif" transform="translate(1025.333811 48.990563)">FFT Spectrum</text>
    <text style="font: 30px 'DejaVu Sans', 'Bitstream Vera Sans', 'Computer Modern Sans Serif', 'Lucida Grande', 'Verdana', 'Geneva', 'Lucid', 'Arial', 'Helvetica', 'Avant Garde', sans-serif" transform="translate(983.467405 82.584)">H4:H2 Ratio = 0.63</text>
   </g>
  </g>
 </g>
 <defs>
  <clipPath id="p0868e284d1">
   <path d="M 761.492805 469.666 
C 761.492805 418.926214 741.315005 370.212694 705.436558 334.334247 
C 669.558111 298.4558 620.844591 278.278 570.104805 278.278 
C 519.365019 278.278 470.6515 298.4558 434.773053 334.334247 
C 398.894606 370.212694 378.716805 418.926214 378.716805 469.666 
L 570.104805 469.666 
C 570.104805 469.666 570.104805 469.666 570.104805 469.666 
C 570.104805 469.666 570.104805 469.666 570.104805 469.666 
C 570.104805 469.666 570.104805 469.666 570.104805 469.666 
C 570.104805 469.666 570.104805 469.666 570.104805 469.666 
z
"/>
  </clipPath>
  <clipPath id="p092a7f0665">
   <rect x="1038.424156" y="182.584" width="181.034935" height="382.776"/>
  </clipPath>
 </defs>
</svg>
