<?xml version="1.0" encoding="utf-8" standalone="no"?>
<!DOCTYPE svg PUBLIC "-//W3C//DTD SVG 1.1//EN"
  "http://www.w3.org/Graphics/SVG/1.1/DTD/svg11.dtd">
<svg xmlns:xlink="http://www.w3.org/1999/xlink" width="1512pt" height="648pt" viewBox="0 0 1512 648" xmlns="http://www.w3.org/2000/svg" version="1.1">
 <metadata>
  <rdf:RDF xmlns:dc="http://purl.org/dc/elements/1.1/" xmlns:cc="http://creativecommons.org/ns#" xmlns:rdf="http://www.w3.org/1999/02/22-rdf-syntax-ns#">
   <cc:Work>
    <dc:type rdf:resource="http://purl.org/dc/dcmitype/StillImage"/>
    <dc:date>2025-04-19T18:37:09.267402</dc:date>
    <dc:format>image/svg+xml</dc:format>
    <dc:creator>
     <cc:Agent>
      <dc:title>Matplotlib v3.9.2, https://matplotlib.org/</dc:title>
     </cc:Agent>
    </dc:creator>
   </cc:Work>
  </rdf:RDF>
 </metadata>
 <defs>
  <style type="text/css">*{stroke-linejoin: round; stroke-linecap: butt}</style>
 </defs>
 <g id="figure_1">
  <g id="patch_1">
   <path d="M 0 648 
L 1512 648 
L 1512 0 
L 0 0 
z
" style="fill: #ffffff"/>
  </g>
  <g id="axes_1">
   <g id="patch_2">
    <path d="M 761.492805 469.666 
C 761.492805 418.926214 741.315005 370.212694 705.436558 334.334247 
C 669.558111 298.4558 620.844591 278.278 570.104805 278.278 
C 519.365019 278.278 470.6515 298.4558 434.773053 334.334247 
C 398.894606 370.212694 378.716805 418.926214 378.716805 469.666 
L 570.104805 469.666 
C 570.104805 469.666 570.104805 469.666 570.104805 469.666 
C 570.104805 469.666 570.104805 469.666 570.104805 469.666 
C 570.104805 469.666 570.104805 469.666 570.104805 469.666 
C 570.104805 469.666 570.104805 469.666 570.104805 469.666 
z
" style="fill: #ffffff"/>
   </g>
   <g id="matplotlib.axis_1">
    <g id="xtick_1">
     <g id="line2d_1">
      <path d="M 570.104805 469.666 
L 761.492805 469.666 
" clip-path="url(#p03182594c5)" style="fill: none; stroke: #b0b0b0; stroke-width: 0.8; stroke-linecap: square"/>
     </g>
     <g id="text_1">
      <text style="font: 20px 'DejaVu Sans', 'Bitstream Vera Sans', 'Computer Modern Sans Serif', 'Lucida Grande', 'Verdana', 'Geneva', 'Lucid', 'Arial', 'Helvetica', 'Avant Garde', sans-serif; text-anchor: middle" x="775.492805" y="475.18475" transform="rotate(-0 775.492805 475.18475)">0°</text>
     </g>
    </g>
    <g id="xtick_2">
     <g id="line2d_2">
      <path d="M 570.104805 469.666 
L 735.851675 373.972 
" clip-path="url(#p03182594c5)" style="fill: none; stroke: #b0b0b0; stroke-width: 0.8; stroke-linecap: square"/>
     </g>
     <g id="text_2">
      <text style="font: 20px 'DejaVu Sans', 'Bitstream Vera Sans', 'Computer Modern Sans Serif', 'Lucida Grande', 'Verdana', 'Geneva', 'Lucid', 'Arial', 'Helvetica', 'Avant Garde', sans-serif; text-anchor: middle" x="747.976031" y="372.49075" transform="rotate(-0 747.976031 372.49075)">30°</text>
     </g>
    </g>
    <g id="xtick_3">
     <g id="line2d_3">
      <path d="M 570.104805 469.666 
L 665.798805 303.91913 
" clip-path="url(#p03182594c5)" style="fill: none; stroke: #b0b0b0; stroke-width: 0.8; stroke-linecap: square"/>
     </g>
     <g id="text_3">
      <text style="font: 20px 'DejaVu Sans', 'Bitstream Vera Sans', 'Computer Modern Sans Serif', 'Lucida Grande', 'Verdana', 'Geneva', 'Lucid', 'Arial', 'Helvetica', 'Avant Garde', sans-serif; text-anchor: middle" x="672.798805" y="297.313524" transform="rotate(-0 672.798805 297.313524)">60°</text>
     </g>
    </g>
    <g id="xtick_4">
     <g id="line2d_4">
      <path d="M 570.104805 469.666 
L 570.104805 278.278 
" clip-path="url(#p03182594c5)" style="fill: none; stroke: #b0b0b0; stroke-width: 0.8; stroke-linecap: square"/>
     </g>
     <g id="text_4">
      <text style="font: 20px 'DejaVu Sans', 'Bitstream Vera Sans', 'Computer Modern Sans Serif', 'Lucida Grande', 'Verdana', 'Geneva', 'Lucid', 'Arial', 'Helvetica', 'Avant Garde', sans-serif; text-anchor: middle" x="570.104805" y="269.79675" transform="rotate(-0 570.104805 269.79675)">90°</text>
     </g>
    </g>
    <g id="xtick_5">
     <g id="line2d_5">
      <path d="M 570.104805 469.666 
L 474.410805 303.91913 
" clip-path="url(#p03182594c5)" style="fill: none; stroke: #b0b0b0; stroke-width: 0.8; stroke-linecap: square"/>
     </g>
     <g id="text_5">
      <text style="font: 20px 'DejaVu Sans', 'Bitstream Vera Sans', 'Computer Modern Sans Serif', 'Lucida Grande', 'Verdana', 'Geneva', 'Lucid', 'Arial', 'Helvetica', 'Avant Garde', sans-serif; text-anchor: middle" x="467.410805" y="297.313524" transform="rotate(-0 467.410805 297.313524)">120°</text>
     </g>
    </g>
    <g id="xtick_6">
     <g id="line2d_6">
      <path d="M 570.104805 469.666 
L 404.357935 373.972 
" clip-path="url(#p03182594c5)" style="fill: none; stroke: #b0b0b0; stroke-width: 0.8; stroke-linecap: square"/>
     </g>
     <g id="text_6">
      <text style="font: 20px 'DejaVu Sans', 'Bitstream Vera Sans', 'Computer Modern Sans Serif', 'Lucida Grande', 'Verdana', 'Geneva', 'Lucid', 'Arial', 'Helvetica', 'Avant Garde', sans-serif; text-anchor: middle" x="392.23358" y="372.49075" transform="rotate(-0 392.23358 372.49075)">150°</text>
     </g>
    </g>
    <g id="xtick_7">
     <g id="line2d_7">
      <path d="M 570.104805 469.666 
L 378.716805 469.666 
" clip-path="url(#p03182594c5)" style="fill: none; stroke: #b0b0b0; stroke-width: 0.8; stroke-linecap: square"/>
     </g>
     <g id="text_7">
      <text style="font: 20px 'DejaVu Sans', 'Bitstream Vera Sans', 'Computer Modern Sans Serif', 'Lucida Grande', 'Verdana', 'Geneva', 'Lucid', 'Arial', 'Helvetica', 'Avant Garde', sans-serif; text-anchor: middle" x="364.716805" y="475.18475" transform="rotate(-0 364.716805 475.18475)">180°</text>
     </g>
    </g>
   </g>
   <g id="matplotlib.axis_2">
    <g id="ytick_1">
     <g id="line2d_8">
      <path d="M 570.104805 469.666 
C 570.104805 469.666 570.104805 469.666 570.104805 469.666 
C 570.104805 469.666 570.104805 469.666 570.104805 469.666 
C 570.104805 469.666 570.104805 469.666 570.104805 469.666 
C 570.104805 469.666 570.104805 469.666 570.104805 469.666 
" clip-path="url(#p03182594c5)" style="fill: none; stroke: #b0b0b0; stroke-width: 0.8; stroke-linecap: square"/>
     </g>
     <g id="text_8">
      <text style="font: 20px 'DejaVu Sans', 'Bitstream Vera Sans', 'Computer Modern Sans Serif', 'Lucida Grande', 'Verdana', 'Geneva', 'Lucid', 'Arial', 'Helvetica', 'Avant Garde', sans-serif; text-anchor: middle" x="570.104805" y="491.862875" transform="rotate(-0 570.104805 491.862875)">0.0</text>
     </g>
    </g>
    <g id="ytick_2">
     <g id="line2d_9">
      <path d="M 606.559662 469.666 
C 606.559662 460.001279 602.716272 450.722513 595.882282 443.888523 
C 589.048292 437.054533 579.769526 433.211143 570.104805 433.211143 
C 560.440084 433.211143 551.161318 437.054533 544.327329 443.888523 
C 537.493339 450.722513 533.649948 460.001279 533.649948 469.666 
" clip-path="url(#p03182594c5)" style="fill: none; stroke: #b0b0b0; stroke-width: 0.8; stroke-linecap: square"/>
     </g>
     <g id="text_9">
      <text style="font: 20px 'DejaVu Sans', 'Bitstream Vera Sans', 'Computer Modern Sans Serif', 'Lucida Grande', 'Verdana', 'Geneva', 'Lucid', 'Arial', 'Helvetica', 'Avant Garde', sans-serif; text-anchor: middle" x="606.559662" y="491.862875" transform="rotate(-0 606.559662 491.862875)">0.2</text>
     </g>
    </g>
    <g id="ytick_3">
     <g id="line2d_10">
      <path d="M 643.014519 469.666 
C 643.014519 450.336558 635.327738 431.779026 621.659759 418.111047 
C 607.991779 404.443067 589.434248 396.756286 570.104805 396.756286 
C 550.775363 396.756286 532.217832 404.443067 518.549852 418.111047 
C 504.881872 431.779026 497.195091 450.336558 497.195091 469.666 
" clip-path="url(#p03182594c5)" style="fill: none; stroke: #b0b0b0; stroke-width: 0.8; stroke-linecap: square"/>
     </g>
     <g id="text_10">
      <text style="font: 20px 'DejaVu Sans', 'Bitstream Vera Sans', 'Computer Modern Sans Serif', 'Lucida Grande', 'Verdana', 'Geneva', 'Lucid', 'Arial', 'Helvetica', 'Avant Garde', sans-serif; text-anchor: middle" x="643.014519" y="491.862875" transform="rotate(-0 643.014519 491.862875)">0.4</text>
     </g>
    </g>
    <g id="ytick_4">
     <g id="line2d_11">
      <path d="M 679.469377 469.666 
C 679.469377 440.671836 667.939205 412.83554 647.437235 392.33357 
C 626.935266 371.8316 599.098969 360.301429 570.104805 360.301429 
C 541.110642 360.301429 513.274345 371.8316 492.772375 392.33357 
C 472.270405 412.83554 460.740234 440.671836 460.740234 469.666 
" clip-path="url(#p03182594c5)" style="fill: none; stroke: #b0b0b0; stroke-width: 0.8; stroke-linecap: square"/>
     </g>
     <g id="text_11">
      <text style="font: 20px 'DejaVu Sans', 'Bitstream Vera Sans', 'Computer Modern Sans Serif', 'Lucida Grande', 'Verdana', 'Geneva', 'Lucid', 'Arial', 'Helvetica', 'Avant Garde', sans-serif; text-anchor: middle" x="679.469377" y="491.862875" transform="rotate(-0 679.469377 491.862875)">0.6</text>
     </g>
    </g>
    <g id="ytick_5">
     <g id="line2d_12">
      <path d="M 715.924234 469.666 
C 715.924234 431.007115 700.550672 393.892053 673.214712 366.556093 
C 645.878752 339.220134 608.76369 323.846571 570.104805 323.846571 
C 531.44592 323.846571 494.330858 339.220134 466.994898 366.556093 
C 439.658939 393.892053 424.285377 431.007115 424.285377 469.666 
" clip-path="url(#p03182594c5)" style="fill: none; stroke: #b0b0b0; stroke-width: 0.8; stroke-linecap: square"/>
     </g>
     <g id="text_12">
      <text style="font: 20px 'DejaVu Sans', 'Bitstream Vera Sans', 'Computer Modern Sans Serif', 'Lucida Grande', 'Verdana', 'Geneva', 'Lucid', 'Arial', 'Helvetica', 'Avant Garde', sans-serif; text-anchor: middle" x="715.924234" y="491.862875" transform="rotate(-0 715.924234 491.862875)">0.8</text>
     </g>
    </g>
    <g id="ytick_6">
     <g id="line2d_13">
      <path d="M 752.379091 469.666 
C 752.379091 421.342394 733.162138 374.948566 698.992189 340.778617 
C 664.822239 306.608667 618.428411 287.391714 570.104805 287.391714 
C 521.781199 287.391714 475.387371 306.608667 441.217422 340.778617 
C 407.047472 374.948566 387.830519 421.342394 387.830519 469.666 
" clip-path="url(#p03182594c5)" style="fill: none; stroke: #b0b0b0; stroke-width: 0.8; stroke-linecap: square"/>
     </g>
     <g id="text_13">
      <text style="font: 20px 'DejaVu Sans', 'Bitstream Vera Sans', 'Computer Modern Sans Serif', 'Lucida Grande', 'Verdana', 'Geneva', 'Lucid', 'Arial', 'Helvetica', 'Avant Garde', sans-serif; text-anchor: middle" x="752.379091" y="491.862875" transform="rotate(-0 752.379091 491.862875)">1.0</text>
     </g>
    </g>
   </g>
   <g id="line2d_14">
    <path d="M 684.383538 468.668705 
L 685.115612 466.654336 
L 686.155015 464.599138 
L 674.803813 463.262334 
L 667.865899 461.972035 
L 668.327624 460.208218 
L 663.646897 459.008225 
L 658.680316 458.004813 
L 663.449192 455.715588 
L 671.968377 452.619884 
L 659.773319 453.046923 
L 652.23137 452.957162 
L 657.904692 450.201234 
L 661.593958 447.701398 
L 645.896817 450.064853 
L 641.903276 449.754522 
L 641.040456 448.653903 
L 634.489278 449.365654 
L 617.956358 452.720877 
L 606.895378 455.910568 
L 597.547473 458.856046 
L 595.147377 459.293027 
L 594.232208 459.175107 
L 593.998904 458.776832 
L 594.530611 458.015488 
L 597.102441 456.205475 
L 597.718857 455.291035 
L 586.002218 460.671677 
L 582.241965 462.516666 
L 582.17141 462.271575 
L 581.097741 462.662727 
L 575.136868 466.076664 
L 572.426259 467.819432 
L 572.371512 467.730049 
L 574.134036 465.97389 
L 570.104805 469.666 
L 570.708313 469.030035 
L 571.955346 467.499295 
L 574.85111 462.495116 
L 575.039286 461.920417 
L 574.723935 462.128266 
L 574.780796 461.727743 
L 574.627151 461.672781 
L 574.703106 461.196984 
L 574.54448 461.137464 
L 574.6362 460.577428 
L 575.904898 457.505853 
L 582.284676 442.939713 
L 578.754475 449.77312 
L 577.665053 451.413948 
L 577.532799 450.808938 
L 576.255858 453.214263 
L 575.77269 453.660386 
L 575.673317 453.023474 
L 575.877633 450.17726 
L 576.545835 444.760384 
L 575.941338 445.355091 
L 575.832434 443.830336 
L 576.122085 440.090127 
L 575.194764 439.249607 
L 574.802459 438.233264 
L 574.736665 434.483529 
L 574.269162 433.115912 
L 573.798004 431.310666 
L 573.422691 427.508258 
L 573.173944 419.486027 
L 572.252142 420.483893 
L 571.475517 417.320636 
L 570.579608 415.259037 
L 568.084789 392.524694 
L 566.528459 387.754216 
L 565.432185 393.269343 
L 563.811254 389.698853 
L 562.936891 395.224361 
L 561.794288 396.725527 
L 561.953036 407.747169 
L 561.49136 412.032092 
L 560.524203 412.41458 
L 558.610454 407.648032 
L 556.163537 401.142476 
L 549.733929 377.778914 
L 548.989587 381.714788 
L 546.336471 377.76067 
L 544.64045 377.8445 
L 545.548499 386.7653 
L 545.772951 392.495217 
L 545.229648 395.321991 
L 543.306732 393.990574 
L 537.660818 382.890615 
L 536.437836 384.19742 
L 527.855212 367.666458 
L 520.566579 355.735881 
L 536.766854 399.771531 
L 538.965321 407.209856 
L 542.991077 417.581013 
L 539.234485 412.809943 
L 535.750087 408.944242 
L 525.977693 394.753029 
L 523.85243 394.188984 
L 530.499413 407.497987 
L 532.311798 412.566995 
L 526.09028 405.624468 
L 523.104025 403.773336 
L 524.10806 407.504967 
L 528.447521 415.377171 
L 519.001267 405.420048 
L 520.824894 409.884688 
L 506.835286 395.586911 
L 525.376833 419.110224 
L 527.764005 423.459125 
L 526.873507 424.109717 
L 521.978014 420.691821 
L 514.986707 415.501595 
L 527.13532 430.291722 
L 533.683196 437.442883 
L 536.104203 440.626742 
L 543.207725 447.493758 
L 542.876323 448.007487 
L 540.172335 446.698008 
L 539.053654 446.689357 
L 538.782295 447.323871 
L 539.842231 448.867109 
L 539.794567 449.604091 
L 538.765078 449.700392 
L 540.090918 451.273466 
L 540.07037 451.974365 
L 537.81398 451.39673 
L 537.101967 451.746921 
L 535.666629 451.73862 
L 531.63203 450.484182 
L 525.12413 448.211319 
L 523.872317 448.596641 
L 530.754559 452.556026 
L 530.043441 453.072039 
L 527.237958 452.7803 
L 523.56911 452.267016 
L 518.162317 451.2722 
L 504.525491 447.723468 
L 487.464129 443.609495 
L 478.587588 442.557365 
L 465.441532 440.640305 
L 445.83137 437.526704 
L 476.406216 447.170959 
L 480.314816 449.760039 
L 472.778633 449.864767 
L 459.876182 449.236332 
L 452.431339 449.974215 
L 439.019457 450.075164 
L 416.430495 449.434393 
L 389.002205 449.031965 
L 406.036481 453.868017 
L 414.50428 457.419973 
L 421.001516 460.546452 
L 395.485699 462.041965 
L 409.234288 465.453457 
L 425.272841 468.402071 
L 455.826073 470.663295 
L 455.093998 472.677664 
L 454.054595 474.732862 
L 465.405797 476.069666 
L 472.343712 477.359965 
L 471.881987 479.123782 
L 476.562713 480.323775 
L 481.529294 481.327187 
L 476.760418 483.616412 
L 468.241234 486.712116 
L 480.436292 486.285077 
L 487.978241 486.374838 
L 482.304919 489.130766 
L 478.615652 491.630602 
L 494.312793 489.267147 
L 498.306335 489.577478 
L 499.169154 490.678097 
L 505.720333 489.966346 
L 522.253253 486.611123 
L 533.314232 483.421432 
L 542.662138 480.475954 
L 545.062234 480.038973 
L 545.977402 480.156893 
L 546.210707 480.555168 
L 545.679 481.316512 
L 543.107169 483.126525 
L 542.490754 484.040965 
L 554.207392 478.660323 
L 557.967645 476.815334 
L 558.038201 477.060425 
L 559.111869 476.669273 
L 565.072742 473.255336 
L 567.783351 471.512568 
L 567.838098 471.601951 
L 566.075574 473.35811 
L 570.104805 469.666 
L 569.501297 470.301965 
L 568.254264 471.832705 
L 565.3585 476.836884 
L 565.170324 477.411583 
L 565.485676 477.203734 
L 565.428815 477.604257 
L 565.582459 477.659219 
L 565.506505 478.135016 
L 565.66513 478.194536 
L 565.57341 478.754572 
L 564.304712 481.826147 
L 557.924934 496.392287 
L 561.455135 489.55888 
L 562.544558 487.918052 
L 562.676811 488.523062 
L 563.953753 486.117737 
L 564.43692 485.671614 
L 564.536294 486.308526 
L 564.331977 489.15474 
L 563.663775 494.571616 
L 564.268272 493.976909 
L 564.377176 495.501664 
L 564.087526 499.241873 
L 565.014847 500.082393 
L 565.407151 501.098736 
L 565.472945 504.848471 
L 565.940449 506.216088 
L 566.411607 508.021334 
L 566.786919 511.823742 
L 567.035667 519.845973 
L 567.957468 518.848107 
L 568.734094 522.011364 
L 569.630003 524.072963 
L 572.124821 546.807306 
L 573.681151 551.577784 
L 574.777425 546.062657 
L 576.398356 549.633147 
L 577.27272 544.107639 
L 578.415322 542.606473 
L 578.256574 531.584831 
L 578.718251 527.299908 
L 579.685407 526.91742 
L 581.599156 531.683968 
L 584.046074 538.189524 
L 590.475682 561.553086 
L 591.220023 557.617212 
L 593.87314 561.57133 
L 595.569161 561.4875 
L 594.661111 552.5667 
L 594.43666 546.836783 
L 594.979963 544.010009 
L 596.902879 545.341426 
L 602.548792 556.441385 
L 603.771774 555.13458 
L 612.354399 571.665542 
L 619.643031 583.596119 
L 603.442757 539.560469 
L 601.24429 532.122144 
L 597.218533 521.750987 
L 600.975126 526.522057 
L 604.459523 530.387758 
L 614.231917 544.578971 
L 616.35718 545.143016 
L 609.710197 531.834013 
L 607.897812 526.765005 
L 614.119331 533.707532 
L 617.105585 535.558664 
L 616.10155 531.827033 
L 611.762089 523.954829 
L 621.208343 533.911952 
L 619.384716 529.447312 
L 633.374325 543.745089 
L 614.832777 520.221776 
L 612.445605 515.872875 
L 613.336104 515.222283 
L 618.231597 518.640179 
L 625.222904 523.830405 
L 613.07429 509.040278 
L 606.526414 501.889117 
L 604.105407 498.705258 
L 597.001886 491.838242 
L 597.333287 491.324513 
L 600.037275 492.633992 
L 601.155956 492.642643 
L 601.427315 492.008129 
L 600.36738 490.464891 
L 600.415043 489.727909 
L 601.444533 489.631608 
L 600.118693 488.058534 
L 600.139241 487.357635 
L 602.39563 487.93527 
L 603.107644 487.585079 
L 604.542981 487.59338 
L 608.577581 488.847818 
L 615.08548 491.120681 
L 616.337293 490.735359 
L 609.455052 486.775974 
L 610.16617 486.259961 
L 612.971652 486.5517 
L 616.640501 487.064984 
L 622.047293 488.0598 
L 635.68412 491.608532 
L 652.745481 495.722505 
L 661.622022 496.774635 
L 674.768079 498.691695 
L 694.378241 501.805296 
L 663.803395 492.161041 
L 659.894794 489.571961 
L 667.430977 489.467233 
L 680.333428 490.095668 
L 687.778272 489.357785 
L 701.190153 489.256836 
L 723.779115 489.897607 
L 751.207405 490.300035 
L 734.17313 485.463983 
L 725.70533 481.912027 
L 719.208094 478.785548 
L 744.723911 477.290035 
L 730.975322 473.878543 
L 714.93677 470.929929 
L 714.93677 470.929929 
" clip-path="url(#p03182594c5)" style="fill: none; stroke: #1f77b4; stroke-opacity: 0.6; stroke-width: 1.5; stroke-linecap: square"/>
   </g>
   <g id="line2d_15">
    <path d="M 700.546831 468.52765 
L 698.181795 466.312186 
L 695.098475 464.208659 
L 691.613381 462.234217 
L 687.685232 460.41222 
L 683.340494 458.762643 
L 678.771661 457.284976 
L 674.226189 455.95816 
L 669.596016 454.796939 
L 660.868431 452.843956 
L 655.557191 452.280516 
L 649.778282 452.002815 
L 643.904533 451.948253 
L 638.177574 452.061185 
L 632.519498 452.356874 
L 615.408489 453.623124 
L 611.762781 454.090721 
L 608.186229 454.665328 
L 603.127719 455.307228 
L 600.516462 455.80661 
L 594.413233 457.546265 
L 591.766907 458.389424 
L 586.407539 460.442357 
L 581.590586 462.627504 
L 576.231605 465.455167 
L 572.148517 467.981294 
L 571.358104 468.557175 
L 571.433237 468.405365 
L 571.654866 467.974405 
L 571.964601 467.409888 
L 573.100868 465.617053 
L 574.094283 463.638557 
L 575.008765 461.340728 
L 575.375096 459.959331 
L 575.895682 457.525174 
L 575.985968 456.140252 
L 576.227317 453.290598 
L 577.077041 446.128128 
L 577.302855 441.833205 
L 577.249682 439.905446 
L 576.143202 433.581962 
L 575.024257 426.488523 
L 574.494698 424.075218 
L 573.146381 419.936668 
L 572.345228 418.351876 
L 571.482683 417.046981 
L 570.584312 414.719985 
L 569.596449 411.414142 
L 567.279952 404.96623 
L 565.973443 402.118826 
L 564.601074 399.734463 
L 563.210798 398.068995 
L 561.777735 396.580246 
L 558.66224 393.102008 
L 557.082637 391.848592 
L 555.491058 390.817276 
L 552.217997 388.983822 
L 549.051489 388.258867 
L 547.646289 388.683208 
L 544.433137 388.245871 
L 542.89571 388.346585 
L 541.489264 388.858205 
L 540.223658 389.745242 
L 536.123482 391.514308 
L 534.819649 392.23979 
L 530.600288 393.778529 
L 528.288651 395.756198 
L 527.331818 397.051877 
L 526.527668 398.554574 
L 526.075203 400.553369 
L 525.864811 402.82666 
L 525.87913 405.317244 
L 526.842743 417.184922 
L 527.530605 421.54462 
L 528.087106 423.811728 
L 529.660638 428.509717 
L 530.3505 430.599553 
L 532.005483 434.754403 
L 532.271921 436.194291 
L 533.111913 438.071085 
L 534.490415 440.307763 
L 536.67753 445.822557 
L 536.63853 446.665266 
L 536.48513 447.413622 
L 536.815262 448.458222 
L 537.462663 449.66287 
L 536.887537 450.099534 
L 535.49064 450.082247 
L 533.540993 449.81347 
L 532.022381 449.841545 
L 525.73649 448.503399 
L 520.463928 447.043349 
L 515.762124 446.03713 
L 505.939466 444.390601 
L 500.394877 443.602526 
L 494.542988 442.908157 
L 488.820614 442.46869 
L 483.228118 442.273886 
L 478.163172 442.431648 
L 473.594035 442.901195 
L 469.156597 443.559018 
L 464.806521 444.386119 
L 460.864453 445.447997 
L 453.640401 448.080599 
L 450.330698 449.622688 
L 447.472257 451.338443 
L 444.886635 453.180715 
L 442.618893 455.140815 
L 440.775669 457.213021 
L 439.198177 459.363425 
L 438.050018 461.589183 
L 437.560877 463.879007 
L 437.684099 466.198442 
L 438.327707 468.515999 
L 439.662779 470.80435 
L 442.027815 473.019814 
L 445.111135 475.123341 
L 448.596229 477.097783 
L 452.524379 478.91978 
L 456.869116 480.569357 
L 461.437949 482.047024 
L 465.983421 483.37384 
L 470.613595 484.535061 
L 479.34118 486.488044 
L 484.65242 487.051484 
L 490.431329 487.329185 
L 496.305077 487.383747 
L 502.032037 487.270815 
L 507.690113 486.975126 
L 524.801121 485.708876 
L 528.446829 485.241279 
L 532.023382 484.666672 
L 537.081891 484.024772 
L 539.693148 483.52539 
L 545.796377 481.785735 
L 548.442703 480.942576 
L 553.802071 478.889643 
L 558.619024 476.704496 
L 563.978005 473.876833 
L 568.061094 471.350706 
L 568.851506 470.774825 
L 568.776373 470.926635 
L 568.554744 471.357595 
L 568.24501 471.922112 
L 567.108742 473.714947 
L 566.115328 475.693443 
L 565.200845 477.991272 
L 564.834514 479.372669 
L 564.313928 481.806826 
L 564.223643 483.191748 
L 563.982293 486.041402 
L 563.13257 493.203872 
L 562.906755 497.498795 
L 562.959928 499.426554 
L 564.066408 505.750038 
L 565.185353 512.843477 
L 565.714912 515.256782 
L 567.063229 519.395332 
L 567.864382 520.980124 
L 568.726928 522.285019 
L 569.625299 524.612015 
L 570.613161 527.917858 
L 572.929658 534.36577 
L 574.236167 537.213174 
L 575.608537 539.597537 
L 576.998813 541.263005 
L 578.431875 542.751754 
L 581.54737 546.229992 
L 583.126973 547.483408 
L 584.718552 548.514724 
L 587.991614 550.348178 
L 591.158121 551.073133 
L 592.563321 550.648792 
L 595.776473 551.086129 
L 597.313901 550.985415 
L 598.720346 550.473795 
L 599.985952 549.586758 
L 604.086128 547.817692 
L 605.389962 547.09221 
L 609.609322 545.553471 
L 611.920959 543.575802 
L 612.877792 542.280123 
L 613.681943 540.777426 
L 614.134407 538.778631 
L 614.344799 536.50534 
L 614.33048 534.014756 
L 613.366867 522.147078 
L 612.679005 517.78738 
L 612.122504 515.520272 
L 610.548972 510.822283 
L 609.85911 508.732447 
L 608.204128 504.577597 
L 607.93769 503.137709 
L 607.097697 501.260915 
L 605.719195 499.024237 
L 603.53208 493.509443 
L 603.571081 492.666734 
L 603.724481 491.918378 
L 603.394348 490.873778 
L 602.746947 489.66913 
L 603.322073 489.232466 
L 604.718971 489.249753 
L 606.668618 489.51853 
L 608.187229 489.490455 
L 614.47312 490.828601 
L 619.745683 492.288651 
L 624.447487 493.29487 
L 634.270144 494.941399 
L 639.814734 495.729474 
L 645.666623 496.423843 
L 651.388997 496.86331 
L 656.981493 497.058114 
L 662.046438 496.900352 
L 666.615575 496.430805 
L 671.053013 495.772982 
L 675.403089 494.945881 
L 679.345157 493.884003 
L 686.56921 491.251401 
L 689.878912 489.709312 
L 692.737353 487.993557 
L 695.322976 486.151285 
L 697.590718 484.191185 
L 699.433942 482.118979 
L 701.011433 479.968575 
L 702.159593 477.742817 
L 702.648733 475.452993 
L 702.525511 473.133558 
L 701.881904 470.816001 
L 701.881904 470.816001 
" clip-path="url(#p03182594c5)" style="fill: none; stroke: #008000; stroke-width: 1.5; stroke-linecap: square"/>
   </g>
   <g id="line2d_16">
    <defs>
     <path id="mf0316aa9f2" d="M 0 3 
C 0.795609 3 1.55874 2.683901 2.12132 2.12132 
C 2.683901 1.55874 3 0.795609 3 0 
C 3 -0.795609 2.683901 -1.55874 2.12132 -2.12132 
C 1.55874 -2.683901 0.795609 -3 0 -3 
C -0.795609 -3 -1.55874 -2.683901 -2.12132 -2.12132 
C -2.683901 -1.55874 -3 -0.795609 -3 0 
C -3 0.795609 -2.683901 1.55874 -2.12132 2.12132 
C -1.55874 2.683901 -0.795609 3 0 3 
z
" style="stroke: #ff0000"/>
    </defs>
    <g clip-path="url(#p03182594c5)">
     <use xlink:href="#mf0316aa9f2" x="542.89571" y="388.346585" style="fill: #ff0000; stroke: #ff0000"/>
     <use xlink:href="#mf0316aa9f2" x="437.560877" y="463.879007" style="fill: #ff0000; stroke: #ff0000"/>
     <use xlink:href="#mf0316aa9f2" x="597.313901" y="550.985415" style="fill: #ff0000; stroke: #ff0000"/>
     <use xlink:href="#mf0316aa9f2" x="702.648733" y="475.452993" style="fill: #ff0000; stroke: #ff0000"/>
    </g>
   </g>
   <g id="patch_3">
    <path d="M 761.492805 469.666 
C 761.492805 418.926214 741.315005 370.212694 705.436558 334.334247 
C 669.558111 298.4558 620.844591 278.278 570.104805 278.278 
C 519.365019 278.278 470.6515 298.4558 434.773053 334.334247 
C 398.894606 370.212694 378.716805 418.926214 378.716805 469.666 
" style="fill: none; stroke: #000000; stroke-width: 0.8; stroke-linejoin: miter; stroke-linecap: square"/>
   </g>
   <g id="patch_4">
    <path d="M 570.104805 469.666 
L 761.492805 469.666 
" style="fill: none; stroke: #000000; stroke-width: 0.8; stroke-linejoin: miter; stroke-linecap: square"/>
   </g>
   <g id="patch_5">
    <path d="M 570.104805 469.666 
L 378.716805 469.666 
" style="fill: none; stroke: #000000; stroke-width: 0.8; stroke-linejoin: miter; stroke-linecap: square"/>
   </g>
   <g id="text_14">
    <text style="font: 30px 'DejaVu Sans', 'Bitstream Vera Sans', 'Computer Modern Sans Serif', 'Lucida Grande', 'Verdana', 'Geneva', 'Lucid', 'Arial', 'Helvetica', 'Avant Garde', sans-serif" transform="translate(262.361055 142.156187)">w184 d28 400 exp tray 4_OJ_Distribution</text>
    <text style="font: 30px 'DejaVu Sans', 'Bitstream Vera Sans', 'Computer Modern Sans Serif', 'Lucida Grande', 'Verdana', 'Geneva', 'Lucid', 'Arial', 'Helvetica', 'Avant Garde', sans-serif" transform="translate(400.29543 176.584)">Dominant Harmonic: 2</text>
   </g>
   <g id="legend_1">
    <g id="patch_6">
     <path d="M 392.716805 555.36 
L 558.88868 555.36 
Q 562.88868 555.36 562.88868 551.36 
L 562.88868 465.29125 
Q 562.88868 461.29125 558.88868 461.29125 
L 392.716805 461.29125 
Q 388.716805 461.29125 388.716805 465.29125 
L 388.716805 551.36 
Q 388.716805 555.36 392.716805 555.36 
z
" style="fill: #ffffff; opacity: 0.5; stroke: #cccccc; stroke-linejoin: miter"/>
    </g>
    <g id="line2d_17">
     <path d="M 396.716805 477.488125 
L 416.716805 477.488125 
L 436.716805 477.488125 
" style="fill: none; stroke: #1f77b4; stroke-opacity: 0.6; stroke-width: 1.5; stroke-linecap: square"/>
    </g>
    <g id="text_15">
     <text style="font: 20px 'DejaVu Sans', 'Bitstream Vera Sans', 'Computer Modern Sans Serif', 'Lucida Grande', 'Verdana', 'Geneva', 'Lucid', 'Arial', 'Helvetica', 'Avant Garde', sans-serif; text-anchor: start" x="452.716805" y="484.488125" transform="rotate(-0 452.716805 484.488125)">Raw</text>
    </g>
    <g id="line2d_18">
     <path d="M 396.716805 506.844375 
L 416.716805 506.844375 
L 436.716805 506.844375 
" style="fill: none; stroke: #008000; stroke-width: 1.5; stroke-linecap: square"/>
    </g>
    <g id="text_16">
     <text style="font: 20px 'DejaVu Sans', 'Bitstream Vera Sans', 'Computer Modern Sans Serif', 'Lucida Grande', 'Verdana', 'Geneva', 'Lucid', 'Arial', 'Helvetica', 'Avant Garde', sans-serif; text-anchor: start" x="452.716805" y="513.844375" transform="rotate(-0 452.716805 513.844375)">Smoothed</text>
    </g>
    <g id="line2d_19">
     <g>
      <use xlink:href="#mf0316aa9f2" x="416.716805" y="536.200625" style="fill: #ff0000; stroke: #ff0000"/>
     </g>
    </g>
    <g id="text_17">
     <text style="font: 20px 'DejaVu Sans', 'Bitstream Vera Sans', 'Computer Modern Sans Serif', 'Lucida Grande', 'Verdana', 'Geneva', 'Lucid', 'Arial', 'Helvetica', 'Avant Garde', sans-serif; text-anchor: start" x="452.716805" y="543.200625" transform="rotate(-0 452.716805 543.200625)">Peaks</text>
    </g>
   </g>
  </g>
  <g id="axes_2">
   <g id="patch_7">
    <path d="M 1038.424156 565.36 
L 1219.459091 565.36 
L 1219.459091 182.584 
L 1038.424156 182.584 
z
" style="fill: #ffffff"/>
   </g>
   <g id="patch_8">
    <path d="M 1046.653017 565.36 
L 1119.798445 565.36 
L 1119.798445 200.811429 
L 1046.653017 200.811429 
z
" clip-path="url(#p88b32db8d8)" style="fill: #ffd700; fill-opacity: 0.5; stroke: #000000; stroke-linejoin: miter"/>
   </g>
   <g id="patch_9">
    <path d="M 1138.084802 565.36 
L 1211.23023 565.36 
L 1211.23023 212.309221 
L 1138.084802 212.309221 
z
" clip-path="url(#p88b32db8d8)" style="fill: #ffd700; fill-opacity: 0.5; stroke: #000000; stroke-linejoin: miter"/>
   </g>
   <g id="matplotlib.axis_3">
    <g id="xtick_8">
     <g id="line2d_20">
      <defs>
       <path id="m47775446b2" d="M 0 0 
L 0 3.5 
" style="stroke: #000000; stroke-width: 0.8"/>
      </defs>
      <g>
       <use xlink:href="#m47775446b2" x="1083.225731" y="565.36" style="stroke: #000000; stroke-width: 0.8"/>
      </g>
     </g>
     <g id="text_18">
      <text style="font: 20px 'DejaVu Sans', 'Bitstream Vera Sans', 'Computer Modern Sans Serif', 'Lucida Grande', 'Verdana', 'Geneva', 'Lucid', 'Arial', 'Helvetica', 'Avant Garde', sans-serif; text-anchor: middle" x="1083.225731" y="587.556875" transform="rotate(-0 1083.225731 587.556875)">2</text>
     </g>
    </g>
    <g id="xtick_9">
     <g id="line2d_21">
      <g>
       <use xlink:href="#m47775446b2" x="1174.657516" y="565.36" style="stroke: #000000; stroke-width: 0.8"/>
      </g>
     </g>
     <g id="text_19">
      <text style="font: 20px 'DejaVu Sans', 'Bitstream Vera Sans', 'Computer Modern Sans Serif', 'Lucida Grande', 'Verdana', 'Geneva', 'Lucid', 'Arial', 'Helvetica', 'Avant Garde', sans-serif; text-anchor: middle" x="1174.657516" y="587.556875" transform="rotate(-0 1174.657516 587.556875)">4</text>
     </g>
    </g>
    <g id="text_20">
     <text style="font: 25px 'DejaVu Sans', 'Bitstream Vera Sans', 'Computer Modern Sans Serif', 'Lucida Grande', 'Verdana', 'Geneva', 'Lucid', 'Arial', 'Helvetica', 'Avant Garde', sans-serif; text-anchor: middle" x="1128.941623" y="614.712344" transform="rotate(-0 1128.941623 614.712344)">Harmonic</text>
    </g>
   </g>
   <g id="matplotlib.axis_4">
    <g id="ytick_7">
     <g id="line2d_22">
      <defs>
       <path id="m7b10e34f3f" d="M 0 0 
L -3.5 0 
" style="stroke: #000000; stroke-width: 0.8"/>
      </defs>
      <g>
       <use xlink:href="#m7b10e34f3f" x="1038.424156" y="565.36" style="stroke: #000000; stroke-width: 0.8"/>
      </g>
     </g>
     <g id="text_21">
      <text style="font: 20px 'DejaVu Sans', 'Bitstream Vera Sans', 'Computer Modern Sans Serif', 'Lucida Grande', 'Verdana', 'Geneva', 'Lucid', 'Arial', 'Helvetica', 'Avant Garde', sans-serif; text-anchor: end" x="1031.424156" y="572.958437" transform="rotate(-0 1031.424156 572.958437)">0.00</text>
     </g>
    </g>
    <g id="ytick_8">
     <g id="line2d_23">
      <g>
       <use xlink:href="#m7b10e34f3f" x="1038.424156" y="490.671693" style="stroke: #000000; stroke-width: 0.8"/>
      </g>
     </g>
     <g id="text_22">
      <text style="font: 20px 'DejaVu Sans', 'Bitstream Vera Sans', 'Computer Modern Sans Serif', 'Lucida Grande', 'Verdana', 'Geneva', 'Lucid', 'Arial', 'Helvetica', 'Avant Garde', sans-serif; text-anchor: end" x="1031.424156" y="498.270131" transform="rotate(-0 1031.424156 498.270131)">0.02</text>
     </g>
    </g>
    <g id="ytick_9">
     <g id="line2d_24">
      <g>
       <use xlink:href="#m7b10e34f3f" x="1038.424156" y="415.983387" style="stroke: #000000; stroke-width: 0.8"/>
      </g>
     </g>
     <g id="text_23">
      <text style="font: 20px 'DejaVu Sans', 'Bitstream Vera Sans', 'Computer Modern Sans Serif', 'Lucida Grande', 'Verdana', 'Geneva', 'Lucid', 'Arial', 'Helvetica', 'Avant Garde', sans-serif; text-anchor: end" x="1031.424156" y="423.581824" transform="rotate(-0 1031.424156 423.581824)">0.04</text>
     </g>
    </g>
    <g id="ytick_10">
     <g id="line2d_25">
      <g>
       <use xlink:href="#m7b10e34f3f" x="1038.424156" y="341.29508" style="stroke: #000000; stroke-width: 0.8"/>
      </g>
     </g>
     <g id="text_24">
      <text style="font: 20px 'DejaVu Sans', 'Bitstream Vera Sans', 'Computer Modern Sans Serif', 'Lucida Grande', 'Verdana', 'Geneva', 'Lucid', 'Arial', 'Helvetica', 'Avant Garde', sans-serif; text-anchor: end" x="1031.424156" y="348.893518" transform="rotate(-0 1031.424156 348.893518)">0.06</text>
     </g>
    </g>
    <g id="ytick_11">
     <g id="line2d_26">
      <g>
       <use xlink:href="#m7b10e34f3f" x="1038.424156" y="266.606774" style="stroke: #000000; stroke-width: 0.8"/>
      </g>
     </g>
     <g id="text_25">
      <text style="font: 20px 'DejaVu Sans', 'Bitstream Vera Sans', 'Computer Modern Sans Serif', 'Lucida Grande', 'Verdana', 'Geneva', 'Lucid', 'Arial', 'Helvetica', 'Avant Garde', sans-serif; text-anchor: end" x="1031.424156" y="274.205211" transform="rotate(-0 1031.424156 274.205211)">0.08</text>
     </g>
    </g>
    <g id="ytick_12">
     <g id="line2d_27">
      <g>
       <use xlink:href="#m7b10e34f3f" x="1038.424156" y="191.918467" style="stroke: #000000; stroke-width: 0.8"/>
      </g>
     </g>
     <g id="text_26">
      <text style="font: 20px 'DejaVu Sans', 'Bitstream Vera Sans', 'Computer Modern Sans Serif', 'Lucida Grande', 'Verdana', 'Geneva', 'Lucid', 'Arial', 'Helvetica', 'Avant Garde', sans-serif; text-anchor: end" x="1031.424156" y="199.516905" transform="rotate(-0 1031.424156 199.516905)">0.10</text>
     </g>
    </g>
    <g id="text_27">
     <text style="font: 25px 'DejaVu Sans', 'Bitstream Vera Sans', 'Computer Modern Sans Serif', 'Lucida Grande', 'Verdana', 'Geneva', 'Lucid', 'Arial', 'Helvetica', 'Avant Garde', sans-serif; text-anchor: middle" x="977.693687" y="373.972" transform="rotate(-90 977.693687 373.972)">Amplitude</text>
    </g>
   </g>
   <g id="patch_10">
    <path d="M 1038.424156 565.36 
L 1038.424156 182.584 
" style="fill: none; stroke: #000000; stroke-width: 0.8; stroke-linejoin: miter; stroke-linecap: square"/>
   </g>
   <g id="patch_11">
    <path d="M 1219.459091 565.36 
L 1219.459091 182.584 
" style="fill: none; stroke: #000000; stroke-width: 0.8; stroke-linejoin: miter; stroke-linecap: square"/>
   </g>
   <g id="patch_12">
    <path d="M 1038.424156 565.36 
L 1219.459091 565.36 
" style="fill: none; stroke: #000000; stroke-width: 0.8; stroke-linejoin: miter; stroke-linecap: square"/>
   </g>
   <g id="patch_13">
    <path d="M 1038.424156 182.584 
L 1219.459091 182.584 
" style="fill: none; stroke: #000000; stroke-width: 0.8; stroke-linejoin: miter; stroke-linecap: square"/>
   </g>
   <g id="text_28">
    <g id="patch_14">
     <path d="M 1210.407344 316.66155 
L 1483.407344 316.66155 
Q 1489.407344 316.66155 1489.407344 310.66155 
L 1489.407344 201.7228 
Q 1489.407344 195.7228 1483.407344 195.7228 
L 1210.407344 195.7228 
Q 1204.407344 195.7228 1204.407344 201.7228 
L 1204.407344 310.66155 
Q 1204.407344 316.66155 1210.407344 316.66155 
z
" style="fill: #f5deb3; stroke: #000000; stroke-linejoin: miter"/>
    </g>
    <text style="font: 20px 'DejaVu Sans', 'Bitstream Vera Sans', 'Computer Modern Sans Serif', 'Lucida Grande', 'Verdana', 'Geneva', 'Lucid', 'Arial', 'Helvetica', 'Avant Garde', sans-serif" transform="translate(1210.407344 216.919675)">2nd Harmonic: 0.0976</text>
    <text style="font: 20px 'DejaVu Sans', 'Bitstream Vera Sans', 'Computer Modern Sans Serif', 'Lucida Grande', 'Verdana', 'Geneva', 'Lucid', 'Arial', 'Helvetica', 'Avant Garde', sans-serif" transform="translate(1210.407344 239.3153)">4th Harmonic: 0.0945</text>
    <text style="font: 20px 'DejaVu Sans', 'Bitstream Vera Sans', 'Computer Modern Sans Serif', 'Lucida Grande', 'Verdana', 'Geneva', 'Lucid', 'Arial', 'Helvetica', 'Avant Garde', sans-serif" transform="translate(1210.407344 261.710925)">Ratio (H4/H2): 0.97</text>
    <text style="font: 20px 'DejaVu Sans', 'Bitstream Vera Sans', 'Computer Modern Sans Serif', 'Lucida Grande', 'Verdana', 'Geneva', 'Lucid', 'Arial', 'Helvetica', 'Avant Garde', sans-serif" transform="translate(1210.407344 284.10655)">Orientation peaks: 2</text>
    <text style="font: 20px 'DejaVu Sans', 'Bitstream Vera Sans', 'Computer Modern Sans Serif', 'Lucida Grande', 'Verdana', 'Geneva', 'Lucid', 'Arial', 'Helvetica', 'Avant Garde', sans-serif" transform="translate(1210.407344 306.502175)">Angle between peaks: 69.0</text>
   </g>
   <g id="text_29">
    <text style="font: 30px 'DejaVu Sans', 'Bitstream Vera Sans', 'Computer Modern Sans Serif', 'Lucida Grande', 'Verdana', 'Geneva', 'Lucid', 'Arial', 'Helvetica', 'Avant Garde', sans-serif" transform="translate(1025.333811 48.990563)">FFT Spectrum</text>
    <text style="font: 30px 'DejaVu Sans', 'Bitstream Vera Sans', 'Computer Modern Sans Serif', 'Lucida Grande', 'Verdana', 'Geneva', 'Lucid', 'Arial', 'Helvetica', 'Avant Garde', sans-serif" transform="translate(983.467405 82.584)">H4:H2 Ratio = 0.97</text>
   </g>
  </g>
 </g>
 <defs>
  <clipPath id="p03182594c5">
   <path d="M 761.492805 469.666 
C 761.492805 418.926214 741.315005 370.212694 705.436558 334.334247 
C 669.558111 298.4558 620.844591 278.278 570.104805 278.278 
C 519.365019 278.278 470.6515 298.4558 434.773053 334.334247 
C 398.894606 370.212694 378.716805 418.926214 378.716805 469.666 
L 570.104805 469.666 
C 570.104805 469.666 570.104805 469.666 570.104805 469.666 
C 570.104805 469.666 570.104805 469.666 570.104805 469.666 
C 570.104805 469.666 570.104805 469.666 570.104805 469.666 
C 570.104805 469.666 570.104805 469.666 570.104805 469.666 
z
"/>
  </clipPath>
  <clipPath id="p88b32db8d8">
   <rect x="1038.424156" y="182.584" width="181.034935" height="382.776"/>
  </clipPath>
 </defs>
</svg>
