<?xml version="1.0" encoding="utf-8" standalone="no"?>
<!DOCTYPE svg PUBLIC "-//W3C//DTD SVG 1.1//EN"
  "http://www.w3.org/Graphics/SVG/1.1/DTD/svg11.dtd">
<svg xmlns:xlink="http://www.w3.org/1999/xlink" width="1512pt" height="648pt" viewBox="0 0 1512 648" xmlns="http://www.w3.org/2000/svg" version="1.1">
 <metadata>
  <rdf:RDF xmlns:dc="http://purl.org/dc/elements/1.1/" xmlns:cc="http://creativecommons.org/ns#" xmlns:rdf="http://www.w3.org/1999/02/22-rdf-syntax-ns#">
   <cc:Work>
    <dc:type rdf:resource="http://purl.org/dc/dcmitype/StillImage"/>
    <dc:date>2025-04-19T18:37:10.480995</dc:date>
    <dc:format>image/svg+xml</dc:format>
    <dc:creator>
     <cc:Agent>
      <dc:title>Matplotlib v3.9.2, https://matplotlib.org/</dc:title>
     </cc:Agent>
    </dc:creator>
   </cc:Work>
  </rdf:RDF>
 </metadata>
 <defs>
  <style type="text/css">*{stroke-linejoin: round; stroke-linecap: butt}</style>
 </defs>
 <g id="figure_1">
  <g id="patch_1">
   <path d="M 0 648 
L 1512 648 
L 1512 0 
L 0 0 
z
" style="fill: #ffffff"/>
  </g>
  <g id="axes_1">
   <g id="patch_2">
    <path d="M 756.054234 469.666 
C 756.054234 418.926214 735.876433 370.212694 699.997986 334.334247 
C 664.119539 298.4558 615.40602 278.278 564.666234 278.278 
C 513.926447 278.278 465.212928 298.4558 429.334481 334.334247 
C 393.456034 370.212694 373.278234 418.926214 373.278234 469.666 
L 564.666234 469.666 
C 564.666234 469.666 564.666234 469.666 564.666234 469.666 
C 564.666234 469.666 564.666234 469.666 564.666234 469.666 
C 564.666234 469.666 564.666234 469.666 564.666234 469.666 
C 564.666234 469.666 564.666234 469.666 564.666234 469.666 
z
" style="fill: #ffffff"/>
   </g>
   <g id="matplotlib.axis_1">
    <g id="xtick_1">
     <g id="line2d_1">
      <path d="M 564.666234 469.666 
L 756.054234 469.666 
" clip-path="url(#pd2d5230b58)" style="fill: none; stroke: #b0b0b0; stroke-width: 0.8; stroke-linecap: square"/>
     </g>
     <g id="text_1">
      <text style="font: 20px 'DejaVu Sans', 'Bitstream Vera Sans', 'Computer Modern Sans Serif', 'Lucida Grande', 'Verdana', 'Geneva', 'Lucid', 'Arial', 'Helvetica', 'Avant Garde', sans-serif; text-anchor: middle" x="770.054234" y="475.18475" transform="rotate(-0 770.054234 475.18475)">0°</text>
     </g>
    </g>
    <g id="xtick_2">
     <g id="line2d_2">
      <path d="M 564.666234 469.666 
L 730.413104 373.972 
" clip-path="url(#pd2d5230b58)" style="fill: none; stroke: #b0b0b0; stroke-width: 0.8; stroke-linecap: square"/>
     </g>
     <g id="text_2">
      <text style="font: 20px 'DejaVu Sans', 'Bitstream Vera Sans', 'Computer Modern Sans Serif', 'Lucida Grande', 'Verdana', 'Geneva', 'Lucid', 'Arial', 'Helvetica', 'Avant Garde', sans-serif; text-anchor: middle" x="742.537459" y="372.49075" transform="rotate(-0 742.537459 372.49075)">30°</text>
     </g>
    </g>
    <g id="xtick_3">
     <g id="line2d_3">
      <path d="M 564.666234 469.666 
L 660.360234 303.91913 
" clip-path="url(#pd2d5230b58)" style="fill: none; stroke: #b0b0b0; stroke-width: 0.8; stroke-linecap: square"/>
     </g>
     <g id="text_3">
      <text style="font: 20px 'DejaVu Sans', 'Bitstream Vera Sans', 'Computer Modern Sans Serif', 'Lucida Grande', 'Verdana', 'Geneva', 'Lucid', 'Arial', 'Helvetica', 'Avant Garde', sans-serif; text-anchor: middle" x="667.360234" y="297.313524" transform="rotate(-0 667.360234 297.313524)">60°</text>
     </g>
    </g>
    <g id="xtick_4">
     <g id="line2d_4">
      <path d="M 564.666234 469.666 
L 564.666234 278.278 
" clip-path="url(#pd2d5230b58)" style="fill: none; stroke: #b0b0b0; stroke-width: 0.8; stroke-linecap: square"/>
     </g>
     <g id="text_4">
      <text style="font: 20px 'DejaVu Sans', 'Bitstream Vera Sans', 'Computer Modern Sans Serif', 'Lucida Grande', 'Verdana', 'Geneva', 'Lucid', 'Arial', 'Helvetica', 'Avant Garde', sans-serif; text-anchor: middle" x="564.666234" y="269.79675" transform="rotate(-0 564.666234 269.79675)">90°</text>
     </g>
    </g>
    <g id="xtick_5">
     <g id="line2d_5">
      <path d="M 564.666234 469.666 
L 468.972234 303.91913 
" clip-path="url(#pd2d5230b58)" style="fill: none; stroke: #b0b0b0; stroke-width: 0.8; stroke-linecap: square"/>
     </g>
     <g id="text_5">
      <text style="font: 20px 'DejaVu Sans', 'Bitstream Vera Sans', 'Computer Modern Sans Serif', 'Lucida Grande', 'Verdana', 'Geneva', 'Lucid', 'Arial', 'Helvetica', 'Avant Garde', sans-serif; text-anchor: middle" x="461.972234" y="297.313524" transform="rotate(-0 461.972234 297.313524)">120°</text>
     </g>
    </g>
    <g id="xtick_6">
     <g id="line2d_6">
      <path d="M 564.666234 469.666 
L 398.919364 373.972 
" clip-path="url(#pd2d5230b58)" style="fill: none; stroke: #b0b0b0; stroke-width: 0.8; stroke-linecap: square"/>
     </g>
     <g id="text_6">
      <text style="font: 20px 'DejaVu Sans', 'Bitstream Vera Sans', 'Computer Modern Sans Serif', 'Lucida Grande', 'Verdana', 'Geneva', 'Lucid', 'Arial', 'Helvetica', 'Avant Garde', sans-serif; text-anchor: middle" x="386.795008" y="372.49075" transform="rotate(-0 386.795008 372.49075)">150°</text>
     </g>
    </g>
    <g id="xtick_7">
     <g id="line2d_7">
      <path d="M 564.666234 469.666 
L 373.278234 469.666 
" clip-path="url(#pd2d5230b58)" style="fill: none; stroke: #b0b0b0; stroke-width: 0.8; stroke-linecap: square"/>
     </g>
     <g id="text_7">
      <text style="font: 20px 'DejaVu Sans', 'Bitstream Vera Sans', 'Computer Modern Sans Serif', 'Lucida Grande', 'Verdana', 'Geneva', 'Lucid', 'Arial', 'Helvetica', 'Avant Garde', sans-serif; text-anchor: middle" x="359.278234" y="475.18475" transform="rotate(-0 359.278234 475.18475)">180°</text>
     </g>
    </g>
   </g>
   <g id="matplotlib.axis_2">
    <g id="ytick_1">
     <g id="line2d_8">
      <path d="M 564.666234 469.666 
C 564.666234 469.666 564.666234 469.666 564.666234 469.666 
C 564.666234 469.666 564.666234 469.666 564.666234 469.666 
C 564.666234 469.666 564.666234 469.666 564.666234 469.666 
C 564.666234 469.666 564.666234 469.666 564.666234 469.666 
" clip-path="url(#pd2d5230b58)" style="fill: none; stroke: #b0b0b0; stroke-width: 0.8; stroke-linecap: square"/>
     </g>
     <g id="text_8">
      <text style="font: 20px 'DejaVu Sans', 'Bitstream Vera Sans', 'Computer Modern Sans Serif', 'Lucida Grande', 'Verdana', 'Geneva', 'Lucid', 'Arial', 'Helvetica', 'Avant Garde', sans-serif; text-anchor: middle" x="564.666234" y="491.862875" transform="rotate(-0 564.666234 491.862875)">0.0</text>
     </g>
    </g>
    <g id="ytick_2">
     <g id="line2d_9">
      <path d="M 601.121091 469.666 
C 601.121091 460.001279 597.2777 450.722513 590.44371 443.888523 
C 583.609721 437.054533 574.330955 433.211143 564.666234 433.211143 
C 555.001513 433.211143 545.722747 437.054533 538.888757 443.888523 
C 532.054767 450.722513 528.211377 460.001279 528.211377 469.666 
" clip-path="url(#pd2d5230b58)" style="fill: none; stroke: #b0b0b0; stroke-width: 0.8; stroke-linecap: square"/>
     </g>
     <g id="text_9">
      <text style="font: 20px 'DejaVu Sans', 'Bitstream Vera Sans', 'Computer Modern Sans Serif', 'Lucida Grande', 'Verdana', 'Geneva', 'Lucid', 'Arial', 'Helvetica', 'Avant Garde', sans-serif; text-anchor: middle" x="601.121091" y="491.862875" transform="rotate(-0 601.121091 491.862875)">0.2</text>
     </g>
    </g>
    <g id="ytick_3">
     <g id="line2d_10">
      <path d="M 637.575948 469.666 
C 637.575948 450.336558 629.889167 431.779026 616.221187 418.111047 
C 602.553207 404.443067 583.995676 396.756286 564.666234 396.756286 
C 545.336791 396.756286 526.77926 404.443067 513.11128 418.111047 
C 499.443301 431.779026 491.756519 450.336558 491.756519 469.666 
" clip-path="url(#pd2d5230b58)" style="fill: none; stroke: #b0b0b0; stroke-width: 0.8; stroke-linecap: square"/>
     </g>
     <g id="text_10">
      <text style="font: 20px 'DejaVu Sans', 'Bitstream Vera Sans', 'Computer Modern Sans Serif', 'Lucida Grande', 'Verdana', 'Geneva', 'Lucid', 'Arial', 'Helvetica', 'Avant Garde', sans-serif; text-anchor: middle" x="637.575948" y="491.862875" transform="rotate(-0 637.575948 491.862875)">0.4</text>
     </g>
    </g>
    <g id="ytick_4">
     <g id="line2d_11">
      <path d="M 674.030805 469.666 
C 674.030805 440.671836 662.500634 412.83554 641.998664 392.33357 
C 621.496694 371.8316 593.660397 360.301429 564.666234 360.301429 
C 535.67207 360.301429 507.835773 371.8316 487.333804 392.33357 
C 466.831834 412.83554 455.301662 440.671836 455.301662 469.666 
" clip-path="url(#pd2d5230b58)" style="fill: none; stroke: #b0b0b0; stroke-width: 0.8; stroke-linecap: square"/>
     </g>
     <g id="text_11">
      <text style="font: 20px 'DejaVu Sans', 'Bitstream Vera Sans', 'Computer Modern Sans Serif', 'Lucida Grande', 'Verdana', 'Geneva', 'Lucid', 'Arial', 'Helvetica', 'Avant Garde', sans-serif; text-anchor: middle" x="674.030805" y="491.862875" transform="rotate(-0 674.030805 491.862875)">0.6</text>
     </g>
    </g>
    <g id="ytick_5">
     <g id="line2d_12">
      <path d="M 710.485662 469.666 
C 710.485662 431.007115 695.1121 393.892053 667.776141 366.556093 
C 640.440181 339.220134 603.325119 323.846571 564.666234 323.846571 
C 526.007349 323.846571 488.892287 339.220134 461.556327 366.556093 
C 434.220367 393.892053 418.846805 431.007115 418.846805 469.666 
" clip-path="url(#pd2d5230b58)" style="fill: none; stroke: #b0b0b0; stroke-width: 0.8; stroke-linecap: square"/>
     </g>
     <g id="text_12">
      <text style="font: 20px 'DejaVu Sans', 'Bitstream Vera Sans', 'Computer Modern Sans Serif', 'Lucida Grande', 'Verdana', 'Geneva', 'Lucid', 'Arial', 'Helvetica', 'Avant Garde', sans-serif; text-anchor: middle" x="710.485662" y="491.862875" transform="rotate(-0 710.485662 491.862875)">0.8</text>
     </g>
    </g>
    <g id="ytick_6">
     <g id="line2d_13">
      <path d="M 746.940519 469.666 
C 746.940519 421.342394 727.723567 374.948566 693.553617 340.778617 
C 659.383668 306.608667 612.98984 287.391714 564.666234 287.391714 
C 516.342628 287.391714 469.9488 306.608667 435.77885 340.778617 
C 401.608901 374.948566 382.391948 421.342394 382.391948 469.666 
" clip-path="url(#pd2d5230b58)" style="fill: none; stroke: #b0b0b0; stroke-width: 0.8; stroke-linecap: square"/>
     </g>
     <g id="text_13">
      <text style="font: 20px 'DejaVu Sans', 'Bitstream Vera Sans', 'Computer Modern Sans Serif', 'Lucida Grande', 'Verdana', 'Geneva', 'Lucid', 'Arial', 'Helvetica', 'Avant Garde', sans-serif; text-anchor: middle" x="746.940519" y="491.862875" transform="rotate(-0 746.940519 491.862875)">1.0</text>
     </g>
    </g>
   </g>
   <g id="line2d_14">
    <path d="M 679.951287 468.659923 
L 671.747189 466.861987 
L 656.738783 465.646026 
L 648.735248 464.524119 
L 629.944243 464.528509 
L 625.337343 463.824037 
L 628.544677 462.387971 
L 636.077874 460.264479 
L 655.553067 456.082872 
L 664.533724 452.953914 
L 636.422567 456.36675 
L 628.210614 456.73775 
L 622.96162 456.742224 
L 622.098186 455.877808 
L 622.884069 454.609844 
L 625.118562 452.901086 
L 629.766021 450.382565 
L 629.646194 449.177897 
L 633.635473 446.589215 
L 619.321999 449.231047 
L 615.542365 449.625359 
L 609.623175 451.044225 
L 607.402696 451.083657 
L 607.924799 449.951936 
L 614.973713 445.670563 
L 620.171 441.992345 
L 636.975169 432.024351 
L 604.089079 448.261142 
L 607.0761 445.671652 
L 627.159773 432.854492 
L 614.362364 439.212172 
L 598.825665 447.904042 
L 592.496012 451.245872 
L 582.661377 457.298281 
L 581.830175 457.423079 
L 571.818846 464.373345 
L 576.386104 460.673027 
L 582.808643 455.234876 
L 586.995409 451.259248 
L 591.810511 446.482597 
L 602.663522 436.048839 
L 606.090859 431.707325 
L 617.641172 419.394661 
L 644.806121 390.912753 
L 631.186865 401.974113 
L 622.907198 408.29283 
L 619.570746 409.748239 
L 614.31781 413.545102 
L 606.977659 420.125686 
L 606.198987 419.282742 
L 611.91255 410.26924 
L 607.501396 413.84213 
L 610.19563 408.136553 
L 606.784334 410.618601 
L 624.433573 382.703982 
L 625.508034 377.744068 
L 618.262502 385.53671 
L 618.400168 381.980189 
L 606.703984 398.300061 
L 605.172541 398.071344 
L 607.425556 390.913125 
L 598.260263 405.132471 
L 590.687046 412.568538 
L 591.829092 407.195703 
L 595.529072 395.156517 
L 595.056206 392.51656 
L 590.79246 399.788234 
L 584.968268 412.334825 
L 581.878524 418.223886 
L 580.251642 420.235401 
L 578.614198 422.578462 
L 578.421789 420.065069 
L 575.689786 427.041087 
L 576.300213 421.206988 
L 574.035471 427.404101 
L 571.851519 434.349193 
L 571.792207 431.21769 
L 571.065634 431.424694 
L 571.689029 422.675379 
L 571.631217 416.761702 
L 573.468614 392.408499 
L 574.08398 371.858969 
L 572.957688 364.313083 
L 572.299268 344.866998 
L 568.664326 378.094633 
L 565.878173 423.383906 
L 564.421079 441.574097 
L 563.950889 442.348083 
L 562.883417 428.832794 
L 561.274849 414.217346 
L 558.500209 391.319228 
L 560.365425 425.000395 
L 562.30709 453.880598 
L 563.148175 461.47529 
L 563.071258 461.826445 
L 559.344519 449.088456 
L 560.026953 452.937294 
L 562.101608 461.007969 
L 564.666234 469.666 
L 563.767251 467.12735 
L 561.198764 460.391832 
L 556.479666 448.883186 
L 555.330086 447.126546 
L 553.211509 443.321937 
L 554.94333 448.331034 
L 561.46078 462.945626 
L 558.277821 457.393973 
L 558.562259 458.423876 
L 559.166581 459.945397 
L 558.568951 459.314868 
L 555.296108 454.957849 
L 550.239076 447.868943 
L 547.194965 445.172185 
L 530.169746 423.046672 
L 524.804619 417.717333 
L 533.511114 430.498646 
L 529.792493 427.360769 
L 524.695441 422.866214 
L 521.172993 420.505834 
L 510.742796 410.818894 
L 504.371524 406.128633 
L 489.068298 392.736982 
L 478.132858 384.629889 
L 489.244937 398.093862 
L 500.981713 411.309888 
L 515.476405 426.146516 
L 517.01317 428.966439 
L 506.215135 421.482632 
L 505.796388 422.838811 
L 502.275465 421.79188 
L 488.38585 413.221485 
L 490.873107 417.029874 
L 501.019567 425.922858 
L 505.505939 430.508655 
L 514.262145 437.555054 
L 509.128135 435.632209 
L 503.742426 433.779135 
L 503.550526 435.088396 
L 495.566039 432.147655 
L 490.483707 431.049021 
L 481.420899 428.161407 
L 479.803641 429.188619 
L 483.458819 432.657649 
L 473.515291 430.032442 
L 466.495202 429.002227 
L 437.377642 419.52569 
L 452.918689 427.885305 
L 450.265215 429.154475 
L 438.683759 427.512853 
L 457.130128 435.759996 
L 465.402666 440.262792 
L 464.484819 441.883235 
L 458.736614 442.270738 
L 437.466142 439.12796 
L 439.813834 441.986889 
L 428.935853 442.051342 
L 421.049723 443.048253 
L 397.430504 441.680337 
L 389.995345 443.561261 
L 400.534641 448.057666 
L 383.563633 449.031965 
L 385.149661 452.38052 
L 407.24884 457.276982 
L 420.536629 460.850656 
L 433.633319 463.944979 
L 446.288594 466.566172 
L 445.394454 468.625131 
L 449.381181 470.672077 
L 457.585279 472.470013 
L 472.593684 473.685974 
L 480.597219 474.807881 
L 499.388224 474.803491 
L 503.995125 475.507963 
L 500.787791 476.944029 
L 493.254594 479.067521 
L 473.779401 483.249128 
L 464.798743 486.378086 
L 492.909901 482.96525 
L 501.121854 482.59425 
L 506.370848 482.589776 
L 507.234282 483.454192 
L 506.448399 484.722156 
L 504.213906 486.430914 
L 499.566447 488.949435 
L 499.686274 490.154103 
L 495.696994 492.742785 
L 510.010469 490.100953 
L 513.790103 489.706641 
L 519.709292 488.287775 
L 521.929771 488.248343 
L 521.407669 489.380064 
L 514.358754 493.661437 
L 509.161468 497.339655 
L 492.357299 507.307649 
L 525.243389 491.070858 
L 522.256368 493.660348 
L 502.172694 506.477508 
L 514.970103 500.119828 
L 530.506803 491.427958 
L 536.836456 488.086128 
L 546.671091 482.033719 
L 547.502292 481.908921 
L 557.513621 474.958655 
L 552.946363 478.658973 
L 546.523824 484.097124 
L 542.337058 488.072752 
L 537.521956 492.849403 
L 526.668945 503.283161 
L 523.241609 507.624675 
L 511.691296 519.937339 
L 484.526347 548.419247 
L 498.145602 537.357887 
L 506.42527 531.03917 
L 509.761722 529.583761 
L 515.014658 525.786898 
L 522.354809 519.206314 
L 523.133481 520.049258 
L 517.419917 529.06276 
L 521.831071 525.48987 
L 519.136838 531.195447 
L 522.548134 528.713399 
L 504.898895 556.628018 
L 503.824434 561.587932 
L 511.069965 553.79529 
L 510.9323 557.351811 
L 522.628483 541.031939 
L 524.159926 541.260656 
L 521.906911 548.418875 
L 531.072205 534.199529 
L 538.645421 526.763462 
L 537.503376 532.136297 
L 533.803395 544.175483 
L 534.276261 546.81544 
L 538.540008 539.543766 
L 544.3642 526.997175 
L 547.453943 521.108114 
L 549.080826 519.096599 
L 550.71827 516.753538 
L 550.910678 519.266931 
L 553.642682 512.290913 
L 553.032254 518.125012 
L 555.296996 511.927899 
L 557.480948 504.982807 
L 557.540261 508.11431 
L 558.266834 507.907306 
L 557.643438 516.656621 
L 557.701251 522.570298 
L 555.863853 546.923501 
L 555.248488 567.473031 
L 556.374779 575.018917 
L 557.0332 594.465002 
L 560.668142 561.237367 
L 563.454294 515.948094 
L 564.911388 497.757903 
L 565.381579 496.983917 
L 566.44905 510.499206 
L 568.057619 525.114654 
L 570.832258 548.012772 
L 568.967042 514.331605 
L 567.025378 485.451402 
L 566.184292 477.85671 
L 566.261209 477.505555 
L 569.987949 490.243544 
L 569.305515 486.394706 
L 567.230859 478.324031 
L 564.666234 469.666 
L 565.565217 472.20465 
L 568.133703 478.940168 
L 572.852802 490.448814 
L 574.002381 492.205454 
L 576.120958 496.010063 
L 574.389138 491.000966 
L 567.871688 476.386374 
L 571.054646 481.938027 
L 570.770209 480.908124 
L 570.165886 479.386603 
L 570.763517 480.017132 
L 574.03636 484.374151 
L 579.093391 491.463057 
L 582.137502 494.159815 
L 599.162722 516.285328 
L 604.527848 521.614667 
L 595.821354 508.833354 
L 599.539975 511.971231 
L 604.637027 516.465786 
L 608.159475 518.826166 
L 618.589671 528.513106 
L 624.960944 533.203367 
L 640.26417 546.595018 
L 651.199609 554.702111 
L 640.08753 541.238138 
L 628.350754 528.022112 
L 613.856062 513.185484 
L 612.319297 510.365561 
L 623.117333 517.849368 
L 623.536079 516.493189 
L 627.057002 517.54012 
L 640.946618 526.110515 
L 638.45936 522.302126 
L 628.3129 513.409142 
L 623.826529 508.823345 
L 615.070322 501.776946 
L 620.204333 503.699791 
L 625.590041 505.552865 
L 625.781942 504.243604 
L 633.766429 507.184345 
L 638.848761 508.282979 
L 647.911568 511.170593 
L 649.528827 510.143381 
L 645.873648 506.674351 
L 655.817176 509.299558 
L 662.837265 510.329773 
L 691.954825 519.80631 
L 676.413778 511.446695 
L 679.067253 510.177525 
L 690.648709 511.819147 
L 672.202339 503.572004 
L 663.929802 499.069208 
L 664.847648 497.448765 
L 670.595854 497.061262 
L 691.866325 500.20404 
L 689.518633 497.345111 
L 700.396615 497.280658 
L 708.282744 496.283747 
L 731.901964 497.651663 
L 739.337122 495.770739 
L 728.797826 491.274334 
L 745.768834 490.300035 
L 744.182807 486.95148 
L 722.083628 482.055018 
L 708.795839 478.481344 
L 695.699149 475.387021 
L 683.043873 472.765828 
L 683.938014 470.706869 
L 683.938014 470.706869 
" clip-path="url(#pd2d5230b58)" style="fill: none; stroke: #1f77b4; stroke-opacity: 0.6; stroke-width: 1.5; stroke-linecap: square"/>
   </g>
   <g id="line2d_15">
    <path d="M 679.094831 468.667397 
L 675.106493 466.77402 
L 670.551475 465.042951 
L 667.901962 463.351832 
L 664.457987 461.812219 
L 660.267807 460.460615 
L 656.839821 459.164146 
L 653.232139 458.006077 
L 645.436303 456.149726 
L 641.439753 455.436869 
L 638.196161 454.706167 
L 634.518414 454.180144 
L 616.589613 452.29268 
L 613.97826 452.203696 
L 612.014037 451.963382 
L 609.358972 451.153662 
L 608.379253 450.659038 
L 608.028779 449.90455 
L 607.86837 449.059638 
L 607.15267 447.548961 
L 606.631775 446.88057 
L 605.8684 446.354936 
L 602.940189 446.21169 
L 602.309849 445.684372 
L 602.386523 444.699485 
L 603.486404 442.985636 
L 604.07826 441.553675 
L 604.400838 440.26394 
L 608.108395 431.231623 
L 609.912937 425.202188 
L 611.354916 420.466395 
L 611.801823 418.226531 
L 612.075847 416.07918 
L 612.138472 414.08315 
L 612.332392 411.842326 
L 612.38641 409.673516 
L 612.821277 406.909126 
L 612.56247 404.937952 
L 612.117771 403.141398 
L 611.947504 400.871325 
L 611.277658 399.24382 
L 610.10504 398.341361 
L 608.350092 398.380422 
L 606.088389 399.345135 
L 603.735505 400.611297 
L 600.979901 402.784544 
L 598.810908 404.074691 
L 592.852672 404.84163 
L 591.19886 405.610574 
L 589.545442 406.506451 
L 588.147187 406.863337 
L 586.98828 406.630486 
L 584.748321 405.973757 
L 583.538914 405.952898 
L 582.235643 406.312759 
L 579.568301 407.594422 
L 576.825261 409.902473 
L 575.411945 411.687329 
L 574.242264 412.441897 
L 571.064948 413.505209 
L 569.975621 414.525903 
L 567.870874 417.270597 
L 566.869575 419.20119 
L 562.853685 428.151801 
L 561.595804 430.652493 
L 561.074429 432.363676 
L 560.641658 434.342756 
L 560.298303 436.488274 
L 559.922109 441.316229 
L 559.890391 443.897861 
L 560.048471 446.968973 
L 560.655153 452.958645 
L 561.516881 458.3098 
L 562.896763 464.66917 
L 562.77202 464.599694 
L 560.822289 460.385896 
L 558.716901 456.61138 
L 555.284346 451.643561 
L 549.040418 443.13863 
L 544.141054 437.447922 
L 541.664943 434.91484 
L 539.320808 432.788176 
L 536.937774 430.792133 
L 534.664492 429.120974 
L 532.395739 427.610272 
L 525.182729 423.436756 
L 522.921455 422.482111 
L 520.890422 421.893085 
L 519.474212 422.043546 
L 513.385023 421.001949 
L 504.617347 418.379406 
L 502.210099 418.181136 
L 498.268246 418.717032 
L 496.55582 419.266945 
L 495.099666 420.044649 
L 493.364509 422.472418 
L 492.153373 423.470213 
L 491.106439 424.5885 
L 489.889133 425.618921 
L 488.037816 426.311727 
L 485.130017 426.481358 
L 481.685435 426.468931 
L 478.429005 426.669704 
L 472.003935 427.437358 
L 468.618775 427.903376 
L 460.508387 428.637133 
L 450.161749 429.117835 
L 445.618652 429.833236 
L 442.07493 431.01311 
L 440.017978 432.743505 
L 438.644556 434.717096 
L 436.43331 436.502711 
L 434.431447 438.399394 
L 430.779657 442.426468 
L 429.454747 444.606032 
L 429.026176 446.967639 
L 429.397967 449.450022 
L 430.610269 452.017197 
L 434.093549 457.09328 
L 436.208239 459.556137 
L 438.476905 461.94793 
L 440.912628 464.262801 
L 443.473374 466.492453 
L 446.460653 468.634436 
L 450.237637 470.664603 
L 454.225974 472.55798 
L 458.780992 474.289049 
L 461.430506 475.980168 
L 464.87448 477.519781 
L 469.06466 478.871385 
L 472.492647 480.167854 
L 476.100329 481.325923 
L 483.896164 483.182274 
L 487.892715 483.895131 
L 491.136306 484.625833 
L 494.814053 485.151856 
L 512.742854 487.03932 
L 515.354207 487.128304 
L 517.31843 487.368618 
L 519.973496 488.178338 
L 520.953214 488.672962 
L 521.303689 489.42745 
L 521.464098 490.272362 
L 522.179797 491.783039 
L 522.700693 492.45143 
L 523.464067 492.977064 
L 526.392278 493.12031 
L 527.022619 493.647628 
L 526.945945 494.632515 
L 525.846064 496.346364 
L 525.254207 497.778325 
L 524.93163 499.06806 
L 521.224073 508.100377 
L 519.41953 514.129812 
L 517.977552 518.865605 
L 517.530644 521.105469 
L 517.25662 523.25282 
L 517.193995 525.24885 
L 517.000076 527.489674 
L 516.946057 529.658484 
L 516.511191 532.422874 
L 516.769998 534.394048 
L 517.214696 536.190602 
L 517.384964 538.460675 
L 518.05481 540.08818 
L 519.227427 540.990639 
L 520.982375 540.951578 
L 523.244079 539.986865 
L 525.596963 538.720703 
L 528.352566 536.547456 
L 530.52156 535.257309 
L 536.479795 534.49037 
L 538.133607 533.721426 
L 539.787026 532.825549 
L 541.18528 532.468663 
L 542.344188 532.701514 
L 544.584147 533.358243 
L 545.793553 533.379102 
L 547.096825 533.019241 
L 549.764166 531.737578 
L 552.507207 529.429527 
L 553.920522 527.644671 
L 555.090203 526.890103 
L 558.26752 525.826791 
L 559.356846 524.806097 
L 561.461594 522.061403 
L 562.462893 520.13081 
L 566.478783 511.180199 
L 567.736663 508.679507 
L 568.258039 506.968324 
L 568.690809 504.989244 
L 569.034164 502.843726 
L 569.410358 498.015771 
L 569.442076 495.434139 
L 569.283996 492.363027 
L 568.677315 486.373355 
L 567.815587 481.0222 
L 566.435704 474.66283 
L 566.560448 474.732306 
L 568.510178 478.946104 
L 570.615567 482.72062 
L 574.048121 487.688439 
L 580.292049 496.19337 
L 585.191413 501.884078 
L 587.667525 504.41716 
L 590.01166 506.543824 
L 592.394694 508.539867 
L 594.667975 510.211026 
L 596.936729 511.721728 
L 604.149738 515.895244 
L 606.411013 516.849889 
L 608.442045 517.438915 
L 609.858255 517.288454 
L 615.947444 518.330051 
L 624.71512 520.952594 
L 627.122368 521.150864 
L 631.064222 520.614968 
L 632.776648 520.065055 
L 634.232802 519.287351 
L 635.967959 516.859582 
L 637.179095 515.861787 
L 638.226029 514.7435 
L 639.443335 513.713079 
L 641.294651 513.020273 
L 644.202451 512.850642 
L 647.647032 512.863069 
L 650.903462 512.662296 
L 657.328532 511.894642 
L 660.713693 511.428624 
L 668.824081 510.694867 
L 679.170719 510.214165 
L 683.713816 509.498764 
L 687.257538 508.31889 
L 689.314489 506.588495 
L 690.687911 504.614904 
L 692.899157 502.829289 
L 694.90102 500.932606 
L 698.55281 496.905532 
L 699.87772 494.725968 
L 700.306291 492.364361 
L 699.934501 489.881978 
L 698.722199 487.314803 
L 695.238919 482.23872 
L 693.124228 479.775863 
L 690.855563 477.38407 
L 688.419839 475.069199 
L 685.859094 472.839547 
L 682.871815 470.697564 
L 682.871815 470.697564 
" clip-path="url(#pd2d5230b58)" style="fill: none; stroke: #008000; stroke-width: 1.5; stroke-linecap: square"/>
   </g>
   <g id="line2d_16">
    <defs>
     <path id="m6ec745b58c" d="M 0 3 
C 0.795609 3 1.55874 2.683901 2.12132 2.12132 
C 2.683901 1.55874 3 0.795609 3 0 
C 3 -0.795609 2.683901 -1.55874 2.12132 -2.12132 
C 1.55874 -2.683901 0.795609 -3 0 -3 
C -0.795609 -3 -1.55874 -2.683901 -2.12132 -2.12132 
C -2.683901 -1.55874 -3 -0.795609 -3 0 
C -3 0.795609 -2.683901 1.55874 -2.12132 2.12132 
C -1.55874 2.683901 -0.795609 3 0 3 
z
" style="stroke: #ff0000"/>
    </defs>
    <g clip-path="url(#pd2d5230b58)">
     <use xlink:href="#m6ec745b58c" x="610.10504" y="398.341361" style="fill: #ff0000; stroke: #ff0000"/>
     <use xlink:href="#m6ec745b58c" x="429.026176" y="446.967639" style="fill: #ff0000; stroke: #ff0000"/>
     <use xlink:href="#m6ec745b58c" x="519.227427" y="540.990639" style="fill: #ff0000; stroke: #ff0000"/>
     <use xlink:href="#m6ec745b58c" x="700.306291" y="492.364361" style="fill: #ff0000; stroke: #ff0000"/>
    </g>
   </g>
   <g id="patch_3">
    <path d="M 756.054234 469.666 
C 756.054234 418.926214 735.876433 370.212694 699.997986 334.334247 
C 664.119539 298.4558 615.40602 278.278 564.666234 278.278 
C 513.926447 278.278 465.212928 298.4558 429.334481 334.334247 
C 393.456034 370.212694 373.278234 418.926214 373.278234 469.666 
" style="fill: none; stroke: #000000; stroke-width: 0.8; stroke-linejoin: miter; stroke-linecap: square"/>
   </g>
   <g id="patch_4">
    <path d="M 564.666234 469.666 
L 756.054234 469.666 
" style="fill: none; stroke: #000000; stroke-width: 0.8; stroke-linejoin: miter; stroke-linecap: square"/>
   </g>
   <g id="patch_5">
    <path d="M 564.666234 469.666 
L 373.278234 469.666 
" style="fill: none; stroke: #000000; stroke-width: 0.8; stroke-linejoin: miter; stroke-linecap: square"/>
   </g>
   <g id="text_14">
    <text style="font: 30px 'DejaVu Sans', 'Bitstream Vera Sans', 'Computer Modern Sans Serif', 'Lucida Grande', 'Verdana', 'Geneva', 'Lucid', 'Arial', 'Helvetica', 'Avant Garde', sans-serif" transform="translate(256.922484 142.156187)">w184 d28 800 exp tray 5_OJ_Distribution</text>
    <text style="font: 30px 'DejaVu Sans', 'Bitstream Vera Sans', 'Computer Modern Sans Serif', 'Lucida Grande', 'Verdana', 'Geneva', 'Lucid', 'Arial', 'Helvetica', 'Avant Garde', sans-serif" transform="translate(394.856859 176.584)">Dominant Harmonic: 4</text>
   </g>
   <g id="legend_1">
    <g id="patch_6">
     <path d="M 387.278234 555.36 
L 553.450109 555.36 
Q 557.450109 555.36 557.450109 551.36 
L 557.450109 465.29125 
Q 557.450109 461.29125 553.450109 461.29125 
L 387.278234 461.29125 
Q 383.278234 461.29125 383.278234 465.29125 
L 383.278234 551.36 
Q 383.278234 555.36 387.278234 555.36 
z
" style="fill: #ffffff; opacity: 0.5; stroke: #cccccc; stroke-linejoin: miter"/>
    </g>
    <g id="line2d_17">
     <path d="M 391.278234 477.488125 
L 411.278234 477.488125 
L 431.278234 477.488125 
" style="fill: none; stroke: #1f77b4; stroke-opacity: 0.6; stroke-width: 1.5; stroke-linecap: square"/>
    </g>
    <g id="text_15">
     <text style="font: 20px 'DejaVu Sans', 'Bitstream Vera Sans', 'Computer Modern Sans Serif', 'Lucida Grande', 'Verdana', 'Geneva', 'Lucid', 'Arial', 'Helvetica', 'Avant Garde', sans-serif; text-anchor: start" x="447.278234" y="484.488125" transform="rotate(-0 447.278234 484.488125)">Raw</text>
    </g>
    <g id="line2d_18">
     <path d="M 391.278234 506.844375 
L 411.278234 506.844375 
L 431.278234 506.844375 
" style="fill: none; stroke: #008000; stroke-width: 1.5; stroke-linecap: square"/>
    </g>
    <g id="text_16">
     <text style="font: 20px 'DejaVu Sans', 'Bitstream Vera Sans', 'Computer Modern Sans Serif', 'Lucida Grande', 'Verdana', 'Geneva', 'Lucid', 'Arial', 'Helvetica', 'Avant Garde', sans-serif; text-anchor: start" x="447.278234" y="513.844375" transform="rotate(-0 447.278234 513.844375)">Smoothed</text>
    </g>
    <g id="line2d_19">
     <g>
      <use xlink:href="#m6ec745b58c" x="411.278234" y="536.200625" style="fill: #ff0000; stroke: #ff0000"/>
     </g>
    </g>
    <g id="text_17">
     <text style="font: 20px 'DejaVu Sans', 'Bitstream Vera Sans', 'Computer Modern Sans Serif', 'Lucida Grande', 'Verdana', 'Geneva', 'Lucid', 'Arial', 'Helvetica', 'Avant Garde', sans-serif; text-anchor: start" x="447.278234" y="543.200625" transform="rotate(-0 447.278234 543.200625)">Peaks</text>
    </g>
   </g>
  </g>
  <g id="axes_2">
   <g id="patch_7">
    <path d="M 1027.547013 565.36 
L 1206.769091 565.36 
L 1206.769091 182.584 
L 1027.547013 182.584 
z
" style="fill: #ffffff"/>
   </g>
   <g id="patch_8">
    <path d="M 1035.693471 565.36 
L 1108.106432 565.36 
L 1108.106432 206.48278 
L 1035.693471 206.48278 
z
" clip-path="url(#p447d3ec872)" style="fill: #ffd700; fill-opacity: 0.5; stroke: #000000; stroke-linejoin: miter"/>
   </g>
   <g id="patch_9">
    <path d="M 1126.209672 565.36 
L 1198.622633 565.36 
L 1198.622633 200.811429 
L 1126.209672 200.811429 
z
" clip-path="url(#p447d3ec872)" style="fill: #ffd700; fill-opacity: 0.5; stroke: #000000; stroke-linejoin: miter"/>
   </g>
   <g id="matplotlib.axis_3">
    <g id="xtick_8">
     <g id="line2d_20">
      <defs>
       <path id="m61df1acc04" d="M 0 0 
L 0 3.5 
" style="stroke: #000000; stroke-width: 0.8"/>
      </defs>
      <g>
       <use xlink:href="#m61df1acc04" x="1071.899951" y="565.36" style="stroke: #000000; stroke-width: 0.8"/>
      </g>
     </g>
     <g id="text_18">
      <text style="font: 20px 'DejaVu Sans', 'Bitstream Vera Sans', 'Computer Modern Sans Serif', 'Lucida Grande', 'Verdana', 'Geneva', 'Lucid', 'Arial', 'Helvetica', 'Avant Garde', sans-serif; text-anchor: middle" x="1071.899951" y="587.556875" transform="rotate(-0 1071.899951 587.556875)">2</text>
     </g>
    </g>
    <g id="xtick_9">
     <g id="line2d_21">
      <g>
       <use xlink:href="#m61df1acc04" x="1162.416152" y="565.36" style="stroke: #000000; stroke-width: 0.8"/>
      </g>
     </g>
     <g id="text_19">
      <text style="font: 20px 'DejaVu Sans', 'Bitstream Vera Sans', 'Computer Modern Sans Serif', 'Lucida Grande', 'Verdana', 'Geneva', 'Lucid', 'Arial', 'Helvetica', 'Avant Garde', sans-serif; text-anchor: middle" x="1162.416152" y="587.556875" transform="rotate(-0 1162.416152 587.556875)">4</text>
     </g>
    </g>
    <g id="text_20">
     <text style="font: 25px 'DejaVu Sans', 'Bitstream Vera Sans', 'Computer Modern Sans Serif', 'Lucida Grande', 'Verdana', 'Geneva', 'Lucid', 'Arial', 'Helvetica', 'Avant Garde', sans-serif; text-anchor: middle" x="1117.158052" y="614.712344" transform="rotate(-0 1117.158052 614.712344)">Harmonic</text>
    </g>
   </g>
   <g id="matplotlib.axis_4">
    <g id="ytick_7">
     <g id="line2d_22">
      <defs>
       <path id="m33f99c5e36" d="M 0 0 
L -3.5 0 
" style="stroke: #000000; stroke-width: 0.8"/>
      </defs>
      <g>
       <use xlink:href="#m33f99c5e36" x="1027.547013" y="565.36" style="stroke: #000000; stroke-width: 0.8"/>
      </g>
     </g>
     <g id="text_21">
      <text style="font: 20px 'DejaVu Sans', 'Bitstream Vera Sans', 'Computer Modern Sans Serif', 'Lucida Grande', 'Verdana', 'Geneva', 'Lucid', 'Arial', 'Helvetica', 'Avant Garde', sans-serif; text-anchor: end" x="1020.547013" y="572.958437" transform="rotate(-0 1020.547013 572.958437)">0.00</text>
     </g>
    </g>
    <g id="ytick_8">
     <g id="line2d_23">
      <g>
       <use xlink:href="#m33f99c5e36" x="1027.547013" y="481.302886" style="stroke: #000000; stroke-width: 0.8"/>
      </g>
     </g>
     <g id="text_22">
      <text style="font: 20px 'DejaVu Sans', 'Bitstream Vera Sans', 'Computer Modern Sans Serif', 'Lucida Grande', 'Verdana', 'Geneva', 'Lucid', 'Arial', 'Helvetica', 'Avant Garde', sans-serif; text-anchor: end" x="1020.547013" y="488.901324" transform="rotate(-0 1020.547013 488.901324)">0.02</text>
     </g>
    </g>
    <g id="ytick_9">
     <g id="line2d_24">
      <g>
       <use xlink:href="#m33f99c5e36" x="1027.547013" y="397.245772" style="stroke: #000000; stroke-width: 0.8"/>
      </g>
     </g>
     <g id="text_23">
      <text style="font: 20px 'DejaVu Sans', 'Bitstream Vera Sans', 'Computer Modern Sans Serif', 'Lucida Grande', 'Verdana', 'Geneva', 'Lucid', 'Arial', 'Helvetica', 'Avant Garde', sans-serif; text-anchor: end" x="1020.547013" y="404.84421" transform="rotate(-0 1020.547013 404.84421)">0.04</text>
     </g>
    </g>
    <g id="ytick_10">
     <g id="line2d_25">
      <g>
       <use xlink:href="#m33f99c5e36" x="1027.547013" y="313.188659" style="stroke: #000000; stroke-width: 0.8"/>
      </g>
     </g>
     <g id="text_24">
      <text style="font: 20px 'DejaVu Sans', 'Bitstream Vera Sans', 'Computer Modern Sans Serif', 'Lucida Grande', 'Verdana', 'Geneva', 'Lucid', 'Arial', 'Helvetica', 'Avant Garde', sans-serif; text-anchor: end" x="1020.547013" y="320.787096" transform="rotate(-0 1020.547013 320.787096)">0.06</text>
     </g>
    </g>
    <g id="ytick_11">
     <g id="line2d_26">
      <g>
       <use xlink:href="#m33f99c5e36" x="1027.547013" y="229.131545" style="stroke: #000000; stroke-width: 0.8"/>
      </g>
     </g>
     <g id="text_25">
      <text style="font: 20px 'DejaVu Sans', 'Bitstream Vera Sans', 'Computer Modern Sans Serif', 'Lucida Grande', 'Verdana', 'Geneva', 'Lucid', 'Arial', 'Helvetica', 'Avant Garde', sans-serif; text-anchor: end" x="1020.547013" y="236.729982" transform="rotate(-0 1020.547013 236.729982)">0.08</text>
     </g>
    </g>
    <g id="text_26">
     <text style="font: 25px 'DejaVu Sans', 'Bitstream Vera Sans', 'Computer Modern Sans Serif', 'Lucida Grande', 'Verdana', 'Geneva', 'Lucid', 'Arial', 'Helvetica', 'Avant Garde', sans-serif; text-anchor: middle" x="966.816544" y="373.972" transform="rotate(-90 966.816544 373.972)">Amplitude</text>
    </g>
   </g>
   <g id="patch_10">
    <path d="M 1027.547013 565.36 
L 1027.547013 182.584 
" style="fill: none; stroke: #000000; stroke-width: 0.8; stroke-linejoin: miter; stroke-linecap: square"/>
   </g>
   <g id="patch_11">
    <path d="M 1206.769091 565.36 
L 1206.769091 182.584 
" style="fill: none; stroke: #000000; stroke-width: 0.8; stroke-linejoin: miter; stroke-linecap: square"/>
   </g>
   <g id="patch_12">
    <path d="M 1027.547013 565.36 
L 1206.769091 565.36 
" style="fill: none; stroke: #000000; stroke-width: 0.8; stroke-linejoin: miter; stroke-linecap: square"/>
   </g>
   <g id="patch_13">
    <path d="M 1027.547013 182.584 
L 1206.769091 182.584 
" style="fill: none; stroke: #000000; stroke-width: 0.8; stroke-linejoin: miter; stroke-linecap: square"/>
   </g>
   <g id="text_27">
    <g id="patch_14">
     <path d="M 1197.807987 316.66155 
L 1483.532987 316.66155 
Q 1489.532987 316.66155 1489.532987 310.66155 
L 1489.532987 201.7228 
Q 1489.532987 195.7228 1483.532987 195.7228 
L 1197.807987 195.7228 
Q 1191.807987 195.7228 1191.807987 201.7228 
L 1191.807987 310.66155 
Q 1191.807987 316.66155 1197.807987 316.66155 
z
" style="fill: #f5deb3; stroke: #000000; stroke-linejoin: miter"/>
    </g>
    <text style="font: 20px 'DejaVu Sans', 'Bitstream Vera Sans', 'Computer Modern Sans Serif', 'Lucida Grande', 'Verdana', 'Geneva', 'Lucid', 'Arial', 'Helvetica', 'Avant Garde', sans-serif" transform="translate(1197.807987 216.919675)">2nd Harmonic: 0.0854</text>
    <text style="font: 20px 'DejaVu Sans', 'Bitstream Vera Sans', 'Computer Modern Sans Serif', 'Lucida Grande', 'Verdana', 'Geneva', 'Lucid', 'Arial', 'Helvetica', 'Avant Garde', sans-serif" transform="translate(1197.807987 239.3153)">4th Harmonic: 0.0867</text>
    <text style="font: 20px 'DejaVu Sans', 'Bitstream Vera Sans', 'Computer Modern Sans Serif', 'Lucida Grande', 'Verdana', 'Geneva', 'Lucid', 'Arial', 'Helvetica', 'Avant Garde', sans-serif" transform="translate(1197.807987 261.710925)">Ratio (H4/H2): 1.02</text>
    <text style="font: 20px 'DejaVu Sans', 'Bitstream Vera Sans', 'Computer Modern Sans Serif', 'Lucida Grande', 'Verdana', 'Geneva', 'Lucid', 'Arial', 'Helvetica', 'Avant Garde', sans-serif" transform="translate(1197.807987 284.10655)">Orientation peaks: 2</text>
    <text style="font: 20px 'DejaVu Sans', 'Bitstream Vera Sans', 'Computer Modern Sans Serif', 'Lucida Grande', 'Verdana', 'Geneva', 'Lucid', 'Arial', 'Helvetica', 'Avant Garde', sans-serif" transform="translate(1197.807987 306.502175)">Angle between peaks: 113.0</text>
   </g>
   <g id="text_28">
    <text style="font: 30px 'DejaVu Sans', 'Bitstream Vera Sans', 'Computer Modern Sans Serif', 'Lucida Grande', 'Verdana', 'Geneva', 'Lucid', 'Arial', 'Helvetica', 'Avant Garde', sans-serif" transform="translate(1013.550239 48.990563)">FFT Spectrum</text>
    <text style="font: 30px 'DejaVu Sans', 'Bitstream Vera Sans', 'Computer Modern Sans Serif', 'Lucida Grande', 'Verdana', 'Geneva', 'Lucid', 'Arial', 'Helvetica', 'Avant Garde', sans-serif" transform="translate(971.683833 82.584)">H4:H2 Ratio = 1.02</text>
   </g>
  </g>
 </g>
 <defs>
  <clipPath id="pd2d5230b58">
   <path d="M 756.054234 469.666 
C 756.054234 418.926214 735.876433 370.212694 699.997986 334.334247 
C 664.119539 298.4558 615.40602 278.278 564.666234 278.278 
C 513.926447 278.278 465.212928 298.4558 429.334481 334.334247 
C 393.456034 370.212694 373.278234 418.926214 373.278234 469.666 
L 564.666234 469.666 
C 564.666234 469.666 564.666234 469.666 564.666234 469.666 
C 564.666234 469.666 564.666234 469.666 564.666234 469.666 
C 564.666234 469.666 564.666234 469.666 564.666234 469.666 
C 564.666234 469.666 564.666234 469.666 564.666234 469.666 
z
"/>
  </clipPath>
  <clipPath id="p447d3ec872">
   <rect x="1027.547013" y="182.584" width="179.222078" height="382.776"/>
  </clipPath>
 </defs>
</svg>
