<?xml version="1.0" encoding="utf-8" standalone="no"?>
<!DOCTYPE svg PUBLIC "-//W3C//DTD SVG 1.1//EN"
  "http://www.w3.org/Graphics/SVG/1.1/DTD/svg11.dtd">
<svg xmlns:xlink="http://www.w3.org/1999/xlink" width="1512pt" height="648pt" viewBox="0 0 1512 648" xmlns="http://www.w3.org/2000/svg" version="1.1">
 <metadata>
  <rdf:RDF xmlns:dc="http://purl.org/dc/elements/1.1/" xmlns:cc="http://creativecommons.org/ns#" xmlns:rdf="http://www.w3.org/1999/02/22-rdf-syntax-ns#">
   <cc:Work>
    <dc:type rdf:resource="http://purl.org/dc/dcmitype/StillImage"/>
    <dc:date>2025-04-19T18:37:10.888675</dc:date>
    <dc:format>image/svg+xml</dc:format>
    <dc:creator>
     <cc:Agent>
      <dc:title>Matplotlib v3.9.2, https://matplotlib.org/</dc:title>
     </cc:Agent>
    </dc:creator>
   </cc:Work>
  </rdf:RDF>
 </metadata>
 <defs>
  <style type="text/css">*{stroke-linejoin: round; stroke-linecap: butt}</style>
 </defs>
 <g id="figure_1">
  <g id="patch_1">
   <path d="M 0 648 
L 1512 648 
L 1512 0 
L 0 0 
z
" style="fill: #ffffff"/>
  </g>
  <g id="axes_1">
   <g id="patch_2">
    <path d="M 756.054234 469.666 
C 756.054234 418.926214 735.876433 370.212694 699.997986 334.334247 
C 664.119539 298.4558 615.40602 278.278 564.666234 278.278 
C 513.926447 278.278 465.212928 298.4558 429.334481 334.334247 
C 393.456034 370.212694 373.278234 418.926214 373.278234 469.666 
L 564.666234 469.666 
C 564.666234 469.666 564.666234 469.666 564.666234 469.666 
C 564.666234 469.666 564.666234 469.666 564.666234 469.666 
C 564.666234 469.666 564.666234 469.666 564.666234 469.666 
C 564.666234 469.666 564.666234 469.666 564.666234 469.666 
z
" style="fill: #ffffff"/>
   </g>
   <g id="matplotlib.axis_1">
    <g id="xtick_1">
     <g id="line2d_1">
      <path d="M 564.666234 469.666 
L 756.054234 469.666 
" clip-path="url(#pfb15aad847)" style="fill: none; stroke: #b0b0b0; stroke-width: 0.8; stroke-linecap: square"/>
     </g>
     <g id="text_1">
      <text style="font: 20px 'DejaVu Sans', 'Bitstream Vera Sans', 'Computer Modern Sans Serif', 'Lucida Grande', 'Verdana', 'Geneva', 'Lucid', 'Arial', 'Helvetica', 'Avant Garde', sans-serif; text-anchor: middle" x="770.054234" y="475.18475" transform="rotate(-0 770.054234 475.18475)">0°</text>
     </g>
    </g>
    <g id="xtick_2">
     <g id="line2d_2">
      <path d="M 564.666234 469.666 
L 730.413104 373.972 
" clip-path="url(#pfb15aad847)" style="fill: none; stroke: #b0b0b0; stroke-width: 0.8; stroke-linecap: square"/>
     </g>
     <g id="text_2">
      <text style="font: 20px 'DejaVu Sans', 'Bitstream Vera Sans', 'Computer Modern Sans Serif', 'Lucida Grande', 'Verdana', 'Geneva', 'Lucid', 'Arial', 'Helvetica', 'Avant Garde', sans-serif; text-anchor: middle" x="742.537459" y="372.49075" transform="rotate(-0 742.537459 372.49075)">30°</text>
     </g>
    </g>
    <g id="xtick_3">
     <g id="line2d_3">
      <path d="M 564.666234 469.666 
L 660.360234 303.91913 
" clip-path="url(#pfb15aad847)" style="fill: none; stroke: #b0b0b0; stroke-width: 0.8; stroke-linecap: square"/>
     </g>
     <g id="text_3">
      <text style="font: 20px 'DejaVu Sans', 'Bitstream Vera Sans', 'Computer Modern Sans Serif', 'Lucida Grande', 'Verdana', 'Geneva', 'Lucid', 'Arial', 'Helvetica', 'Avant Garde', sans-serif; text-anchor: middle" x="667.360234" y="297.313524" transform="rotate(-0 667.360234 297.313524)">60°</text>
     </g>
    </g>
    <g id="xtick_4">
     <g id="line2d_4">
      <path d="M 564.666234 469.666 
L 564.666234 278.278 
" clip-path="url(#pfb15aad847)" style="fill: none; stroke: #b0b0b0; stroke-width: 0.8; stroke-linecap: square"/>
     </g>
     <g id="text_4">
      <text style="font: 20px 'DejaVu Sans', 'Bitstream Vera Sans', 'Computer Modern Sans Serif', 'Lucida Grande', 'Verdana', 'Geneva', 'Lucid', 'Arial', 'Helvetica', 'Avant Garde', sans-serif; text-anchor: middle" x="564.666234" y="269.79675" transform="rotate(-0 564.666234 269.79675)">90°</text>
     </g>
    </g>
    <g id="xtick_5">
     <g id="line2d_5">
      <path d="M 564.666234 469.666 
L 468.972234 303.91913 
" clip-path="url(#pfb15aad847)" style="fill: none; stroke: #b0b0b0; stroke-width: 0.8; stroke-linecap: square"/>
     </g>
     <g id="text_5">
      <text style="font: 20px 'DejaVu Sans', 'Bitstream Vera Sans', 'Computer Modern Sans Serif', 'Lucida Grande', 'Verdana', 'Geneva', 'Lucid', 'Arial', 'Helvetica', 'Avant Garde', sans-serif; text-anchor: middle" x="461.972234" y="297.313524" transform="rotate(-0 461.972234 297.313524)">120°</text>
     </g>
    </g>
    <g id="xtick_6">
     <g id="line2d_6">
      <path d="M 564.666234 469.666 
L 398.919364 373.972 
" clip-path="url(#pfb15aad847)" style="fill: none; stroke: #b0b0b0; stroke-width: 0.8; stroke-linecap: square"/>
     </g>
     <g id="text_6">
      <text style="font: 20px 'DejaVu Sans', 'Bitstream Vera Sans', 'Computer Modern Sans Serif', 'Lucida Grande', 'Verdana', 'Geneva', 'Lucid', 'Arial', 'Helvetica', 'Avant Garde', sans-serif; text-anchor: middle" x="386.795008" y="372.49075" transform="rotate(-0 386.795008 372.49075)">150°</text>
     </g>
    </g>
    <g id="xtick_7">
     <g id="line2d_7">
      <path d="M 564.666234 469.666 
L 373.278234 469.666 
" clip-path="url(#pfb15aad847)" style="fill: none; stroke: #b0b0b0; stroke-width: 0.8; stroke-linecap: square"/>
     </g>
     <g id="text_7">
      <text style="font: 20px 'DejaVu Sans', 'Bitstream Vera Sans', 'Computer Modern Sans Serif', 'Lucida Grande', 'Verdana', 'Geneva', 'Lucid', 'Arial', 'Helvetica', 'Avant Garde', sans-serif; text-anchor: middle" x="359.278234" y="475.18475" transform="rotate(-0 359.278234 475.18475)">180°</text>
     </g>
    </g>
   </g>
   <g id="matplotlib.axis_2">
    <g id="ytick_1">
     <g id="line2d_8">
      <path d="M 574.734904 469.666 
C 574.734904 466.996647 573.673377 464.433893 571.785859 462.546375 
C 569.898341 460.658857 567.335587 459.59733 564.666234 459.59733 
C 561.996881 459.59733 559.434127 460.658857 557.546609 462.546375 
C 555.659091 464.433893 554.597564 466.996647 554.597564 469.666 
" clip-path="url(#pfb15aad847)" style="fill: none; stroke: #b0b0b0; stroke-width: 0.8; stroke-linecap: square"/>
     </g>
     <g id="text_8">
      <text style="font: 20px 'DejaVu Sans', 'Bitstream Vera Sans', 'Computer Modern Sans Serif', 'Lucida Grande', 'Verdana', 'Geneva', 'Lucid', 'Arial', 'Helvetica', 'Avant Garde', sans-serif; text-anchor: middle" x="574.734904" y="491.862875" transform="rotate(-0 574.734904 491.862875)">0.0</text>
     </g>
    </g>
    <g id="ytick_2">
     <g id="line2d_9">
      <path d="M 609.258879 469.666 
C 609.258879 457.843831 604.557532 446.493774 596.197996 438.134238 
C 587.83846 429.774702 576.488403 425.073355 564.666234 425.073355 
C 552.844065 425.073355 541.494008 429.774702 533.134472 438.134238 
C 524.774936 446.493774 520.073588 457.843831 520.073588 469.666 
" clip-path="url(#pfb15aad847)" style="fill: none; stroke: #b0b0b0; stroke-width: 0.8; stroke-linecap: square"/>
     </g>
     <g id="text_9">
      <text style="font: 20px 'DejaVu Sans', 'Bitstream Vera Sans', 'Computer Modern Sans Serif', 'Lucida Grande', 'Verdana', 'Geneva', 'Lucid', 'Arial', 'Helvetica', 'Avant Garde', sans-serif; text-anchor: middle" x="609.258879" y="491.862875" transform="rotate(-0 609.258879 491.862875)">0.2</text>
     </g>
    </g>
    <g id="ytick_3">
     <g id="line2d_10">
      <path d="M 643.782854 469.666 
C 643.782854 448.691015 635.441687 428.553655 620.610133 413.722101 
C 605.778578 398.890547 585.641219 390.54938 564.666234 390.54938 
C 543.691249 390.54938 523.553889 398.890547 508.722335 413.722101 
C 493.890781 428.553655 485.549613 448.691015 485.549613 469.666 
" clip-path="url(#pfb15aad847)" style="fill: none; stroke: #b0b0b0; stroke-width: 0.8; stroke-linecap: square"/>
     </g>
     <g id="text_10">
      <text style="font: 20px 'DejaVu Sans', 'Bitstream Vera Sans', 'Computer Modern Sans Serif', 'Lucida Grande', 'Verdana', 'Geneva', 'Lucid', 'Arial', 'Helvetica', 'Avant Garde', sans-serif; text-anchor: middle" x="643.782854" y="491.862875" transform="rotate(-0 643.782854 491.862875)">0.4</text>
     </g>
    </g>
    <g id="ytick_4">
     <g id="line2d_11">
      <path d="M 678.306829 469.666 
C 678.306829 439.538199 666.325842 410.613537 645.022269 389.309964 
C 623.718697 368.006392 594.794034 356.025405 564.666234 356.025405 
C 534.538433 356.025405 505.61377 368.006392 484.310198 389.309964 
C 463.006626 410.613537 451.025638 439.538199 451.025638 469.666 
" clip-path="url(#pfb15aad847)" style="fill: none; stroke: #b0b0b0; stroke-width: 0.8; stroke-linecap: square"/>
     </g>
     <g id="text_11">
      <text style="font: 20px 'DejaVu Sans', 'Bitstream Vera Sans', 'Computer Modern Sans Serif', 'Lucida Grande', 'Verdana', 'Geneva', 'Lucid', 'Arial', 'Helvetica', 'Avant Garde', sans-serif; text-anchor: middle" x="678.306829" y="491.862875" transform="rotate(-0 678.306829 491.862875)">0.6</text>
     </g>
    </g>
    <g id="ytick_5">
     <g id="line2d_12">
      <path d="M 712.830804 469.666 
C 712.830804 430.385383 697.209997 392.673418 669.434406 364.897828 
C 641.658816 337.122237 603.94685 321.50143 564.666234 321.50143 
C 525.385617 321.50143 487.673652 337.122237 459.898061 364.897828 
C 432.122471 392.673418 416.501663 430.385383 416.501663 469.666 
" clip-path="url(#pfb15aad847)" style="fill: none; stroke: #b0b0b0; stroke-width: 0.8; stroke-linecap: square"/>
     </g>
     <g id="text_12">
      <text style="font: 20px 'DejaVu Sans', 'Bitstream Vera Sans', 'Computer Modern Sans Serif', 'Lucida Grande', 'Verdana', 'Geneva', 'Lucid', 'Arial', 'Helvetica', 'Avant Garde', sans-serif; text-anchor: middle" x="712.830804" y="491.862875" transform="rotate(-0 712.830804 491.862875)">0.8</text>
     </g>
    </g>
    <g id="ytick_6">
     <g id="line2d_13">
      <path d="M 747.354779 469.666 
C 747.354779 421.232568 728.094152 374.733299 693.846543 340.485691 
C 659.598935 306.238082 613.099666 286.977455 564.666234 286.977455 
C 516.232801 286.977455 469.733533 306.238082 435.485924 340.485691 
C 401.238316 374.733299 381.977688 421.232568 381.977688 469.666 
" clip-path="url(#pfb15aad847)" style="fill: none; stroke: #b0b0b0; stroke-width: 0.8; stroke-linecap: square"/>
     </g>
     <g id="text_13">
      <text style="font: 20px 'DejaVu Sans', 'Bitstream Vera Sans', 'Computer Modern Sans Serif', 'Lucida Grande', 'Verdana', 'Geneva', 'Lucid', 'Arial', 'Helvetica', 'Avant Garde', sans-serif; text-anchor: middle" x="747.354779" y="491.862875" transform="rotate(-0 747.354779 491.862875)">1.0</text>
     </g>
    </g>
   </g>
   <g id="line2d_14">
    <path d="M 712.586163 468.375122 
L 699.624117 466.132003 
L 696.930214 463.89123 
L 685.498841 462.275561 
L 695.339737 459.381772 
L 720.821723 454.629937 
L 718.807488 452.103822 
L 717.895678 449.492961 
L 728.917336 445.118508 
L 713.61496 444.740532 
L 711.929775 442.372316 
L 717.474477 438.576811 
L 718.512858 435.559024 
L 738.966258 427.820266 
L 741.535718 423.924441 
L 710.748809 429.153717 
L 695.348781 430.956066 
L 679.836754 433.352874 
L 659.251722 438.018138 
L 650.467582 439.282149 
L 647.28574 438.775832 
L 643.289175 438.6956 
L 645.191292 436.311429 
L 649.215461 432.90295 
L 643.114051 433.91527 
L 640.3498 433.566791 
L 645.867349 429.180617 
L 645.271452 427.705579 
L 637.266529 428.590729 
L 619.925745 437.11566 
L 603.346388 445.962771 
L 597.815376 448.547668 
L 594.345399 450.021789 
L 595.624829 448.388747 
L 591.348472 450.633744 
L 588.867954 451.757669 
L 590.066979 450.175323 
L 582.464461 454.464878 
L 583.187386 453.279868 
L 578.147055 457.313104 
L 577.821057 457.182539 
L 577.28916 457.261485 
L 575.426035 457.923737 
L 576.764971 454.989058 
L 576.919582 453.10655 
L 577.310287 451.939691 
L 590.034988 432.754234 
L 570.798485 460.040293 
L 569.932675 461.07195 
L 569.655809 460.846955 
L 569.745066 459.018006 
L 569.85114 457.741531 
L 569.91125 455.637566 
L 570.107276 454.30097 
L 569.489569 455.250571 
L 569.189122 455.321231 
L 568.971417 455.131944 
L 568.819759 454.68887 
L 568.493622 454.866586 
L 568.099507 454.179504 
L 567.822326 454.153311 
L 567.363549 453.547477 
L 567.181191 452.838029 
L 566.830018 453.230428 
L 566.164781 456.513422 
L 565.954439 456.287475 
L 564.829519 450.955311 
L 564.50062 450.688571 
L 564.147937 449.87304 
L 563.783964 449.458705 
L 563.346752 448.092662 
L 562.071046 442.713945 
L 560.815939 435.8724 
L 557.331282 413.951513 
L 554.12052 399.102983 
L 551.881542 393.267696 
L 548.632918 383.157967 
L 544.677106 371.416298 
L 542.903102 371.498858 
L 542.859557 378.834653 
L 540.764712 377.245673 
L 539.186761 377.78999 
L 535.250704 370.360835 
L 523.004468 337.531761 
L 518.886658 332.845269 
L 521.556315 347.927344 
L 519.542876 348.978099 
L 511.737915 335.299636 
L 509.993031 337.673213 
L 506.778758 336.533921 
L 497.964079 323.30148 
L 494.570015 322.70622 
L 493.825049 327.580565 
L 485.143316 316.903896 
L 479.541497 312.885739 
L 490.736587 338.995792 
L 501.816431 362.968207 
L 498.93248 362.398263 
L 492.655996 356.632568 
L 488.061791 353.929311 
L 486.736498 356.277531 
L 486.907128 360.651754 
L 474.480753 347.787317 
L 484.715372 365.472008 
L 482.962251 366.950016 
L 479.50567 366.357975 
L 475.740721 365.547601 
L 475.259272 368.609813 
L 483.377752 380.955189 
L 486.873082 387.689123 
L 485.858088 389.470248 
L 497.286412 403.452033 
L 508.671772 416.52924 
L 511.717792 421.147692 
L 512.109768 423.167967 
L 512.920869 425.471283 
L 514.701524 428.478272 
L 518.591412 433.016432 
L 516.934528 433.040174 
L 523.095718 438.905436 
L 523.077715 440.001198 
L 520.587799 439.371731 
L 508.445548 432.45434 
L 512.484167 436.422357 
L 512.312232 437.583427 
L 516.439838 441.258482 
L 531.395233 450.842174 
L 537.316869 454.816507 
L 539.286019 456.453896 
L 539.995102 457.365427 
L 538.657402 457.260424 
L 536.007816 456.605607 
L 530.265961 455.41694 
L 522.795234 453.172574 
L 513.328974 450.471785 
L 508.375118 449.73227 
L 520.137704 454.766962 
L 516.444908 454.461874 
L 502.201615 451.163137 
L 504.582086 453.003191 
L 496.749075 452.101428 
L 461.592122 444.920095 
L 456.540329 445.695064 
L 484.222816 453.299602 
L 487.631905 455.388531 
L 489.172968 457.03276 
L 484.742851 457.72137 
L 467.535924 456.878552 
L 472.670676 459.18443 
L 475.730517 461.102464 
L 473.818205 462.516105 
L 455.602027 462.995347 
L 440.972799 464.265428 
L 439.70275 466.393716 
L 431.534414 468.504176 
L 416.746305 470.956878 
L 429.708351 473.199997 
L 432.402254 475.44077 
L 443.833626 477.056439 
L 433.992731 479.950228 
L 408.510744 484.702063 
L 410.524979 487.228178 
L 411.436789 489.839039 
L 400.415131 494.213492 
L 415.717508 494.591468 
L 417.402693 496.959684 
L 411.85799 500.755189 
L 410.819609 503.772976 
L 390.36621 511.511734 
L 387.79675 515.407559 
L 418.583659 510.178283 
L 433.983687 508.375934 
L 449.495714 505.979126 
L 470.080746 501.313862 
L 478.864885 500.049851 
L 482.046727 500.556168 
L 486.043292 500.6364 
L 484.141176 503.020571 
L 480.117006 506.42905 
L 486.218417 505.41673 
L 488.982668 505.765209 
L 483.465118 510.151383 
L 484.061015 511.626421 
L 492.065938 510.741271 
L 509.406722 502.21634 
L 525.98608 493.369229 
L 531.517092 490.784332 
L 534.987069 489.310211 
L 533.707638 490.943253 
L 537.983996 488.698256 
L 540.464514 487.574331 
L 539.265489 489.156677 
L 546.868006 484.867122 
L 546.145081 486.052132 
L 551.185413 482.018896 
L 551.511411 482.149461 
L 552.043307 482.070515 
L 553.906432 481.408263 
L 552.567497 484.342942 
L 552.412886 486.22545 
L 552.022181 487.392309 
L 539.29748 506.577766 
L 558.533982 479.291707 
L 559.399793 478.26005 
L 559.676658 478.485045 
L 559.587401 480.313994 
L 559.481327 481.590469 
L 559.421217 483.694434 
L 559.225191 485.03103 
L 559.842899 484.081429 
L 560.143346 484.010769 
L 560.36105 484.200056 
L 560.512708 484.64313 
L 560.838845 484.465414 
L 561.23296 485.152496 
L 561.510142 485.178689 
L 561.968918 485.784523 
L 562.151277 486.493971 
L 562.50245 486.101572 
L 563.167687 482.818578 
L 563.378028 483.044525 
L 564.502948 488.376689 
L 564.831847 488.643429 
L 565.184531 489.45896 
L 565.548503 489.873295 
L 565.985716 491.239338 
L 567.261421 496.618055 
L 568.516528 503.4596 
L 572.001185 525.380487 
L 575.211947 540.229017 
L 577.450925 546.064304 
L 580.69955 556.174033 
L 584.655362 567.915702 
L 586.429365 567.833142 
L 586.472911 560.497347 
L 588.567755 562.086327 
L 590.145706 561.54201 
L 594.081764 568.971165 
L 606.327999 601.800239 
L 610.44581 606.486731 
L 607.776153 591.404656 
L 609.789591 590.353901 
L 617.594552 604.032364 
L 619.339436 601.658787 
L 622.553709 602.798079 
L 631.368388 616.03052 
L 634.762453 616.62578 
L 635.507419 611.751435 
L 644.189152 622.428104 
L 649.79097 626.446261 
L 638.59588 600.336208 
L 627.516037 576.363793 
L 630.399987 576.933737 
L 636.676472 582.699432 
L 641.270677 585.402689 
L 642.595969 583.054469 
L 642.425339 578.680246 
L 654.851715 591.544683 
L 644.617096 573.859992 
L 646.370217 572.381984 
L 649.826798 572.974025 
L 653.591747 573.784399 
L 654.073196 570.722187 
L 645.954716 558.376811 
L 642.459385 551.642877 
L 643.474379 549.861752 
L 632.046056 535.879967 
L 620.660696 522.80276 
L 617.614676 518.184308 
L 617.222699 516.164033 
L 616.411599 513.860717 
L 614.630943 510.853728 
L 610.741056 506.315568 
L 612.39794 506.291826 
L 606.23675 500.426564 
L 606.254752 499.330802 
L 608.744668 499.960269 
L 620.88692 506.87766 
L 616.8483 502.909643 
L 617.020235 501.748573 
L 612.892629 498.073518 
L 597.937234 488.489826 
L 592.015598 484.515493 
L 590.046449 482.878104 
L 589.337366 481.966573 
L 590.675065 482.071576 
L 593.324651 482.726393 
L 599.066507 483.91506 
L 606.537234 486.159426 
L 616.003494 488.860215 
L 620.95735 489.59973 
L 609.194763 484.565038 
L 612.88756 484.870126 
L 627.130853 488.168863 
L 624.750382 486.328809 
L 632.583392 487.230572 
L 667.740345 494.411905 
L 672.792138 493.636936 
L 645.109651 486.032398 
L 641.700562 483.943469 
L 640.1595 482.29924 
L 644.589617 481.61063 
L 661.796544 482.453448 
L 656.661791 480.14757 
L 653.60195 478.229536 
L 655.514263 476.815895 
L 673.730441 476.336653 
L 688.359668 475.066572 
L 689.629717 472.938284 
L 697.798053 470.827824 
L 697.798053 470.827824 
" clip-path="url(#pfb15aad847)" style="fill: none; stroke: #1f77b4; stroke-opacity: 0.6; stroke-width: 1.5; stroke-linecap: square"/>
   </g>
   <g id="line2d_15">
    <path d="M 699.499438 468.489328 
L 701.336336 466.087167 
L 702.692351 463.63965 
L 703.832288 461.154239 
L 704.825727 458.635209 
L 705.96595 456.060385 
L 706.568689 453.498257 
L 706.64436 450.974225 
L 706.480638 448.471695 
L 705.430387 446.110159 
L 704.02778 443.836864 
L 703.15739 441.489656 
L 701.899391 439.242141 
L 699.386607 437.3225 
L 696.235985 435.639749 
L 692.478914 434.220407 
L 684.116898 432.00335 
L 679.38612 431.281263 
L 674.099815 430.913536 
L 668.428894 430.870731 
L 662.916564 430.964166 
L 657.562084 431.187279 
L 652.033497 431.677633 
L 641.47621 433.029521 
L 636.023351 434.088654 
L 630.498693 435.395791 
L 624.672587 437.085209 
L 619.123801 438.855391 
L 602.297894 444.758148 
L 595.530062 447.651045 
L 590.199485 450.073647 
L 588.611117 450.61938 
L 587.557363 450.796009 
L 584.815325 451.83959 
L 583.377558 452.52023 
L 580.029847 454.568219 
L 573.483221 458.970139 
L 573.156567 458.992188 
L 573.040024 458.753064 
L 573.055844 458.328093 
L 573.193989 457.710528 
L 573.144907 457.329455 
L 572.315756 457.183114 
L 571.896332 456.886845 
L 571.437409 456.658694 
L 570.446096 456.373227 
L 569.570424 456.549146 
L 569.26123 456.69013 
L 568.911739 456.977521 
L 567.908732 458.719509 
L 566.54914 461.172757 
L 566.47214 460.789688 
L 566.447043 460.057614 
L 566.5849 458.200502 
L 566.553352 457.038998 
L 566.387895 456.588681 
L 566.241987 455.835794 
L 565.860338 450.142561 
L 565.314404 444.913363 
L 564.399326 439.081392 
L 563.770423 435.456382 
L 562.118335 428.008227 
L 559.604326 417.096074 
L 558.014842 411.287482 
L 556.251403 405.749012 
L 554.308865 400.363227 
L 552.165773 394.966192 
L 549.817985 389.552021 
L 544.657509 379.412474 
L 541.772495 374.306714 
L 538.762592 369.504048 
L 535.646321 365.023575 
L 532.398674 360.732545 
L 528.946374 356.377078 
L 525.413555 352.35211 
L 521.866049 348.802006 
L 518.162441 345.285957 
L 514.3533 341.939177 
L 510.608225 339.158421 
L 507.006831 337.058453 
L 503.586973 335.639795 
L 500.386778 334.901318 
L 497.412899 334.776679 
L 494.809327 335.472131 
L 492.475252 336.706752 
L 490.548263 338.662931 
L 489.0953 341.372013 
L 487.396372 348.376613 
L 486.719233 351.900928 
L 485.716045 358.981918 
L 485.25585 362.349025 
L 485.157235 366.047855 
L 485.612964 370.28242 
L 486.518576 374.86531 
L 487.941628 379.833029 
L 492.856206 393.99402 
L 495.263087 399.040844 
L 502.663238 412.850722 
L 510.097751 424.683214 
L 515.547092 431.975557 
L 516.731889 434.196451 
L 518.183969 436.510522 
L 521.808538 441.29911 
L 523.550901 443.472644 
L 524.704651 445.177511 
L 526.009081 447.794835 
L 526.107975 448.730573 
L 526.573573 449.836216 
L 526.521385 450.64768 
L 526.017811 451.231648 
L 525.144236 451.654788 
L 521.070573 451.608086 
L 515.152177 451.153453 
L 507.491187 451.638777 
L 504.667423 451.893543 
L 497.250357 452.231069 
L 489.486264 452.999002 
L 482.506379 454.438571 
L 477.747896 455.120859 
L 472.040952 455.823059 
L 459.575872 457.692466 
L 453.282104 458.940928 
L 447.82538 460.470425 
L 442.97398 462.222983 
L 438.832182 464.171967 
L 435.434838 466.281957 
L 432.403014 468.511756 
L 429.83303 470.842672 
L 427.996132 473.244833 
L 426.640117 475.69235 
L 425.50018 478.177761 
L 424.506741 480.696791 
L 423.366517 483.271615 
L 422.763779 485.833743 
L 422.688108 488.357775 
L 422.851829 490.860305 
L 423.90208 493.221841 
L 425.304687 495.495136 
L 426.175077 497.842344 
L 427.433076 500.089859 
L 429.94586 502.0095 
L 433.096483 503.692251 
L 436.853553 505.111593 
L 445.21557 507.32865 
L 449.946348 508.050737 
L 455.232652 508.418464 
L 460.903573 508.461269 
L 466.415903 508.367834 
L 471.770384 508.144721 
L 477.29897 507.654367 
L 487.856258 506.302479 
L 493.309116 505.243346 
L 498.833774 503.936209 
L 504.659881 502.246791 
L 510.208667 500.476609 
L 527.034574 494.573852 
L 533.802406 491.680955 
L 539.132982 489.258353 
L 540.721351 488.71262 
L 541.775105 488.535991 
L 544.517142 487.49241 
L 545.95491 486.81177 
L 549.30262 484.763781 
L 555.849247 480.361861 
L 556.1759 480.339812 
L 556.292443 480.578936 
L 556.276624 481.003907 
L 556.138479 481.621472 
L 556.187561 482.002545 
L 557.016712 482.148886 
L 557.436136 482.445155 
L 557.895059 482.673306 
L 558.886371 482.958773 
L 559.762043 482.782854 
L 560.071237 482.64187 
L 560.420728 482.354479 
L 561.423735 480.612491 
L 562.783327 478.159243 
L 562.860328 478.542312 
L 562.885425 479.274386 
L 562.747567 481.131498 
L 562.779116 482.293002 
L 562.944572 482.743319 
L 563.090481 483.496206 
L 563.472129 489.189439 
L 564.018063 494.418637 
L 564.933142 500.250608 
L 565.562044 503.875618 
L 567.214132 511.323773 
L 569.728142 522.235926 
L 571.317626 528.044518 
L 573.081065 533.582988 
L 575.023603 538.968773 
L 577.166695 544.365808 
L 579.514482 549.779979 
L 584.674959 559.919526 
L 587.559973 565.025286 
L 590.569876 569.827952 
L 593.686147 574.308425 
L 596.933793 578.599455 
L 600.386094 582.954922 
L 603.918912 586.97989 
L 607.466419 590.529994 
L 611.170026 594.046043 
L 614.979167 597.392823 
L 618.724243 600.173579 
L 622.325636 602.273547 
L 625.745494 603.692205 
L 628.94569 604.430682 
L 631.919568 604.555321 
L 634.52314 603.859869 
L 636.857215 602.625248 
L 638.784204 600.669069 
L 640.237167 597.959987 
L 641.936095 590.955387 
L 642.613235 587.431072 
L 643.616423 580.350082 
L 644.076618 576.982975 
L 644.175233 573.284145 
L 643.719503 569.04958 
L 642.813892 564.46669 
L 641.390839 559.498971 
L 636.476261 545.33798 
L 634.069381 540.291156 
L 626.66923 526.481278 
L 619.234716 514.648786 
L 613.785376 507.356443 
L 612.600578 505.135549 
L 611.148499 502.821478 
L 607.523929 498.03289 
L 605.781566 495.859356 
L 604.627816 494.154489 
L 603.323387 491.537165 
L 603.224493 490.601427 
L 602.758895 489.495784 
L 602.811083 488.68432 
L 603.314656 488.100352 
L 604.188231 487.677212 
L 608.261895 487.723914 
L 614.180291 488.178547 
L 621.84128 487.693223 
L 624.665045 487.438457 
L 632.082111 487.100931 
L 639.846204 486.332998 
L 646.826089 484.893429 
L 651.584572 484.211141 
L 657.291516 483.508941 
L 669.756595 481.639534 
L 676.050363 480.391072 
L 681.507088 478.861575 
L 686.358488 477.109017 
L 690.500286 475.160033 
L 693.89763 473.050043 
L 696.929453 470.820244 
L 696.929453 470.820244 
" clip-path="url(#pfb15aad847)" style="fill: none; stroke: #008000; stroke-width: 1.5; stroke-linecap: square"/>
   </g>
   <g id="line2d_16">
    <defs>
     <path id="m9c43efa88f" d="M 0 3 
C 0.795609 3 1.55874 2.683901 2.12132 2.12132 
C 2.683901 1.55874 3 0.795609 3 0 
C 3 -0.795609 2.683901 -1.55874 2.12132 -2.12132 
C 1.55874 -2.683901 0.795609 -3 0 -3 
C -0.795609 -3 -1.55874 -2.683901 -2.12132 -2.12132 
C -2.683901 -1.55874 -3 -0.795609 -3 0 
C -3 0.795609 -2.683901 1.55874 -2.12132 2.12132 
C -1.55874 2.683901 -0.795609 3 0 3 
z
" style="stroke: #ff0000"/>
    </defs>
    <g clip-path="url(#pfb15aad847)">
     <use xlink:href="#m9c43efa88f" x="706.480638" y="448.471695" style="fill: #ff0000; stroke: #ff0000"/>
     <use xlink:href="#m9c43efa88f" x="492.475252" y="336.706752" style="fill: #ff0000; stroke: #ff0000"/>
     <use xlink:href="#m9c43efa88f" x="422.851829" y="490.860305" style="fill: #ff0000; stroke: #ff0000"/>
     <use xlink:href="#m9c43efa88f" x="636.857215" y="602.625248" style="fill: #ff0000; stroke: #ff0000"/>
    </g>
   </g>
   <g id="patch_3">
    <path d="M 756.054234 469.666 
C 756.054234 418.926214 735.876433 370.212694 699.997986 334.334247 
C 664.119539 298.4558 615.40602 278.278 564.666234 278.278 
C 513.926447 278.278 465.212928 298.4558 429.334481 334.334247 
C 393.456034 370.212694 373.278234 418.926214 373.278234 469.666 
" style="fill: none; stroke: #000000; stroke-width: 0.8; stroke-linejoin: miter; stroke-linecap: square"/>
   </g>
   <g id="patch_4">
    <path d="M 564.666234 469.666 
L 756.054234 469.666 
" style="fill: none; stroke: #000000; stroke-width: 0.8; stroke-linejoin: miter; stroke-linecap: square"/>
   </g>
   <g id="patch_5">
    <path d="M 564.666234 469.666 
L 373.278234 469.666 
" style="fill: none; stroke: #000000; stroke-width: 0.8; stroke-linejoin: miter; stroke-linecap: square"/>
   </g>
   <g id="text_14">
    <text style="font: 30px 'DejaVu Sans', 'Bitstream Vera Sans', 'Computer Modern Sans Serif', 'Lucida Grande', 'Verdana', 'Geneva', 'Lucid', 'Arial', 'Helvetica', 'Avant Garde', sans-serif" transform="translate(295.906078 142.156187)">w184 d7 400 con t5_OJ_Distribution</text>
    <text style="font: 30px 'DejaVu Sans', 'Bitstream Vera Sans', 'Computer Modern Sans Serif', 'Lucida Grande', 'Verdana', 'Geneva', 'Lucid', 'Arial', 'Helvetica', 'Avant Garde', sans-serif" transform="translate(394.856859 176.584)">Dominant Harmonic: 4</text>
   </g>
   <g id="legend_1">
    <g id="patch_6">
     <path d="M 387.278234 555.36 
L 553.450109 555.36 
Q 557.450109 555.36 557.450109 551.36 
L 557.450109 465.29125 
Q 557.450109 461.29125 553.450109 461.29125 
L 387.278234 461.29125 
Q 383.278234 461.29125 383.278234 465.29125 
L 383.278234 551.36 
Q 383.278234 555.36 387.278234 555.36 
z
" style="fill: #ffffff; opacity: 0.5; stroke: #cccccc; stroke-linejoin: miter"/>
    </g>
    <g id="line2d_17">
     <path d="M 391.278234 477.488125 
L 411.278234 477.488125 
L 431.278234 477.488125 
" style="fill: none; stroke: #1f77b4; stroke-opacity: 0.6; stroke-width: 1.5; stroke-linecap: square"/>
    </g>
    <g id="text_15">
     <text style="font: 20px 'DejaVu Sans', 'Bitstream Vera Sans', 'Computer Modern Sans Serif', 'Lucida Grande', 'Verdana', 'Geneva', 'Lucid', 'Arial', 'Helvetica', 'Avant Garde', sans-serif; text-anchor: start" x="447.278234" y="484.488125" transform="rotate(-0 447.278234 484.488125)">Raw</text>
    </g>
    <g id="line2d_18">
     <path d="M 391.278234 506.844375 
L 411.278234 506.844375 
L 431.278234 506.844375 
" style="fill: none; stroke: #008000; stroke-width: 1.5; stroke-linecap: square"/>
    </g>
    <g id="text_16">
     <text style="font: 20px 'DejaVu Sans', 'Bitstream Vera Sans', 'Computer Modern Sans Serif', 'Lucida Grande', 'Verdana', 'Geneva', 'Lucid', 'Arial', 'Helvetica', 'Avant Garde', sans-serif; text-anchor: start" x="447.278234" y="513.844375" transform="rotate(-0 447.278234 513.844375)">Smoothed</text>
    </g>
    <g id="line2d_19">
     <g>
      <use xlink:href="#m9c43efa88f" x="411.278234" y="536.200625" style="fill: #ff0000; stroke: #ff0000"/>
     </g>
    </g>
    <g id="text_17">
     <text style="font: 20px 'DejaVu Sans', 'Bitstream Vera Sans', 'Computer Modern Sans Serif', 'Lucida Grande', 'Verdana', 'Geneva', 'Lucid', 'Arial', 'Helvetica', 'Avant Garde', sans-serif; text-anchor: start" x="447.278234" y="543.200625" transform="rotate(-0 447.278234 543.200625)">Peaks</text>
    </g>
   </g>
  </g>
  <g id="axes_2">
   <g id="patch_7">
    <path d="M 1027.547013 565.36 
L 1206.769091 565.36 
L 1206.769091 182.584 
L 1027.547013 182.584 
z
" style="fill: #ffffff"/>
   </g>
   <g id="patch_8">
    <path d="M 1035.693471 565.36 
L 1108.106432 565.36 
L 1108.106432 249.267747 
L 1035.693471 249.267747 
z
" clip-path="url(#pb0c0917e65)" style="fill: #ffd700; fill-opacity: 0.5; stroke: #000000; stroke-linejoin: miter"/>
   </g>
   <g id="patch_9">
    <path d="M 1126.209672 565.36 
L 1198.622633 565.36 
L 1198.622633 200.811429 
L 1126.209672 200.811429 
z
" clip-path="url(#pb0c0917e65)" style="fill: #ffd700; fill-opacity: 0.5; stroke: #000000; stroke-linejoin: miter"/>
   </g>
   <g id="matplotlib.axis_3">
    <g id="xtick_8">
     <g id="line2d_20">
      <defs>
       <path id="md393031e3c" d="M 0 0 
L 0 3.5 
" style="stroke: #000000; stroke-width: 0.8"/>
      </defs>
      <g>
       <use xlink:href="#md393031e3c" x="1071.899951" y="565.36" style="stroke: #000000; stroke-width: 0.8"/>
      </g>
     </g>
     <g id="text_18">
      <text style="font: 20px 'DejaVu Sans', 'Bitstream Vera Sans', 'Computer Modern Sans Serif', 'Lucida Grande', 'Verdana', 'Geneva', 'Lucid', 'Arial', 'Helvetica', 'Avant Garde', sans-serif; text-anchor: middle" x="1071.899951" y="587.556875" transform="rotate(-0 1071.899951 587.556875)">2</text>
     </g>
    </g>
    <g id="xtick_9">
     <g id="line2d_21">
      <g>
       <use xlink:href="#md393031e3c" x="1162.416152" y="565.36" style="stroke: #000000; stroke-width: 0.8"/>
      </g>
     </g>
     <g id="text_19">
      <text style="font: 20px 'DejaVu Sans', 'Bitstream Vera Sans', 'Computer Modern Sans Serif', 'Lucida Grande', 'Verdana', 'Geneva', 'Lucid', 'Arial', 'Helvetica', 'Avant Garde', sans-serif; text-anchor: middle" x="1162.416152" y="587.556875" transform="rotate(-0 1162.416152 587.556875)">4</text>
     </g>
    </g>
    <g id="text_20">
     <text style="font: 25px 'DejaVu Sans', 'Bitstream Vera Sans', 'Computer Modern Sans Serif', 'Lucida Grande', 'Verdana', 'Geneva', 'Lucid', 'Arial', 'Helvetica', 'Avant Garde', sans-serif; text-anchor: middle" x="1117.158052" y="614.712344" transform="rotate(-0 1117.158052 614.712344)">Harmonic</text>
    </g>
   </g>
   <g id="matplotlib.axis_4">
    <g id="ytick_7">
     <g id="line2d_22">
      <defs>
       <path id="mf000ade922" d="M 0 0 
L -3.5 0 
" style="stroke: #000000; stroke-width: 0.8"/>
      </defs>
      <g>
       <use xlink:href="#mf000ade922" x="1027.547013" y="565.36" style="stroke: #000000; stroke-width: 0.8"/>
      </g>
     </g>
     <g id="text_21">
      <text style="font: 20px 'DejaVu Sans', 'Bitstream Vera Sans', 'Computer Modern Sans Serif', 'Lucida Grande', 'Verdana', 'Geneva', 'Lucid', 'Arial', 'Helvetica', 'Avant Garde', sans-serif; text-anchor: end" x="1020.547013" y="572.958437" transform="rotate(-0 1020.547013 572.958437)">0.00</text>
     </g>
    </g>
    <g id="ytick_8">
     <g id="line2d_23">
      <g>
       <use xlink:href="#mf000ade922" x="1027.547013" y="511.427527" style="stroke: #000000; stroke-width: 0.8"/>
      </g>
     </g>
     <g id="text_22">
      <text style="font: 20px 'DejaVu Sans', 'Bitstream Vera Sans', 'Computer Modern Sans Serif', 'Lucida Grande', 'Verdana', 'Geneva', 'Lucid', 'Arial', 'Helvetica', 'Avant Garde', sans-serif; text-anchor: end" x="1020.547013" y="519.025965" transform="rotate(-0 1020.547013 519.025965)">0.02</text>
     </g>
    </g>
    <g id="ytick_9">
     <g id="line2d_24">
      <g>
       <use xlink:href="#mf000ade922" x="1027.547013" y="457.495055" style="stroke: #000000; stroke-width: 0.8"/>
      </g>
     </g>
     <g id="text_23">
      <text style="font: 20px 'DejaVu Sans', 'Bitstream Vera Sans', 'Computer Modern Sans Serif', 'Lucida Grande', 'Verdana', 'Geneva', 'Lucid', 'Arial', 'Helvetica', 'Avant Garde', sans-serif; text-anchor: end" x="1020.547013" y="465.093492" transform="rotate(-0 1020.547013 465.093492)">0.04</text>
     </g>
    </g>
    <g id="ytick_10">
     <g id="line2d_25">
      <g>
       <use xlink:href="#mf000ade922" x="1027.547013" y="403.562582" style="stroke: #000000; stroke-width: 0.8"/>
      </g>
     </g>
     <g id="text_24">
      <text style="font: 20px 'DejaVu Sans', 'Bitstream Vera Sans', 'Computer Modern Sans Serif', 'Lucida Grande', 'Verdana', 'Geneva', 'Lucid', 'Arial', 'Helvetica', 'Avant Garde', sans-serif; text-anchor: end" x="1020.547013" y="411.16102" transform="rotate(-0 1020.547013 411.16102)">0.06</text>
     </g>
    </g>
    <g id="ytick_11">
     <g id="line2d_26">
      <g>
       <use xlink:href="#mf000ade922" x="1027.547013" y="349.63011" style="stroke: #000000; stroke-width: 0.8"/>
      </g>
     </g>
     <g id="text_25">
      <text style="font: 20px 'DejaVu Sans', 'Bitstream Vera Sans', 'Computer Modern Sans Serif', 'Lucida Grande', 'Verdana', 'Geneva', 'Lucid', 'Arial', 'Helvetica', 'Avant Garde', sans-serif; text-anchor: end" x="1020.547013" y="357.228547" transform="rotate(-0 1020.547013 357.228547)">0.08</text>
     </g>
    </g>
    <g id="ytick_12">
     <g id="line2d_27">
      <g>
       <use xlink:href="#mf000ade922" x="1027.547013" y="295.697637" style="stroke: #000000; stroke-width: 0.8"/>
      </g>
     </g>
     <g id="text_26">
      <text style="font: 20px 'DejaVu Sans', 'Bitstream Vera Sans', 'Computer Modern Sans Serif', 'Lucida Grande', 'Verdana', 'Geneva', 'Lucid', 'Arial', 'Helvetica', 'Avant Garde', sans-serif; text-anchor: end" x="1020.547013" y="303.296075" transform="rotate(-0 1020.547013 303.296075)">0.10</text>
     </g>
    </g>
    <g id="ytick_13">
     <g id="line2d_28">
      <g>
       <use xlink:href="#mf000ade922" x="1027.547013" y="241.765165" style="stroke: #000000; stroke-width: 0.8"/>
      </g>
     </g>
     <g id="text_27">
      <text style="font: 20px 'DejaVu Sans', 'Bitstream Vera Sans', 'Computer Modern Sans Serif', 'Lucida Grande', 'Verdana', 'Geneva', 'Lucid', 'Arial', 'Helvetica', 'Avant Garde', sans-serif; text-anchor: end" x="1020.547013" y="249.363602" transform="rotate(-0 1020.547013 249.363602)">0.12</text>
     </g>
    </g>
    <g id="ytick_14">
     <g id="line2d_29">
      <g>
       <use xlink:href="#mf000ade922" x="1027.547013" y="187.832692" style="stroke: #000000; stroke-width: 0.8"/>
      </g>
     </g>
     <g id="text_28">
      <text style="font: 20px 'DejaVu Sans', 'Bitstream Vera Sans', 'Computer Modern Sans Serif', 'Lucida Grande', 'Verdana', 'Geneva', 'Lucid', 'Arial', 'Helvetica', 'Avant Garde', sans-serif; text-anchor: end" x="1020.547013" y="195.431129" transform="rotate(-0 1020.547013 195.431129)">0.14</text>
     </g>
    </g>
    <g id="text_29">
     <text style="font: 25px 'DejaVu Sans', 'Bitstream Vera Sans', 'Computer Modern Sans Serif', 'Lucida Grande', 'Verdana', 'Geneva', 'Lucid', 'Arial', 'Helvetica', 'Avant Garde', sans-serif; text-anchor: middle" x="966.816544" y="373.972" transform="rotate(-90 966.816544 373.972)">Amplitude</text>
    </g>
   </g>
   <g id="patch_10">
    <path d="M 1027.547013 565.36 
L 1027.547013 182.584 
" style="fill: none; stroke: #000000; stroke-width: 0.8; stroke-linejoin: miter; stroke-linecap: square"/>
   </g>
   <g id="patch_11">
    <path d="M 1206.769091 565.36 
L 1206.769091 182.584 
" style="fill: none; stroke: #000000; stroke-width: 0.8; stroke-linejoin: miter; stroke-linecap: square"/>
   </g>
   <g id="patch_12">
    <path d="M 1027.547013 565.36 
L 1206.769091 565.36 
" style="fill: none; stroke: #000000; stroke-width: 0.8; stroke-linejoin: miter; stroke-linecap: square"/>
   </g>
   <g id="patch_13">
    <path d="M 1027.547013 182.584 
L 1206.769091 182.584 
" style="fill: none; stroke: #000000; stroke-width: 0.8; stroke-linejoin: miter; stroke-linecap: square"/>
   </g>
   <g id="text_30">
    <g id="patch_14">
     <path d="M 1197.807987 316.66155 
L 1483.532987 316.66155 
Q 1489.532987 316.66155 1489.532987 310.66155 
L 1489.532987 201.7228 
Q 1489.532987 195.7228 1483.532987 195.7228 
L 1197.807987 195.7228 
Q 1191.807987 195.7228 1191.807987 201.7228 
L 1191.807987 310.66155 
Q 1191.807987 316.66155 1197.807987 316.66155 
z
" style="fill: #f5deb3; stroke: #000000; stroke-linejoin: miter"/>
    </g>
    <text style="font: 20px 'DejaVu Sans', 'Bitstream Vera Sans', 'Computer Modern Sans Serif', 'Lucida Grande', 'Verdana', 'Geneva', 'Lucid', 'Arial', 'Helvetica', 'Avant Garde', sans-serif" transform="translate(1197.807987 216.919675)">2nd Harmonic: 0.1172</text>
    <text style="font: 20px 'DejaVu Sans', 'Bitstream Vera Sans', 'Computer Modern Sans Serif', 'Lucida Grande', 'Verdana', 'Geneva', 'Lucid', 'Arial', 'Helvetica', 'Avant Garde', sans-serif" transform="translate(1197.807987 239.3153)">4th Harmonic: 0.1352</text>
    <text style="font: 20px 'DejaVu Sans', 'Bitstream Vera Sans', 'Computer Modern Sans Serif', 'Lucida Grande', 'Verdana', 'Geneva', 'Lucid', 'Arial', 'Helvetica', 'Avant Garde', sans-serif" transform="translate(1197.807987 261.710925)">Ratio (H4/H2): 1.15</text>
    <text style="font: 20px 'DejaVu Sans', 'Bitstream Vera Sans', 'Computer Modern Sans Serif', 'Lucida Grande', 'Verdana', 'Geneva', 'Lucid', 'Arial', 'Helvetica', 'Avant Garde', sans-serif" transform="translate(1197.807987 284.10655)">Orientation peaks: 2</text>
    <text style="font: 20px 'DejaVu Sans', 'Bitstream Vera Sans', 'Computer Modern Sans Serif', 'Lucida Grande', 'Verdana', 'Geneva', 'Lucid', 'Arial', 'Helvetica', 'Avant Garde', sans-serif" transform="translate(1197.807987 306.502175)">Angle between peaks: 110.0</text>
   </g>
   <g id="text_31">
    <text style="font: 30px 'DejaVu Sans', 'Bitstream Vera Sans', 'Computer Modern Sans Serif', 'Lucida Grande', 'Verdana', 'Geneva', 'Lucid', 'Arial', 'Helvetica', 'Avant Garde', sans-serif" transform="translate(1013.550239 48.990563)">FFT Spectrum</text>
    <text style="font: 30px 'DejaVu Sans', 'Bitstream Vera Sans', 'Computer Modern Sans Serif', 'Lucida Grande', 'Verdana', 'Geneva', 'Lucid', 'Arial', 'Helvetica', 'Avant Garde', sans-serif" transform="translate(971.683833 82.584)">H4:H2 Ratio = 1.15</text>
   </g>
  </g>
 </g>
 <defs>
  <clipPath id="pfb15aad847">
   <path d="M 756.054234 469.666 
C 756.054234 418.926214 735.876433 370.212694 699.997986 334.334247 
C 664.119539 298.4558 615.40602 278.278 564.666234 278.278 
C 513.926447 278.278 465.212928 298.4558 429.334481 334.334247 
C 393.456034 370.212694 373.278234 418.926214 373.278234 469.666 
L 564.666234 469.666 
C 564.666234 469.666 564.666234 469.666 564.666234 469.666 
C 564.666234 469.666 564.666234 469.666 564.666234 469.666 
C 564.666234 469.666 564.666234 469.666 564.666234 469.666 
C 564.666234 469.666 564.666234 469.666 564.666234 469.666 
z
"/>
  </clipPath>
  <clipPath id="pb0c0917e65">
   <rect x="1027.547013" y="182.584" width="179.222078" height="382.776"/>
  </clipPath>
 </defs>
</svg>
