<?xml version="1.0" encoding="utf-8" standalone="no"?>
<!DOCTYPE svg PUBLIC "-//W3C//DTD SVG 1.1//EN"
  "http://www.w3.org/Graphics/SVG/1.1/DTD/svg11.dtd">
<svg xmlns:xlink="http://www.w3.org/1999/xlink" width="684.08pt" height="667.98625pt" viewBox="0 0 684.08 667.98625" xmlns="http://www.w3.org/2000/svg" version="1.1">
 <metadata>
  <rdf:RDF xmlns:dc="http://purl.org/dc/elements/1.1/" xmlns:cc="http://creativecommons.org/ns#" xmlns:rdf="http://www.w3.org/1999/02/22-rdf-syntax-ns#">
   <cc:Work>
    <dc:type rdf:resource="http://purl.org/dc/dcmitype/StillImage"/>
    <dc:date>2025-04-23T09:24:14.250506</dc:date>
    <dc:format>image/svg+xml</dc:format>
    <dc:creator>
     <cc:Agent>
      <dc:title>Matplotlib v3.9.2, https://matplotlib.org/</dc:title>
     </cc:Agent>
    </dc:creator>
   </cc:Work>
  </rdf:RDF>
 </metadata>
 <defs>
  <style type="text/css">*{stroke-linejoin: round; stroke-linecap: butt}</style>
 </defs>
 <g id="figure_1">
  <g id="patch_1">
   <path d="M 0 667.98625 
L 684.08 667.98625 
L 684.08 0 
L 0 0 
L 0 667.98625 
z
" style="fill: none"/>
  </g>
  <g id="axes_1">
   <g id="patch_2">
    <path d="M 651.5175 333.993125 
C 651.5175 294.188428 643.676843 254.770781 628.444244 217.996036 
C 613.211646 181.221291 590.883343 147.804624 562.737172 119.658453 
C 534.591001 91.512282 501.174334 69.183979 464.399589 53.951381 
C 427.624844 38.718782 388.207197 30.878125 348.4025 30.878125 
C 308.597803 30.878125 269.180156 38.718782 232.405411 53.951381 
C 195.630666 69.183979 162.213999 91.512282 134.067828 119.658453 
C 105.921657 147.804624 83.593354 181.221291 68.360756 217.996036 
C 53.128157 254.770781 45.2875 294.188428 45.2875 333.993125 
C 45.2875 373.797822 53.128157 413.215469 68.360756 449.990214 
C 83.593354 486.764959 105.921657 520.181626 134.067828 548.327797 
C 162.213999 576.473968 195.630666 598.802271 232.405411 614.034869 
C 269.180156 629.267468 308.597803 637.108125 348.4025 637.108125 
C 388.207197 637.108125 427.624844 629.267468 464.399589 614.034869 
C 501.174334 598.802271 534.591001 576.473968 562.737172 548.327797 
C 590.883343 520.181626 613.211646 486.764959 628.444244 449.990214 
C 643.676843 413.215469 651.5175 373.797822 651.5175 333.993125 
M 348.4025 333.993125 
C 348.4025 333.993125 348.4025 333.993125 348.4025 333.993125 
C 348.4025 333.993125 348.4025 333.993125 348.4025 333.993125 
C 348.4025 333.993125 348.4025 333.993125 348.4025 333.993125 
C 348.4025 333.993125 348.4025 333.993125 348.4025 333.993125 
C 348.4025 333.993125 348.4025 333.993125 348.4025 333.993125 
C 348.4025 333.993125 348.4025 333.993125 348.4025 333.993125 
C 348.4025 333.993125 348.4025 333.993125 348.4025 333.993125 
C 348.4025 333.993125 348.4025 333.993125 348.4025 333.993125 
C 348.4025 333.993125 348.4025 333.993125 348.4025 333.993125 
C 348.4025 333.993125 348.4025 333.993125 348.4025 333.993125 
C 348.4025 333.993125 348.4025 333.993125 348.4025 333.993125 
C 348.4025 333.993125 348.4025 333.993125 348.4025 333.993125 
C 348.4025 333.993125 348.4025 333.993125 348.4025 333.993125 
C 348.4025 333.993125 348.4025 333.993125 348.4025 333.993125 
C 348.4025 333.993125 348.4025 333.993125 348.4025 333.993125 
C 348.4025 333.993125 348.4025 333.993125 348.4025 333.993125 
L 348.4025 333.993125 
z
" style="fill: none"/>
   </g>
   <g id="patch_3">
    <path d="M 348.4025 333.993125 
C 348.4025 333.993125 348.4025 333.993125 348.4025 333.993125 
C 348.4025 333.993125 348.4025 333.993125 348.4025 333.993125 
L 350.182495 333.915409 
C 350.183625 333.941299 350.184191 333.96721 350.184191 333.993125 
C 350.184191 334.01904 350.183625 334.044951 350.182495 334.070841 
z
" clip-path="url(#p79c6da5fd1)" style="fill: #008080; opacity: 0.8; stroke: #000000; stroke-width: 0.8; stroke-linejoin: miter"/>
   </g>
   <g id="patch_4">
    <path d="M 348.4025 333.993125 
C 348.4025 333.993125 348.4025 333.993125 348.4025 333.993125 
C 348.4025 333.993125 348.4025 333.993125 348.4025 333.993125 
L 352.597608 333.440828 
C 352.605642 333.501846 352.612343 333.563032 352.617707 333.624342 
C 352.62307 333.685652 352.627096 333.747072 352.629781 333.808558 
z
" clip-path="url(#p79c6da5fd1)" style="fill: #008080; opacity: 0.8; stroke: #000000; stroke-width: 0.8; stroke-linejoin: miter"/>
   </g>
   <g id="patch_5">
    <path d="M 348.4025 333.993125 
C 348.4025 333.993125 348.4025 333.993125 348.4025 333.993125 
C 348.4025 333.993125 348.4025 333.993125 348.4025 333.993125 
L 348.4025 333.993125 
C 348.4025 333.993125 348.4025 333.993125 348.4025 333.993125 
C 348.4025 333.993125 348.4025 333.993125 348.4025 333.993125 
z
" clip-path="url(#p79c6da5fd1)" style="fill: #008080; opacity: 0.8; stroke: #000000; stroke-width: 0.8; stroke-linejoin: miter"/>
   </g>
   <g id="patch_6">
    <path d="M 348.4025 333.993125 
C 348.4025 333.993125 348.4025 333.993125 348.4025 333.993125 
C 348.4025 333.993125 348.4025 333.993125 348.4025 333.993125 
L 357.427687 331.147494 
C 357.469077 331.278766 357.507598 331.410924 357.543222 331.543876 
C 357.578846 331.676828 357.611566 331.810541 357.641357 331.94492 
z
" clip-path="url(#p79c6da5fd1)" style="fill: #008080; opacity: 0.8; stroke: #000000; stroke-width: 0.8; stroke-linejoin: miter"/>
   </g>
   <g id="patch_7">
    <path d="M 348.4025 333.993125 
C 348.4025 333.993125 348.4025 333.993125 348.4025 333.993125 
C 348.4025 333.993125 348.4025 333.993125 348.4025 333.993125 
L 376.297358 322.438696 
C 376.465417 322.844427 376.624604 323.253775 376.774806 323.66645 
C 376.925007 324.079125 377.066187 324.495028 377.198245 324.913862 
z
" clip-path="url(#p79c6da5fd1)" style="fill: #008080; opacity: 0.8; stroke: #000000; stroke-width: 0.8; stroke-linejoin: miter"/>
   </g>
   <g id="patch_8">
    <path d="M 348.4025 333.993125 
C 348.4025 333.993125 348.4025 333.993125 348.4025 333.993125 
C 348.4025 333.993125 348.4025 333.993125 348.4025 333.993125 
L 400.721485 306.757585 
C 401.117625 307.518564 401.497116 308.288096 401.859686 309.06563 
C 402.222256 309.843164 402.567819 310.628516 402.896129 311.421125 
z
" clip-path="url(#p79c6da5fd1)" style="fill: #008080; opacity: 0.8; stroke: #000000; stroke-width: 0.8; stroke-linejoin: miter"/>
   </g>
   <g id="patch_9">
    <path d="M 348.4025 333.993125 
C 348.4025 333.993125 348.4025 333.993125 348.4025 333.993125 
C 348.4025 333.993125 348.4025 333.993125 348.4025 333.993125 
L 420.873863 287.823775 
C 421.545396 288.87787 422.193851 289.946491 422.818765 291.028874 
C 423.443679 292.111258 424.044905 293.207147 424.622011 294.315759 
z
" clip-path="url(#p79c6da5fd1)" style="fill: #008080; opacity: 0.8; stroke: #000000; stroke-width: 0.8; stroke-linejoin: miter"/>
   </g>
   <g id="patch_10">
    <path d="M 348.4025 333.993125 
C 348.4025 333.993125 348.4025 333.993125 348.4025 333.993125 
C 348.4025 333.993125 348.4025 333.993125 348.4025 333.993125 
L 427.956927 272.948866 
C 428.844815 274.105985 429.707351 275.282337 430.543922 276.477082 
C 431.380492 277.671828 432.190896 278.884684 432.974556 280.114783 
z
" clip-path="url(#p79c6da5fd1)" style="fill: #008080; opacity: 0.8; stroke: #000000; stroke-width: 0.8; stroke-linejoin: miter"/>
   </g>
   <g id="patch_11">
    <path d="M 348.4025 333.993125 
C 348.4025 333.993125 348.4025 333.993125 348.4025 333.993125 
C 348.4025 333.993125 348.4025 333.993125 348.4025 333.993125 
L 425.690463 263.171755 
C 426.720559 264.295908 427.726006 265.4424 428.706087 266.610415 
C 429.686167 267.77843 430.640648 268.967688 431.568848 270.177342 
z
" clip-path="url(#p79c6da5fd1)" style="fill: #008080; opacity: 0.8; stroke: #000000; stroke-width: 0.8; stroke-linejoin: miter"/>
   </g>
   <g id="patch_12">
    <path d="M 348.4025 333.993125 
C 348.4025 333.993125 348.4025 333.993125 348.4025 333.993125 
C 348.4025 333.993125 348.4025 333.993125 348.4025 333.993125 
L 412.239961 264.326762 
C 413.253257 265.255277 414.246175 266.205789 415.218006 267.177619 
C 416.189836 268.14945 417.140348 269.142368 418.068863 270.155664 
z
" clip-path="url(#p79c6da5fd1)" style="fill: #008080; opacity: 0.8; stroke: #000000; stroke-width: 0.8; stroke-linejoin: miter"/>
   </g>
   <g id="patch_13">
    <path d="M 348.4025 333.993125 
C 348.4025 333.993125 348.4025 333.993125 348.4025 333.993125 
C 348.4025 333.993125 348.4025 333.993125 348.4025 333.993125 
L 388.119958 282.232326 
C 388.872818 282.810016 389.612985 283.404062 390.33993 284.014042 
C 391.066875 284.624021 391.780426 285.249788 392.480072 285.890896 
z
" clip-path="url(#p79c6da5fd1)" style="fill: #008080; opacity: 0.8; stroke: #000000; stroke-width: 0.8; stroke-linejoin: miter"/>
   </g>
   <g id="patch_14">
    <path d="M 348.4025 333.993125 
C 348.4025 333.993125 348.4025 333.993125 348.4025 333.993125 
C 348.4025 333.993125 348.4025 333.993125 348.4025 333.993125 
L 365.26294 307.527535 
C 365.647882 307.77277 366.027427 308.026374 366.401306 308.288167 
C 366.775184 308.549959 367.143306 308.819877 367.505409 309.097729 
z
" clip-path="url(#p79c6da5fd1)" style="fill: #008080; opacity: 0.8; stroke: #000000; stroke-width: 0.8; stroke-linejoin: miter"/>
   </g>
   <g id="patch_15">
    <path d="M 348.4025 333.993125 
C 348.4025 333.993125 348.4025 333.993125 348.4025 333.993125 
C 348.4025 333.993125 348.4025 333.993125 348.4025 333.993125 
L 363.557766 304.88013 
C 363.981214 305.100563 364.399802 305.330209 364.813232 305.568903 
C 365.226662 305.807597 365.634835 306.055282 366.03746 306.311782 
z
" clip-path="url(#p79c6da5fd1)" style="fill: #008080; opacity: 0.8; stroke: #000000; stroke-width: 0.8; stroke-linejoin: miter"/>
   </g>
   <g id="patch_16">
    <path d="M 348.4025 333.993125 
C 348.4025 333.993125 348.4025 333.993125 348.4025 333.993125 
C 348.4025 333.993125 348.4025 333.993125 348.4025 333.993125 
L 371.454863 278.339799 
C 372.26434 278.675095 373.066405 279.028012 373.860486 279.398298 
C 374.654567 279.768584 375.440475 280.156151 376.217648 280.560722 
z
" clip-path="url(#p79c6da5fd1)" style="fill: #008080; opacity: 0.8; stroke: #000000; stroke-width: 0.8; stroke-linejoin: miter"/>
   </g>
   <g id="patch_17">
    <path d="M 348.4025 333.993125 
C 348.4025 333.993125 348.4025 333.993125 348.4025 333.993125 
C 348.4025 333.993125 348.4025 333.993125 348.4025 333.993125 
L 378.902573 237.259252 
C 380.309566 237.702875 381.706713 238.177142 383.093016 238.681715 
C 384.479319 239.186289 385.854449 239.721047 387.217424 240.28561 
z
" clip-path="url(#p79c6da5fd1)" style="fill: #008080; opacity: 0.8; stroke: #000000; stroke-width: 0.8; stroke-linejoin: miter"/>
   </g>
   <g id="patch_18">
    <path d="M 348.4025 333.993125 
C 348.4025 333.993125 348.4025 333.993125 348.4025 333.993125 
C 348.4025 333.993125 348.4025 333.993125 348.4025 333.993125 
L 380.778821 187.95298 
C 382.902973 188.423893 385.016598 188.941094 387.118187 189.504213 
C 389.219777 190.067332 391.30883 190.676235 393.383856 191.330489 
z
" clip-path="url(#p79c6da5fd1)" style="fill: #008080; opacity: 0.8; stroke: #000000; stroke-width: 0.8; stroke-linejoin: miter"/>
   </g>
   <g id="patch_19">
    <path d="M 348.4025 333.993125 
C 348.4025 333.993125 348.4025 333.993125 348.4025 333.993125 
C 348.4025 333.993125 348.4025 333.993125 348.4025 333.993125 
L 375.549163 127.793748 
C 378.54833 128.188596 381.538526 128.648831 384.517616 129.174125 
C 387.496706 129.699419 390.46398 130.289646 393.417322 130.944386 
z
" clip-path="url(#p79c6da5fd1)" style="fill: #008080; opacity: 0.8; stroke: #000000; stroke-width: 0.8; stroke-linejoin: miter"/>
   </g>
   <g id="patch_20">
    <path d="M 348.4025 333.993125 
C 348.4025 333.993125 348.4025 333.993125 348.4025 333.993125 
C 348.4025 333.993125 348.4025 333.993125 348.4025 333.993125 
L 359.65321 76.309506 
C 363.401215 76.473147 367.145203 76.718541 370.882503 77.045512 
C 374.619803 77.372484 378.349524 77.780955 382.069005 78.270633 
z
" clip-path="url(#p79c6da5fd1)" style="fill: #008080; opacity: 0.8; stroke: #000000; stroke-width: 0.8; stroke-linejoin: miter"/>
   </g>
   <g id="patch_21">
    <path d="M 348.4025 333.993125 
C 348.4025 333.993125 348.4025 333.993125 348.4025 333.993125 
C 348.4025 333.993125 348.4025 333.993125 348.4025 333.993125 
L 336.382781 58.696305 
C 340.38697 58.521479 344.394497 58.434034 348.4025 58.434034 
C 352.410503 58.434034 356.41803 58.521479 360.422219 58.696305 
z
" clip-path="url(#p79c6da5fd1)" style="fill: #008080; opacity: 0.8; stroke: #000000; stroke-width: 0.8; stroke-linejoin: miter"/>
   </g>
   <g id="patch_22">
    <path d="M 348.4025 333.993125 
C 348.4025 333.993125 348.4025 333.993125 348.4025 333.993125 
C 348.4025 333.993125 348.4025 333.993125 348.4025 333.993125 
L 313.722862 70.575119 
C 317.554273 70.070704 321.396234 69.649941 325.246001 69.31313 
C 329.095768 68.976319 332.952426 68.72354 336.81322 68.554975 
z
" clip-path="url(#p79c6da5fd1)" style="fill: #008080; opacity: 0.8; stroke: #000000; stroke-width: 0.8; stroke-linejoin: miter"/>
   </g>
   <g id="patch_23">
    <path d="M 348.4025 333.993125 
C 348.4025 333.993125 348.4025 333.993125 348.4025 333.993125 
C 348.4025 333.993125 348.4025 333.993125 348.4025 333.993125 
L 297.748262 105.506621 
C 301.071595 104.769856 304.410607 104.105685 307.762914 103.514583 
C 311.115222 102.92348 314.480027 102.405587 317.854927 101.961273 
z
" clip-path="url(#p79c6da5fd1)" style="fill: #008080; opacity: 0.8; stroke: #000000; stroke-width: 0.8; stroke-linejoin: miter"/>
   </g>
   <g id="patch_24">
    <path d="M 348.4025 333.993125 
C 348.4025 333.993125 348.4025 333.993125 348.4025 333.993125 
C 348.4025 333.993125 348.4025 333.993125 348.4025 333.993125 
L 287.747885 141.621263 
C 290.545931 140.739043 293.362892 139.917973 296.196758 139.158642 
C 299.030623 138.39931 301.880717 137.701896 304.745007 137.066898 
z
" clip-path="url(#p79c6da5fd1)" style="fill: #008080; opacity: 0.8; stroke: #000000; stroke-width: 0.8; stroke-linejoin: miter"/>
   </g>
   <g id="patch_25">
    <path d="M 348.4025 333.993125 
C 348.4025 333.993125 348.4025 333.993125 348.4025 333.993125 
C 348.4025 333.993125 348.4025 333.993125 348.4025 333.993125 
L 284.356699 179.372884 
C 286.605649 178.441338 288.874654 177.55897 291.162097 176.726409 
C 293.449539 175.893849 295.754874 175.111293 298.076455 174.379301 
z
" clip-path="url(#p79c6da5fd1)" style="fill: #008080; opacity: 0.8; stroke: #000000; stroke-width: 0.8; stroke-linejoin: miter"/>
   </g>
   <g id="patch_26">
    <path d="M 348.4025 333.993125 
C 348.4025 333.993125 348.4025 333.993125 348.4025 333.993125 
C 348.4025 333.993125 348.4025 333.993125 348.4025 333.993125 
L 289.411529 220.672524 
C 291.059776 219.814501 292.726546 218.992541 294.410651 218.20723 
C 296.094755 217.42192 297.795792 216.673445 299.512549 215.962342 
z
" clip-path="url(#p79c6da5fd1)" style="fill: #008080; opacity: 0.8; stroke: #000000; stroke-width: 0.8; stroke-linejoin: miter"/>
   </g>
   <g id="patch_27">
    <path d="M 348.4025 333.993125 
C 348.4025 333.993125 348.4025 333.993125 348.4025 333.993125 
C 348.4025 333.993125 348.4025 333.993125 348.4025 333.993125 
L 297.613239 254.269954 
C 298.772811 253.531225 299.948363 252.817883 301.139055 252.130437 
C 302.329747 251.442991 303.535295 250.781604 304.75484 250.146749 
z
" clip-path="url(#p79c6da5fd1)" style="fill: #008080; opacity: 0.8; stroke: #000000; stroke-width: 0.8; stroke-linejoin: miter"/>
   </g>
   <g id="patch_28">
    <path d="M 348.4025 333.993125 
C 348.4025 333.993125 348.4025 333.993125 348.4025 333.993125 
C 348.4025 333.993125 348.4025 333.993125 348.4025 333.993125 
L 303.341491 275.268475 
C 304.19564 274.613063 305.063987 273.976364 305.945912 273.358834 
C 306.827837 272.741303 307.72313 272.143088 308.631152 271.564614 
z
" clip-path="url(#p79c6da5fd1)" style="fill: #008080; opacity: 0.8; stroke: #000000; stroke-width: 0.8; stroke-linejoin: miter"/>
   </g>
   <g id="patch_29">
    <path d="M 348.4025 333.993125 
C 348.4025 333.993125 348.4025 333.993125 348.4025 333.993125 
C 348.4025 333.993125 348.4025 333.993125 348.4025 333.993125 
L 314.032079 296.484392 
C 314.577643 295.984475 315.134049 295.49652 315.7009 295.020875 
C 316.267751 294.545231 316.844911 294.08201 317.43197 293.631544 
z
" clip-path="url(#p79c6da5fd1)" style="fill: #008080; opacity: 0.8; stroke: #000000; stroke-width: 0.8; stroke-linejoin: miter"/>
   </g>
   <g id="patch_30">
    <path d="M 348.4025 333.993125 
C 348.4025 333.993125 348.4025 333.993125 348.4025 333.993125 
C 348.4025 333.993125 348.4025 333.993125 348.4025 333.993125 
L 330.535047 317.620621 
C 330.773185 317.360739 331.016965 317.106084 331.266212 316.856837 
C 331.515459 316.60759 331.770114 316.36381 332.029996 316.125672 
z
" clip-path="url(#p79c6da5fd1)" style="fill: #008080; opacity: 0.8; stroke: #000000; stroke-width: 0.8; stroke-linejoin: miter"/>
   </g>
   <g id="patch_31">
    <path d="M 348.4025 333.993125 
C 348.4025 333.993125 348.4025 333.993125 348.4025 333.993125 
C 348.4025 333.993125 348.4025 333.993125 348.4025 333.993125 
L 334.338118 323.201145 
C 334.495087 322.996579 334.656501 322.795461 334.822243 322.597937 
C 334.987986 322.400412 335.158019 322.206527 335.33222 322.01642 
z
" clip-path="url(#p79c6da5fd1)" style="fill: #008080; opacity: 0.8; stroke: #000000; stroke-width: 0.8; stroke-linejoin: miter"/>
   </g>
   <g id="patch_32">
    <path d="M 348.4025 333.993125 
C 348.4025 333.993125 348.4025 333.993125 348.4025 333.993125 
C 348.4025 333.993125 348.4025 333.993125 348.4025 333.993125 
L 334.547652 325.166614 
C 334.676034 324.965095 334.808797 324.766401 334.945846 324.570674 
C 335.082895 324.374948 335.224199 324.182234 335.369655 323.992672 
z
" clip-path="url(#p79c6da5fd1)" style="fill: #008080; opacity: 0.8; stroke: #000000; stroke-width: 0.8; stroke-linejoin: miter"/>
   </g>
   <g id="patch_33">
    <path d="M 348.4025 333.993125 
C 348.4025 333.993125 348.4025 333.993125 348.4025 333.993125 
C 348.4025 333.993125 348.4025 333.993125 348.4025 333.993125 
L 334.561742 326.788082 
C 334.666539 326.586769 334.775716 326.387765 334.889195 326.191215 
C 335.002673 325.994664 335.120427 325.800612 335.242371 325.609198 
z
" clip-path="url(#p79c6da5fd1)" style="fill: #008080; opacity: 0.8; stroke: #000000; stroke-width: 0.8; stroke-linejoin: miter"/>
   </g>
   <g id="patch_34">
    <path d="M 348.4025 333.993125 
C 348.4025 333.993125 348.4025 333.993125 348.4025 333.993125 
C 348.4025 333.993125 348.4025 333.993125 348.4025 333.993125 
L 334.084856 328.062563 
C 334.171116 327.854313 334.261909 327.64797 334.357171 327.443681 
C 334.452433 327.239391 334.55214 327.037205 334.656222 326.837266 
z
" clip-path="url(#p79c6da5fd1)" style="fill: #008080; opacity: 0.8; stroke: #000000; stroke-width: 0.8; stroke-linejoin: miter"/>
   </g>
   <g id="patch_35">
    <path d="M 348.4025 333.993125 
C 348.4025 333.993125 348.4025 333.993125 348.4025 333.993125 
C 348.4025 333.993125 348.4025 333.993125 348.4025 333.993125 
L 333.849833 329.404687 
C 333.916572 329.193018 333.987921 328.982831 334.063829 328.774275 
C 334.139737 328.56572 334.220186 328.358845 334.305119 328.153799 
z
" clip-path="url(#p79c6da5fd1)" style="fill: #008080; opacity: 0.8; stroke: #000000; stroke-width: 0.8; stroke-linejoin: miter"/>
   </g>
   <g id="patch_36">
    <path d="M 348.4025 333.993125 
C 348.4025 333.993125 348.4025 333.993125 348.4025 333.993125 
C 348.4025 333.993125 348.4025 333.993125 348.4025 333.993125 
L 334.312488 330.869445 
C 334.357922 330.664505 334.407822 330.460582 334.462152 330.25782 
C 334.516482 330.055058 334.575229 329.853505 334.638351 329.653306 
z
" clip-path="url(#p79c6da5fd1)" style="fill: #008080; opacity: 0.8; stroke: #000000; stroke-width: 0.8; stroke-linejoin: miter"/>
   </g>
   <g id="patch_37">
    <path d="M 348.4025 333.993125 
C 348.4025 333.993125 348.4025 333.993125 348.4025 333.993125 
C 348.4025 333.993125 348.4025 333.993125 348.4025 333.993125 
L 338.358151 332.670761 
C 338.377385 332.524666 338.399804 332.379009 338.425392 332.233892 
C 338.45098 332.088775 338.479731 331.944233 338.511624 331.800371 
z
" clip-path="url(#p79c6da5fd1)" style="fill: #008080; opacity: 0.8; stroke: #000000; stroke-width: 0.8; stroke-linejoin: miter"/>
   </g>
   <g id="patch_38">
    <path d="M 348.4025 333.993125 
C 348.4025 333.993125 348.4025 333.993125 348.4025 333.993125 
C 348.4025 333.993125 348.4025 333.993125 348.4025 333.993125 
L 344.725944 333.832603 
C 344.728279 333.779128 344.73178 333.725709 344.736445 333.672387 
C 344.74111 333.619064 344.746938 333.565849 344.753925 333.512781 
z
" clip-path="url(#p79c6da5fd1)" style="fill: #008080; opacity: 0.8; stroke: #000000; stroke-width: 0.8; stroke-linejoin: miter"/>
   </g>
   <g id="patch_39">
    <path d="M 348.4025 333.993125 
C 348.4025 333.993125 348.4025 333.993125 348.4025 333.993125 
C 348.4025 333.993125 348.4025 333.993125 348.4025 333.993125 
L 346.622505 334.070841 
C 346.621375 334.044951 346.620809 334.01904 346.620809 333.993125 
C 346.620809 333.96721 346.621375 333.941299 346.622505 333.915409 
z
" clip-path="url(#p79c6da5fd1)" style="fill: #008080; opacity: 0.8; stroke: #000000; stroke-width: 0.8; stroke-linejoin: miter"/>
   </g>
   <g id="patch_40">
    <path d="M 348.4025 333.993125 
C 348.4025 333.993125 348.4025 333.993125 348.4025 333.993125 
C 348.4025 333.993125 348.4025 333.993125 348.4025 333.993125 
L 344.207392 334.545422 
C 344.199358 334.484404 344.192657 334.423218 344.187293 334.361908 
C 344.18193 334.300598 344.177904 334.239178 344.175219 334.177692 
z
" clip-path="url(#p79c6da5fd1)" style="fill: #008080; opacity: 0.8; stroke: #000000; stroke-width: 0.8; stroke-linejoin: miter"/>
   </g>
   <g id="patch_41">
    <path d="M 348.4025 333.993125 
C 348.4025 333.993125 348.4025 333.993125 348.4025 333.993125 
C 348.4025 333.993125 348.4025 333.993125 348.4025 333.993125 
L 348.4025 333.993125 
C 348.4025 333.993125 348.4025 333.993125 348.4025 333.993125 
C 348.4025 333.993125 348.4025 333.993125 348.4025 333.993125 
z
" clip-path="url(#p79c6da5fd1)" style="fill: #008080; opacity: 0.8; stroke: #000000; stroke-width: 0.8; stroke-linejoin: miter"/>
   </g>
   <g id="patch_42">
    <path d="M 348.4025 333.993125 
C 348.4025 333.993125 348.4025 333.993125 348.4025 333.993125 
C 348.4025 333.993125 348.4025 333.993125 348.4025 333.993125 
L 339.377313 336.838756 
C 339.335923 336.707484 339.297402 336.575326 339.261778 336.442374 
C 339.226154 336.309422 339.193434 336.175709 339.163643 336.04133 
z
" clip-path="url(#p79c6da5fd1)" style="fill: #008080; opacity: 0.8; stroke: #000000; stroke-width: 0.8; stroke-linejoin: miter"/>
   </g>
   <g id="patch_43">
    <path d="M 348.4025 333.993125 
C 348.4025 333.993125 348.4025 333.993125 348.4025 333.993125 
C 348.4025 333.993125 348.4025 333.993125 348.4025 333.993125 
L 320.507642 345.547554 
C 320.339583 345.141823 320.180396 344.732475 320.030194 344.3198 
C 319.879993 343.907125 319.738813 343.491222 319.606755 343.072388 
z
" clip-path="url(#p79c6da5fd1)" style="fill: #008080; opacity: 0.8; stroke: #000000; stroke-width: 0.8; stroke-linejoin: miter"/>
   </g>
   <g id="patch_44">
    <path d="M 348.4025 333.993125 
C 348.4025 333.993125 348.4025 333.993125 348.4025 333.993125 
C 348.4025 333.993125 348.4025 333.993125 348.4025 333.993125 
L 296.083515 361.228665 
C 295.687375 360.467686 295.307884 359.698154 294.945314 358.92062 
C 294.582744 358.143086 294.237181 357.357734 293.908871 356.565125 
z
" clip-path="url(#p79c6da5fd1)" style="fill: #008080; opacity: 0.8; stroke: #000000; stroke-width: 0.8; stroke-linejoin: miter"/>
   </g>
   <g id="patch_45">
    <path d="M 348.4025 333.993125 
C 348.4025 333.993125 348.4025 333.993125 348.4025 333.993125 
C 348.4025 333.993125 348.4025 333.993125 348.4025 333.993125 
L 275.931137 380.162475 
C 275.259604 379.10838 274.611149 378.039759 273.986235 376.957376 
C 273.361321 375.874992 272.760095 374.779103 272.182989 373.670491 
z
" clip-path="url(#p79c6da5fd1)" style="fill: #008080; opacity: 0.8; stroke: #000000; stroke-width: 0.8; stroke-linejoin: miter"/>
   </g>
   <g id="patch_46">
    <path d="M 348.4025 333.993125 
C 348.4025 333.993125 348.4025 333.993125 348.4025 333.993125 
C 348.4025 333.993125 348.4025 333.993125 348.4025 333.993125 
L 268.848073 395.037384 
C 267.960185 393.880265 267.097649 392.703913 266.261078 391.509168 
C 265.424508 390.314422 264.614104 389.101566 263.830444 387.871467 
z
" clip-path="url(#p79c6da5fd1)" style="fill: #008080; opacity: 0.8; stroke: #000000; stroke-width: 0.8; stroke-linejoin: miter"/>
   </g>
   <g id="patch_47">
    <path d="M 348.4025 333.993125 
C 348.4025 333.993125 348.4025 333.993125 348.4025 333.993125 
C 348.4025 333.993125 348.4025 333.993125 348.4025 333.993125 
L 271.114537 404.814495 
C 270.084441 403.690342 269.078994 402.54385 268.098913 401.375835 
C 267.118833 400.20782 266.164352 399.018562 265.236152 397.808908 
z
" clip-path="url(#p79c6da5fd1)" style="fill: #008080; opacity: 0.8; stroke: #000000; stroke-width: 0.8; stroke-linejoin: miter"/>
   </g>
   <g id="patch_48">
    <path d="M 348.4025 333.993125 
C 348.4025 333.993125 348.4025 333.993125 348.4025 333.993125 
C 348.4025 333.993125 348.4025 333.993125 348.4025 333.993125 
L 284.565039 403.659488 
C 283.551743 402.730973 282.558825 401.780461 281.586994 400.808631 
C 280.615164 399.8368 279.664652 398.843882 278.736137 397.830586 
z
" clip-path="url(#p79c6da5fd1)" style="fill: #008080; opacity: 0.8; stroke: #000000; stroke-width: 0.8; stroke-linejoin: miter"/>
   </g>
   <g id="patch_49">
    <path d="M 348.4025 333.993125 
C 348.4025 333.993125 348.4025 333.993125 348.4025 333.993125 
C 348.4025 333.993125 348.4025 333.993125 348.4025 333.993125 
L 308.685042 385.753924 
C 307.932182 385.176234 307.192015 384.582188 306.46507 383.972208 
C 305.738125 383.362229 305.024574 382.736462 304.324928 382.095354 
z
" clip-path="url(#p79c6da5fd1)" style="fill: #008080; opacity: 0.8; stroke: #000000; stroke-width: 0.8; stroke-linejoin: miter"/>
   </g>
   <g id="patch_50">
    <path d="M 348.4025 333.993125 
C 348.4025 333.993125 348.4025 333.993125 348.4025 333.993125 
C 348.4025 333.993125 348.4025 333.993125 348.4025 333.993125 
L 331.54206 360.458715 
C 331.157118 360.21348 330.777573 359.959876 330.403694 359.698083 
C 330.029816 359.436291 329.661694 359.166373 329.299591 358.888521 
z
" clip-path="url(#p79c6da5fd1)" style="fill: #008080; opacity: 0.8; stroke: #000000; stroke-width: 0.8; stroke-linejoin: miter"/>
   </g>
   <g id="patch_51">
    <path d="M 348.4025 333.993125 
C 348.4025 333.993125 348.4025 333.993125 348.4025 333.993125 
C 348.4025 333.993125 348.4025 333.993125 348.4025 333.993125 
L 333.247234 363.10612 
C 332.823786 362.885687 332.405198 362.656041 331.991768 362.417347 
C 331.578338 362.178653 331.170165 361.930968 330.76754 361.674468 
z
" clip-path="url(#p79c6da5fd1)" style="fill: #008080; opacity: 0.8; stroke: #000000; stroke-width: 0.8; stroke-linejoin: miter"/>
   </g>
   <g id="patch_52">
    <path d="M 348.4025 333.993125 
C 348.4025 333.993125 348.4025 333.993125 348.4025 333.993125 
C 348.4025 333.993125 348.4025 333.993125 348.4025 333.993125 
L 325.350137 389.646451 
C 324.54066 389.311155 323.738595 388.958238 322.944514 388.587952 
C 322.150433 388.217666 321.364525 387.830099 320.587352 387.425528 
z
" clip-path="url(#p79c6da5fd1)" style="fill: #008080; opacity: 0.8; stroke: #000000; stroke-width: 0.8; stroke-linejoin: miter"/>
   </g>
   <g id="patch_53">
    <path d="M 348.4025 333.993125 
C 348.4025 333.993125 348.4025 333.993125 348.4025 333.993125 
C 348.4025 333.993125 348.4025 333.993125 348.4025 333.993125 
L 317.902427 430.726998 
C 316.495434 430.283375 315.098287 429.809108 313.711984 429.304535 
C 312.325681 428.799961 310.950551 428.265203 309.587576 427.70064 
z
" clip-path="url(#p79c6da5fd1)" style="fill: #008080; opacity: 0.8; stroke: #000000; stroke-width: 0.8; stroke-linejoin: miter"/>
   </g>
   <g id="patch_54">
    <path d="M 348.4025 333.993125 
C 348.4025 333.993125 348.4025 333.993125 348.4025 333.993125 
C 348.4025 333.993125 348.4025 333.993125 348.4025 333.993125 
L 316.026179 480.03327 
C 313.902027 479.562357 311.788402 479.045156 309.686813 478.482037 
C 307.585223 477.918918 305.49617 477.310015 303.421144 476.655761 
z
" clip-path="url(#p79c6da5fd1)" style="fill: #008080; opacity: 0.8; stroke: #000000; stroke-width: 0.8; stroke-linejoin: miter"/>
   </g>
   <g id="patch_55">
    <path d="M 348.4025 333.993125 
C 348.4025 333.993125 348.4025 333.993125 348.4025 333.993125 
C 348.4025 333.993125 348.4025 333.993125 348.4025 333.993125 
L 321.255837 540.192502 
C 318.25667 539.797654 315.266474 539.337419 312.287384 538.812125 
C 309.308294 538.286831 306.34102 537.696604 303.387678 537.041864 
z
" clip-path="url(#p79c6da5fd1)" style="fill: #008080; opacity: 0.8; stroke: #000000; stroke-width: 0.8; stroke-linejoin: miter"/>
   </g>
   <g id="patch_56">
    <path d="M 348.4025 333.993125 
C 348.4025 333.993125 348.4025 333.993125 348.4025 333.993125 
C 348.4025 333.993125 348.4025 333.993125 348.4025 333.993125 
L 337.15179 591.676744 
C 333.403785 591.513103 329.659797 591.267709 325.922497 590.940738 
C 322.185197 590.613766 318.455476 590.205295 314.735995 589.715617 
z
" clip-path="url(#p79c6da5fd1)" style="fill: #008080; opacity: 0.8; stroke: #000000; stroke-width: 0.8; stroke-linejoin: miter"/>
   </g>
   <g id="patch_57">
    <path d="M 348.4025 333.993125 
C 348.4025 333.993125 348.4025 333.993125 348.4025 333.993125 
C 348.4025 333.993125 348.4025 333.993125 348.4025 333.993125 
L 360.422219 609.289945 
C 356.41803 609.464771 352.410503 609.552216 348.4025 609.552216 
C 344.394497 609.552216 340.38697 609.464771 336.382781 609.289945 
z
" clip-path="url(#p79c6da5fd1)" style="fill: #008080; opacity: 0.8; stroke: #000000; stroke-width: 0.8; stroke-linejoin: miter"/>
   </g>
   <g id="patch_58">
    <path d="M 348.4025 333.993125 
C 348.4025 333.993125 348.4025 333.993125 348.4025 333.993125 
C 348.4025 333.993125 348.4025 333.993125 348.4025 333.993125 
L 383.082138 597.411131 
C 379.250727 597.915546 375.408766 598.336309 371.558999 598.67312 
C 367.709232 599.009931 363.852574 599.26271 359.99178 599.431275 
z
" clip-path="url(#p79c6da5fd1)" style="fill: #008080; opacity: 0.8; stroke: #000000; stroke-width: 0.8; stroke-linejoin: miter"/>
   </g>
   <g id="patch_59">
    <path d="M 348.4025 333.993125 
C 348.4025 333.993125 348.4025 333.993125 348.4025 333.993125 
C 348.4025 333.993125 348.4025 333.993125 348.4025 333.993125 
L 399.056738 562.479629 
C 395.733405 563.216394 392.394393 563.880565 389.042086 564.471667 
C 385.689778 565.06277 382.324973 565.580663 378.950073 566.024977 
z
" clip-path="url(#p79c6da5fd1)" style="fill: #008080; opacity: 0.8; stroke: #000000; stroke-width: 0.8; stroke-linejoin: miter"/>
   </g>
   <g id="patch_60">
    <path d="M 348.4025 333.993125 
C 348.4025 333.993125 348.4025 333.993125 348.4025 333.993125 
C 348.4025 333.993125 348.4025 333.993125 348.4025 333.993125 
L 409.057115 526.364987 
C 406.259069 527.247207 403.442108 528.068277 400.608242 528.827608 
C 397.774377 529.58694 394.924283 530.284354 392.059993 530.919352 
z
" clip-path="url(#p79c6da5fd1)" style="fill: #008080; opacity: 0.8; stroke: #000000; stroke-width: 0.8; stroke-linejoin: miter"/>
   </g>
   <g id="patch_61">
    <path d="M 348.4025 333.993125 
C 348.4025 333.993125 348.4025 333.993125 348.4025 333.993125 
C 348.4025 333.993125 348.4025 333.993125 348.4025 333.993125 
L 412.448301 488.613366 
C 410.199351 489.544912 407.930346 490.42728 405.642903 491.259841 
C 403.355461 492.092401 401.050126 492.874957 398.728545 493.606949 
z
" clip-path="url(#p79c6da5fd1)" style="fill: #008080; opacity: 0.8; stroke: #000000; stroke-width: 0.8; stroke-linejoin: miter"/>
   </g>
   <g id="patch_62">
    <path d="M 348.4025 333.993125 
C 348.4025 333.993125 348.4025 333.993125 348.4025 333.993125 
C 348.4025 333.993125 348.4025 333.993125 348.4025 333.993125 
L 407.393471 447.313726 
C 405.745224 448.171749 404.078454 448.993709 402.394349 449.77902 
C 400.710245 450.56433 399.009208 451.312805 397.292451 452.023908 
z
" clip-path="url(#p79c6da5fd1)" style="fill: #008080; opacity: 0.8; stroke: #000000; stroke-width: 0.8; stroke-linejoin: miter"/>
   </g>
   <g id="patch_63">
    <path d="M 348.4025 333.993125 
C 348.4025 333.993125 348.4025 333.993125 348.4025 333.993125 
C 348.4025 333.993125 348.4025 333.993125 348.4025 333.993125 
L 399.191761 413.716296 
C 398.032189 414.455025 396.856637 415.168367 395.665945 415.855813 
C 394.475253 416.543259 393.269705 417.204646 392.05016 417.839501 
z
" clip-path="url(#p79c6da5fd1)" style="fill: #008080; opacity: 0.8; stroke: #000000; stroke-width: 0.8; stroke-linejoin: miter"/>
   </g>
   <g id="patch_64">
    <path d="M 348.4025 333.993125 
C 348.4025 333.993125 348.4025 333.993125 348.4025 333.993125 
C 348.4025 333.993125 348.4025 333.993125 348.4025 333.993125 
L 393.463509 392.717775 
C 392.60936 393.373187 391.741013 394.009886 390.859088 394.627416 
C 389.977163 395.244947 389.08187 395.843162 388.173848 396.421636 
z
" clip-path="url(#p79c6da5fd1)" style="fill: #008080; opacity: 0.8; stroke: #000000; stroke-width: 0.8; stroke-linejoin: miter"/>
   </g>
   <g id="patch_65">
    <path d="M 348.4025 333.993125 
C 348.4025 333.993125 348.4025 333.993125 348.4025 333.993125 
C 348.4025 333.993125 348.4025 333.993125 348.4025 333.993125 
L 382.772921 371.501858 
C 382.227357 372.001775 381.670951 372.48973 381.1041 372.965375 
C 380.537249 373.441019 379.960089 373.90424 379.37303 374.354706 
z
" clip-path="url(#p79c6da5fd1)" style="fill: #008080; opacity: 0.8; stroke: #000000; stroke-width: 0.8; stroke-linejoin: miter"/>
   </g>
   <g id="patch_66">
    <path d="M 348.4025 333.993125 
C 348.4025 333.993125 348.4025 333.993125 348.4025 333.993125 
C 348.4025 333.993125 348.4025 333.993125 348.4025 333.993125 
L 366.269953 350.365629 
C 366.031815 350.625511 365.788035 350.880166 365.538788 351.129413 
C 365.289541 351.37866 365.034886 351.62244 364.775004 351.860578 
z
" clip-path="url(#p79c6da5fd1)" style="fill: #008080; opacity: 0.8; stroke: #000000; stroke-width: 0.8; stroke-linejoin: miter"/>
   </g>
   <g id="patch_67">
    <path d="M 348.4025 333.993125 
C 348.4025 333.993125 348.4025 333.993125 348.4025 333.993125 
C 348.4025 333.993125 348.4025 333.993125 348.4025 333.993125 
L 362.466882 344.785105 
C 362.309913 344.989671 362.148499 345.190789 361.982757 345.388313 
C 361.817014 345.585838 361.646981 345.779723 361.47278 345.96983 
z
" clip-path="url(#p79c6da5fd1)" style="fill: #008080; opacity: 0.8; stroke: #000000; stroke-width: 0.8; stroke-linejoin: miter"/>
   </g>
   <g id="patch_68">
    <path d="M 348.4025 333.993125 
C 348.4025 333.993125 348.4025 333.993125 348.4025 333.993125 
C 348.4025 333.993125 348.4025 333.993125 348.4025 333.993125 
L 362.257348 342.819636 
C 362.128966 343.021155 361.996203 343.219849 361.859154 343.415576 
C 361.722105 343.611302 361.580801 343.804016 361.435345 343.993578 
z
" clip-path="url(#p79c6da5fd1)" style="fill: #008080; opacity: 0.8; stroke: #000000; stroke-width: 0.8; stroke-linejoin: miter"/>
   </g>
   <g id="patch_69">
    <path d="M 348.4025 333.993125 
C 348.4025 333.993125 348.4025 333.993125 348.4025 333.993125 
C 348.4025 333.993125 348.4025 333.993125 348.4025 333.993125 
L 362.243258 341.198168 
C 362.138461 341.399481 362.029284 341.598485 361.915805 341.795035 
C 361.802327 341.991586 361.684573 342.185638 361.562629 342.377052 
z
" clip-path="url(#p79c6da5fd1)" style="fill: #008080; opacity: 0.8; stroke: #000000; stroke-width: 0.8; stroke-linejoin: miter"/>
   </g>
   <g id="patch_70">
    <path d="M 348.4025 333.993125 
C 348.4025 333.993125 348.4025 333.993125 348.4025 333.993125 
C 348.4025 333.993125 348.4025 333.993125 348.4025 333.993125 
L 362.720144 339.923687 
C 362.633884 340.131937 362.543091 340.33828 362.447829 340.542569 
C 362.352567 340.746859 362.25286 340.949045 362.148778 341.148984 
z
" clip-path="url(#p79c6da5fd1)" style="fill: #008080; opacity: 0.8; stroke: #000000; stroke-width: 0.8; stroke-linejoin: miter"/>
   </g>
   <g id="patch_71">
    <path d="M 348.4025 333.993125 
C 348.4025 333.993125 348.4025 333.993125 348.4025 333.993125 
C 348.4025 333.993125 348.4025 333.993125 348.4025 333.993125 
L 362.955167 338.581563 
C 362.888428 338.793232 362.817079 339.003419 362.741171 339.211975 
C 362.665263 339.42053 362.584814 339.627405 362.499881 339.832451 
z
" clip-path="url(#p79c6da5fd1)" style="fill: #008080; opacity: 0.8; stroke: #000000; stroke-width: 0.8; stroke-linejoin: miter"/>
   </g>
   <g id="patch_72">
    <path d="M 348.4025 333.993125 
C 348.4025 333.993125 348.4025 333.993125 348.4025 333.993125 
C 348.4025 333.993125 348.4025 333.993125 348.4025 333.993125 
L 362.492512 337.116805 
C 362.447078 337.321745 362.397178 337.525668 362.342848 337.72843 
C 362.288518 337.931192 362.229771 338.132745 362.166649 338.332944 
z
" clip-path="url(#p79c6da5fd1)" style="fill: #008080; opacity: 0.8; stroke: #000000; stroke-width: 0.8; stroke-linejoin: miter"/>
   </g>
   <g id="patch_73">
    <path d="M 348.4025 333.993125 
C 348.4025 333.993125 348.4025 333.993125 348.4025 333.993125 
C 348.4025 333.993125 348.4025 333.993125 348.4025 333.993125 
L 358.446849 335.315489 
C 358.427615 335.461584 358.405196 335.607241 358.379608 335.752358 
C 358.35402 335.897475 358.325269 336.042017 358.293376 336.185879 
z
" clip-path="url(#p79c6da5fd1)" style="fill: #008080; opacity: 0.8; stroke: #000000; stroke-width: 0.8; stroke-linejoin: miter"/>
   </g>
   <g id="patch_74">
    <path d="M 348.4025 333.993125 
C 348.4025 333.993125 348.4025 333.993125 348.4025 333.993125 
C 348.4025 333.993125 348.4025 333.993125 348.4025 333.993125 
L 352.079056 334.153647 
C 352.076721 334.207122 352.07322 334.260541 352.068555 334.313863 
C 352.06389 334.367186 352.058062 334.420401 352.051075 334.473469 
z
" clip-path="url(#p79c6da5fd1)" style="fill: #008080; opacity: 0.8; stroke: #000000; stroke-width: 0.8; stroke-linejoin: miter"/>
   </g>
   <g id="matplotlib.axis_1">
    <g id="xtick_1">
     <g id="line2d_1">
      <path d="M 348.4025 333.993125 
L 651.5175 333.993125 
" clip-path="url(#p79c6da5fd1)" style="fill: none; stroke: #b0b0b0; stroke-width: 0.8; stroke-linecap: square"/>
     </g>
     <g id="text_1">
      <text style="font: 20px 'DejaVu Sans', 'Bitstream Vera Sans', 'Computer Modern Sans Serif', 'Lucida Grande', 'Verdana', 'Geneva', 'Lucid', 'Arial', 'Helvetica', 'Avant Garde', sans-serif; text-anchor: middle" x="665.5175" y="339.511875" transform="rotate(-0 665.5175 339.511875)">0°</text>
     </g>
    </g>
    <g id="xtick_2">
     <g id="line2d_2">
      <path d="M 348.4025 333.993125 
L 562.737172 119.658453 
" clip-path="url(#p79c6da5fd1)" style="fill: none; stroke: #b0b0b0; stroke-width: 0.8; stroke-linecap: square"/>
     </g>
     <g id="text_2">
      <text style="font: 20px 'DejaVu Sans', 'Bitstream Vera Sans', 'Computer Modern Sans Serif', 'Lucida Grande', 'Verdana', 'Geneva', 'Lucid', 'Arial', 'Helvetica', 'Avant Garde', sans-serif; text-anchor: middle" x="572.636667" y="115.277708" transform="rotate(-0 572.636667 115.277708)">45°</text>
     </g>
    </g>
    <g id="xtick_3">
     <g id="line2d_3">
      <path d="M 348.4025 333.993125 
L 348.4025 30.878125 
" clip-path="url(#p79c6da5fd1)" style="fill: none; stroke: #b0b0b0; stroke-width: 0.8; stroke-linecap: square"/>
     </g>
     <g id="text_3">
      <text style="font: 20px 'DejaVu Sans', 'Bitstream Vera Sans', 'Computer Modern Sans Serif', 'Lucida Grande', 'Verdana', 'Geneva', 'Lucid', 'Arial', 'Helvetica', 'Avant Garde', sans-serif; text-anchor: middle" x="348.4025" y="22.396875" transform="rotate(-0 348.4025 22.396875)">90°</text>
     </g>
    </g>
    <g id="xtick_4">
     <g id="line2d_4">
      <path d="M 348.4025 333.993125 
L 134.067828 119.658453 
" clip-path="url(#p79c6da5fd1)" style="fill: none; stroke: #b0b0b0; stroke-width: 0.8; stroke-linecap: square"/>
     </g>
     <g id="text_4">
      <text style="font: 20px 'DejaVu Sans', 'Bitstream Vera Sans', 'Computer Modern Sans Serif', 'Lucida Grande', 'Verdana', 'Geneva', 'Lucid', 'Arial', 'Helvetica', 'Avant Garde', sans-serif; text-anchor: middle" x="124.168333" y="115.277708" transform="rotate(-0 124.168333 115.277708)">135°</text>
     </g>
    </g>
    <g id="xtick_5">
     <g id="line2d_5">
      <path d="M 348.4025 333.993125 
L 45.2875 333.993125 
" clip-path="url(#p79c6da5fd1)" style="fill: none; stroke: #b0b0b0; stroke-width: 0.8; stroke-linecap: square"/>
     </g>
     <g id="text_5">
      <text style="font: 20px 'DejaVu Sans', 'Bitstream Vera Sans', 'Computer Modern Sans Serif', 'Lucida Grande', 'Verdana', 'Geneva', 'Lucid', 'Arial', 'Helvetica', 'Avant Garde', sans-serif; text-anchor: middle" x="31.2875" y="339.511875" transform="rotate(-0 31.2875 339.511875)">180°</text>
     </g>
    </g>
    <g id="xtick_6">
     <g id="line2d_6">
      <path d="M 348.4025 333.993125 
L 134.067828 548.327797 
" clip-path="url(#p79c6da5fd1)" style="fill: none; stroke: #b0b0b0; stroke-width: 0.8; stroke-linecap: square"/>
     </g>
     <g id="text_6">
      <text style="font: 20px 'DejaVu Sans', 'Bitstream Vera Sans', 'Computer Modern Sans Serif', 'Lucida Grande', 'Verdana', 'Geneva', 'Lucid', 'Arial', 'Helvetica', 'Avant Garde', sans-serif; text-anchor: middle" x="124.168333" y="563.746042" transform="rotate(-0 124.168333 563.746042)">225°</text>
     </g>
    </g>
    <g id="xtick_7">
     <g id="line2d_7">
      <path d="M 348.4025 333.993125 
L 348.4025 637.108125 
" clip-path="url(#p79c6da5fd1)" style="fill: none; stroke: #b0b0b0; stroke-width: 0.8; stroke-linecap: square"/>
     </g>
     <g id="text_7">
      <text style="font: 20px 'DejaVu Sans', 'Bitstream Vera Sans', 'Computer Modern Sans Serif', 'Lucida Grande', 'Verdana', 'Geneva', 'Lucid', 'Arial', 'Helvetica', 'Avant Garde', sans-serif; text-anchor: middle" x="348.4025" y="656.626875" transform="rotate(-0 348.4025 656.626875)">270°</text>
     </g>
    </g>
    <g id="xtick_8">
     <g id="line2d_8">
      <path d="M 348.4025 333.993125 
L 562.737172 548.327797 
" clip-path="url(#p79c6da5fd1)" style="fill: none; stroke: #b0b0b0; stroke-width: 0.8; stroke-linecap: square"/>
     </g>
     <g id="text_8">
      <text style="font: 20px 'DejaVu Sans', 'Bitstream Vera Sans', 'Computer Modern Sans Serif', 'Lucida Grande', 'Verdana', 'Geneva', 'Lucid', 'Arial', 'Helvetica', 'Avant Garde', sans-serif; text-anchor: middle" x="572.636667" y="563.746042" transform="rotate(-0 572.636667 563.746042)">315°</text>
     </g>
    </g>
   </g>
   <g id="matplotlib.axis_2">
    <g id="ytick_1">
     <g id="line2d_9">
      <path d="M 403.514318 333.993125 
C 403.514318 326.755907 402.088744 319.589063 399.319181 312.902745 
C 396.549618 306.216428 392.489926 300.14067 387.37244 295.023185 
C 382.254955 289.905699 376.179197 285.846007 369.49288 283.076444 
C 362.806562 280.306881 355.639718 278.881307 348.4025 278.881307 
C 341.165282 278.881307 333.998438 280.306881 327.31212 283.076444 
C 320.625803 285.846007 314.550045 289.905699 309.43256 295.023185 
C 304.315074 300.14067 300.255382 306.216428 297.485819 312.902745 
C 294.716256 319.589063 293.290682 326.755907 293.290682 333.993125 
C 293.290682 341.230343 294.716256 348.397187 297.485819 355.083505 
C 300.255382 361.769822 304.315074 367.84558 309.43256 372.963065 
C 314.550045 378.080551 320.625803 382.140243 327.31212 384.909806 
C 333.998438 387.679369 341.165282 389.104943 348.4025 389.104943 
C 355.639718 389.104943 362.806562 387.679369 369.49288 384.909806 
C 376.179197 382.140243 382.254955 378.080551 387.37244 372.963065 
C 392.489926 367.84558 396.549618 361.769822 399.319181 355.083505 
C 402.088744 348.397187 403.514318 341.230343 403.514318 333.993125 
" clip-path="url(#p79c6da5fd1)" style="fill: none; stroke: #b0b0b0; stroke-width: 0.8; stroke-linecap: square"/>
     </g>
     <g id="text_9">
      <text style="font: 20px 'DejaVu Sans', 'Bitstream Vera Sans', 'Computer Modern Sans Serif', 'Lucida Grande', 'Verdana', 'Geneva', 'Lucid', 'Arial', 'Helvetica', 'Avant Garde', sans-serif; text-anchor: start" x="399.319181" y="308.74337" transform="rotate(-0 399.319181 308.74337)">0.2</text>
     </g>
    </g>
    <g id="ytick_2">
     <g id="line2d_10">
      <path d="M 458.626136 333.993125 
C 458.626136 319.51869 455.774988 305.185 450.235862 291.812366 
C 444.696735 278.439731 436.577352 266.288216 426.342381 256.053244 
C 416.107409 245.818273 403.955894 237.69889 390.583259 232.159763 
C 377.210625 226.620637 362.876935 223.769489 348.4025 223.769489 
C 333.928065 223.769489 319.594375 226.620637 306.221741 232.159763 
C 292.849106 237.69889 280.697591 245.818273 270.462619 256.053244 
C 260.227648 266.288216 252.108265 278.439731 246.569138 291.812366 
C 241.030012 305.185 238.178864 319.51869 238.178864 333.993125 
C 238.178864 348.46756 241.030012 362.80125 246.569138 376.173884 
C 252.108265 389.546519 260.227648 401.698034 270.462619 411.933006 
C 280.697591 422.167977 292.849106 430.28736 306.221741 435.826487 
C 319.594375 441.365613 333.928065 444.216761 348.4025 444.216761 
C 362.876935 444.216761 377.210625 441.365613 390.583259 435.826487 
C 403.955894 430.28736 416.107409 422.167977 426.342381 411.933006 
C 436.577352 401.698034 444.696735 389.546519 450.235862 376.173884 
C 455.774988 362.80125 458.626136 348.46756 458.626136 333.993125 
" clip-path="url(#p79c6da5fd1)" style="fill: none; stroke: #b0b0b0; stroke-width: 0.8; stroke-linecap: square"/>
     </g>
     <g id="text_10">
      <text style="font: 20px 'DejaVu Sans', 'Bitstream Vera Sans', 'Computer Modern Sans Serif', 'Lucida Grande', 'Verdana', 'Geneva', 'Lucid', 'Arial', 'Helvetica', 'Avant Garde', sans-serif; text-anchor: start" x="450.235862" y="287.652991" transform="rotate(-0 450.235862 287.652991)">0.4</text>
     </g>
    </g>
    <g id="ytick_3">
     <g id="line2d_11">
      <path d="M 513.737955 333.993125 
C 513.737955 312.281472 509.461232 290.780938 501.152542 270.721986 
C 492.843853 250.663034 480.664778 232.435761 465.312321 217.083304 
C 449.959864 201.730847 431.732591 189.551772 411.673639 181.243083 
C 391.614687 172.934393 370.114153 168.65767 348.4025 168.65767 
C 326.690847 168.65767 305.190313 172.934393 285.131361 181.243083 
C 265.072409 189.551772 246.845136 201.730847 231.492679 217.083304 
C 216.140222 232.435761 203.961147 250.663034 195.652458 270.721986 
C 187.343768 290.780938 183.067045 312.281472 183.067045 333.993125 
C 183.067045 355.704778 187.343768 377.205312 195.652458 397.264264 
C 203.961147 417.323216 216.140222 435.550489 231.492679 450.902946 
C 246.845136 466.255403 265.072409 478.434478 285.131361 486.743167 
C 305.190313 495.051857 326.690847 499.32858 348.4025 499.32858 
C 370.114153 499.32858 391.614687 495.051857 411.673639 486.743167 
C 431.732591 478.434478 449.959864 466.255403 465.312321 450.902946 
C 480.664778 435.550489 492.843853 417.323216 501.152542 397.264264 
C 509.461232 377.205312 513.737955 355.704778 513.737955 333.993125 
" clip-path="url(#p79c6da5fd1)" style="fill: none; stroke: #b0b0b0; stroke-width: 0.8; stroke-linecap: square"/>
     </g>
     <g id="text_11">
      <text style="font: 20px 'DejaVu Sans', 'Bitstream Vera Sans', 'Computer Modern Sans Serif', 'Lucida Grande', 'Verdana', 'Geneva', 'Lucid', 'Arial', 'Helvetica', 'Avant Garde', sans-serif; text-anchor: start" x="501.152542" y="266.562611" transform="rotate(-0 501.152542 266.562611)">0.6</text>
     </g>
    </g>
    <g id="ytick_4">
     <g id="line2d_12">
      <path d="M 568.849773 333.993125 
C 568.849773 305.044254 563.147476 276.376875 552.069223 249.631606 
C 540.99097 222.886337 524.752204 198.583306 504.282261 178.113364 
C 483.812319 157.643421 459.509288 141.404655 432.764019 130.326402 
C 406.01875 119.248149 377.351371 113.545852 348.4025 113.545852 
C 319.453629 113.545852 290.78625 119.248149 264.040981 130.326402 
C 237.295712 141.404655 212.992681 157.643421 192.522739 178.113364 
C 172.052796 198.583306 155.81403 222.886337 144.735777 249.631606 
C 133.657524 276.376875 127.955227 305.044254 127.955227 333.993125 
C 127.955227 362.941996 133.657524 391.609375 144.735777 418.354644 
C 155.81403 445.099913 172.052796 469.402944 192.522739 489.872886 
C 212.992681 510.342829 237.295712 526.581595 264.040981 537.659848 
C 290.78625 548.738101 319.453629 554.440398 348.4025 554.440398 
C 377.351371 554.440398 406.01875 548.738101 432.764019 537.659848 
C 459.509288 526.581595 483.812319 510.342829 504.282261 489.872886 
C 524.752204 469.402944 540.99097 445.099913 552.069223 418.354644 
C 563.147476 391.609375 568.849773 362.941996 568.849773 333.993125 
" clip-path="url(#p79c6da5fd1)" style="fill: none; stroke: #b0b0b0; stroke-width: 0.8; stroke-linecap: square"/>
     </g>
     <g id="text_12">
      <text style="font: 20px 'DejaVu Sans', 'Bitstream Vera Sans', 'Computer Modern Sans Serif', 'Lucida Grande', 'Verdana', 'Geneva', 'Lucid', 'Arial', 'Helvetica', 'Avant Garde', sans-serif; text-anchor: start" x="552.069223" y="245.472231" transform="rotate(-0 552.069223 245.472231)">0.8</text>
     </g>
    </g>
    <g id="ytick_5">
     <g id="line2d_13">
      <path d="M 623.961591 333.993125 
C 623.961591 297.807037 616.833721 261.972813 602.985904 228.541226 
C 589.138088 195.10964 568.83963 164.730852 543.252202 139.143423 
C 517.664773 113.555995 487.285985 93.257537 453.854399 79.409721 
C 420.422812 65.561904 384.588588 58.434034 348.4025 58.434034 
C 312.216412 58.434034 276.382188 65.561904 242.950601 79.409721 
C 209.519015 93.257537 179.140227 113.555995 153.552798 139.143423 
C 127.96537 164.730852 107.666912 195.10964 93.819096 228.541226 
C 79.971279 261.972813 72.843409 297.807037 72.843409 333.993125 
C 72.843409 370.179213 79.971279 406.013437 93.819096 439.445024 
C 107.666912 472.87661 127.96537 503.255398 153.552798 528.842827 
C 179.140227 554.430255 209.519015 574.728713 242.950601 588.576529 
C 276.382188 602.424346 312.216412 609.552216 348.4025 609.552216 
C 384.588588 609.552216 420.422812 602.424346 453.854399 588.576529 
C 487.285985 574.728713 517.664773 554.430255 543.252202 528.842827 
C 568.83963 503.255398 589.138088 472.87661 602.985904 439.445024 
C 616.833721 406.013437 623.961591 370.179213 623.961591 333.993125 
" clip-path="url(#p79c6da5fd1)" style="fill: none; stroke: #b0b0b0; stroke-width: 0.8; stroke-linecap: square"/>
     </g>
     <g id="text_13">
      <text style="font: 20px 'DejaVu Sans', 'Bitstream Vera Sans', 'Computer Modern Sans Serif', 'Lucida Grande', 'Verdana', 'Geneva', 'Lucid', 'Arial', 'Helvetica', 'Avant Garde', sans-serif; text-anchor: start" x="602.985904" y="224.381851" transform="rotate(-0 602.985904 224.381851)">1.0</text>
     </g>
    </g>
   </g>
   <g id="line2d_14">
    <defs>
     <path id="ma1929c260d" d="M 0 3 
C 0.795609 3 1.55874 2.683901 2.12132 2.12132 
C 2.683901 1.55874 3 0.795609 3 0 
C 3 -0.795609 2.683901 -1.55874 2.12132 -2.12132 
C 1.55874 -2.683901 0.795609 -3 0 -3 
C -0.795609 -3 -1.55874 -2.683901 -2.12132 -2.12132 
C -2.683901 -1.55874 -3 -0.795609 -3 0 
C -3 0.795609 -2.683901 1.55874 -2.12132 2.12132 
C -1.55874 2.683901 -0.795609 3 0 3 
z
" style="stroke: #ff0000"/>
    </defs>
    <g clip-path="url(#p79c6da5fd1)">
     <use xlink:href="#ma1929c260d" x="428.706087" y="266.610415" style="fill: #ff0000; stroke: #ff0000"/>
     <use xlink:href="#ma1929c260d" x="348.4025" y="58.434034" style="fill: #ff0000; stroke: #ff0000"/>
     <use xlink:href="#ma1929c260d" x="268.098913" y="401.375835" style="fill: #ff0000; stroke: #ff0000"/>
     <use xlink:href="#ma1929c260d" x="348.4025" y="609.552216" style="fill: #ff0000; stroke: #ff0000"/>
    </g>
   </g>
   <g id="line2d_15">
    <path d="M 348.4025 333.993125 
L 428.706087 266.610415 
" clip-path="url(#p79c6da5fd1)" style="fill: none; stroke-dasharray: 3.7,1.6; stroke-dashoffset: 0; stroke: #000000"/>
   </g>
   <g id="line2d_16">
    <path d="M 348.4025 333.993125 
L 348.4025 58.434034 
" clip-path="url(#p79c6da5fd1)" style="fill: none; stroke-dasharray: 3.7,1.6; stroke-dashoffset: 0; stroke: #000000"/>
   </g>
   <g id="line2d_17">
    <path d="M 348.4025 333.993125 
L 268.098913 401.375835 
" clip-path="url(#p79c6da5fd1)" style="fill: none; stroke-dasharray: 3.7,1.6; stroke-dashoffset: 0; stroke: #000000"/>
   </g>
   <g id="line2d_18">
    <path d="M 348.4025 333.993125 
L 348.4025 609.552216 
" clip-path="url(#p79c6da5fd1)" style="fill: none; stroke-dasharray: 3.7,1.6; stroke-dashoffset: 0; stroke: #000000"/>
   </g>
   <g id="line2d_19">
    <path d="M 372.493576 313.778312 
L 372.129759 313.352491 
L 371.758417 312.933216 
L 371.379667 312.520621 
L 370.993629 312.114837 
L 370.600426 311.715991 
L 370.200182 311.324211 
L 369.793025 310.939621 
L 369.379084 310.562343 
L 368.958489 310.192497 
L 368.531375 309.830199 
L 368.097876 309.475565 
L 367.658131 309.128707 
L 367.212278 308.789735 
L 366.76046 308.458758 
L 366.302819 308.135879 
L 365.8395 307.821201 
L 365.370651 307.514823 
L 364.89642 307.216844 
L 364.416958 306.927358 
L 363.932417 306.646456 
L 363.44295 306.374228 
L 362.948712 306.110759 
L 362.449861 305.856134 
L 361.946555 305.610433 
L 361.438953 305.373735 
L 360.927216 305.146113 
L 360.411506 304.927641 
L 359.891988 304.718387 
L 359.368826 304.518419 
L 358.842185 304.327799 
L 358.312233 304.146588 
L 357.779138 303.974843 
L 357.24307 303.812619 
L 356.704197 303.659968 
L 356.162691 303.516937 
L 355.618724 303.383572 
L 355.072468 303.259916 
L 354.524097 303.146007 
L 353.973784 303.041883 
L 353.421704 302.947575 
L 352.868032 302.863113 
L 352.312944 302.788525 
L 351.756615 302.723835 
L 351.199223 302.669062 
L 350.640943 302.624224 
L 350.081954 302.589335 
L 349.522432 302.564406 
L 348.962555 302.549446 
L 348.4025 302.544459 
" clip-path="url(#p79c6da5fd1)" style="fill: none; stroke: #ff0000; stroke-opacity: 0.7; stroke-width: 1.5; stroke-linecap: square"/>
   </g>
   <g id="patch_75">
    <path d="M 651.5175 333.993125 
C 651.5175 294.188428 643.676843 254.770781 628.444244 217.996036 
C 613.211646 181.221291 590.883343 147.804624 562.737172 119.658453 
C 534.591001 91.512282 501.174334 69.183979 464.399589 53.951381 
C 427.624844 38.718782 388.207197 30.878125 348.4025 30.878125 
C 308.597803 30.878125 269.180156 38.718782 232.405411 53.951381 
C 195.630666 69.183979 162.213999 91.512282 134.067828 119.658453 
C 105.921657 147.804624 83.593354 181.221291 68.360756 217.996036 
C 53.128157 254.770781 45.2875 294.188428 45.2875 333.993125 
C 45.2875 373.797822 53.128157 413.215469 68.360756 449.990214 
C 83.593354 486.764959 105.921657 520.181626 134.067828 548.327797 
C 162.213999 576.473968 195.630666 598.802271 232.405411 614.034869 
C 269.180156 629.267468 308.597803 637.108125 348.4025 637.108125 
C 388.207197 637.108125 427.624844 629.267468 464.399589 614.034869 
C 501.174334 598.802271 534.591001 576.473968 562.737172 548.327797 
C 590.883343 520.181626 613.211646 486.764959 628.444244 449.990214 
C 643.676843 413.215469 651.5175 373.797822 651.5175 333.993125 
" style="fill: none; stroke: #000000; stroke-width: 0.8; stroke-linejoin: miter; stroke-linecap: square"/>
   </g>
   <g id="text_14">
    <g id="patch_76">
     <path d="M 353.364015 294.378497 
L 388.62964 294.378497 
L 388.62964 276.700372 
L 353.364015 276.700372 
z
" style="fill: #ffffff; opacity: 0.7"/>
    </g>
    <text style="font: 10px 'DejaVu Sans', 'Bitstream Vera Sans', 'Computer Modern Sans Serif', 'Lucida Grande', 'Verdana', 'Geneva', 'Lucid', 'Arial', 'Helvetica', 'Avant Garde', sans-serif; text-anchor: middle" x="370.996827" y="288.298809" transform="rotate(-0 370.996827 288.298809)">50.0°</text>
   </g>
   <g id="legend_1">
    <g id="patch_77">
     <path d="M 59.2875 627.108125 
L 290.740625 627.108125 
Q 294.740625 627.108125 294.740625 623.108125 
L 294.740625 566.395625 
Q 294.740625 562.395625 290.740625 562.395625 
L 59.2875 562.395625 
Q 55.2875 562.395625 55.2875 566.395625 
L 55.2875 623.108125 
Q 55.2875 627.108125 59.2875 627.108125 
z
" style="fill: #ffffff; stroke: #cccccc; stroke-linejoin: miter"/>
    </g>
    <g id="line2d_20">
     <g>
      <use xlink:href="#ma1929c260d" x="83.2875" y="578.5925" style="fill: #ff0000; stroke: #ff0000"/>
     </g>
    </g>
    <g id="text_15">
     <text style="font: 20px 'DejaVu Sans', 'Bitstream Vera Sans', 'Computer Modern Sans Serif', 'Lucida Grande', 'Verdana', 'Geneva', 'Lucid', 'Arial', 'Helvetica', 'Avant Garde', sans-serif; text-anchor: start" x="119.2875" y="585.5925" transform="rotate(-0 119.2875 585.5925)">Peaks</text>
    </g>
    <g id="patch_78">
     <path d="M 63.2875 614.94875 
L 103.2875 614.94875 
L 103.2875 600.94875 
L 63.2875 600.94875 
z
" style="fill: #008080; opacity: 0.8; stroke: #000000; stroke-width: 0.8; stroke-linejoin: miter"/>
    </g>
    <g id="text_16">
     <text style="font: 20px 'DejaVu Sans', 'Bitstream Vera Sans', 'Computer Modern Sans Serif', 'Lucida Grande', 'Verdana', 'Geneva', 'Lucid', 'Arial', 'Helvetica', 'Avant Garde', sans-serif; text-anchor: start" x="119.2875" y="614.94875" transform="rotate(-0 119.2875 614.94875)">Normalised Data</text>
    </g>
   </g>
  </g>
 </g>
 <defs>
  <clipPath id="p79c6da5fd1">
   <path d="M 651.5175 333.993125 
C 651.5175 294.188428 643.676843 254.770781 628.444244 217.996036 
C 613.211646 181.221291 590.883343 147.804624 562.737172 119.658453 
C 534.591001 91.512282 501.174334 69.183979 464.399589 53.951381 
C 427.624844 38.718782 388.207197 30.878125 348.4025 30.878125 
C 308.597803 30.878125 269.180156 38.718782 232.405411 53.951381 
C 195.630666 69.183979 162.213999 91.512282 134.067828 119.658453 
C 105.921657 147.804624 83.593354 181.221291 68.360756 217.996036 
C 53.128157 254.770781 45.2875 294.188428 45.2875 333.993125 
C 45.2875 373.797822 53.128157 413.215469 68.360756 449.990214 
C 83.593354 486.764959 105.921657 520.181626 134.067828 548.327797 
C 162.213999 576.473968 195.630666 598.802271 232.405411 614.034869 
C 269.180156 629.267468 308.597803 637.108125 348.4025 637.108125 
C 388.207197 637.108125 427.624844 629.267468 464.399589 614.034869 
C 501.174334 598.802271 534.591001 576.473968 562.737172 548.327797 
C 590.883343 520.181626 613.211646 486.764959 628.444244 449.990214 
C 643.676843 413.215469 651.5175 373.797822 651.5175 333.993125 
M 348.4025 333.993125 
C 348.4025 333.993125 348.4025 333.993125 348.4025 333.993125 
C 348.4025 333.993125 348.4025 333.993125 348.4025 333.993125 
C 348.4025 333.993125 348.4025 333.993125 348.4025 333.993125 
C 348.4025 333.993125 348.4025 333.993125 348.4025 333.993125 
C 348.4025 333.993125 348.4025 333.993125 348.4025 333.993125 
C 348.4025 333.993125 348.4025 333.993125 348.4025 333.993125 
C 348.4025 333.993125 348.4025 333.993125 348.4025 333.993125 
C 348.4025 333.993125 348.4025 333.993125 348.4025 333.993125 
C 348.4025 333.993125 348.4025 333.993125 348.4025 333.993125 
C 348.4025 333.993125 348.4025 333.993125 348.4025 333.993125 
C 348.4025 333.993125 348.4025 333.993125 348.4025 333.993125 
C 348.4025 333.993125 348.4025 333.993125 348.4025 333.993125 
C 348.4025 333.993125 348.4025 333.993125 348.4025 333.993125 
C 348.4025 333.993125 348.4025 333.993125 348.4025 333.993125 
C 348.4025 333.993125 348.4025 333.993125 348.4025 333.993125 
C 348.4025 333.993125 348.4025 333.993125 348.4025 333.993125 
z
"/>
  </clipPath>
 </defs>
</svg>
