<?xml version="1.0" encoding="utf-8" standalone="no"?>
<!DOCTYPE svg PUBLIC "-//W3C//DTD SVG 1.1//EN"
  "http://www.w3.org/Graphics/SVG/1.1/DTD/svg11.dtd">
<svg xmlns:xlink="http://www.w3.org/1999/xlink" width="684.08pt" height="667.98625pt" viewBox="0 0 684.08 667.98625" xmlns="http://www.w3.org/2000/svg" version="1.1">
 <metadata>
  <rdf:RDF xmlns:dc="http://purl.org/dc/elements/1.1/" xmlns:cc="http://creativecommons.org/ns#" xmlns:rdf="http://www.w3.org/1999/02/22-rdf-syntax-ns#">
   <cc:Work>
    <dc:type rdf:resource="http://purl.org/dc/dcmitype/StillImage"/>
    <dc:date>2025-04-23T09:24:15.682837</dc:date>
    <dc:format>image/svg+xml</dc:format>
    <dc:creator>
     <cc:Agent>
      <dc:title>Matplotlib v3.9.2, https://matplotlib.org/</dc:title>
     </cc:Agent>
    </dc:creator>
   </cc:Work>
  </rdf:RDF>
 </metadata>
 <defs>
  <style type="text/css">*{stroke-linejoin: round; stroke-linecap: butt}</style>
 </defs>
 <g id="figure_1">
  <g id="patch_1">
   <path d="M 0 667.98625 
L 684.08 667.98625 
L 684.08 0 
L 0 0 
L 0 667.98625 
z
" style="fill: none"/>
  </g>
  <g id="axes_1">
   <g id="patch_2">
    <path d="M 651.5175 333.993125 
C 651.5175 294.188428 643.676843 254.770781 628.444244 217.996036 
C 613.211646 181.221291 590.883343 147.804624 562.737172 119.658453 
C 534.591001 91.512282 501.174334 69.183979 464.399589 53.951381 
C 427.624844 38.718782 388.207197 30.878125 348.4025 30.878125 
C 308.597803 30.878125 269.180156 38.718782 232.405411 53.951381 
C 195.630666 69.183979 162.213999 91.512282 134.067828 119.658453 
C 105.921657 147.804624 83.593354 181.221291 68.360756 217.996036 
C 53.128157 254.770781 45.2875 294.188428 45.2875 333.993125 
C 45.2875 373.797822 53.128157 413.215469 68.360756 449.990214 
C 83.593354 486.764959 105.921657 520.181626 134.067828 548.327797 
C 162.213999 576.473968 195.630666 598.802271 232.405411 614.034869 
C 269.180156 629.267468 308.597803 637.108125 348.4025 637.108125 
C 388.207197 637.108125 427.624844 629.267468 464.399589 614.034869 
C 501.174334 598.802271 534.591001 576.473968 562.737172 548.327797 
C 590.883343 520.181626 613.211646 486.764959 628.444244 449.990214 
C 643.676843 413.215469 651.5175 373.797822 651.5175 333.993125 
M 348.4025 333.993125 
C 348.4025 333.993125 348.4025 333.993125 348.4025 333.993125 
C 348.4025 333.993125 348.4025 333.993125 348.4025 333.993125 
C 348.4025 333.993125 348.4025 333.993125 348.4025 333.993125 
C 348.4025 333.993125 348.4025 333.993125 348.4025 333.993125 
C 348.4025 333.993125 348.4025 333.993125 348.4025 333.993125 
C 348.4025 333.993125 348.4025 333.993125 348.4025 333.993125 
C 348.4025 333.993125 348.4025 333.993125 348.4025 333.993125 
C 348.4025 333.993125 348.4025 333.993125 348.4025 333.993125 
C 348.4025 333.993125 348.4025 333.993125 348.4025 333.993125 
C 348.4025 333.993125 348.4025 333.993125 348.4025 333.993125 
C 348.4025 333.993125 348.4025 333.993125 348.4025 333.993125 
C 348.4025 333.993125 348.4025 333.993125 348.4025 333.993125 
C 348.4025 333.993125 348.4025 333.993125 348.4025 333.993125 
C 348.4025 333.993125 348.4025 333.993125 348.4025 333.993125 
C 348.4025 333.993125 348.4025 333.993125 348.4025 333.993125 
C 348.4025 333.993125 348.4025 333.993125 348.4025 333.993125 
L 348.4025 333.993125 
z
" style="fill: none"/>
   </g>
   <g id="patch_3">
    <path d="M 348.4025 333.993125 
C 348.4025 333.993125 348.4025 333.993125 348.4025 333.993125 
C 348.4025 333.993125 348.4025 333.993125 348.4025 333.993125 
L 404.860679 331.528108 
C 404.896532 332.349291 404.914466 333.171159 404.914466 333.993125 
C 404.914466 334.815091 404.896532 335.636959 404.860679 336.458142 
z
" clip-path="url(#p3ee8d6dc75)" style="fill: #008080; opacity: 0.8; stroke: #000000; stroke-width: 0.8; stroke-linejoin: miter"/>
   </g>
   <g id="patch_4">
    <path d="M 348.4025 333.993125 
C 348.4025 333.993125 348.4025 333.993125 348.4025 333.993125 
C 348.4025 333.993125 348.4025 333.993125 348.4025 333.993125 
L 454.924163 319.969282 
C 455.12814 321.518638 455.298289 323.07226 455.43449 324.629039 
C 455.57069 326.185818 455.672909 327.745383 455.741075 329.306622 
z
" clip-path="url(#p3ee8d6dc75)" style="fill: #008080; opacity: 0.8; stroke: #000000; stroke-width: 0.8; stroke-linejoin: miter"/>
   </g>
   <g id="patch_5">
    <path d="M 348.4025 333.993125 
C 348.4025 333.993125 348.4025 333.993125 348.4025 333.993125 
C 348.4025 333.993125 348.4025 333.993125 348.4025 333.993125 
L 506.682895 298.903206 
C 507.193277 301.205393 507.653371 303.51844 508.062848 305.840698 
C 508.472325 308.162956 508.831087 310.493871 509.138878 312.831779 
z
" clip-path="url(#p3ee8d6dc75)" style="fill: #008080; opacity: 0.8; stroke: #000000; stroke-width: 0.8; stroke-linejoin: miter"/>
   </g>
   <g id="patch_6">
    <path d="M 348.4025 333.993125 
C 348.4025 333.993125 348.4025 333.993125 348.4025 333.993125 
C 348.4025 333.993125 348.4025 333.993125 348.4025 333.993125 
L 551.644375 269.911208 
C 552.576446 272.867358 553.44391 275.843493 554.246148 278.837486 
C 555.048386 281.831479 555.785207 284.842619 556.456086 287.868756 
z
" clip-path="url(#p3ee8d6dc75)" style="fill: #008080; opacity: 0.8; stroke: #000000; stroke-width: 0.8; stroke-linejoin: miter"/>
   </g>
   <g id="patch_7">
    <path d="M 348.4025 333.993125 
C 348.4025 333.993125 348.4025 333.993125 348.4025 333.993125 
C 348.4025 333.993125 348.4025 333.993125 348.4025 333.993125 
L 585.009476 235.987307 
C 586.434969 239.428752 587.785209 242.900889 589.059232 246.401238 
C 590.333255 249.901587 591.530758 253.429315 592.650885 256.981905 
z
" clip-path="url(#p3ee8d6dc75)" style="fill: #008080; opacity: 0.8; stroke: #000000; stroke-width: 0.8; stroke-linejoin: miter"/>
   </g>
   <g id="patch_8">
    <path d="M 348.4025 333.993125 
C 348.4025 333.993125 348.4025 333.993125 348.4025 333.993125 
C 348.4025 333.993125 348.4025 333.993125 348.4025 333.993125 
L 592.826399 206.754097 
C 594.677089 210.309239 596.449994 213.904336 598.14385 217.536821 
C 599.837705 221.169306 601.452108 224.838314 602.985904 228.541226 
z
" clip-path="url(#p3ee8d6dc75)" style="fill: #008080; opacity: 0.8; stroke: #000000; stroke-width: 0.8; stroke-linejoin: miter"/>
   </g>
   <g id="patch_9">
    <path d="M 348.4025 333.993125 
C 348.4025 333.993125 348.4025 333.993125 348.4025 333.993125 
C 348.4025 333.993125 348.4025 333.993125 348.4025 333.993125 
L 569.471447 193.156673 
C 571.519911 196.372118 573.497979 199.631873 575.404238 202.933611 
C 577.310497 206.235348 579.144493 209.578282 580.904918 212.960027 
z
" clip-path="url(#p3ee8d6dc75)" style="fill: #008080; opacity: 0.8; stroke: #000000; stroke-width: 0.8; stroke-linejoin: miter"/>
   </g>
   <g id="patch_10">
    <path d="M 348.4025 333.993125 
C 348.4025 333.993125 348.4025 333.993125 348.4025 333.993125 
C 348.4025 333.993125 348.4025 333.993125 348.4025 333.993125 
L 535.09761 190.736928 
C 537.18127 193.452406 539.205437 196.213021 541.168666 199.016803 
C 543.131895 201.820584 545.033718 204.666865 546.872779 207.553612 
z
" clip-path="url(#p3ee8d6dc75)" style="fill: #008080; opacity: 0.8; stroke: #000000; stroke-width: 0.8; stroke-linejoin: miter"/>
   </g>
   <g id="patch_11">
    <path d="M 348.4025 333.993125 
C 348.4025 333.993125 348.4025 333.993125 348.4025 333.993125 
C 348.4025 333.993125 348.4025 333.993125 348.4025 333.993125 
L 491.299755 203.051916 
C 493.204293 205.130354 495.063258 207.250098 496.875324 209.409633 
C 498.687389 211.569169 500.452123 213.767982 502.168266 216.004503 
z
" clip-path="url(#p3ee8d6dc75)" style="fill: #008080; opacity: 0.8; stroke: #000000; stroke-width: 0.8; stroke-linejoin: miter"/>
   </g>
   <g id="patch_12">
    <path d="M 348.4025 333.993125 
C 348.4025 333.993125 348.4025 333.993125 348.4025 333.993125 
C 348.4025 333.993125 348.4025 333.993125 348.4025 333.993125 
L 446.93668 226.461936 
C 448.50072 227.895115 450.033305 229.362246 451.533342 230.862283 
C 453.033379 232.36232 454.50051 233.894905 455.933689 235.458945 
z
" clip-path="url(#p3ee8d6dc75)" style="fill: #008080; opacity: 0.8; stroke: #000000; stroke-width: 0.8; stroke-linejoin: miter"/>
   </g>
   <g id="patch_13">
    <path d="M 348.4025 333.993125 
C 348.4025 333.993125 348.4025 333.993125 348.4025 333.993125 
C 348.4025 333.993125 348.4025 333.993125 348.4025 333.993125 
L 412.237846 250.801282 
C 413.447871 251.729766 414.637494 252.68454 415.805866 253.664921 
C 416.974239 254.645302 418.121083 255.651057 419.24558 256.681469 
z
" clip-path="url(#p3ee8d6dc75)" style="fill: #008080; opacity: 0.8; stroke: #000000; stroke-width: 0.8; stroke-linejoin: miter"/>
   </g>
   <g id="patch_14">
    <path d="M 348.4025 333.993125 
C 348.4025 333.993125 348.4025 333.993125 348.4025 333.993125 
C 348.4025 333.993125 348.4025 333.993125 348.4025 333.993125 
L 390.382512 268.097706 
C 391.34096 268.708304 392.285972 269.339741 393.216874 269.991566 
C 394.147776 270.64339 395.064346 271.315447 395.96593 272.007257 
z
" clip-path="url(#p3ee8d6dc75)" style="fill: #008080; opacity: 0.8; stroke: #000000; stroke-width: 0.8; stroke-linejoin: miter"/>
   </g>
   <g id="patch_15">
    <path d="M 348.4025 333.993125 
C 348.4025 333.993125 348.4025 333.993125 348.4025 333.993125 
C 348.4025 333.993125 348.4025 333.993125 348.4025 333.993125 
L 379.083139 275.056165 
C 379.940377 275.502414 380.787776 275.967314 381.624732 276.450531 
C 382.461689 276.933747 383.288003 277.435167 384.103085 277.954432 
z
" clip-path="url(#p3ee8d6dc75)" style="fill: #008080; opacity: 0.8; stroke: #000000; stroke-width: 0.8; stroke-linejoin: miter"/>
   </g>
   <g id="patch_16">
    <path d="M 348.4025 333.993125 
C 348.4025 333.993125 348.4025 333.993125 348.4025 333.993125 
C 348.4025 333.993125 348.4025 333.993125 348.4025 333.993125 
L 377.091966 264.730626 
C 378.099389 265.147914 379.097587 265.587132 380.085848 266.047966 
C 381.07411 266.5088 382.052199 266.99114 383.019419 267.494643 
z
" clip-path="url(#p3ee8d6dc75)" style="fill: #008080; opacity: 0.8; stroke: #000000; stroke-width: 0.8; stroke-linejoin: miter"/>
   </g>
   <g id="patch_17">
    <path d="M 348.4025 333.993125 
C 348.4025 333.993125 348.4025 333.993125 348.4025 333.993125 
C 348.4025 333.993125 348.4025 333.993125 348.4025 333.993125 
L 378.260739 239.294888 
C 379.638124 239.729176 381.00587 240.193463 382.363 240.687418 
C 383.72013 241.181373 385.066322 241.704879 386.400615 242.257561 
z
" clip-path="url(#p3ee8d6dc75)" style="fill: #008080; opacity: 0.8; stroke: #000000; stroke-width: 0.8; stroke-linejoin: miter"/>
   </g>
   <g id="patch_18">
    <path d="M 348.4025 333.993125 
C 348.4025 333.993125 348.4025 333.993125 348.4025 333.993125 
C 348.4025 333.993125 348.4025 333.993125 348.4025 333.993125 
L 376.865721 205.603832 
C 378.733142 206.017829 380.591308 206.47252 382.438893 206.967579 
C 384.286478 207.462637 386.123042 207.997947 387.947274 208.573125 
z
" clip-path="url(#p3ee8d6dc75)" style="fill: #008080; opacity: 0.8; stroke: #000000; stroke-width: 0.8; stroke-linejoin: miter"/>
   </g>
   <g id="patch_19">
    <path d="M 348.4025 333.993125 
C 348.4025 333.993125 348.4025 333.993125 348.4025 333.993125 
C 348.4025 333.993125 348.4025 333.993125 348.4025 333.993125 
L 371.436119 159.035419 
C 373.980877 159.370443 376.518022 159.760947 379.045744 160.206653 
C 381.573466 160.652358 384.091163 161.153159 386.597038 161.708698 
z
" clip-path="url(#p3ee8d6dc75)" style="fill: #008080; opacity: 0.8; stroke: #000000; stroke-width: 0.8; stroke-linejoin: miter"/>
   </g>
   <g id="patch_20">
    <path d="M 348.4025 333.993125 
C 348.4025 333.993125 348.4025 333.993125 348.4025 333.993125 
C 348.4025 333.993125 348.4025 333.993125 348.4025 333.993125 
L 358.271088 107.9653 
C 361.55866 108.108838 364.842709 108.324086 368.120891 108.61089 
C 371.399072 108.897694 374.670607 109.255985 377.933158 109.685508 
z
" clip-path="url(#p3ee8d6dc75)" style="fill: #008080; opacity: 0.8; stroke: #000000; stroke-width: 0.8; stroke-linejoin: miter"/>
   </g>
   <g id="patch_21">
    <path d="M 348.4025 333.993125 
C 348.4025 333.993125 348.4025 333.993125 348.4025 333.993125 
C 348.4025 333.993125 348.4025 333.993125 348.4025 333.993125 
L 337.460802 83.38703 
C 341.105864 83.227883 344.753965 83.148281 348.4025 83.148281 
C 352.051035 83.148281 355.699136 83.227883 359.344198 83.38703 
z
" clip-path="url(#p3ee8d6dc75)" style="fill: #008080; opacity: 0.8; stroke: #000000; stroke-width: 0.8; stroke-linejoin: miter"/>
   </g>
   <g id="patch_22">
    <path d="M 348.4025 333.993125 
C 348.4025 333.993125 348.4025 333.993125 348.4025 333.993125 
C 348.4025 333.993125 348.4025 333.993125 348.4025 333.993125 
L 314.421438 75.881333 
C 318.175671 75.387079 321.94024 74.974792 325.712459 74.644766 
C 329.484677 74.314739 333.263647 74.067052 337.046671 73.901882 
z
" clip-path="url(#p3ee8d6dc75)" style="fill: #008080; opacity: 0.8; stroke: #000000; stroke-width: 0.8; stroke-linejoin: miter"/>
   </g>
   <g id="patch_23">
    <path d="M 348.4025 333.993125 
C 348.4025 333.993125 348.4025 333.993125 348.4025 333.993125 
C 348.4025 333.993125 348.4025 333.993125 348.4025 333.993125 
L 293.405806 85.919071 
C 297.01404 85.119145 300.639297 84.398037 304.278989 83.756261 
C 307.918681 83.114485 311.571942 82.552194 315.236164 82.06979 
z
" clip-path="url(#p3ee8d6dc75)" style="fill: #008080; opacity: 0.8; stroke: #000000; stroke-width: 0.8; stroke-linejoin: miter"/>
   </g>
   <g id="patch_24">
    <path d="M 348.4025 333.993125 
C 348.4025 333.993125 348.4025 333.993125 348.4025 333.993125 
C 348.4025 333.993125 348.4025 333.993125 348.4025 333.993125 
L 280.699696 119.267264 
C 283.822881 118.282527 286.967179 117.366048 290.130345 116.51848 
C 293.293511 115.670913 296.474792 114.892458 299.671918 114.183672 
z
" clip-path="url(#p3ee8d6dc75)" style="fill: #008080; opacity: 0.8; stroke: #000000; stroke-width: 0.8; stroke-linejoin: miter"/>
   </g>
   <g id="patch_25">
    <path d="M 348.4025 333.993125 
C 348.4025 333.993125 348.4025 333.993125 348.4025 333.993125 
C 348.4025 333.993125 348.4025 333.993125 348.4025 333.993125 
L 280.380468 169.773413 
C 282.769042 168.784033 285.178917 167.846884 287.608373 166.962635 
C 290.03783 166.078385 292.486289 165.247245 294.952003 164.469808 
z
" clip-path="url(#p3ee8d6dc75)" style="fill: #008080; opacity: 0.8; stroke: #000000; stroke-width: 0.8; stroke-linejoin: miter"/>
   </g>
   <g id="patch_26">
    <path d="M 348.4025 333.993125 
C 348.4025 333.993125 348.4025 333.993125 348.4025 333.993125 
C 348.4025 333.993125 348.4025 333.993125 348.4025 333.993125 
L 290.142409 222.076532 
C 291.770235 221.22914 293.416354 220.417363 295.079593 219.641782 
C 296.742832 218.866201 298.422794 218.127 300.11828 217.424707 
z
" clip-path="url(#p3ee8d6dc75)" style="fill: #008080; opacity: 0.8; stroke: #000000; stroke-width: 0.8; stroke-linejoin: miter"/>
   </g>
   <g id="patch_27">
    <path d="M 348.4025 333.993125 
C 348.4025 333.993125 348.4025 333.993125 348.4025 333.993125 
C 348.4025 333.993125 348.4025 333.993125 348.4025 333.993125 
L 306.765518 268.636155 
C 307.716134 268.030546 308.67985 267.445748 309.655978 266.882181 
C 310.632106 266.318613 311.620413 265.776409 312.620195 265.255956 
z
" clip-path="url(#p3ee8d6dc75)" style="fill: #008080; opacity: 0.8; stroke: #000000; stroke-width: 0.8; stroke-linejoin: miter"/>
   </g>
   <g id="patch_28">
    <path d="M 348.4025 333.993125 
C 348.4025 333.993125 348.4025 333.993125 348.4025 333.993125 
C 348.4025 333.993125 348.4025 333.993125 348.4025 333.993125 
L 320.16637 297.195084 
C 320.701597 296.784389 321.24572 296.385421 321.798352 295.998464 
C 322.350984 295.611507 322.911993 295.236654 323.480977 294.87417 
z
" clip-path="url(#p3ee8d6dc75)" style="fill: #008080; opacity: 0.8; stroke: #000000; stroke-width: 0.8; stroke-linejoin: miter"/>
   </g>
   <g id="patch_29">
    <path d="M 348.4025 333.993125 
C 348.4025 333.993125 348.4025 333.993125 348.4025 333.993125 
C 348.4025 333.993125 348.4025 333.993125 348.4025 333.993125 
L 327.493028 311.17444 
C 327.824925 310.870312 328.163418 310.573461 328.508266 310.2841 
C 328.853113 309.994739 329.204233 309.712935 329.561374 309.438891 
z
" clip-path="url(#p3ee8d6dc75)" style="fill: #008080; opacity: 0.8; stroke: #000000; stroke-width: 0.8; stroke-linejoin: miter"/>
   </g>
   <g id="patch_30">
    <path d="M 348.4025 333.993125 
C 348.4025 333.993125 348.4025 333.993125 348.4025 333.993125 
C 348.4025 333.993125 348.4025 333.993125 348.4025 333.993125 
L 337.476224 323.981037 
C 337.621849 323.822115 337.770925 323.666388 337.923344 323.513969 
C 338.075763 323.36155 338.23149 323.212474 338.390412 323.066849 
z
" clip-path="url(#p3ee8d6dc75)" style="fill: #008080; opacity: 0.8; stroke: #000000; stroke-width: 0.8; stroke-linejoin: miter"/>
   </g>
   <g id="patch_31">
    <path d="M 348.4025 333.993125 
C 348.4025 333.993125 348.4025 333.993125 348.4025 333.993125 
C 348.4025 333.993125 348.4025 333.993125 348.4025 333.993125 
L 341.035675 328.340361 
C 341.117894 328.233211 341.202442 328.127867 341.289256 328.024405 
C 341.376071 327.920943 341.465133 327.819387 341.556379 327.719811 
z
" clip-path="url(#p3ee8d6dc75)" style="fill: #008080; opacity: 0.8; stroke: #000000; stroke-width: 0.8; stroke-linejoin: miter"/>
   </g>
   <g id="patch_32">
    <path d="M 348.4025 333.993125 
C 348.4025 333.993125 348.4025 333.993125 348.4025 333.993125 
C 348.4025 333.993125 348.4025 333.993125 348.4025 333.993125 
L 339.30808 328.19934 
C 339.39235 328.067062 339.479497 327.936638 339.569457 327.808162 
C 339.659417 327.679685 339.75217 327.553187 339.847649 327.428757 
z
" clip-path="url(#p3ee8d6dc75)" style="fill: #008080; opacity: 0.8; stroke: #000000; stroke-width: 0.8; stroke-linejoin: miter"/>
   </g>
   <g id="patch_33">
    <path d="M 348.4025 333.993125 
C 348.4025 333.993125 348.4025 333.993125 348.4025 333.993125 
C 348.4025 333.993125 348.4025 333.993125 348.4025 333.993125 
L 339.083567 329.141995 
C 339.154126 329.006452 339.227635 328.872463 339.30404 328.740126 
C 339.380444 328.607789 339.459727 328.477135 339.541832 328.348257 
z
" clip-path="url(#p3ee8d6dc75)" style="fill: #008080; opacity: 0.8; stroke: #000000; stroke-width: 0.8; stroke-linejoin: miter"/>
   </g>
   <g id="patch_34">
    <path d="M 348.4025 333.993125 
C 348.4025 333.993125 348.4025 333.993125 348.4025 333.993125 
C 348.4025 333.993125 348.4025 333.993125 348.4025 333.993125 
L 339.288296 330.217898 
C 339.343207 330.085332 339.401003 329.95398 339.461644 329.823935 
C 339.522285 329.693891 339.585755 329.565184 339.652011 329.437909 
z
" clip-path="url(#p3ee8d6dc75)" style="fill: #008080; opacity: 0.8; stroke: #000000; stroke-width: 0.8; stroke-linejoin: miter"/>
   </g>
   <g id="patch_35">
    <path d="M 348.4025 333.993125 
C 348.4025 333.993125 348.4025 333.993125 348.4025 333.993125 
C 348.4025 333.993125 348.4025 333.993125 348.4025 333.993125 
L 342.700599 332.195323 
C 342.726748 332.112389 342.754704 332.030035 342.784445 331.94832 
C 342.814187 331.866606 342.845708 331.78555 342.878985 331.70521 
z
" clip-path="url(#p3ee8d6dc75)" style="fill: #008080; opacity: 0.8; stroke: #000000; stroke-width: 0.8; stroke-linejoin: miter"/>
   </g>
   <g id="patch_36">
    <path d="M 348.4025 333.993125 
C 348.4025 333.993125 348.4025 333.993125 348.4025 333.993125 
C 348.4025 333.993125 348.4025 333.993125 348.4025 333.993125 
L 348.4025 333.993125 
C 348.4025 333.993125 348.4025 333.993125 348.4025 333.993125 
C 348.4025 333.993125 348.4025 333.993125 348.4025 333.993125 
z
" clip-path="url(#p3ee8d6dc75)" style="fill: #008080; opacity: 0.8; stroke: #000000; stroke-width: 0.8; stroke-linejoin: miter"/>
   </g>
   <g id="patch_37">
    <path d="M 348.4025 333.993125 
C 348.4025 333.993125 348.4025 333.993125 348.4025 333.993125 
C 348.4025 333.993125 348.4025 333.993125 348.4025 333.993125 
L 340.349457 332.932922 
C 340.364878 332.81579 340.382852 332.699009 340.403367 332.582662 
C 340.423883 332.466315 340.446934 332.350429 340.472504 332.235087 
z
" clip-path="url(#p3ee8d6dc75)" style="fill: #008080; opacity: 0.8; stroke: #000000; stroke-width: 0.8; stroke-linejoin: miter"/>
   </g>
   <g id="patch_38">
    <path d="M 348.4025 333.993125 
C 348.4025 333.993125 348.4025 333.993125 348.4025 333.993125 
C 348.4025 333.993125 348.4025 333.993125 348.4025 333.993125 
L 323.026799 332.885198 
C 323.042914 332.516109 323.06708 332.147415 323.099279 331.77938 
C 323.131477 331.411345 323.171702 331.044056 323.219924 330.677776 
z
" clip-path="url(#p3ee8d6dc75)" style="fill: #008080; opacity: 0.8; stroke: #000000; stroke-width: 0.8; stroke-linejoin: miter"/>
   </g>
   <g id="patch_39">
    <path d="M 348.4025 333.993125 
C 348.4025 333.993125 348.4025 333.993125 348.4025 333.993125 
C 348.4025 333.993125 348.4025 333.993125 348.4025 333.993125 
L 291.944321 336.458142 
C 291.908468 335.636959 291.890534 334.815091 291.890534 333.993125 
C 291.890534 333.171159 291.908468 332.349291 291.944321 331.528108 
z
" clip-path="url(#p3ee8d6dc75)" style="fill: #008080; opacity: 0.8; stroke: #000000; stroke-width: 0.8; stroke-linejoin: miter"/>
   </g>
   <g id="patch_40">
    <path d="M 348.4025 333.993125 
C 348.4025 333.993125 348.4025 333.993125 348.4025 333.993125 
C 348.4025 333.993125 348.4025 333.993125 348.4025 333.993125 
L 241.880837 348.016968 
C 241.67686 346.467612 241.506711 344.91399 241.37051 343.357211 
C 241.23431 341.800432 241.132091 340.240867 241.063925 338.679628 
z
" clip-path="url(#p3ee8d6dc75)" style="fill: #008080; opacity: 0.8; stroke: #000000; stroke-width: 0.8; stroke-linejoin: miter"/>
   </g>
   <g id="patch_41">
    <path d="M 348.4025 333.993125 
C 348.4025 333.993125 348.4025 333.993125 348.4025 333.993125 
C 348.4025 333.993125 348.4025 333.993125 348.4025 333.993125 
L 190.122105 369.083044 
C 189.611723 366.780857 189.151629 364.46781 188.742152 362.145552 
C 188.332675 359.823294 187.973913 357.492379 187.666122 355.154471 
z
" clip-path="url(#p3ee8d6dc75)" style="fill: #008080; opacity: 0.8; stroke: #000000; stroke-width: 0.8; stroke-linejoin: miter"/>
   </g>
   <g id="patch_42">
    <path d="M 348.4025 333.993125 
C 348.4025 333.993125 348.4025 333.993125 348.4025 333.993125 
C 348.4025 333.993125 348.4025 333.993125 348.4025 333.993125 
L 145.160625 398.075042 
C 144.228554 395.118892 143.36109 392.142757 142.558852 389.148764 
C 141.756614 386.154771 141.019793 383.143631 140.348914 380.117494 
z
" clip-path="url(#p3ee8d6dc75)" style="fill: #008080; opacity: 0.8; stroke: #000000; stroke-width: 0.8; stroke-linejoin: miter"/>
   </g>
   <g id="patch_43">
    <path d="M 348.4025 333.993125 
C 348.4025 333.993125 348.4025 333.993125 348.4025 333.993125 
C 348.4025 333.993125 348.4025 333.993125 348.4025 333.993125 
L 111.795524 431.998943 
C 110.370031 428.557498 109.019791 425.085361 107.745768 421.585012 
C 106.471745 418.084663 105.274242 414.556935 104.154115 411.004345 
z
" clip-path="url(#p3ee8d6dc75)" style="fill: #008080; opacity: 0.8; stroke: #000000; stroke-width: 0.8; stroke-linejoin: miter"/>
   </g>
   <g id="patch_44">
    <path d="M 348.4025 333.993125 
C 348.4025 333.993125 348.4025 333.993125 348.4025 333.993125 
C 348.4025 333.993125 348.4025 333.993125 348.4025 333.993125 
L 103.978601 461.232153 
C 102.127911 457.677011 100.355006 454.081914 98.66115 450.449429 
C 96.967295 446.816944 95.352892 443.147936 93.819096 439.445024 
z
" clip-path="url(#p3ee8d6dc75)" style="fill: #008080; opacity: 0.8; stroke: #000000; stroke-width: 0.8; stroke-linejoin: miter"/>
   </g>
   <g id="patch_45">
    <path d="M 348.4025 333.993125 
C 348.4025 333.993125 348.4025 333.993125 348.4025 333.993125 
C 348.4025 333.993125 348.4025 333.993125 348.4025 333.993125 
L 127.333553 474.829577 
C 125.285089 471.614132 123.307021 468.354377 121.400762 465.052639 
C 119.494503 461.750902 117.660507 458.407968 115.900082 455.026223 
z
" clip-path="url(#p3ee8d6dc75)" style="fill: #008080; opacity: 0.8; stroke: #000000; stroke-width: 0.8; stroke-linejoin: miter"/>
   </g>
   <g id="patch_46">
    <path d="M 348.4025 333.993125 
C 348.4025 333.993125 348.4025 333.993125 348.4025 333.993125 
C 348.4025 333.993125 348.4025 333.993125 348.4025 333.993125 
L 161.70739 477.249322 
C 159.62373 474.533844 157.599563 471.773229 155.636334 468.969447 
C 153.673105 466.165666 151.771282 463.319385 149.932221 460.432638 
z
" clip-path="url(#p3ee8d6dc75)" style="fill: #008080; opacity: 0.8; stroke: #000000; stroke-width: 0.8; stroke-linejoin: miter"/>
   </g>
   <g id="patch_47">
    <path d="M 348.4025 333.993125 
C 348.4025 333.993125 348.4025 333.993125 348.4025 333.993125 
C 348.4025 333.993125 348.4025 333.993125 348.4025 333.993125 
L 205.505245 464.934334 
C 203.600707 462.855896 201.741742 460.736152 199.929676 458.576617 
C 198.117611 456.417081 196.352877 454.218268 194.636734 451.981747 
z
" clip-path="url(#p3ee8d6dc75)" style="fill: #008080; opacity: 0.8; stroke: #000000; stroke-width: 0.8; stroke-linejoin: miter"/>
   </g>
   <g id="patch_48">
    <path d="M 348.4025 333.993125 
C 348.4025 333.993125 348.4025 333.993125 348.4025 333.993125 
C 348.4025 333.993125 348.4025 333.993125 348.4025 333.993125 
L 249.86832 441.524314 
C 248.30428 440.091135 246.771695 438.624004 245.271658 437.123967 
C 243.771621 435.62393 242.30449 434.091345 240.871311 432.527305 
z
" clip-path="url(#p3ee8d6dc75)" style="fill: #008080; opacity: 0.8; stroke: #000000; stroke-width: 0.8; stroke-linejoin: miter"/>
   </g>
   <g id="patch_49">
    <path d="M 348.4025 333.993125 
C 348.4025 333.993125 348.4025 333.993125 348.4025 333.993125 
C 348.4025 333.993125 348.4025 333.993125 348.4025 333.993125 
L 284.567154 417.184968 
C 283.357129 416.256484 282.167506 415.30171 280.999134 414.321329 
C 279.830761 413.340948 278.683917 412.335193 277.55942 411.304781 
z
" clip-path="url(#p3ee8d6dc75)" style="fill: #008080; opacity: 0.8; stroke: #000000; stroke-width: 0.8; stroke-linejoin: miter"/>
   </g>
   <g id="patch_50">
    <path d="M 348.4025 333.993125 
C 348.4025 333.993125 348.4025 333.993125 348.4025 333.993125 
C 348.4025 333.993125 348.4025 333.993125 348.4025 333.993125 
L 306.422488 399.888544 
C 305.46404 399.277946 304.519028 398.646509 303.588126 397.994684 
C 302.657224 397.34286 301.740654 396.670803 300.83907 395.978993 
z
" clip-path="url(#p3ee8d6dc75)" style="fill: #008080; opacity: 0.8; stroke: #000000; stroke-width: 0.8; stroke-linejoin: miter"/>
   </g>
   <g id="patch_51">
    <path d="M 348.4025 333.993125 
C 348.4025 333.993125 348.4025 333.993125 348.4025 333.993125 
C 348.4025 333.993125 348.4025 333.993125 348.4025 333.993125 
L 317.721861 392.930085 
C 316.864623 392.483836 316.017224 392.018936 315.180268 391.535719 
C 314.343311 391.052503 313.516997 390.551083 312.701915 390.031818 
z
" clip-path="url(#p3ee8d6dc75)" style="fill: #008080; opacity: 0.8; stroke: #000000; stroke-width: 0.8; stroke-linejoin: miter"/>
   </g>
   <g id="patch_52">
    <path d="M 348.4025 333.993125 
C 348.4025 333.993125 348.4025 333.993125 348.4025 333.993125 
C 348.4025 333.993125 348.4025 333.993125 348.4025 333.993125 
L 319.713034 403.255624 
C 318.705611 402.838336 317.707413 402.399118 316.719152 401.938284 
C 315.73089 401.47745 314.752801 400.99511 313.785581 400.491607 
z
" clip-path="url(#p3ee8d6dc75)" style="fill: #008080; opacity: 0.8; stroke: #000000; stroke-width: 0.8; stroke-linejoin: miter"/>
   </g>
   <g id="patch_53">
    <path d="M 348.4025 333.993125 
C 348.4025 333.993125 348.4025 333.993125 348.4025 333.993125 
C 348.4025 333.993125 348.4025 333.993125 348.4025 333.993125 
L 318.544261 428.691362 
C 317.166876 428.257074 315.79913 427.792787 314.442 427.298832 
C 313.08487 426.804877 311.738678 426.281371 310.404385 425.728689 
z
" clip-path="url(#p3ee8d6dc75)" style="fill: #008080; opacity: 0.8; stroke: #000000; stroke-width: 0.8; stroke-linejoin: miter"/>
   </g>
   <g id="patch_54">
    <path d="M 348.4025 333.993125 
C 348.4025 333.993125 348.4025 333.993125 348.4025 333.993125 
C 348.4025 333.993125 348.4025 333.993125 348.4025 333.993125 
L 319.939279 462.382418 
C 318.071858 461.968421 316.213692 461.51373 314.366107 461.018671 
C 312.518522 460.523613 310.681958 459.988303 308.857726 459.413125 
z
" clip-path="url(#p3ee8d6dc75)" style="fill: #008080; opacity: 0.8; stroke: #000000; stroke-width: 0.8; stroke-linejoin: miter"/>
   </g>
   <g id="patch_55">
    <path d="M 348.4025 333.993125 
C 348.4025 333.993125 348.4025 333.993125 348.4025 333.993125 
C 348.4025 333.993125 348.4025 333.993125 348.4025 333.993125 
L 325.368881 508.950831 
C 322.824123 508.615807 320.286978 508.225303 317.759256 507.779597 
C 315.231534 507.333892 312.713837 506.833091 310.207962 506.277552 
z
" clip-path="url(#p3ee8d6dc75)" style="fill: #008080; opacity: 0.8; stroke: #000000; stroke-width: 0.8; stroke-linejoin: miter"/>
   </g>
   <g id="patch_56">
    <path d="M 348.4025 333.993125 
C 348.4025 333.993125 348.4025 333.993125 348.4025 333.993125 
C 348.4025 333.993125 348.4025 333.993125 348.4025 333.993125 
L 338.533912 560.02095 
C 335.24634 559.877412 331.962291 559.662164 328.684109 559.37536 
C 325.405928 559.088556 322.134393 558.730265 318.871842 558.300742 
z
" clip-path="url(#p3ee8d6dc75)" style="fill: #008080; opacity: 0.8; stroke: #000000; stroke-width: 0.8; stroke-linejoin: miter"/>
   </g>
   <g id="patch_57">
    <path d="M 348.4025 333.993125 
C 348.4025 333.993125 348.4025 333.993125 348.4025 333.993125 
C 348.4025 333.993125 348.4025 333.993125 348.4025 333.993125 
L 359.344198 584.59922 
C 355.699136 584.758367 352.051035 584.837969 348.4025 584.837969 
C 344.753965 584.837969 341.105864 584.758367 337.460802 584.59922 
z
" clip-path="url(#p3ee8d6dc75)" style="fill: #008080; opacity: 0.8; stroke: #000000; stroke-width: 0.8; stroke-linejoin: miter"/>
   </g>
   <g id="patch_58">
    <path d="M 348.4025 333.993125 
C 348.4025 333.993125 348.4025 333.993125 348.4025 333.993125 
C 348.4025 333.993125 348.4025 333.993125 348.4025 333.993125 
L 382.383562 592.104917 
C 378.629329 592.599171 374.86476 593.011458 371.092541 593.341484 
C 367.320323 593.671511 363.541353 593.919198 359.758329 594.084368 
z
" clip-path="url(#p3ee8d6dc75)" style="fill: #008080; opacity: 0.8; stroke: #000000; stroke-width: 0.8; stroke-linejoin: miter"/>
   </g>
   <g id="patch_59">
    <path d="M 348.4025 333.993125 
C 348.4025 333.993125 348.4025 333.993125 348.4025 333.993125 
C 348.4025 333.993125 348.4025 333.993125 348.4025 333.993125 
L 403.399194 582.067179 
C 399.79096 582.867105 396.165703 583.588213 392.526011 584.229989 
C 388.886319 584.871765 385.233058 585.434056 381.568836 585.91646 
z
" clip-path="url(#p3ee8d6dc75)" style="fill: #008080; opacity: 0.8; stroke: #000000; stroke-width: 0.8; stroke-linejoin: miter"/>
   </g>
   <g id="patch_60">
    <path d="M 348.4025 333.993125 
C 348.4025 333.993125 348.4025 333.993125 348.4025 333.993125 
C 348.4025 333.993125 348.4025 333.993125 348.4025 333.993125 
L 416.105304 548.718986 
C 412.982119 549.703723 409.837821 550.620202 406.674655 551.46777 
C 403.511489 552.315337 400.330208 553.093792 397.133082 553.802578 
z
" clip-path="url(#p3ee8d6dc75)" style="fill: #008080; opacity: 0.8; stroke: #000000; stroke-width: 0.8; stroke-linejoin: miter"/>
   </g>
   <g id="patch_61">
    <path d="M 348.4025 333.993125 
C 348.4025 333.993125 348.4025 333.993125 348.4025 333.993125 
C 348.4025 333.993125 348.4025 333.993125 348.4025 333.993125 
L 416.424532 498.212837 
C 414.035958 499.202217 411.626083 500.139366 409.196627 501.023615 
C 406.76717 501.907865 404.318711 502.739005 401.852997 503.516442 
z
" clip-path="url(#p3ee8d6dc75)" style="fill: #008080; opacity: 0.8; stroke: #000000; stroke-width: 0.8; stroke-linejoin: miter"/>
   </g>
   <g id="patch_62">
    <path d="M 348.4025 333.993125 
C 348.4025 333.993125 348.4025 333.993125 348.4025 333.993125 
C 348.4025 333.993125 348.4025 333.993125 348.4025 333.993125 
L 406.662591 445.909718 
C 405.034765 446.75711 403.388646 447.568887 401.725407 448.344468 
C 400.062168 449.120049 398.382206 449.85925 396.68672 450.561543 
z
" clip-path="url(#p3ee8d6dc75)" style="fill: #008080; opacity: 0.8; stroke: #000000; stroke-width: 0.8; stroke-linejoin: miter"/>
   </g>
   <g id="patch_63">
    <path d="M 348.4025 333.993125 
C 348.4025 333.993125 348.4025 333.993125 348.4025 333.993125 
C 348.4025 333.993125 348.4025 333.993125 348.4025 333.993125 
L 390.039482 399.350095 
C 389.088866 399.955704 388.12515 400.540502 387.149022 401.104069 
C 386.172894 401.667637 385.184587 402.209841 384.184805 402.730294 
z
" clip-path="url(#p3ee8d6dc75)" style="fill: #008080; opacity: 0.8; stroke: #000000; stroke-width: 0.8; stroke-linejoin: miter"/>
   </g>
   <g id="patch_64">
    <path d="M 348.4025 333.993125 
C 348.4025 333.993125 348.4025 333.993125 348.4025 333.993125 
C 348.4025 333.993125 348.4025 333.993125 348.4025 333.993125 
L 376.63863 370.791166 
C 376.103403 371.201861 375.55928 371.600829 375.006648 371.987786 
C 374.454016 372.374743 373.893007 372.749596 373.324023 373.11208 
z
" clip-path="url(#p3ee8d6dc75)" style="fill: #008080; opacity: 0.8; stroke: #000000; stroke-width: 0.8; stroke-linejoin: miter"/>
   </g>
   <g id="patch_65">
    <path d="M 348.4025 333.993125 
C 348.4025 333.993125 348.4025 333.993125 348.4025 333.993125 
C 348.4025 333.993125 348.4025 333.993125 348.4025 333.993125 
L 369.311972 356.81181 
C 368.980075 357.115938 368.641582 357.412789 368.296734 357.70215 
C 367.951887 357.991511 367.600767 358.273315 367.243626 358.547359 
z
" clip-path="url(#p3ee8d6dc75)" style="fill: #008080; opacity: 0.8; stroke: #000000; stroke-width: 0.8; stroke-linejoin: miter"/>
   </g>
   <g id="patch_66">
    <path d="M 348.4025 333.993125 
C 348.4025 333.993125 348.4025 333.993125 348.4025 333.993125 
C 348.4025 333.993125 348.4025 333.993125 348.4025 333.993125 
L 359.328776 344.005213 
C 359.183151 344.164135 359.034075 344.319862 358.881656 344.472281 
C 358.729237 344.6247 358.57351 344.773776 358.414588 344.919401 
z
" clip-path="url(#p3ee8d6dc75)" style="fill: #008080; opacity: 0.8; stroke: #000000; stroke-width: 0.8; stroke-linejoin: miter"/>
   </g>
   <g id="patch_67">
    <path d="M 348.4025 333.993125 
C 348.4025 333.993125 348.4025 333.993125 348.4025 333.993125 
C 348.4025 333.993125 348.4025 333.993125 348.4025 333.993125 
L 355.769325 339.645889 
C 355.687106 339.753039 355.602558 339.858383 355.515744 339.961845 
C 355.428929 340.065307 355.339867 340.166863 355.248621 340.266439 
z
" clip-path="url(#p3ee8d6dc75)" style="fill: #008080; opacity: 0.8; stroke: #000000; stroke-width: 0.8; stroke-linejoin: miter"/>
   </g>
   <g id="patch_68">
    <path d="M 348.4025 333.993125 
C 348.4025 333.993125 348.4025 333.993125 348.4025 333.993125 
C 348.4025 333.993125 348.4025 333.993125 348.4025 333.993125 
L 357.49692 339.78691 
C 357.41265 339.919188 357.325503 340.049612 357.235543 340.178088 
C 357.145583 340.306565 357.05283 340.433063 356.957351 340.557493 
z
" clip-path="url(#p3ee8d6dc75)" style="fill: #008080; opacity: 0.8; stroke: #000000; stroke-width: 0.8; stroke-linejoin: miter"/>
   </g>
   <g id="patch_69">
    <path d="M 348.4025 333.993125 
C 348.4025 333.993125 348.4025 333.993125 348.4025 333.993125 
C 348.4025 333.993125 348.4025 333.993125 348.4025 333.993125 
L 357.721433 338.844255 
C 357.650874 338.979798 357.577365 339.113787 357.50096 339.246124 
C 357.424556 339.378461 357.345273 339.509115 357.263168 339.637993 
z
" clip-path="url(#p3ee8d6dc75)" style="fill: #008080; opacity: 0.8; stroke: #000000; stroke-width: 0.8; stroke-linejoin: miter"/>
   </g>
   <g id="patch_70">
    <path d="M 348.4025 333.993125 
C 348.4025 333.993125 348.4025 333.993125 348.4025 333.993125 
C 348.4025 333.993125 348.4025 333.993125 348.4025 333.993125 
L 357.516704 337.768352 
C 357.461793 337.900918 357.403997 338.03227 357.343356 338.162315 
C 357.282715 338.292359 357.219245 338.421066 357.152989 338.548341 
z
" clip-path="url(#p3ee8d6dc75)" style="fill: #008080; opacity: 0.8; stroke: #000000; stroke-width: 0.8; stroke-linejoin: miter"/>
   </g>
   <g id="patch_71">
    <path d="M 348.4025 333.993125 
C 348.4025 333.993125 348.4025 333.993125 348.4025 333.993125 
C 348.4025 333.993125 348.4025 333.993125 348.4025 333.993125 
L 354.104401 335.790927 
C 354.078252 335.873861 354.050296 335.956215 354.020555 336.03793 
C 353.990813 336.119644 353.959292 336.2007 353.926015 336.28104 
z
" clip-path="url(#p3ee8d6dc75)" style="fill: #008080; opacity: 0.8; stroke: #000000; stroke-width: 0.8; stroke-linejoin: miter"/>
   </g>
   <g id="patch_72">
    <path d="M 348.4025 333.993125 
C 348.4025 333.993125 348.4025 333.993125 348.4025 333.993125 
C 348.4025 333.993125 348.4025 333.993125 348.4025 333.993125 
L 348.4025 333.993125 
C 348.4025 333.993125 348.4025 333.993125 348.4025 333.993125 
C 348.4025 333.993125 348.4025 333.993125 348.4025 333.993125 
z
" clip-path="url(#p3ee8d6dc75)" style="fill: #008080; opacity: 0.8; stroke: #000000; stroke-width: 0.8; stroke-linejoin: miter"/>
   </g>
   <g id="patch_73">
    <path d="M 348.4025 333.993125 
C 348.4025 333.993125 348.4025 333.993125 348.4025 333.993125 
C 348.4025 333.993125 348.4025 333.993125 348.4025 333.993125 
L 356.455543 335.053328 
C 356.440122 335.17046 356.422148 335.287241 356.401633 335.403588 
C 356.381117 335.519935 356.358066 335.635821 356.332496 335.751163 
z
" clip-path="url(#p3ee8d6dc75)" style="fill: #008080; opacity: 0.8; stroke: #000000; stroke-width: 0.8; stroke-linejoin: miter"/>
   </g>
   <g id="patch_74">
    <path d="M 348.4025 333.993125 
C 348.4025 333.993125 348.4025 333.993125 348.4025 333.993125 
C 348.4025 333.993125 348.4025 333.993125 348.4025 333.993125 
L 373.778201 335.101052 
C 373.762086 335.470141 373.73792 335.838835 373.705721 336.20687 
C 373.673523 336.574905 373.633298 336.942194 373.585076 337.308474 
z
" clip-path="url(#p3ee8d6dc75)" style="fill: #008080; opacity: 0.8; stroke: #000000; stroke-width: 0.8; stroke-linejoin: miter"/>
   </g>
   <g id="matplotlib.axis_1">
    <g id="xtick_1">
     <g id="line2d_1">
      <path d="M 348.4025 333.993125 
L 651.5175 333.993125 
" clip-path="url(#p3ee8d6dc75)" style="fill: none; stroke: #b0b0b0; stroke-width: 0.8; stroke-linecap: square"/>
     </g>
     <g id="text_1">
      <text style="font: 20px 'DejaVu Sans', 'Bitstream Vera Sans', 'Computer Modern Sans Serif', 'Lucida Grande', 'Verdana', 'Geneva', 'Lucid', 'Arial', 'Helvetica', 'Avant Garde', sans-serif; text-anchor: middle" x="665.5175" y="339.511875" transform="rotate(-0 665.5175 339.511875)">0°</text>
     </g>
    </g>
    <g id="xtick_2">
     <g id="line2d_2">
      <path d="M 348.4025 333.993125 
L 562.737172 119.658453 
" clip-path="url(#p3ee8d6dc75)" style="fill: none; stroke: #b0b0b0; stroke-width: 0.8; stroke-linecap: square"/>
     </g>
     <g id="text_2">
      <text style="font: 20px 'DejaVu Sans', 'Bitstream Vera Sans', 'Computer Modern Sans Serif', 'Lucida Grande', 'Verdana', 'Geneva', 'Lucid', 'Arial', 'Helvetica', 'Avant Garde', sans-serif; text-anchor: middle" x="572.636667" y="115.277708" transform="rotate(-0 572.636667 115.277708)">45°</text>
     </g>
    </g>
    <g id="xtick_3">
     <g id="line2d_3">
      <path d="M 348.4025 333.993125 
L 348.4025 30.878125 
" clip-path="url(#p3ee8d6dc75)" style="fill: none; stroke: #b0b0b0; stroke-width: 0.8; stroke-linecap: square"/>
     </g>
     <g id="text_3">
      <text style="font: 20px 'DejaVu Sans', 'Bitstream Vera Sans', 'Computer Modern Sans Serif', 'Lucida Grande', 'Verdana', 'Geneva', 'Lucid', 'Arial', 'Helvetica', 'Avant Garde', sans-serif; text-anchor: middle" x="348.4025" y="22.396875" transform="rotate(-0 348.4025 22.396875)">90°</text>
     </g>
    </g>
    <g id="xtick_4">
     <g id="line2d_4">
      <path d="M 348.4025 333.993125 
L 134.067828 119.658453 
" clip-path="url(#p3ee8d6dc75)" style="fill: none; stroke: #b0b0b0; stroke-width: 0.8; stroke-linecap: square"/>
     </g>
     <g id="text_4">
      <text style="font: 20px 'DejaVu Sans', 'Bitstream Vera Sans', 'Computer Modern Sans Serif', 'Lucida Grande', 'Verdana', 'Geneva', 'Lucid', 'Arial', 'Helvetica', 'Avant Garde', sans-serif; text-anchor: middle" x="124.168333" y="115.277708" transform="rotate(-0 124.168333 115.277708)">135°</text>
     </g>
    </g>
    <g id="xtick_5">
     <g id="line2d_5">
      <path d="M 348.4025 333.993125 
L 45.2875 333.993125 
" clip-path="url(#p3ee8d6dc75)" style="fill: none; stroke: #b0b0b0; stroke-width: 0.8; stroke-linecap: square"/>
     </g>
     <g id="text_5">
      <text style="font: 20px 'DejaVu Sans', 'Bitstream Vera Sans', 'Computer Modern Sans Serif', 'Lucida Grande', 'Verdana', 'Geneva', 'Lucid', 'Arial', 'Helvetica', 'Avant Garde', sans-serif; text-anchor: middle" x="31.2875" y="339.511875" transform="rotate(-0 31.2875 339.511875)">180°</text>
     </g>
    </g>
    <g id="xtick_6">
     <g id="line2d_6">
      <path d="M 348.4025 333.993125 
L 134.067828 548.327797 
" clip-path="url(#p3ee8d6dc75)" style="fill: none; stroke: #b0b0b0; stroke-width: 0.8; stroke-linecap: square"/>
     </g>
     <g id="text_6">
      <text style="font: 20px 'DejaVu Sans', 'Bitstream Vera Sans', 'Computer Modern Sans Serif', 'Lucida Grande', 'Verdana', 'Geneva', 'Lucid', 'Arial', 'Helvetica', 'Avant Garde', sans-serif; text-anchor: middle" x="124.168333" y="563.746042" transform="rotate(-0 124.168333 563.746042)">225°</text>
     </g>
    </g>
    <g id="xtick_7">
     <g id="line2d_7">
      <path d="M 348.4025 333.993125 
L 348.4025 637.108125 
" clip-path="url(#p3ee8d6dc75)" style="fill: none; stroke: #b0b0b0; stroke-width: 0.8; stroke-linecap: square"/>
     </g>
     <g id="text_7">
      <text style="font: 20px 'DejaVu Sans', 'Bitstream Vera Sans', 'Computer Modern Sans Serif', 'Lucida Grande', 'Verdana', 'Geneva', 'Lucid', 'Arial', 'Helvetica', 'Avant Garde', sans-serif; text-anchor: middle" x="348.4025" y="656.626875" transform="rotate(-0 348.4025 656.626875)">270°</text>
     </g>
    </g>
    <g id="xtick_8">
     <g id="line2d_8">
      <path d="M 348.4025 333.993125 
L 562.737172 548.327797 
" clip-path="url(#p3ee8d6dc75)" style="fill: none; stroke: #b0b0b0; stroke-width: 0.8; stroke-linecap: square"/>
     </g>
     <g id="text_8">
      <text style="font: 20px 'DejaVu Sans', 'Bitstream Vera Sans', 'Computer Modern Sans Serif', 'Lucida Grande', 'Verdana', 'Geneva', 'Lucid', 'Arial', 'Helvetica', 'Avant Garde', sans-serif; text-anchor: middle" x="572.636667" y="563.746042" transform="rotate(-0 572.636667 563.746042)">315°</text>
     </g>
    </g>
   </g>
   <g id="matplotlib.axis_2">
    <g id="ytick_1">
     <g id="line2d_9">
      <path d="M 403.514318 333.993125 
C 403.514318 326.755907 402.088744 319.589063 399.319181 312.902745 
C 396.549618 306.216428 392.489926 300.14067 387.37244 295.023185 
C 382.254955 289.905699 376.179197 285.846007 369.49288 283.076444 
C 362.806562 280.306881 355.639718 278.881307 348.4025 278.881307 
C 341.165282 278.881307 333.998438 280.306881 327.31212 283.076444 
C 320.625803 285.846007 314.550045 289.905699 309.43256 295.023185 
C 304.315074 300.14067 300.255382 306.216428 297.485819 312.902745 
C 294.716256 319.589063 293.290682 326.755907 293.290682 333.993125 
C 293.290682 341.230343 294.716256 348.397187 297.485819 355.083505 
C 300.255382 361.769822 304.315074 367.84558 309.43256 372.963065 
C 314.550045 378.080551 320.625803 382.140243 327.31212 384.909806 
C 333.998438 387.679369 341.165282 389.104943 348.4025 389.104943 
C 355.639718 389.104943 362.806562 387.679369 369.49288 384.909806 
C 376.179197 382.140243 382.254955 378.080551 387.37244 372.963065 
C 392.489926 367.84558 396.549618 361.769822 399.319181 355.083505 
C 402.088744 348.397187 403.514318 341.230343 403.514318 333.993125 
" clip-path="url(#p3ee8d6dc75)" style="fill: none; stroke: #b0b0b0; stroke-width: 0.8; stroke-linecap: square"/>
     </g>
     <g id="text_9">
      <text style="font: 20px 'DejaVu Sans', 'Bitstream Vera Sans', 'Computer Modern Sans Serif', 'Lucida Grande', 'Verdana', 'Geneva', 'Lucid', 'Arial', 'Helvetica', 'Avant Garde', sans-serif; text-anchor: start" x="399.319181" y="308.74337" transform="rotate(-0 399.319181 308.74337)">0.2</text>
     </g>
    </g>
    <g id="ytick_2">
     <g id="line2d_10">
      <path d="M 458.626136 333.993125 
C 458.626136 319.51869 455.774988 305.185 450.235862 291.812366 
C 444.696735 278.439731 436.577352 266.288216 426.342381 256.053244 
C 416.107409 245.818273 403.955894 237.69889 390.583259 232.159763 
C 377.210625 226.620637 362.876935 223.769489 348.4025 223.769489 
C 333.928065 223.769489 319.594375 226.620637 306.221741 232.159763 
C 292.849106 237.69889 280.697591 245.818273 270.462619 256.053244 
C 260.227648 266.288216 252.108265 278.439731 246.569138 291.812366 
C 241.030012 305.185 238.178864 319.51869 238.178864 333.993125 
C 238.178864 348.46756 241.030012 362.80125 246.569138 376.173884 
C 252.108265 389.546519 260.227648 401.698034 270.462619 411.933006 
C 280.697591 422.167977 292.849106 430.28736 306.221741 435.826487 
C 319.594375 441.365613 333.928065 444.216761 348.4025 444.216761 
C 362.876935 444.216761 377.210625 441.365613 390.583259 435.826487 
C 403.955894 430.28736 416.107409 422.167977 426.342381 411.933006 
C 436.577352 401.698034 444.696735 389.546519 450.235862 376.173884 
C 455.774988 362.80125 458.626136 348.46756 458.626136 333.993125 
" clip-path="url(#p3ee8d6dc75)" style="fill: none; stroke: #b0b0b0; stroke-width: 0.8; stroke-linecap: square"/>
     </g>
     <g id="text_10">
      <text style="font: 20px 'DejaVu Sans', 'Bitstream Vera Sans', 'Computer Modern Sans Serif', 'Lucida Grande', 'Verdana', 'Geneva', 'Lucid', 'Arial', 'Helvetica', 'Avant Garde', sans-serif; text-anchor: start" x="450.235862" y="287.652991" transform="rotate(-0 450.235862 287.652991)">0.4</text>
     </g>
    </g>
    <g id="ytick_3">
     <g id="line2d_11">
      <path d="M 513.737955 333.993125 
C 513.737955 312.281472 509.461232 290.780938 501.152542 270.721986 
C 492.843853 250.663034 480.664778 232.435761 465.312321 217.083304 
C 449.959864 201.730847 431.732591 189.551772 411.673639 181.243083 
C 391.614687 172.934393 370.114153 168.65767 348.4025 168.65767 
C 326.690847 168.65767 305.190313 172.934393 285.131361 181.243083 
C 265.072409 189.551772 246.845136 201.730847 231.492679 217.083304 
C 216.140222 232.435761 203.961147 250.663034 195.652458 270.721986 
C 187.343768 290.780938 183.067045 312.281472 183.067045 333.993125 
C 183.067045 355.704778 187.343768 377.205312 195.652458 397.264264 
C 203.961147 417.323216 216.140222 435.550489 231.492679 450.902946 
C 246.845136 466.255403 265.072409 478.434478 285.131361 486.743167 
C 305.190313 495.051857 326.690847 499.32858 348.4025 499.32858 
C 370.114153 499.32858 391.614687 495.051857 411.673639 486.743167 
C 431.732591 478.434478 449.959864 466.255403 465.312321 450.902946 
C 480.664778 435.550489 492.843853 417.323216 501.152542 397.264264 
C 509.461232 377.205312 513.737955 355.704778 513.737955 333.993125 
" clip-path="url(#p3ee8d6dc75)" style="fill: none; stroke: #b0b0b0; stroke-width: 0.8; stroke-linecap: square"/>
     </g>
     <g id="text_11">
      <text style="font: 20px 'DejaVu Sans', 'Bitstream Vera Sans', 'Computer Modern Sans Serif', 'Lucida Grande', 'Verdana', 'Geneva', 'Lucid', 'Arial', 'Helvetica', 'Avant Garde', sans-serif; text-anchor: start" x="501.152542" y="266.562611" transform="rotate(-0 501.152542 266.562611)">0.6</text>
     </g>
    </g>
    <g id="ytick_4">
     <g id="line2d_12">
      <path d="M 568.849773 333.993125 
C 568.849773 305.044254 563.147476 276.376875 552.069223 249.631606 
C 540.99097 222.886337 524.752204 198.583306 504.282261 178.113364 
C 483.812319 157.643421 459.509288 141.404655 432.764019 130.326402 
C 406.01875 119.248149 377.351371 113.545852 348.4025 113.545852 
C 319.453629 113.545852 290.78625 119.248149 264.040981 130.326402 
C 237.295712 141.404655 212.992681 157.643421 192.522739 178.113364 
C 172.052796 198.583306 155.81403 222.886337 144.735777 249.631606 
C 133.657524 276.376875 127.955227 305.044254 127.955227 333.993125 
C 127.955227 362.941996 133.657524 391.609375 144.735777 418.354644 
C 155.81403 445.099913 172.052796 469.402944 192.522739 489.872886 
C 212.992681 510.342829 237.295712 526.581595 264.040981 537.659848 
C 290.78625 548.738101 319.453629 554.440398 348.4025 554.440398 
C 377.351371 554.440398 406.01875 548.738101 432.764019 537.659848 
C 459.509288 526.581595 483.812319 510.342829 504.282261 489.872886 
C 524.752204 469.402944 540.99097 445.099913 552.069223 418.354644 
C 563.147476 391.609375 568.849773 362.941996 568.849773 333.993125 
" clip-path="url(#p3ee8d6dc75)" style="fill: none; stroke: #b0b0b0; stroke-width: 0.8; stroke-linecap: square"/>
     </g>
     <g id="text_12">
      <text style="font: 20px 'DejaVu Sans', 'Bitstream Vera Sans', 'Computer Modern Sans Serif', 'Lucida Grande', 'Verdana', 'Geneva', 'Lucid', 'Arial', 'Helvetica', 'Avant Garde', sans-serif; text-anchor: start" x="552.069223" y="245.472231" transform="rotate(-0 552.069223 245.472231)">0.8</text>
     </g>
    </g>
    <g id="ytick_5">
     <g id="line2d_13">
      <path d="M 623.961591 333.993125 
C 623.961591 297.807037 616.833721 261.972813 602.985904 228.541226 
C 589.138088 195.10964 568.83963 164.730852 543.252202 139.143423 
C 517.664773 113.555995 487.285985 93.257537 453.854399 79.409721 
C 420.422812 65.561904 384.588588 58.434034 348.4025 58.434034 
C 312.216412 58.434034 276.382188 65.561904 242.950601 79.409721 
C 209.519015 93.257537 179.140227 113.555995 153.552798 139.143423 
C 127.96537 164.730852 107.666912 195.10964 93.819096 228.541226 
C 79.971279 261.972813 72.843409 297.807037 72.843409 333.993125 
C 72.843409 370.179213 79.971279 406.013437 93.819096 439.445024 
C 107.666912 472.87661 127.96537 503.255398 153.552798 528.842827 
C 179.140227 554.430255 209.519015 574.728713 242.950601 588.576529 
C 276.382188 602.424346 312.216412 609.552216 348.4025 609.552216 
C 384.588588 609.552216 420.422812 602.424346 453.854399 588.576529 
C 487.285985 574.728713 517.664773 554.430255 543.252202 528.842827 
C 568.83963 503.255398 589.138088 472.87661 602.985904 439.445024 
C 616.833721 406.013437 623.961591 370.179213 623.961591 333.993125 
" clip-path="url(#p3ee8d6dc75)" style="fill: none; stroke: #b0b0b0; stroke-width: 0.8; stroke-linecap: square"/>
     </g>
     <g id="text_13">
      <text style="font: 20px 'DejaVu Sans', 'Bitstream Vera Sans', 'Computer Modern Sans Serif', 'Lucida Grande', 'Verdana', 'Geneva', 'Lucid', 'Arial', 'Helvetica', 'Avant Garde', sans-serif; text-anchor: start" x="602.985904" y="224.381851" transform="rotate(-0 602.985904 224.381851)">1.0</text>
     </g>
    </g>
   </g>
   <g id="line2d_14">
    <defs>
     <path id="m6d9fb7847d" d="M 0 3 
C 0.795609 3 1.55874 2.683901 2.12132 2.12132 
C 2.683901 1.55874 3 0.795609 3 0 
C 3 -0.795609 2.683901 -1.55874 2.12132 -2.12132 
C 1.55874 -2.683901 0.795609 -3 0 -3 
C -0.795609 -3 -1.55874 -2.683901 -2.12132 -2.12132 
C -2.683901 -1.55874 -3 -0.795609 -3 0 
C -3 0.795609 -2.683901 1.55874 -2.12132 2.12132 
C -1.55874 2.683901 -0.795609 3 0 3 
z
" style="stroke: #ff0000"/>
    </defs>
    <g clip-path="url(#p3ee8d6dc75)">
     <use xlink:href="#m6d9fb7847d" x="598.14385" y="217.536821" style="fill: #ff0000; stroke: #ff0000"/>
     <use xlink:href="#m6d9fb7847d" x="325.712459" y="74.644766" style="fill: #ff0000; stroke: #ff0000"/>
     <use xlink:href="#m6d9fb7847d" x="98.66115" y="450.449429" style="fill: #ff0000; stroke: #ff0000"/>
     <use xlink:href="#m6d9fb7847d" x="371.092541" y="593.341484" style="fill: #ff0000; stroke: #ff0000"/>
    </g>
   </g>
   <g id="line2d_15">
    <path d="M 348.4025 333.993125 
L 598.14385 217.536821 
" clip-path="url(#p3ee8d6dc75)" style="fill: none; stroke-dasharray: 3.7,1.6; stroke-dashoffset: 0; stroke: #000000"/>
   </g>
   <g id="line2d_16">
    <path d="M 348.4025 333.993125 
L 325.712459 74.644766 
" clip-path="url(#p3ee8d6dc75)" style="fill: none; stroke-dasharray: 3.7,1.6; stroke-dashoffset: 0; stroke: #000000"/>
   </g>
   <g id="line2d_17">
    <path d="M 348.4025 333.993125 
L 98.66115 450.449429 
" clip-path="url(#p3ee8d6dc75)" style="fill: none; stroke-dasharray: 3.7,1.6; stroke-dashoffset: 0; stroke: #000000"/>
   </g>
   <g id="line2d_18">
    <path d="M 348.4025 333.993125 
L 371.092541 593.341484 
" clip-path="url(#p3ee8d6dc75)" style="fill: none; stroke-dasharray: 3.7,1.6; stroke-dashoffset: 0; stroke: #000000"/>
   </g>
   <g id="line2d_19">
    <path d="M 419.186687 300.985917 
L 418.341793 299.231477 
L 417.453423 297.498647 
L 416.522128 295.788503 
L 415.548487 294.102108 
L 414.533107 292.440511 
L 413.476617 290.804744 
L 412.379674 289.195825 
L 411.242961 287.614754 
L 410.067184 286.062513 
L 408.853075 284.540068 
L 407.601386 283.048364 
L 406.312898 281.588329 
L 404.988411 280.160871 
L 403.628748 278.766877 
L 402.234754 277.407214 
L 400.807296 276.082727 
L 399.347261 274.794239 
L 397.855557 273.54255 
L 396.333112 272.328441 
L 394.780871 271.152664 
L 393.1998 270.015951 
L 391.590881 268.919008 
L 389.955114 267.862518 
L 388.293517 266.847138 
L 386.607122 265.873497 
L 384.896978 264.942202 
L 383.164148 264.053832 
L 381.409708 263.208938 
L 379.63475 262.408047 
L 377.840377 261.651655 
L 376.027705 260.940234 
L 374.197859 260.274224 
L 372.351978 259.654041 
L 370.491209 259.08007 
L 368.61671 258.552668 
L 366.729644 258.072162 
L 364.831185 257.638851 
L 362.922514 257.253005 
L 361.004817 256.914863 
L 359.079285 256.624636 
L 357.147117 256.382504 
L 355.209512 256.188617 
L 353.267676 256.043097 
L 351.322816 255.946033 
L 349.37614 255.897486 
L 347.42886 255.897486 
L 345.482184 255.946033 
L 343.537324 256.043097 
L 341.595488 256.188617 
" clip-path="url(#p3ee8d6dc75)" style="fill: none; stroke: #ff0000; stroke-opacity: 0.7; stroke-width: 1.5; stroke-linecap: square"/>
   </g>
   <g id="patch_75">
    <path d="M 651.5175 333.993125 
C 651.5175 294.188428 643.676843 254.770781 628.444244 217.996036 
C 613.211646 181.221291 590.883343 147.804624 562.737172 119.658453 
C 534.591001 91.512282 501.174334 69.183979 464.399589 53.951381 
C 427.624844 38.718782 388.207197 30.878125 348.4025 30.878125 
C 308.597803 30.878125 269.180156 38.718782 232.405411 53.951381 
C 195.630666 69.183979 162.213999 91.512282 134.067828 119.658453 
C 105.921657 147.804624 83.593354 181.221291 68.360756 217.996036 
C 53.128157 254.770781 45.2875 294.188428 45.2875 333.993125 
C 45.2875 373.797822 53.128157 413.215469 68.360756 449.990214 
C 83.593354 486.764959 105.921657 520.181626 134.067828 548.327797 
C 162.213999 576.473968 195.630666 598.802271 232.405411 614.034869 
C 269.180156 629.267468 308.597803 637.108125 348.4025 637.108125 
C 388.207197 637.108125 427.624844 629.267468 464.399589 614.034869 
C 501.174334 598.802271 534.591001 576.473968 562.737172 548.327797 
C 590.883343 520.181626 613.211646 486.764959 628.444244 449.990214 
C 643.676843 413.215469 651.5175 373.797822 651.5175 333.993125 
" style="fill: none; stroke: #000000; stroke-width: 0.8; stroke-linejoin: miter; stroke-linecap: square"/>
   </g>
   <g id="text_14">
    <g id="patch_76">
     <path d="M 397.15614 227.847479 
L 432.421765 227.847479 
L 432.421765 210.169354 
L 397.15614 210.169354 
z
" style="fill: #ffffff; opacity: 0.7"/>
    </g>
    <text style="font: 10px 'DejaVu Sans', 'Bitstream Vera Sans', 'Computer Modern Sans Serif', 'Lucida Grande', 'Verdana', 'Geneva', 'Lucid', 'Arial', 'Helvetica', 'Avant Garde', sans-serif; text-anchor: middle" x="414.788952" y="221.767792" transform="rotate(-0 414.788952 221.767792)">70.0°</text>
   </g>
   <g id="legend_1">
    <g id="patch_77">
     <path d="M 59.2875 627.108125 
L 290.740625 627.108125 
Q 294.740625 627.108125 294.740625 623.108125 
L 294.740625 566.395625 
Q 294.740625 562.395625 290.740625 562.395625 
L 59.2875 562.395625 
Q 55.2875 562.395625 55.2875 566.395625 
L 55.2875 623.108125 
Q 55.2875 627.108125 59.2875 627.108125 
z
" style="fill: #ffffff; stroke: #cccccc; stroke-linejoin: miter"/>
    </g>
    <g id="line2d_20">
     <g>
      <use xlink:href="#m6d9fb7847d" x="83.2875" y="578.5925" style="fill: #ff0000; stroke: #ff0000"/>
     </g>
    </g>
    <g id="text_15">
     <text style="font: 20px 'DejaVu Sans', 'Bitstream Vera Sans', 'Computer Modern Sans Serif', 'Lucida Grande', 'Verdana', 'Geneva', 'Lucid', 'Arial', 'Helvetica', 'Avant Garde', sans-serif; text-anchor: start" x="119.2875" y="585.5925" transform="rotate(-0 119.2875 585.5925)">Peaks</text>
    </g>
    <g id="patch_78">
     <path d="M 63.2875 614.94875 
L 103.2875 614.94875 
L 103.2875 600.94875 
L 63.2875 600.94875 
z
" style="fill: #008080; opacity: 0.8; stroke: #000000; stroke-width: 0.8; stroke-linejoin: miter"/>
    </g>
    <g id="text_16">
     <text style="font: 20px 'DejaVu Sans', 'Bitstream Vera Sans', 'Computer Modern Sans Serif', 'Lucida Grande', 'Verdana', 'Geneva', 'Lucid', 'Arial', 'Helvetica', 'Avant Garde', sans-serif; text-anchor: start" x="119.2875" y="614.94875" transform="rotate(-0 119.2875 614.94875)">Normalised Data</text>
    </g>
   </g>
  </g>
 </g>
 <defs>
  <clipPath id="p3ee8d6dc75">
   <path d="M 651.5175 333.993125 
C 651.5175 294.188428 643.676843 254.770781 628.444244 217.996036 
C 613.211646 181.221291 590.883343 147.804624 562.737172 119.658453 
C 534.591001 91.512282 501.174334 69.183979 464.399589 53.951381 
C 427.624844 38.718782 388.207197 30.878125 348.4025 30.878125 
C 308.597803 30.878125 269.180156 38.718782 232.405411 53.951381 
C 195.630666 69.183979 162.213999 91.512282 134.067828 119.658453 
C 105.921657 147.804624 83.593354 181.221291 68.360756 217.996036 
C 53.128157 254.770781 45.2875 294.188428 45.2875 333.993125 
C 45.2875 373.797822 53.128157 413.215469 68.360756 449.990214 
C 83.593354 486.764959 105.921657 520.181626 134.067828 548.327797 
C 162.213999 576.473968 195.630666 598.802271 232.405411 614.034869 
C 269.180156 629.267468 308.597803 637.108125 348.4025 637.108125 
C 388.207197 637.108125 427.624844 629.267468 464.399589 614.034869 
C 501.174334 598.802271 534.591001 576.473968 562.737172 548.327797 
C 590.883343 520.181626 613.211646 486.764959 628.444244 449.990214 
C 643.676843 413.215469 651.5175 373.797822 651.5175 333.993125 
M 348.4025 333.993125 
C 348.4025 333.993125 348.4025 333.993125 348.4025 333.993125 
C 348.4025 333.993125 348.4025 333.993125 348.4025 333.993125 
C 348.4025 333.993125 348.4025 333.993125 348.4025 333.993125 
C 348.4025 333.993125 348.4025 333.993125 348.4025 333.993125 
C 348.4025 333.993125 348.4025 333.993125 348.4025 333.993125 
C 348.4025 333.993125 348.4025 333.993125 348.4025 333.993125 
C 348.4025 333.993125 348.4025 333.993125 348.4025 333.993125 
C 348.4025 333.993125 348.4025 333.993125 348.4025 333.993125 
C 348.4025 333.993125 348.4025 333.993125 348.4025 333.993125 
C 348.4025 333.993125 348.4025 333.993125 348.4025 333.993125 
C 348.4025 333.993125 348.4025 333.993125 348.4025 333.993125 
C 348.4025 333.993125 348.4025 333.993125 348.4025 333.993125 
C 348.4025 333.993125 348.4025 333.993125 348.4025 333.993125 
C 348.4025 333.993125 348.4025 333.993125 348.4025 333.993125 
C 348.4025 333.993125 348.4025 333.993125 348.4025 333.993125 
C 348.4025 333.993125 348.4025 333.993125 348.4025 333.993125 
z
"/>
  </clipPath>
 </defs>
</svg>
