<?xml version="1.0" encoding="utf-8" standalone="no"?>
<!DOCTYPE svg PUBLIC "-//W3C//DTD SVG 1.1//EN"
  "http://www.w3.org/Graphics/SVG/1.1/DTD/svg11.dtd">
<svg xmlns:xlink="http://www.w3.org/1999/xlink" width="1512pt" height="648pt" viewBox="0 0 1512 648" xmlns="http://www.w3.org/2000/svg" version="1.1">
 <metadata>
  <rdf:RDF xmlns:dc="http://purl.org/dc/elements/1.1/" xmlns:cc="http://creativecommons.org/ns#" xmlns:rdf="http://www.w3.org/1999/02/22-rdf-syntax-ns#">
   <cc:Work>
    <dc:type rdf:resource="http://purl.org/dc/dcmitype/StillImage"/>
    <dc:date>2025-04-19T18:37:08.435670</dc:date>
    <dc:format>image/svg+xml</dc:format>
    <dc:creator>
     <cc:Agent>
      <dc:title>Matplotlib v3.9.2, https://matplotlib.org/</dc:title>
     </cc:Agent>
    </dc:creator>
   </cc:Work>
  </rdf:RDF>
 </metadata>
 <defs>
  <style type="text/css">*{stroke-linejoin: round; stroke-linecap: butt}</style>
 </defs>
 <g id="figure_1">
  <g id="patch_1">
   <path d="M 0 648 
L 1512 648 
L 1512 0 
L 0 0 
z
" style="fill: #ffffff"/>
  </g>
  <g id="axes_1">
   <g id="patch_2">
    <path d="M 761.492805 469.666 
C 761.492805 418.926214 741.315005 370.212694 705.436558 334.334247 
C 669.558111 298.4558 620.844591 278.278 570.104805 278.278 
C 519.365019 278.278 470.6515 298.4558 434.773053 334.334247 
C 398.894606 370.212694 378.716805 418.926214 378.716805 469.666 
L 570.104805 469.666 
C 570.104805 469.666 570.104805 469.666 570.104805 469.666 
C 570.104805 469.666 570.104805 469.666 570.104805 469.666 
C 570.104805 469.666 570.104805 469.666 570.104805 469.666 
C 570.104805 469.666 570.104805 469.666 570.104805 469.666 
z
" style="fill: #ffffff"/>
   </g>
   <g id="matplotlib.axis_1">
    <g id="xtick_1">
     <g id="line2d_1">
      <path d="M 570.104805 469.666 
L 761.492805 469.666 
" clip-path="url(#pb4d7d66015)" style="fill: none; stroke: #b0b0b0; stroke-width: 0.8; stroke-linecap: square"/>
     </g>
     <g id="text_1">
      <text style="font: 20px 'DejaVu Sans', 'Bitstream Vera Sans', 'Computer Modern Sans Serif', 'Lucida Grande', 'Verdana', 'Geneva', 'Lucid', 'Arial', 'Helvetica', 'Avant Garde', sans-serif; text-anchor: middle" x="775.492805" y="475.18475" transform="rotate(-0 775.492805 475.18475)">0°</text>
     </g>
    </g>
    <g id="xtick_2">
     <g id="line2d_2">
      <path d="M 570.104805 469.666 
L 735.851675 373.972 
" clip-path="url(#pb4d7d66015)" style="fill: none; stroke: #b0b0b0; stroke-width: 0.8; stroke-linecap: square"/>
     </g>
     <g id="text_2">
      <text style="font: 20px 'DejaVu Sans', 'Bitstream Vera Sans', 'Computer Modern Sans Serif', 'Lucida Grande', 'Verdana', 'Geneva', 'Lucid', 'Arial', 'Helvetica', 'Avant Garde', sans-serif; text-anchor: middle" x="747.976031" y="372.49075" transform="rotate(-0 747.976031 372.49075)">30°</text>
     </g>
    </g>
    <g id="xtick_3">
     <g id="line2d_3">
      <path d="M 570.104805 469.666 
L 665.798805 303.91913 
" clip-path="url(#pb4d7d66015)" style="fill: none; stroke: #b0b0b0; stroke-width: 0.8; stroke-linecap: square"/>
     </g>
     <g id="text_3">
      <text style="font: 20px 'DejaVu Sans', 'Bitstream Vera Sans', 'Computer Modern Sans Serif', 'Lucida Grande', 'Verdana', 'Geneva', 'Lucid', 'Arial', 'Helvetica', 'Avant Garde', sans-serif; text-anchor: middle" x="672.798805" y="297.313524" transform="rotate(-0 672.798805 297.313524)">60°</text>
     </g>
    </g>
    <g id="xtick_4">
     <g id="line2d_4">
      <path d="M 570.104805 469.666 
L 570.104805 278.278 
" clip-path="url(#pb4d7d66015)" style="fill: none; stroke: #b0b0b0; stroke-width: 0.8; stroke-linecap: square"/>
     </g>
     <g id="text_4">
      <text style="font: 20px 'DejaVu Sans', 'Bitstream Vera Sans', 'Computer Modern Sans Serif', 'Lucida Grande', 'Verdana', 'Geneva', 'Lucid', 'Arial', 'Helvetica', 'Avant Garde', sans-serif; text-anchor: middle" x="570.104805" y="269.79675" transform="rotate(-0 570.104805 269.79675)">90°</text>
     </g>
    </g>
    <g id="xtick_5">
     <g id="line2d_5">
      <path d="M 570.104805 469.666 
L 474.410805 303.91913 
" clip-path="url(#pb4d7d66015)" style="fill: none; stroke: #b0b0b0; stroke-width: 0.8; stroke-linecap: square"/>
     </g>
     <g id="text_5">
      <text style="font: 20px 'DejaVu Sans', 'Bitstream Vera Sans', 'Computer Modern Sans Serif', 'Lucida Grande', 'Verdana', 'Geneva', 'Lucid', 'Arial', 'Helvetica', 'Avant Garde', sans-serif; text-anchor: middle" x="467.410805" y="297.313524" transform="rotate(-0 467.410805 297.313524)">120°</text>
     </g>
    </g>
    <g id="xtick_6">
     <g id="line2d_6">
      <path d="M 570.104805 469.666 
L 404.357935 373.972 
" clip-path="url(#pb4d7d66015)" style="fill: none; stroke: #b0b0b0; stroke-width: 0.8; stroke-linecap: square"/>
     </g>
     <g id="text_6">
      <text style="font: 20px 'DejaVu Sans', 'Bitstream Vera Sans', 'Computer Modern Sans Serif', 'Lucida Grande', 'Verdana', 'Geneva', 'Lucid', 'Arial', 'Helvetica', 'Avant Garde', sans-serif; text-anchor: middle" x="392.23358" y="372.49075" transform="rotate(-0 392.23358 372.49075)">150°</text>
     </g>
    </g>
    <g id="xtick_7">
     <g id="line2d_7">
      <path d="M 570.104805 469.666 
L 378.716805 469.666 
" clip-path="url(#pb4d7d66015)" style="fill: none; stroke: #b0b0b0; stroke-width: 0.8; stroke-linecap: square"/>
     </g>
     <g id="text_7">
      <text style="font: 20px 'DejaVu Sans', 'Bitstream Vera Sans', 'Computer Modern Sans Serif', 'Lucida Grande', 'Verdana', 'Geneva', 'Lucid', 'Arial', 'Helvetica', 'Avant Garde', sans-serif; text-anchor: middle" x="364.716805" y="475.18475" transform="rotate(-0 364.716805 475.18475)">180°</text>
     </g>
    </g>
   </g>
   <g id="matplotlib.axis_2">
    <g id="ytick_1">
     <g id="line2d_8">
      <path d="M 570.104805 469.666 
C 570.104805 469.666 570.104805 469.666 570.104805 469.666 
C 570.104805 469.666 570.104805 469.666 570.104805 469.666 
C 570.104805 469.666 570.104805 469.666 570.104805 469.666 
C 570.104805 469.666 570.104805 469.666 570.104805 469.666 
" clip-path="url(#pb4d7d66015)" style="fill: none; stroke: #b0b0b0; stroke-width: 0.8; stroke-linecap: square"/>
     </g>
     <g id="text_8">
      <text style="font: 20px 'DejaVu Sans', 'Bitstream Vera Sans', 'Computer Modern Sans Serif', 'Lucida Grande', 'Verdana', 'Geneva', 'Lucid', 'Arial', 'Helvetica', 'Avant Garde', sans-serif; text-anchor: middle" x="570.104805" y="491.862875" transform="rotate(-0 570.104805 491.862875)">0.0</text>
     </g>
    </g>
    <g id="ytick_2">
     <g id="line2d_9">
      <path d="M 606.559662 469.666 
C 606.559662 460.001279 602.716272 450.722513 595.882282 443.888523 
C 589.048292 437.054533 579.769526 433.211143 570.104805 433.211143 
C 560.440084 433.211143 551.161318 437.054533 544.327329 443.888523 
C 537.493339 450.722513 533.649948 460.001279 533.649948 469.666 
" clip-path="url(#pb4d7d66015)" style="fill: none; stroke: #b0b0b0; stroke-width: 0.8; stroke-linecap: square"/>
     </g>
     <g id="text_9">
      <text style="font: 20px 'DejaVu Sans', 'Bitstream Vera Sans', 'Computer Modern Sans Serif', 'Lucida Grande', 'Verdana', 'Geneva', 'Lucid', 'Arial', 'Helvetica', 'Avant Garde', sans-serif; text-anchor: middle" x="606.559662" y="491.862875" transform="rotate(-0 606.559662 491.862875)">0.2</text>
     </g>
    </g>
    <g id="ytick_3">
     <g id="line2d_10">
      <path d="M 643.014519 469.666 
C 643.014519 450.336558 635.327738 431.779026 621.659759 418.111047 
C 607.991779 404.443067 589.434248 396.756286 570.104805 396.756286 
C 550.775363 396.756286 532.217832 404.443067 518.549852 418.111047 
C 504.881872 431.779026 497.195091 450.336558 497.195091 469.666 
" clip-path="url(#pb4d7d66015)" style="fill: none; stroke: #b0b0b0; stroke-width: 0.8; stroke-linecap: square"/>
     </g>
     <g id="text_10">
      <text style="font: 20px 'DejaVu Sans', 'Bitstream Vera Sans', 'Computer Modern Sans Serif', 'Lucida Grande', 'Verdana', 'Geneva', 'Lucid', 'Arial', 'Helvetica', 'Avant Garde', sans-serif; text-anchor: middle" x="643.014519" y="491.862875" transform="rotate(-0 643.014519 491.862875)">0.4</text>
     </g>
    </g>
    <g id="ytick_4">
     <g id="line2d_11">
      <path d="M 679.469377 469.666 
C 679.469377 440.671836 667.939205 412.83554 647.437235 392.33357 
C 626.935266 371.8316 599.098969 360.301429 570.104805 360.301429 
C 541.110642 360.301429 513.274345 371.8316 492.772375 392.33357 
C 472.270405 412.83554 460.740234 440.671836 460.740234 469.666 
" clip-path="url(#pb4d7d66015)" style="fill: none; stroke: #b0b0b0; stroke-width: 0.8; stroke-linecap: square"/>
     </g>
     <g id="text_11">
      <text style="font: 20px 'DejaVu Sans', 'Bitstream Vera Sans', 'Computer Modern Sans Serif', 'Lucida Grande', 'Verdana', 'Geneva', 'Lucid', 'Arial', 'Helvetica', 'Avant Garde', sans-serif; text-anchor: middle" x="679.469377" y="491.862875" transform="rotate(-0 679.469377 491.862875)">0.6</text>
     </g>
    </g>
    <g id="ytick_5">
     <g id="line2d_12">
      <path d="M 715.924234 469.666 
C 715.924234 431.007115 700.550672 393.892053 673.214712 366.556093 
C 645.878752 339.220134 608.76369 323.846571 570.104805 323.846571 
C 531.44592 323.846571 494.330858 339.220134 466.994898 366.556093 
C 439.658939 393.892053 424.285377 431.007115 424.285377 469.666 
" clip-path="url(#pb4d7d66015)" style="fill: none; stroke: #b0b0b0; stroke-width: 0.8; stroke-linecap: square"/>
     </g>
     <g id="text_12">
      <text style="font: 20px 'DejaVu Sans', 'Bitstream Vera Sans', 'Computer Modern Sans Serif', 'Lucida Grande', 'Verdana', 'Geneva', 'Lucid', 'Arial', 'Helvetica', 'Avant Garde', sans-serif; text-anchor: middle" x="715.924234" y="491.862875" transform="rotate(-0 715.924234 491.862875)">0.8</text>
     </g>
    </g>
    <g id="ytick_6">
     <g id="line2d_13">
      <path d="M 752.379091 469.666 
C 752.379091 421.342394 733.162138 374.948566 698.992189 340.778617 
C 664.822239 306.608667 618.428411 287.391714 570.104805 287.391714 
C 521.781199 287.391714 475.387371 306.608667 441.217422 340.778617 
C 407.047472 374.948566 387.830519 421.342394 387.830519 469.666 
" clip-path="url(#pb4d7d66015)" style="fill: none; stroke: #b0b0b0; stroke-width: 0.8; stroke-linecap: square"/>
     </g>
     <g id="text_13">
      <text style="font: 20px 'DejaVu Sans', 'Bitstream Vera Sans', 'Computer Modern Sans Serif', 'Lucida Grande', 'Verdana', 'Geneva', 'Lucid', 'Arial', 'Helvetica', 'Avant Garde', sans-serif; text-anchor: middle" x="752.379091" y="491.862875" transform="rotate(-0 752.379091 491.862875)">1.0</text>
     </g>
    </g>
   </g>
   <g id="line2d_14">
    <path d="M 712.415407 468.424074 
L 711.956072 465.951494 
L 708.870426 463.607362 
L 704.382352 461.453233 
L 705.463106 459.013071 
L 730.927911 454.180496 
L 736.37229 450.722213 
L 750.819709 445.874432 
L 735.119926 445.004325 
L 725.996671 443.578648 
L 723.160096 441.298879 
L 739.777962 435.145606 
L 735.106354 433.086037 
L 710.270927 436.015091 
L 681.854389 440.765593 
L 683.471623 438.226599 
L 692.737977 433.3404 
L 647.683248 445.205611 
L 630.31326 449.520533 
L 626.674329 449.633681 
L 629.17446 447.580761 
L 632.375205 445.137037 
L 644.274412 437.416137 
L 656.700973 430.201853 
L 639.328338 435.15242 
L 639.427306 433.57899 
L 644.977739 429.013314 
L 631.951352 434.674908 
L 632.919112 432.665546 
L 630.929044 432.392859 
L 630.862562 430.95904 
L 634.085703 427.317967 
L 624.281566 432.431344 
L 613.944142 438.395705 
L 610.859021 439.509467 
L 611.30906 438.048863 
L 613.759521 434.941471 
L 605.578174 440.424011 
L 608.241764 437.09396 
L 606.75477 437.24085 
L 611.829914 431.431982 
L 606.82978 434.8153 
L 593.573521 446.603357 
L 591.139658 448.260779 
L 578.895507 459.729919 
L 580.522453 457.468502 
L 577.535043 460.6524 
L 577.284086 460.640407 
L 582.577953 453.410678 
L 583.500506 451.56275 
L 578.89616 457.340976 
L 572.357826 466.262058 
L 570.104805 469.666 
L 572.513506 465.576838 
L 575.637418 459.88714 
L 578.508943 453.521802 
L 579.74668 450.32739 
L 583.430006 441.729135 
L 584.156589 438.832174 
L 583.865221 438.019211 
L 586.192399 430.827113 
L 591.347504 415.738267 
L 598.99431 392.397509 
L 588.294958 418.298594 
L 575.866851 451.391127 
L 576.23927 448.956393 
L 572.513586 460.351936 
L 572.547266 459.492419 
L 570.801751 465.905619 
L 570.832647 464.795898 
L 570.732022 464.901814 
L 570.894892 461.460639 
L 570.929583 459.186202 
L 570.437146 462.054133 
L 570.219539 456.518815 
L 569.962145 453.318709 
L 569.688019 453.749579 
L 568.824276 440.337051 
L 568.190429 438.366218 
L 567.834917 440.824331 
L 567.114442 438.609892 
L 567.018168 442.574933 
L 567.127788 447.053307 
L 567.689894 453.507453 
L 567.751662 455.604169 
L 566.726606 451.438869 
L 565.452967 446.801484 
L 566.849536 454.982429 
L 566.741796 455.658059 
L 563.403346 445.501319 
L 563.497592 447.360423 
L 565.56131 455.255875 
L 565.854924 457.664706 
L 568.522579 465.434144 
L 566.6924 461.427726 
L 566.493832 461.36133 
L 566.36588 461.461678 
L 563.256142 456.509841 
L 559.12252 450.254877 
L 551.755436 438.514953 
L 538.438166 417.990741 
L 536.763904 417.331269 
L 532.426868 412.740847 
L 521.999986 399.673054 
L 510.113017 385.560615 
L 517.571028 398.670675 
L 503.191315 382.462641 
L 518.443588 404.718949 
L 517.009169 405.255842 
L 515.880274 406.177231 
L 520.721938 413.848823 
L 519.688379 414.646126 
L 514.862013 411.452244 
L 524.028131 422.778036 
L 520.658673 421.075421 
L 511.91261 414.443668 
L 529.124787 432.114732 
L 544.385271 446.911278 
L 545.220101 448.412455 
L 544.157259 448.276494 
L 545.439503 450.046333 
L 543.544489 449.285552 
L 540.787575 447.972391 
L 545.84193 452.359459 
L 550.924517 456.483753 
L 550.457778 456.661917 
L 545.963812 454.286491 
L 545.293585 454.461664 
L 544.101492 454.348878 
L 536.617039 451.483626 
L 543.043165 456.173564 
L 539.905448 455.261645 
L 540.704482 456.267501 
L 535.895743 454.791477 
L 541.93906 457.999367 
L 540.126517 457.857238 
L 534.542368 456.369749 
L 528.189002 454.822835 
L 531.835605 456.861305 
L 541.218411 460.558155 
L 540.512867 460.900469 
L 538.349875 460.859579 
L 529.903732 459.269296 
L 485.508014 449.356107 
L 466.613683 446.722571 
L 462.209532 447.714459 
L 459.095637 449.091667 
L 449.75351 449.5261 
L 410.684912 445.840537 
L 465.076608 455.838775 
L 463.14825 457.47984 
L 412.85182 454.52426 
L 424.385233 458.197621 
L 448.179052 462.208701 
L 454.461839 464.616919 
L 450.706884 466.539455 
L 434.234045 468.480274 
L 427.794203 470.907926 
L 428.253538 473.380506 
L 431.339184 475.724638 
L 435.827259 477.878767 
L 434.746504 480.318929 
L 409.281699 485.151504 
L 403.83732 488.609787 
L 389.389901 493.457568 
L 405.089685 494.327675 
L 414.212939 495.753352 
L 417.049514 498.033121 
L 400.431649 504.186394 
L 405.103257 506.245963 
L 429.938684 503.316909 
L 458.355222 498.566407 
L 456.737987 501.105401 
L 447.471633 505.9916 
L 492.526363 494.126389 
L 509.89635 489.811467 
L 513.535282 489.698319 
L 511.035151 491.751239 
L 507.834406 494.194963 
L 495.935198 501.915863 
L 483.508637 509.130147 
L 500.881272 504.17958 
L 500.782304 505.75301 
L 495.231871 510.318686 
L 508.258259 504.657092 
L 507.290499 506.666454 
L 509.280567 506.939141 
L 509.347048 508.37296 
L 506.123907 512.014033 
L 515.928044 506.900656 
L 526.265468 500.936295 
L 529.35059 499.822533 
L 528.90055 501.283137 
L 526.45009 504.390529 
L 534.631437 498.907989 
L 531.967847 502.23804 
L 533.45484 502.09115 
L 528.379696 507.900018 
L 533.379831 504.5167 
L 546.636089 492.728643 
L 549.069953 491.071221 
L 561.314103 479.602081 
L 559.687158 481.863498 
L 562.674567 478.6796 
L 562.925524 478.691593 
L 557.631658 485.921322 
L 556.709105 487.76925 
L 561.313451 481.991024 
L 567.851785 473.069942 
L 570.104805 469.666 
L 567.696105 473.755162 
L 564.572192 479.44486 
L 561.700668 485.810198 
L 560.46293 489.00461 
L 556.779604 497.602865 
L 556.053021 500.499826 
L 556.34439 501.312789 
L 554.017212 508.504887 
L 548.862106 523.593733 
L 541.2153 546.934491 
L 551.914653 521.033406 
L 564.34276 487.940873 
L 563.97034 490.375607 
L 567.696024 478.980064 
L 567.662345 479.839581 
L 569.40786 473.426381 
L 569.376964 474.536102 
L 569.477588 474.430186 
L 569.314719 477.871361 
L 569.280027 480.145798 
L 569.772464 477.277867 
L 569.990071 482.813185 
L 570.247466 486.013291 
L 570.521591 485.582421 
L 571.385335 498.994949 
L 572.019182 500.965782 
L 572.374694 498.507669 
L 573.095168 500.722108 
L 573.191442 496.757067 
L 573.081823 492.278693 
L 572.519716 485.824547 
L 572.457949 483.727831 
L 573.483004 487.893131 
L 574.756644 492.530516 
L 573.360074 484.349571 
L 573.467814 483.673941 
L 576.806264 493.830681 
L 576.712018 491.971577 
L 574.6483 484.076125 
L 574.354686 481.667294 
L 571.687031 473.897856 
L 573.51721 477.904274 
L 573.715778 477.97067 
L 573.84373 477.870322 
L 576.953468 482.822159 
L 581.08709 489.077123 
L 588.454174 500.817047 
L 601.771445 521.341259 
L 603.445706 522.000731 
L 607.782742 526.591153 
L 618.209624 539.658946 
L 630.096593 553.771385 
L 622.638582 540.661325 
L 637.018296 556.869359 
L 621.766022 534.613051 
L 623.200442 534.076158 
L 624.329336 533.154769 
L 619.487672 525.483177 
L 620.521231 524.685874 
L 625.347597 527.879756 
L 616.181479 516.553964 
L 619.550937 518.256579 
L 628.297001 524.888332 
L 611.084823 507.217268 
L 595.824339 492.420722 
L 594.98951 490.919545 
L 596.052351 491.055506 
L 594.770107 489.285667 
L 596.665122 490.046448 
L 599.422035 491.359609 
L 594.36768 486.972541 
L 589.285093 482.848247 
L 589.751832 482.670083 
L 594.245798 485.045509 
L 594.916026 484.870336 
L 596.108118 484.983122 
L 603.592572 487.848374 
L 597.166445 483.158436 
L 600.304163 484.070355 
L 599.505128 483.064499 
L 604.313867 484.540523 
L 598.27055 481.332633 
L 600.083094 481.474762 
L 605.667243 482.962251 
L 612.020609 484.509165 
L 608.374006 482.470695 
L 598.9912 478.773845 
L 599.696743 478.431531 
L 601.859735 478.472421 
L 610.305879 480.062704 
L 654.701596 489.975893 
L 673.595928 492.609429 
L 678.000078 491.617541 
L 681.113974 490.240333 
L 690.456101 489.8059 
L 729.524698 493.491463 
L 675.133003 483.493225 
L 677.061361 481.85216 
L 727.35779 484.80774 
L 715.824377 481.134379 
L 692.030558 477.123299 
L 685.747772 474.715081 
L 689.502726 472.792545 
L 705.975565 470.851726 
L 705.975565 470.851726 
" clip-path="url(#pb4d7d66015)" style="fill: none; stroke: #1f77b4; stroke-opacity: 0.6; stroke-width: 1.5; stroke-linecap: square"/>
   </g>
   <g id="line2d_15">
    <path d="M 716.028373 468.392544 
L 717.442435 465.807828 
L 717.975964 463.209806 
L 717.350448 458.077517 
L 716.474349 455.572216 
L 714.856404 453.173639 
L 712.204015 450.958284 
L 708.702051 448.952503 
L 704.84854 447.117632 
L 700.82424 445.438585 
L 694.386867 442.11333 
L 687.309992 439.354678 
L 683.619889 438.185481 
L 680.959593 436.829316 
L 676.346332 436.168175 
L 671.695029 435.674387 
L 668.817959 434.709839 
L 665.592505 433.964612 
L 661.741651 433.569286 
L 657.595888 433.426007 
L 649.228932 433.607058 
L 645.320249 433.790073 
L 641.329949 434.154453 
L 636.994008 434.845685 
L 624.984003 437.339682 
L 622.095868 437.805836 
L 619.872443 437.960518 
L 617.52313 438.280496 
L 610.839557 439.523869 
L 609.27176 439.612139 
L 607.397815 440.001801 
L 602.743145 441.790225 
L 601.105157 442.239206 
L 598.535717 443.613869 
L 595.443725 445.620263 
L 589.541332 449.887247 
L 586.511974 451.760718 
L 585.387522 452.39203 
L 584.26511 452.488177 
L 583.592799 452.709268 
L 583.080204 452.756131 
L 582.801753 452.507059 
L 581.93855 452.447795 
L 581.561902 452.356215 
L 581.261024 452.154244 
L 581.086045 451.746245 
L 580.784032 451.53627 
L 579.892731 451.638882 
L 579.535689 451.549441 
L 579.245525 451.332552 
L 578.83626 451.360124 
L 578.496831 451.251381 
L 577.30324 450.412912 
L 575.141152 450.191893 
L 574.710456 450.482082 
L 574.099227 450.032792 
L 573.726998 450.122397 
L 572.846318 451.322111 
L 572.039522 452.685212 
L 570.471621 455.657885 
L 569.760528 456.51859 
L 569.531028 456.524332 
L 569.26597 455.95117 
L 568.907292 454.450154 
L 568.578469 453.814391 
L 567.815223 455.983997 
L 567.753259 456.978195 
L 567.553574 457.126298 
L 567.446448 457.674924 
L 566.707888 456.531097 
L 564.127646 451.802155 
L 562.074676 448.188443 
L 559.720708 444.596571 
L 558.073413 441.995692 
L 556.355763 439.49648 
L 554.596685 437.152551 
L 550.853566 432.684714 
L 546.788026 428.453732 
L 544.566774 426.311026 
L 542.415836 424.481709 
L 540.439957 423.101516 
L 538.62769 422.109267 
L 536.946753 421.420735 
L 535.334857 420.920331 
L 533.775511 420.569777 
L 532.361876 420.478457 
L 531.019898 420.529537 
L 528.523443 420.98048 
L 527.485213 421.493314 
L 526.60947 422.199171 
L 525.981202 423.169424 
L 525.671483 424.450323 
L 526.149783 427.954241 
L 526.420023 429.636272 
L 526.977786 431.510436 
L 527.869963 433.594037 
L 529.198607 435.945532 
L 531.69469 439.113214 
L 534.636682 442.450352 
L 540.489159 448.541365 
L 543.158761 451.146497 
L 545.886521 453.636268 
L 548.488925 456.933273 
L 548.115341 457.22496 
L 546.945101 457.091307 
L 544.519783 456.347281 
L 540.252818 455.427333 
L 527.451615 452.864462 
L 523.350144 452.185148 
L 514.777369 451.153699 
L 506.384429 450.791165 
L 496.597469 450.65571 
L 481.05447 451.548505 
L 474.611973 451.96745 
L 468.683059 452.69382 
L 463.318015 453.706607 
L 456.804186 454.749691 
L 450.323492 456.018643 
L 444.362159 457.55836 
L 439.042542 459.351176 
L 434.338314 461.362166 
L 430.56666 463.573633 
L 427.741929 465.938097 
L 425.810309 468.406761 
L 424.181238 470.939456 
L 422.767176 473.524172 
L 422.233646 476.122194 
L 422.859163 481.254483 
L 423.735261 483.759784 
L 425.353207 486.158361 
L 428.005595 488.373716 
L 431.507559 490.379497 
L 435.36107 492.214368 
L 439.385371 493.893415 
L 445.822744 497.21867 
L 452.899618 499.977322 
L 456.589721 501.146519 
L 459.250017 502.502684 
L 463.863278 503.163825 
L 468.514581 503.657613 
L 471.391652 504.622161 
L 474.617106 505.367388 
L 478.467959 505.762714 
L 482.613722 505.905993 
L 490.980678 505.724942 
L 494.889361 505.541927 
L 498.879661 505.177547 
L 503.215602 504.486315 
L 515.225607 501.992318 
L 518.113742 501.526164 
L 520.337167 501.371482 
L 522.686481 501.051504 
L 529.370053 499.808131 
L 530.937851 499.719861 
L 532.811796 499.330199 
L 537.466466 497.541775 
L 539.104454 497.092794 
L 541.673893 495.718131 
L 544.765886 493.711737 
L 550.668279 489.444753 
L 553.697637 487.571282 
L 554.822088 486.93997 
L 555.944501 486.843823 
L 556.616812 486.622732 
L 557.129406 486.575869 
L 557.407857 486.824941 
L 558.271061 486.884205 
L 558.647708 486.975785 
L 558.948586 487.177756 
L 559.123565 487.585755 
L 559.425578 487.79573 
L 560.316879 487.693118 
L 560.673922 487.782559 
L 560.964085 487.999448 
L 561.37335 487.971876 
L 561.71278 488.080619 
L 562.90637 488.919088 
L 565.068459 489.140107 
L 565.499154 488.849918 
L 566.110384 489.299208 
L 566.482612 489.209603 
L 567.363293 488.009889 
L 568.170089 486.646788 
L 569.73799 483.674115 
L 570.449082 482.81341 
L 570.678583 482.807668 
L 570.94364 483.38083 
L 571.302318 484.881846 
L 571.631142 485.517609 
L 572.394387 483.348003 
L 572.456351 482.353805 
L 572.656036 482.205702 
L 572.763163 481.657076 
L 573.501722 482.800903 
L 576.081964 487.529845 
L 578.134935 491.143557 
L 580.488903 494.735429 
L 582.136197 497.336308 
L 583.853848 499.83552 
L 585.612925 502.179449 
L 589.356044 506.647286 
L 593.421584 510.878268 
L 595.642836 513.020974 
L 597.793774 514.850291 
L 599.769653 516.230484 
L 601.58192 517.222733 
L 603.262857 517.911265 
L 604.874753 518.411669 
L 606.434099 518.762223 
L 607.847734 518.853543 
L 609.189713 518.802463 
L 611.686167 518.35152 
L 612.724398 517.838686 
L 613.60014 517.132829 
L 614.228408 516.162576 
L 614.538128 514.881677 
L 614.059827 511.377759 
L 613.789588 509.695728 
L 613.231825 507.821564 
L 612.339647 505.737963 
L 611.011004 503.386468 
L 608.514921 500.218786 
L 605.572928 496.881648 
L 599.720452 490.790635 
L 597.05085 488.185503 
L 594.323089 485.695732 
L 591.720686 482.398727 
L 592.094269 482.10704 
L 593.26451 482.240693 
L 595.689827 482.984719 
L 599.956792 483.904667 
L 612.757995 486.467538 
L 616.859466 487.146852 
L 625.432241 488.178301 
L 633.825181 488.540835 
L 643.612141 488.67629 
L 659.15514 487.783495 
L 665.597638 487.36455 
L 671.526551 486.63818 
L 676.891595 485.625393 
L 683.405424 484.582309 
L 689.886118 483.313357 
L 695.847451 481.77364 
L 701.167069 479.980824 
L 705.871297 477.969834 
L 709.64295 475.758367 
L 712.467681 473.393903 
L 714.399302 470.925239 
L 714.399302 470.925239 
" clip-path="url(#pb4d7d66015)" style="fill: none; stroke: #008000; stroke-width: 1.5; stroke-linecap: square"/>
   </g>
   <g id="line2d_16">
    <defs>
     <path id="maf80464c67" d="M 0 3 
C 0.795609 3 1.55874 2.683901 2.12132 2.12132 
C 2.683901 1.55874 3 0.795609 3 0 
C 3 -0.795609 2.683901 -1.55874 2.12132 -2.12132 
C 1.55874 -2.683901 0.795609 -3 0 -3 
C -0.795609 -3 -1.55874 -2.683901 -2.12132 -2.12132 
C -2.683901 -1.55874 -3 -0.795609 -3 0 
C -3 0.795609 -2.683901 1.55874 -2.12132 2.12132 
C -1.55874 2.683901 -0.795609 3 0 3 
z
" style="stroke: #ff0000"/>
    </defs>
    <g clip-path="url(#pb4d7d66015)">
     <use xlink:href="#maf80464c67" x="717.975964" y="463.209806" style="fill: #ff0000; stroke: #ff0000"/>
     <use xlink:href="#maf80464c67" x="582.801753" y="452.507059" style="fill: #ff0000; stroke: #ff0000"/>
     <use xlink:href="#maf80464c67" x="526.60947" y="422.199171" style="fill: #ff0000; stroke: #ff0000"/>
     <use xlink:href="#maf80464c67" x="422.233646" y="476.122194" style="fill: #ff0000; stroke: #ff0000"/>
     <use xlink:href="#maf80464c67" x="557.407857" y="486.824941" style="fill: #ff0000; stroke: #ff0000"/>
     <use xlink:href="#maf80464c67" x="613.60014" y="517.132829" style="fill: #ff0000; stroke: #ff0000"/>
    </g>
   </g>
   <g id="patch_3">
    <path d="M 761.492805 469.666 
C 761.492805 418.926214 741.315005 370.212694 705.436558 334.334247 
C 669.558111 298.4558 620.844591 278.278 570.104805 278.278 
C 519.365019 278.278 470.6515 298.4558 434.773053 334.334247 
C 398.894606 370.212694 378.716805 418.926214 378.716805 469.666 
" style="fill: none; stroke: #000000; stroke-width: 0.8; stroke-linejoin: miter; stroke-linecap: square"/>
   </g>
   <g id="patch_4">
    <path d="M 570.104805 469.666 
L 761.492805 469.666 
" style="fill: none; stroke: #000000; stroke-width: 0.8; stroke-linejoin: miter; stroke-linecap: square"/>
   </g>
   <g id="patch_5">
    <path d="M 570.104805 469.666 
L 378.716805 469.666 
" style="fill: none; stroke: #000000; stroke-width: 0.8; stroke-linejoin: miter; stroke-linecap: square"/>
   </g>
   <g id="text_14">
    <text style="font: 30px 'DejaVu Sans', 'Bitstream Vera Sans', 'Computer Modern Sans Serif', 'Lucida Grande', 'Verdana', 'Geneva', 'Lucid', 'Arial', 'Helvetica', 'Avant Garde', sans-serif" transform="translate(291.800899 142.156187)">w184 d14 800 con t7_OJ_Distribution</text>
    <text style="font: 30px 'DejaVu Sans', 'Bitstream Vera Sans', 'Computer Modern Sans Serif', 'Lucida Grande', 'Verdana', 'Geneva', 'Lucid', 'Arial', 'Helvetica', 'Avant Garde', sans-serif" transform="translate(400.29543 176.584)">Dominant Harmonic: 2</text>
   </g>
   <g id="legend_1">
    <g id="patch_6">
     <path d="M 392.716805 555.36 
L 558.88868 555.36 
Q 562.88868 555.36 562.88868 551.36 
L 562.88868 465.29125 
Q 562.88868 461.29125 558.88868 461.29125 
L 392.716805 461.29125 
Q 388.716805 461.29125 388.716805 465.29125 
L 388.716805 551.36 
Q 388.716805 555.36 392.716805 555.36 
z
" style="fill: #ffffff; opacity: 0.5; stroke: #cccccc; stroke-linejoin: miter"/>
    </g>
    <g id="line2d_17">
     <path d="M 396.716805 477.488125 
L 416.716805 477.488125 
L 436.716805 477.488125 
" style="fill: none; stroke: #1f77b4; stroke-opacity: 0.6; stroke-width: 1.5; stroke-linecap: square"/>
    </g>
    <g id="text_15">
     <text style="font: 20px 'DejaVu Sans', 'Bitstream Vera Sans', 'Computer Modern Sans Serif', 'Lucida Grande', 'Verdana', 'Geneva', 'Lucid', 'Arial', 'Helvetica', 'Avant Garde', sans-serif; text-anchor: start" x="452.716805" y="484.488125" transform="rotate(-0 452.716805 484.488125)">Raw</text>
    </g>
    <g id="line2d_18">
     <path d="M 396.716805 506.844375 
L 416.716805 506.844375 
L 436.716805 506.844375 
" style="fill: none; stroke: #008000; stroke-width: 1.5; stroke-linecap: square"/>
    </g>
    <g id="text_16">
     <text style="font: 20px 'DejaVu Sans', 'Bitstream Vera Sans', 'Computer Modern Sans Serif', 'Lucida Grande', 'Verdana', 'Geneva', 'Lucid', 'Arial', 'Helvetica', 'Avant Garde', sans-serif; text-anchor: start" x="452.716805" y="513.844375" transform="rotate(-0 452.716805 513.844375)">Smoothed</text>
    </g>
    <g id="line2d_19">
     <g>
      <use xlink:href="#maf80464c67" x="416.716805" y="536.200625" style="fill: #ff0000; stroke: #ff0000"/>
     </g>
    </g>
    <g id="text_17">
     <text style="font: 20px 'DejaVu Sans', 'Bitstream Vera Sans', 'Computer Modern Sans Serif', 'Lucida Grande', 'Verdana', 'Geneva', 'Lucid', 'Arial', 'Helvetica', 'Avant Garde', sans-serif; text-anchor: start" x="452.716805" y="543.200625" transform="rotate(-0 452.716805 543.200625)">Peaks</text>
    </g>
   </g>
  </g>
  <g id="axes_2">
   <g id="patch_7">
    <path d="M 1038.424156 565.36 
L 1219.459091 565.36 
L 1219.459091 182.584 
L 1038.424156 182.584 
z
" style="fill: #ffffff"/>
   </g>
   <g id="patch_8">
    <path d="M 1046.653017 565.36 
L 1119.798445 565.36 
L 1119.798445 200.811429 
L 1046.653017 200.811429 
z
" clip-path="url(#pcee64a2ea1)" style="fill: #ffd700; fill-opacity: 0.5; stroke: #000000; stroke-linejoin: miter"/>
   </g>
   <g id="patch_9">
    <path d="M 1138.084802 565.36 
L 1211.23023 565.36 
L 1211.23023 389.035388 
L 1138.084802 389.035388 
z
" clip-path="url(#pcee64a2ea1)" style="fill: #ffd700; fill-opacity: 0.5; stroke: #000000; stroke-linejoin: miter"/>
   </g>
   <g id="matplotlib.axis_3">
    <g id="xtick_8">
     <g id="line2d_20">
      <defs>
       <path id="m956639fa88" d="M 0 0 
L 0 3.5 
" style="stroke: #000000; stroke-width: 0.8"/>
      </defs>
      <g>
       <use xlink:href="#m956639fa88" x="1083.225731" y="565.36" style="stroke: #000000; stroke-width: 0.8"/>
      </g>
     </g>
     <g id="text_18">
      <text style="font: 20px 'DejaVu Sans', 'Bitstream Vera Sans', 'Computer Modern Sans Serif', 'Lucida Grande', 'Verdana', 'Geneva', 'Lucid', 'Arial', 'Helvetica', 'Avant Garde', sans-serif; text-anchor: middle" x="1083.225731" y="587.556875" transform="rotate(-0 1083.225731 587.556875)">2</text>
     </g>
    </g>
    <g id="xtick_9">
     <g id="line2d_21">
      <g>
       <use xlink:href="#m956639fa88" x="1174.657516" y="565.36" style="stroke: #000000; stroke-width: 0.8"/>
      </g>
     </g>
     <g id="text_19">
      <text style="font: 20px 'DejaVu Sans', 'Bitstream Vera Sans', 'Computer Modern Sans Serif', 'Lucida Grande', 'Verdana', 'Geneva', 'Lucid', 'Arial', 'Helvetica', 'Avant Garde', sans-serif; text-anchor: middle" x="1174.657516" y="587.556875" transform="rotate(-0 1174.657516 587.556875)">4</text>
     </g>
    </g>
    <g id="text_20">
     <text style="font: 25px 'DejaVu Sans', 'Bitstream Vera Sans', 'Computer Modern Sans Serif', 'Lucida Grande', 'Verdana', 'Geneva', 'Lucid', 'Arial', 'Helvetica', 'Avant Garde', sans-serif; text-anchor: middle" x="1128.941623" y="614.712344" transform="rotate(-0 1128.941623 614.712344)">Harmonic</text>
    </g>
   </g>
   <g id="matplotlib.axis_4">
    <g id="ytick_7">
     <g id="line2d_22">
      <defs>
       <path id="m2a4188d75d" d="M 0 0 
L -3.5 0 
" style="stroke: #000000; stroke-width: 0.8"/>
      </defs>
      <g>
       <use xlink:href="#m2a4188d75d" x="1038.424156" y="565.36" style="stroke: #000000; stroke-width: 0.8"/>
      </g>
     </g>
     <g id="text_21">
      <text style="font: 20px 'DejaVu Sans', 'Bitstream Vera Sans', 'Computer Modern Sans Serif', 'Lucida Grande', 'Verdana', 'Geneva', 'Lucid', 'Arial', 'Helvetica', 'Avant Garde', sans-serif; text-anchor: end" x="1031.424156" y="572.958437" transform="rotate(-0 1031.424156 572.958437)">0.00</text>
     </g>
    </g>
    <g id="ytick_8">
     <g id="line2d_23">
      <g>
       <use xlink:href="#m2a4188d75d" x="1038.424156" y="509.110133" style="stroke: #000000; stroke-width: 0.8"/>
      </g>
     </g>
     <g id="text_22">
      <text style="font: 20px 'DejaVu Sans', 'Bitstream Vera Sans', 'Computer Modern Sans Serif', 'Lucida Grande', 'Verdana', 'Geneva', 'Lucid', 'Arial', 'Helvetica', 'Avant Garde', sans-serif; text-anchor: end" x="1031.424156" y="516.70857" transform="rotate(-0 1031.424156 516.70857)">0.02</text>
     </g>
    </g>
    <g id="ytick_9">
     <g id="line2d_24">
      <g>
       <use xlink:href="#m2a4188d75d" x="1038.424156" y="452.860266" style="stroke: #000000; stroke-width: 0.8"/>
      </g>
     </g>
     <g id="text_23">
      <text style="font: 20px 'DejaVu Sans', 'Bitstream Vera Sans', 'Computer Modern Sans Serif', 'Lucida Grande', 'Verdana', 'Geneva', 'Lucid', 'Arial', 'Helvetica', 'Avant Garde', sans-serif; text-anchor: end" x="1031.424156" y="460.458703" transform="rotate(-0 1031.424156 460.458703)">0.04</text>
     </g>
    </g>
    <g id="ytick_10">
     <g id="line2d_25">
      <g>
       <use xlink:href="#m2a4188d75d" x="1038.424156" y="396.610399" style="stroke: #000000; stroke-width: 0.8"/>
      </g>
     </g>
     <g id="text_24">
      <text style="font: 20px 'DejaVu Sans', 'Bitstream Vera Sans', 'Computer Modern Sans Serif', 'Lucida Grande', 'Verdana', 'Geneva', 'Lucid', 'Arial', 'Helvetica', 'Avant Garde', sans-serif; text-anchor: end" x="1031.424156" y="404.208836" transform="rotate(-0 1031.424156 404.208836)">0.06</text>
     </g>
    </g>
    <g id="ytick_11">
     <g id="line2d_26">
      <g>
       <use xlink:href="#m2a4188d75d" x="1038.424156" y="340.360532" style="stroke: #000000; stroke-width: 0.8"/>
      </g>
     </g>
     <g id="text_25">
      <text style="font: 20px 'DejaVu Sans', 'Bitstream Vera Sans', 'Computer Modern Sans Serif', 'Lucida Grande', 'Verdana', 'Geneva', 'Lucid', 'Arial', 'Helvetica', 'Avant Garde', sans-serif; text-anchor: end" x="1031.424156" y="347.958969" transform="rotate(-0 1031.424156 347.958969)">0.08</text>
     </g>
    </g>
    <g id="ytick_12">
     <g id="line2d_27">
      <g>
       <use xlink:href="#m2a4188d75d" x="1038.424156" y="284.110665" style="stroke: #000000; stroke-width: 0.8"/>
      </g>
     </g>
     <g id="text_26">
      <text style="font: 20px 'DejaVu Sans', 'Bitstream Vera Sans', 'Computer Modern Sans Serif', 'Lucida Grande', 'Verdana', 'Geneva', 'Lucid', 'Arial', 'Helvetica', 'Avant Garde', sans-serif; text-anchor: end" x="1031.424156" y="291.709102" transform="rotate(-0 1031.424156 291.709102)">0.10</text>
     </g>
    </g>
    <g id="ytick_13">
     <g id="line2d_28">
      <g>
       <use xlink:href="#m2a4188d75d" x="1038.424156" y="227.860798" style="stroke: #000000; stroke-width: 0.8"/>
      </g>
     </g>
     <g id="text_27">
      <text style="font: 20px 'DejaVu Sans', 'Bitstream Vera Sans', 'Computer Modern Sans Serif', 'Lucida Grande', 'Verdana', 'Geneva', 'Lucid', 'Arial', 'Helvetica', 'Avant Garde', sans-serif; text-anchor: end" x="1031.424156" y="235.459235" transform="rotate(-0 1031.424156 235.459235)">0.12</text>
     </g>
    </g>
    <g id="text_28">
     <text style="font: 25px 'DejaVu Sans', 'Bitstream Vera Sans', 'Computer Modern Sans Serif', 'Lucida Grande', 'Verdana', 'Geneva', 'Lucid', 'Arial', 'Helvetica', 'Avant Garde', sans-serif; text-anchor: middle" x="977.693687" y="373.972" transform="rotate(-90 977.693687 373.972)">Amplitude</text>
    </g>
   </g>
   <g id="patch_10">
    <path d="M 1038.424156 565.36 
L 1038.424156 182.584 
" style="fill: none; stroke: #000000; stroke-width: 0.8; stroke-linejoin: miter; stroke-linecap: square"/>
   </g>
   <g id="patch_11">
    <path d="M 1219.459091 565.36 
L 1219.459091 182.584 
" style="fill: none; stroke: #000000; stroke-width: 0.8; stroke-linejoin: miter; stroke-linecap: square"/>
   </g>
   <g id="patch_12">
    <path d="M 1038.424156 565.36 
L 1219.459091 565.36 
" style="fill: none; stroke: #000000; stroke-width: 0.8; stroke-linejoin: miter; stroke-linecap: square"/>
   </g>
   <g id="patch_13">
    <path d="M 1038.424156 182.584 
L 1219.459091 182.584 
" style="fill: none; stroke: #000000; stroke-width: 0.8; stroke-linejoin: miter; stroke-linecap: square"/>
   </g>
   <g id="text_29">
    <g id="patch_14">
     <path d="M 1210.407344 316.66155 
L 1483.407344 316.66155 
Q 1489.407344 316.66155 1489.407344 310.66155 
L 1489.407344 201.7228 
Q 1489.407344 195.7228 1483.407344 195.7228 
L 1210.407344 195.7228 
Q 1204.407344 195.7228 1204.407344 201.7228 
L 1204.407344 310.66155 
Q 1204.407344 316.66155 1210.407344 316.66155 
z
" style="fill: #f5deb3; stroke: #000000; stroke-linejoin: miter"/>
    </g>
    <text style="font: 20px 'DejaVu Sans', 'Bitstream Vera Sans', 'Computer Modern Sans Serif', 'Lucida Grande', 'Verdana', 'Geneva', 'Lucid', 'Arial', 'Helvetica', 'Avant Garde', sans-serif" transform="translate(1210.407344 216.919675)">2nd Harmonic: 0.1296</text>
    <text style="font: 20px 'DejaVu Sans', 'Bitstream Vera Sans', 'Computer Modern Sans Serif', 'Lucida Grande', 'Verdana', 'Geneva', 'Lucid', 'Arial', 'Helvetica', 'Avant Garde', sans-serif" transform="translate(1210.407344 239.3153)">4th Harmonic: 0.0627</text>
    <text style="font: 20px 'DejaVu Sans', 'Bitstream Vera Sans', 'Computer Modern Sans Serif', 'Lucida Grande', 'Verdana', 'Geneva', 'Lucid', 'Arial', 'Helvetica', 'Avant Garde', sans-serif" transform="translate(1210.407344 261.710925)">Ratio (H4/H2): 0.48</text>
    <text style="font: 20px 'DejaVu Sans', 'Bitstream Vera Sans', 'Computer Modern Sans Serif', 'Lucida Grande', 'Verdana', 'Geneva', 'Lucid', 'Arial', 'Helvetica', 'Avant Garde', sans-serif" transform="translate(1210.407344 284.10655)">Orientation peaks: 3</text>
    <text style="font: 20px 'DejaVu Sans', 'Bitstream Vera Sans', 'Computer Modern Sans Serif', 'Lucida Grande', 'Verdana', 'Geneva', 'Lucid', 'Arial', 'Helvetica', 'Avant Garde', sans-serif" transform="translate(1210.407344 306.502175)">Angle between peaks: 65.0</text>
   </g>
   <g id="text_30">
    <text style="font: 30px 'DejaVu Sans', 'Bitstream Vera Sans', 'Computer Modern Sans Serif', 'Lucida Grande', 'Verdana', 'Geneva', 'Lucid', 'Arial', 'Helvetica', 'Avant Garde', sans-serif" transform="translate(1025.333811 48.990563)">FFT Spectrum</text>
    <text style="font: 30px 'DejaVu Sans', 'Bitstream Vera Sans', 'Computer Modern Sans Serif', 'Lucida Grande', 'Verdana', 'Geneva', 'Lucid', 'Arial', 'Helvetica', 'Avant Garde', sans-serif" transform="translate(983.467405 82.584)">H4:H2 Ratio = 0.48</text>
   </g>
  </g>
 </g>
 <defs>
  <clipPath id="pb4d7d66015">
   <path d="M 761.492805 469.666 
C 761.492805 418.926214 741.315005 370.212694 705.436558 334.334247 
C 669.558111 298.4558 620.844591 278.278 570.104805 278.278 
C 519.365019 278.278 470.6515 298.4558 434.773053 334.334247 
C 398.894606 370.212694 378.716805 418.926214 378.716805 469.666 
L 570.104805 469.666 
C 570.104805 469.666 570.104805 469.666 570.104805 469.666 
C 570.104805 469.666 570.104805 469.666 570.104805 469.666 
C 570.104805 469.666 570.104805 469.666 570.104805 469.666 
C 570.104805 469.666 570.104805 469.666 570.104805 469.666 
z
"/>
  </clipPath>
  <clipPath id="pcee64a2ea1">
   <rect x="1038.424156" y="182.584" width="181.034935" height="382.776"/>
  </clipPath>
 </defs>
</svg>
